G04*
G04 #@! TF.GenerationSoftware,Altium Limited,Altium Designer,23.3.1 (30)*
G04*
G04 Layer_Physical_Order=1*
G04 Layer_Color=255*
%FSLAX44Y44*%
%MOMM*%
G71*
G04*
G04 #@! TF.SameCoordinates,77D199DB-A247-405A-9097-576A226775B8*
G04*
G04*
G04 #@! TF.FilePolarity,Positive*
G04*
G01*
G75*
%ADD11C,0.2000*%
%ADD12R,1.4000X1.5000*%
%ADD13R,0.8000X0.9500*%
%ADD14R,0.9500X0.8000*%
%ADD15R,1.0500X0.9000*%
%ADD16R,1.4000X2.0000*%
%ADD17R,1.5000X1.4000*%
%ADD27C,0.3000*%
%ADD28C,0.1250*%
%ADD29R,1.9500X1.9500*%
%ADD30C,1.9500*%
%ADD31R,1.9500X1.9500*%
%ADD32C,0.6000*%
G36*
X120063Y662515D02*
X121863D01*
X125430Y662045D01*
X128906Y661114D01*
X132231Y659736D01*
X135347Y657937D01*
X138202Y655747D01*
X140747Y653202D01*
X142937Y650347D01*
X144736Y647231D01*
X146114Y643906D01*
X147045Y640430D01*
X147515Y636863D01*
X147515Y635064D01*
Y602557D01*
X147000Y601500D01*
X146245Y601500D01*
X128000D01*
Y598044D01*
X126730Y597195D01*
X125995Y597500D01*
X124005D01*
X122168Y596739D01*
X120761Y595332D01*
X120000Y593495D01*
Y591505D01*
X120761Y589668D01*
X122168Y588261D01*
X124005Y587500D01*
X125995D01*
X126730Y587805D01*
X128000Y586956D01*
Y583500D01*
X146770Y583500D01*
X147338Y582500D01*
X146770Y581500D01*
X146245Y581500D01*
X128000D01*
Y563500D01*
X134441D01*
Y545000D01*
X130750D01*
Y533270D01*
X130750Y533000D01*
Y532000D01*
X130750Y531730D01*
Y527000D01*
X144250D01*
Y531730D01*
X144250Y532000D01*
Y533000D01*
X144250Y533270D01*
Y545000D01*
X140559D01*
Y563500D01*
X147000Y563500D01*
X147515Y562443D01*
Y442557D01*
X147000Y441500D01*
X146245Y441500D01*
X128000D01*
Y435559D01*
X121512D01*
X120332Y436739D01*
X118495Y437500D01*
X116505D01*
X114668Y436739D01*
X113261Y435332D01*
X112500Y433495D01*
Y431505D01*
X113261Y429668D01*
X114668Y428261D01*
X116505Y427500D01*
X118495D01*
X120332Y428261D01*
X121512Y429441D01*
X128000D01*
Y423500D01*
X146770Y423500D01*
X147338Y422500D01*
X146770Y421500D01*
X146245Y421500D01*
X128000D01*
Y403500D01*
X134441D01*
Y385000D01*
X130750D01*
Y373270D01*
X130750Y373000D01*
Y372000D01*
X130750Y371730D01*
Y367000D01*
X144250D01*
Y371730D01*
X144250Y372000D01*
Y373000D01*
X144250Y373270D01*
Y385000D01*
X140559D01*
Y403500D01*
X147000Y403500D01*
X147515Y402443D01*
Y282557D01*
X147000Y281500D01*
X146245Y281500D01*
X128000D01*
Y275559D01*
X121512D01*
X120332Y276739D01*
X118495Y277500D01*
X116505D01*
X114668Y276739D01*
X113261Y275332D01*
X112500Y273495D01*
Y271505D01*
X113261Y269668D01*
X114668Y268261D01*
X116505Y267500D01*
X118495D01*
X120332Y268261D01*
X121512Y269441D01*
X128000D01*
Y263500D01*
X146770Y263500D01*
X147338Y262500D01*
X146770Y261500D01*
X146245Y261500D01*
X128000D01*
Y243500D01*
X134441D01*
Y225000D01*
X130750D01*
Y213270D01*
X130750Y213000D01*
Y212000D01*
X130750Y211730D01*
Y207000D01*
X144250D01*
Y211730D01*
X144250Y212000D01*
Y213000D01*
X144250Y213270D01*
Y225000D01*
X140559D01*
Y243500D01*
X147000Y243500D01*
X147515Y242443D01*
Y205063D01*
X147523Y205022D01*
X147516Y204980D01*
X147634Y201383D01*
X147662Y201260D01*
X147654Y201134D01*
X148593Y194001D01*
X148647Y193842D01*
X148658Y193674D01*
X150520Y186725D01*
X150595Y186574D01*
X150627Y186409D01*
X153381Y179762D01*
X153474Y179622D01*
X153528Y179463D01*
X157125Y173233D01*
X157236Y173106D01*
X157310Y172955D01*
X161690Y167248D01*
X161817Y167137D01*
X161910Y166997D01*
X166997Y161910D01*
X167137Y161817D01*
X167248Y161690D01*
X172955Y157310D01*
X173106Y157236D01*
X173233Y157125D01*
X179463Y153528D01*
X179622Y153474D01*
X179762Y153381D01*
X186409Y150627D01*
X186574Y150595D01*
X186725Y150520D01*
X193674Y148658D01*
X193842Y148647D01*
X194001Y148593D01*
X201134Y147654D01*
X201260Y147662D01*
X201383Y147634D01*
X204980Y147516D01*
X205022Y147523D01*
X205063Y147515D01*
X322443D01*
X323500Y147000D01*
X323500Y146245D01*
Y140559D01*
X305000D01*
Y144250D01*
X293270D01*
X293000Y144250D01*
X292000D01*
X291730Y144250D01*
X287000D01*
Y137500D01*
Y130750D01*
X291730D01*
X292000Y130750D01*
X293000D01*
X293270Y130750D01*
X305000D01*
Y134441D01*
X323500D01*
Y128000D01*
X341500D01*
Y146245D01*
X342331Y147243D01*
X343500Y146663D01*
Y146245D01*
Y128000D01*
X342823Y127010D01*
X342168Y126739D01*
X340761Y125332D01*
X340000Y123495D01*
Y121505D01*
X340761Y119668D01*
X342168Y118261D01*
X344005Y117500D01*
X345995D01*
X347832Y118261D01*
X349239Y119668D01*
X350000Y121505D01*
Y123174D01*
X352834Y126009D01*
X352834Y126009D01*
X353498Y127001D01*
X353696Y128000D01*
X361500D01*
Y146245D01*
X362557Y147515D01*
X552443Y147515D01*
X553500Y147000D01*
X553500Y146245D01*
Y140559D01*
X535000D01*
Y144250D01*
X523270D01*
X523000Y144250D01*
X522000D01*
X521730Y144250D01*
X517000D01*
Y137500D01*
Y130750D01*
X521730D01*
X522000Y130750D01*
X523000D01*
X523270Y130750D01*
X535000D01*
Y134441D01*
X553500D01*
Y128000D01*
X571500D01*
Y146245D01*
X572331Y147243D01*
X573500Y146663D01*
Y146245D01*
Y128000D01*
X587174D01*
X594837Y120337D01*
X594837Y120337D01*
X595829Y119674D01*
X597000Y119441D01*
X600988D01*
X602168Y118261D01*
X604005Y117500D01*
X605995D01*
X607832Y118261D01*
X609239Y119668D01*
X610000Y121505D01*
Y123495D01*
X609239Y125332D01*
X607832Y126739D01*
X605995Y127500D01*
X604005D01*
X602168Y126739D01*
X600988Y125559D01*
X598267D01*
X591500Y132326D01*
Y146245D01*
X592557Y147515D01*
X782443D01*
X783500Y147000D01*
X783500Y146245D01*
Y140559D01*
X765000D01*
Y144250D01*
X753270D01*
X753000Y144250D01*
X752000D01*
X751730Y144250D01*
X747000D01*
Y137500D01*
Y130750D01*
X751730D01*
X752000Y130750D01*
X753000D01*
X753270Y130750D01*
X765000D01*
Y134441D01*
X783500D01*
Y128000D01*
X801500D01*
Y146245D01*
X802331Y147243D01*
X803500Y146663D01*
Y146245D01*
Y128000D01*
X821500D01*
Y134441D01*
X853733D01*
X861941Y126233D01*
Y124012D01*
X860761Y122832D01*
X860000Y120995D01*
Y119005D01*
X860761Y117168D01*
X862168Y115761D01*
X864005Y115000D01*
X865995D01*
X867832Y115761D01*
X869239Y117168D01*
X870000Y119005D01*
Y120995D01*
X869239Y122832D01*
X868059Y124012D01*
Y127500D01*
X867826Y128671D01*
X867163Y129663D01*
X867163Y129663D01*
X857163Y139663D01*
X856171Y140326D01*
X855000Y140559D01*
X855000Y140559D01*
X821500D01*
Y146245D01*
X822557Y147515D01*
X855063D01*
X856863D01*
X860431Y147045D01*
X863906Y146114D01*
X867231Y144736D01*
X870347Y142937D01*
X873202Y140747D01*
X875747Y138202D01*
X877937Y135347D01*
X879736Y132231D01*
X881114Y128906D01*
X882045Y125430D01*
X882515Y121863D01*
X882515Y120063D01*
Y77039D01*
X882515Y77039D01*
X872725D01*
X872426Y78309D01*
X874402Y80285D01*
X875949Y82965D01*
X876750Y85953D01*
Y89047D01*
X875949Y92035D01*
X874402Y94715D01*
X872215Y96902D01*
X869535Y98449D01*
X866547Y99250D01*
X863453D01*
X860465Y98449D01*
X857785Y96902D01*
X855598Y94715D01*
X854051Y92035D01*
X853250Y89047D01*
Y85953D01*
X854051Y82965D01*
X855013Y81298D01*
X853391Y79676D01*
X751609D01*
X749987Y81298D01*
X750949Y82965D01*
X751750Y85953D01*
Y89047D01*
X750949Y92035D01*
X749402Y94715D01*
X747215Y96902D01*
X744535Y98449D01*
X741547Y99250D01*
X738453D01*
X735465Y98449D01*
X732785Y96902D01*
X730598Y94715D01*
X729051Y92035D01*
X728250Y89047D01*
Y85953D01*
X728491Y85053D01*
X727497Y84059D01*
X721750D01*
Y86730D01*
X721750Y87000D01*
Y88000D01*
X721750Y88270D01*
Y93000D01*
X715000D01*
Y94000D01*
X714000D01*
Y100000D01*
X708520D01*
X708250Y100000D01*
X707250Y100652D01*
Y102000D01*
X692750D01*
Y98372D01*
X691480Y97846D01*
X667500Y121826D01*
Y123495D01*
X666739Y125332D01*
X665332Y126739D01*
X663495Y127500D01*
X661505D01*
X659668Y126739D01*
X658261Y125332D01*
X657500Y123495D01*
Y121505D01*
X658261Y119668D01*
X659668Y118261D01*
X661505Y117500D01*
X663174D01*
X689088Y91587D01*
X689088Y91586D01*
X690080Y90923D01*
X691251Y90690D01*
X691251Y90690D01*
X692750D01*
Y89000D01*
X706980D01*
X707250Y89000D01*
X708250Y88348D01*
X708250Y88000D01*
Y87000D01*
X708250Y86652D01*
X707250Y86000D01*
X692750D01*
Y75000D01*
X667250D01*
Y86000D01*
X652750D01*
Y82559D01*
X647117D01*
X646166Y83774D01*
X646750Y85953D01*
Y89047D01*
X645949Y92035D01*
X644402Y94715D01*
X642215Y96902D01*
X639535Y98449D01*
X636547Y99250D01*
X633453D01*
X630465Y98449D01*
X627785Y96902D01*
X625598Y94715D01*
X624051Y92035D01*
X623250Y89047D01*
Y85953D01*
X624051Y82965D01*
X625013Y81298D01*
X621391Y77676D01*
X523609D01*
X519987Y81298D01*
X520949Y82965D01*
X521750Y85953D01*
Y89047D01*
X520949Y92035D01*
X519402Y94715D01*
X517215Y96902D01*
X514535Y98449D01*
X511547Y99250D01*
X508453D01*
X505465Y98449D01*
X502785Y96902D01*
X500598Y94715D01*
X499051Y92035D01*
X498250Y89047D01*
Y86559D01*
X491750D01*
Y89230D01*
X491750Y89500D01*
Y90500D01*
X491750Y90770D01*
Y95500D01*
X485000D01*
X478250D01*
Y90770D01*
X478250Y90500D01*
Y89500D01*
X478250Y89230D01*
Y77676D01*
X413590D01*
X413063Y78946D01*
X414402Y80285D01*
X415949Y82965D01*
X416750Y85953D01*
Y89047D01*
X415949Y92035D01*
X414402Y94715D01*
X412215Y96902D01*
X409535Y98449D01*
X406547Y99250D01*
X403453D01*
X400465Y98449D01*
X397785Y96902D01*
X395598Y94715D01*
X394051Y92035D01*
X393250Y89047D01*
Y85953D01*
X394051Y82965D01*
X394716Y81812D01*
X393905Y80676D01*
X322044D01*
X321517Y81946D01*
X321739Y82168D01*
X322500Y84005D01*
Y85995D01*
X321739Y87832D01*
X320332Y89239D01*
X318495Y90000D01*
X316505D01*
X314668Y89239D01*
X313488Y88059D01*
X301267D01*
X287163Y102163D01*
X286171Y102826D01*
X285000Y103059D01*
X285000Y103059D01*
X262250D01*
Y110000D01*
X247750D01*
Y97000D01*
X258204D01*
X258500Y96941D01*
X258500Y96941D01*
X271028D01*
X271554Y95671D01*
X270598Y94715D01*
X269051Y92035D01*
X268655Y90559D01*
X262250D01*
Y94000D01*
X247750D01*
Y90559D01*
X244250D01*
Y93230D01*
X244250Y93500D01*
Y94500D01*
X244250Y94770D01*
Y99500D01*
X237500D01*
X230750D01*
Y94770D01*
X230750Y94500D01*
Y93500D01*
X230750Y93230D01*
Y81500D01*
X229821Y80676D01*
X219109D01*
X192892Y106892D01*
X192024Y107473D01*
X191000Y107676D01*
X191000Y107676D01*
X179303D01*
X179239Y107832D01*
X177832Y109239D01*
X175995Y110000D01*
X174005D01*
X172168Y109239D01*
X170770Y107841D01*
X170719Y107842D01*
X169500Y108106D01*
Y111500D01*
X161500D01*
Y100500D01*
X169500D01*
Y101894D01*
X170719Y102158D01*
X170770Y102159D01*
X172168Y100761D01*
X174005Y100000D01*
X175995D01*
X176444Y100186D01*
X177500Y99481D01*
Y99005D01*
X178261Y97168D01*
X179668Y95761D01*
X181505Y95000D01*
X183495D01*
X185332Y95761D01*
X186739Y97168D01*
X187723Y96492D01*
X188182Y96033D01*
X187884Y94535D01*
X187168Y94239D01*
X185761Y92832D01*
X185000Y90995D01*
Y89005D01*
X185761Y87168D01*
X187168Y85761D01*
X189005Y85000D01*
X190995D01*
X191150Y85064D01*
X200042Y76173D01*
X199556Y75000D01*
X172500D01*
Y75995D01*
X171739Y77832D01*
X170332Y79239D01*
X168495Y80000D01*
X166505D01*
X164668Y79239D01*
X163261Y77832D01*
X162900Y76960D01*
X162500Y77039D01*
X147039D01*
Y125000D01*
X147039Y125000D01*
X146884Y125780D01*
X146442Y126442D01*
X146442Y126442D01*
X142692Y130192D01*
X142692Y130192D01*
X85869Y187015D01*
X86430Y188250D01*
X89047D01*
X92035Y189051D01*
X94715Y190598D01*
X96902Y192785D01*
X98449Y195465D01*
X99250Y198453D01*
Y201547D01*
X98449Y204535D01*
X96902Y207215D01*
X94715Y209402D01*
X92035Y210949D01*
X89047Y211750D01*
X85953D01*
X82965Y210949D01*
X81298Y209987D01*
X80176Y211109D01*
Y313891D01*
X81298Y315013D01*
X82965Y314051D01*
X85953Y313250D01*
X89047D01*
X92035Y314051D01*
X94715Y315598D01*
X96902Y317785D01*
X98449Y320465D01*
X99250Y323453D01*
Y326547D01*
X98449Y329535D01*
X96902Y332215D01*
X94715Y334402D01*
X92035Y335949D01*
X89047Y336750D01*
X85953D01*
X82965Y335949D01*
X80285Y334402D01*
X78309Y332426D01*
X77039Y332725D01*
Y352275D01*
X78309Y352574D01*
X80285Y350598D01*
X82965Y349051D01*
X85953Y348250D01*
X89047D01*
X92035Y349051D01*
X94715Y350598D01*
X96902Y352785D01*
X98449Y355465D01*
X99250Y358453D01*
Y361547D01*
X98449Y364535D01*
X96902Y367215D01*
X94715Y369402D01*
X92035Y370949D01*
X89047Y371750D01*
X85953D01*
X82965Y370949D01*
X81298Y369987D01*
X80176Y371109D01*
Y473891D01*
X81298Y475013D01*
X82965Y474051D01*
X85953Y473250D01*
X89047D01*
X92035Y474051D01*
X94715Y475598D01*
X96902Y477785D01*
X98449Y480465D01*
X99250Y483453D01*
Y486547D01*
X98449Y489535D01*
X96902Y492215D01*
X94715Y494402D01*
X92035Y495949D01*
X89047Y496750D01*
X85953D01*
X82965Y495949D01*
X80285Y494402D01*
X78309Y492426D01*
X77039Y492725D01*
Y512275D01*
X78309Y512574D01*
X80285Y510598D01*
X82965Y509051D01*
X85953Y508250D01*
X89047D01*
X92035Y509051D01*
X94715Y510598D01*
X96902Y512785D01*
X98449Y515465D01*
X99250Y518453D01*
Y521547D01*
X98449Y524535D01*
X96902Y527215D01*
X94715Y529402D01*
X92035Y530949D01*
X89047Y531750D01*
X85953D01*
X82965Y530949D01*
X81298Y529987D01*
X80176Y531109D01*
Y633891D01*
X81298Y635013D01*
X82965Y634051D01*
X85953Y633250D01*
X89047D01*
X92035Y634051D01*
X94715Y635598D01*
X96902Y637785D01*
X98449Y640465D01*
X99250Y643453D01*
Y646547D01*
X98449Y649535D01*
X96902Y652215D01*
X94715Y654402D01*
X92035Y655949D01*
X89047Y656750D01*
X85953D01*
X82965Y655949D01*
X80285Y654402D01*
X78309Y652426D01*
X77039Y652725D01*
Y662515D01*
X120063D01*
D02*
G37*
G36*
X75000Y662515D02*
Y635887D01*
X74823Y635000D01*
X74824Y635000D01*
Y530000D01*
X74823Y530000D01*
X75000Y529113D01*
Y475887D01*
X74823Y475000D01*
X74824Y475000D01*
Y370000D01*
X74823Y370000D01*
X75000Y369113D01*
Y315887D01*
X74823Y315000D01*
X74824Y315000D01*
Y210000D01*
X74823Y210000D01*
X75000Y209113D01*
Y195000D01*
X141250Y128750D01*
X145000Y125000D01*
Y75000D01*
X162500D01*
Y74005D01*
X162686Y73556D01*
X161981Y72500D01*
X161505D01*
X159668Y71739D01*
X158261Y70332D01*
X157500Y68495D01*
Y66505D01*
X158261Y64668D01*
X159668Y63261D01*
X161505Y62500D01*
X163495D01*
X165332Y63261D01*
X165395Y63324D01*
X472891D01*
X478065Y58150D01*
X478000Y57994D01*
Y56005D01*
X478761Y54168D01*
X480168Y52761D01*
X482005Y52000D01*
X483995D01*
X485832Y52761D01*
X487239Y54168D01*
X488000Y56005D01*
Y57994D01*
X487239Y59832D01*
X486071Y61000D01*
X487239Y62168D01*
X488000Y64005D01*
Y65995D01*
X487239Y67832D01*
X487018Y68054D01*
X487544Y69324D01*
X724500D01*
X724500Y69324D01*
X725524Y69527D01*
X726393Y70107D01*
X731285Y75000D01*
X748768D01*
X749476Y74527D01*
X750500Y74324D01*
X750500Y74324D01*
X854500D01*
X854500Y74324D01*
X855524Y74527D01*
X856232Y75000D01*
X882515D01*
Y30064D01*
Y28264D01*
X882045Y24696D01*
X881114Y21221D01*
X879736Y17896D01*
X877937Y14780D01*
X875747Y11925D01*
X873202Y9380D01*
X870347Y7190D01*
X867231Y5390D01*
X863906Y4013D01*
X860431Y3082D01*
X856863Y2612D01*
X855063D01*
X30064Y2612D01*
X28264D01*
X24697Y3082D01*
X21221Y4013D01*
X17896Y5390D01*
X14780Y7190D01*
X11925Y9380D01*
X9380Y11925D01*
X7190Y14780D01*
X5390Y17896D01*
X4013Y21221D01*
X3082Y24697D01*
X2612Y28264D01*
X2612Y30064D01*
X2612Y635064D01*
Y636863D01*
X3082Y640430D01*
X4013Y643906D01*
X5390Y647231D01*
X7190Y650347D01*
X9380Y653202D01*
X11925Y655747D01*
X14780Y657937D01*
X17896Y659736D01*
X21221Y661114D01*
X24697Y662045D01*
X28264Y662515D01*
X30064Y662515D01*
X75000D01*
D02*
G37*
%LPC*%
G36*
X144250Y525000D02*
X138500D01*
Y520000D01*
X144250D01*
Y525000D01*
D02*
G37*
G36*
X136500D02*
X130750D01*
Y520000D01*
X136500D01*
Y525000D01*
D02*
G37*
G36*
X144250Y365000D02*
X138500D01*
Y360000D01*
X144250D01*
Y365000D01*
D02*
G37*
G36*
X136500D02*
X130750D01*
Y360000D01*
X136500D01*
Y365000D01*
D02*
G37*
G36*
X144250Y205000D02*
X138500D01*
Y200000D01*
X144250D01*
Y205000D01*
D02*
G37*
G36*
X136500D02*
X130750D01*
Y200000D01*
X136500D01*
Y205000D01*
D02*
G37*
G36*
X745000Y144250D02*
X740000D01*
Y138500D01*
X745000D01*
Y144250D01*
D02*
G37*
G36*
X285000D02*
X280000D01*
Y138500D01*
X285000D01*
Y144250D01*
D02*
G37*
G36*
X515000D02*
X510000D01*
Y138500D01*
X515000D01*
Y144250D01*
D02*
G37*
G36*
Y136500D02*
X510000D01*
Y130750D01*
X515000D01*
Y136500D01*
D02*
G37*
G36*
X285000Y136500D02*
X280000D01*
Y130750D01*
X285000D01*
Y136500D01*
D02*
G37*
G36*
X745000Y136500D02*
X740000D01*
Y130750D01*
X745000D01*
Y136500D01*
D02*
G37*
G36*
X169500Y124500D02*
X161500D01*
Y113500D01*
X169500D01*
Y124500D01*
D02*
G37*
G36*
X159500D02*
X151500D01*
Y113500D01*
X159500D01*
Y124500D01*
D02*
G37*
G36*
X244250Y106500D02*
X238500D01*
Y101500D01*
X244250D01*
Y106500D01*
D02*
G37*
G36*
X236500D02*
X230750D01*
Y101500D01*
X236500D01*
Y106500D01*
D02*
G37*
G36*
X159500Y111500D02*
X151500D01*
Y100500D01*
X159500D01*
Y111500D01*
D02*
G37*
G36*
X491750Y102500D02*
X486000D01*
Y97500D01*
X491750D01*
Y102500D01*
D02*
G37*
G36*
X484000D02*
X478250D01*
Y97500D01*
X484000D01*
Y102500D01*
D02*
G37*
G36*
X716000Y100000D02*
Y95000D01*
X721750D01*
Y100000D01*
X716000D01*
D02*
G37*
G36*
X653495Y107500D02*
X651505D01*
X649668Y106739D01*
X648261Y105332D01*
X647500Y103495D01*
Y101505D01*
X648261Y99668D01*
X649668Y98261D01*
X651505Y97500D01*
X652203D01*
X652750Y96953D01*
Y89000D01*
X667250D01*
Y102000D01*
X657797D01*
X657500Y102297D01*
Y103495D01*
X656739Y105332D01*
X655332Y106739D01*
X653495Y107500D01*
D02*
G37*
G36*
X39047Y656750D02*
X38250D01*
Y645750D01*
X49250D01*
Y646547D01*
X48449Y649535D01*
X46902Y652215D01*
X44715Y654402D01*
X42035Y655949D01*
X39047Y656750D01*
D02*
G37*
G36*
X36750D02*
X35953D01*
X32965Y655949D01*
X30285Y654402D01*
X28098Y652215D01*
X26551Y649535D01*
X25750Y646547D01*
Y645750D01*
X36750D01*
Y656750D01*
D02*
G37*
G36*
X49250Y644250D02*
X38250D01*
Y633250D01*
X39047D01*
X42035Y634051D01*
X44715Y635598D01*
X46902Y637785D01*
X48449Y640465D01*
X49250Y643453D01*
Y644250D01*
D02*
G37*
G36*
X36750D02*
X25750D01*
Y643453D01*
X26551Y640465D01*
X28098Y637785D01*
X30285Y635598D01*
X32965Y634051D01*
X35953Y633250D01*
X36750D01*
Y644250D01*
D02*
G37*
G36*
X49250Y531750D02*
X38250D01*
Y520750D01*
X49250D01*
Y531750D01*
D02*
G37*
G36*
X36750D02*
X25750D01*
Y520750D01*
X36750D01*
Y531750D01*
D02*
G37*
G36*
X49250Y519250D02*
X38250D01*
Y508250D01*
X49250D01*
Y519250D01*
D02*
G37*
G36*
X36750D02*
X25750D01*
Y508250D01*
X36750D01*
Y519250D01*
D02*
G37*
G36*
X39047Y496750D02*
X38250D01*
Y485750D01*
X49250D01*
Y486547D01*
X48449Y489535D01*
X46902Y492215D01*
X44715Y494402D01*
X42035Y495949D01*
X39047Y496750D01*
D02*
G37*
G36*
X36750D02*
X35953D01*
X32965Y495949D01*
X30285Y494402D01*
X28098Y492215D01*
X26551Y489535D01*
X25750Y486547D01*
Y485750D01*
X36750D01*
Y496750D01*
D02*
G37*
G36*
X49250Y484250D02*
X38250D01*
Y473250D01*
X39047D01*
X42035Y474051D01*
X44715Y475598D01*
X46902Y477785D01*
X48449Y480465D01*
X49250Y483453D01*
Y484250D01*
D02*
G37*
G36*
X36750D02*
X25750D01*
Y483453D01*
X26551Y480465D01*
X28098Y477785D01*
X30285Y475598D01*
X32965Y474051D01*
X35953Y473250D01*
X36750D01*
Y484250D01*
D02*
G37*
G36*
X49250Y371750D02*
X38250D01*
Y360750D01*
X49250D01*
Y371750D01*
D02*
G37*
G36*
X36750D02*
X25750D01*
Y360750D01*
X36750D01*
Y371750D01*
D02*
G37*
G36*
X49250Y359250D02*
X38250D01*
Y348250D01*
X49250D01*
Y359250D01*
D02*
G37*
G36*
X36750D02*
X25750D01*
Y348250D01*
X36750D01*
Y359250D01*
D02*
G37*
G36*
X39047Y336750D02*
X38250D01*
Y325750D01*
X49250D01*
Y326547D01*
X48449Y329535D01*
X46902Y332215D01*
X44715Y334402D01*
X42035Y335949D01*
X39047Y336750D01*
D02*
G37*
G36*
X36750D02*
X35953D01*
X32965Y335949D01*
X30285Y334402D01*
X28098Y332215D01*
X26551Y329535D01*
X25750Y326547D01*
Y325750D01*
X36750D01*
Y336750D01*
D02*
G37*
G36*
X49250Y324250D02*
X38250D01*
Y313250D01*
X39047D01*
X42035Y314051D01*
X44715Y315598D01*
X46902Y317785D01*
X48449Y320465D01*
X49250Y323453D01*
Y324250D01*
D02*
G37*
G36*
X36750D02*
X25750D01*
Y323453D01*
X26551Y320465D01*
X28098Y317785D01*
X30285Y315598D01*
X32965Y314051D01*
X35953Y313250D01*
X36750D01*
Y324250D01*
D02*
G37*
G36*
X49250Y211750D02*
X38250D01*
Y200750D01*
X49250D01*
Y211750D01*
D02*
G37*
G36*
X36750D02*
X25750D01*
Y200750D01*
X36750D01*
Y211750D01*
D02*
G37*
G36*
X49250Y199250D02*
X38250D01*
Y188250D01*
X49250D01*
Y199250D01*
D02*
G37*
G36*
X36750D02*
X25750D01*
Y188250D01*
X36750D01*
Y199250D01*
D02*
G37*
G36*
X133500Y124500D02*
X125500D01*
Y113500D01*
X133500D01*
Y124500D01*
D02*
G37*
G36*
X123500D02*
X115500D01*
Y113500D01*
X123500D01*
Y124500D01*
D02*
G37*
G36*
X63642Y100820D02*
X61877Y100681D01*
X61348D01*
X61216Y100655D01*
X61082Y100664D01*
X60230Y100552D01*
X57826Y100363D01*
X56652Y100081D01*
X56533Y100065D01*
X56406Y100022D01*
X56272Y100013D01*
X55422Y99785D01*
X52154Y99001D01*
X46764Y96768D01*
X43898Y95012D01*
X43136Y94572D01*
X43035Y94483D01*
X42914Y94424D01*
X42819Y94351D01*
X41789Y93720D01*
X39956Y92154D01*
X39274Y91631D01*
X39186Y91530D01*
X39074Y91455D01*
X38700Y91081D01*
X37353Y89931D01*
X36203Y88585D01*
X35829Y88211D01*
X35755Y88099D01*
X35654Y88010D01*
X35130Y87328D01*
X33564Y85495D01*
X32934Y84466D01*
X32860Y84370D01*
X32801Y84249D01*
X32712Y84148D01*
X32272Y83386D01*
X30516Y80521D01*
X28284Y75131D01*
X27499Y71863D01*
X27271Y71013D01*
X27262Y70879D01*
X27219Y70751D01*
X27204Y70632D01*
X26922Y69458D01*
X26733Y67055D01*
X26620Y66202D01*
X26629Y66068D01*
X26603Y65936D01*
Y65407D01*
X26464Y63642D01*
X26603Y61877D01*
Y61348D01*
X26629Y61216D01*
X26620Y61082D01*
X26733Y60230D01*
X26922Y57826D01*
X27204Y56653D01*
X27219Y56533D01*
X27262Y56406D01*
X27271Y56272D01*
X27499Y55421D01*
X28284Y52154D01*
X30516Y46764D01*
X32272Y43899D01*
X32712Y43136D01*
X32801Y43035D01*
X32861Y42914D01*
X32934Y42818D01*
X33564Y41789D01*
X35130Y39956D01*
X35654Y39274D01*
X35755Y39186D01*
X35829Y39074D01*
X36203Y38699D01*
X37353Y37353D01*
X38699Y36203D01*
X39074Y35829D01*
X39186Y35755D01*
X39274Y35654D01*
X39956Y35130D01*
X41789Y33564D01*
X42818Y32934D01*
X42914Y32860D01*
X43035Y32801D01*
X43136Y32712D01*
X43899Y32272D01*
X46764Y30516D01*
X52154Y28284D01*
X55421Y27499D01*
X56272Y27271D01*
X56406Y27262D01*
X56533Y27219D01*
X56653Y27204D01*
X57826Y26922D01*
X60230Y26733D01*
X61082Y26620D01*
X61216Y26629D01*
X61348Y26603D01*
X61877D01*
X63642Y26464D01*
X65407Y26603D01*
X65936D01*
X66068Y26629D01*
X66202Y26620D01*
X67055Y26733D01*
X69458Y26922D01*
X70632Y27204D01*
X70751Y27219D01*
X70879Y27262D01*
X71013Y27271D01*
X71863Y27499D01*
X75131Y28284D01*
X80521Y30516D01*
X83386Y32272D01*
X84148Y32712D01*
X84249Y32801D01*
X84370Y32861D01*
X84466Y32934D01*
X85495Y33564D01*
X87328Y35130D01*
X88010Y35654D01*
X88099Y35755D01*
X88211Y35829D01*
X88585Y36203D01*
X89931Y37353D01*
X91081Y38700D01*
X91455Y39074D01*
X91530Y39186D01*
X91631Y39274D01*
X92154Y39956D01*
X93720Y41789D01*
X94351Y42818D01*
X94424Y42914D01*
X94483Y43035D01*
X94572Y43136D01*
X95012Y43898D01*
X96768Y46764D01*
X99001Y52154D01*
X99785Y55422D01*
X100013Y56272D01*
X100022Y56406D01*
X100065Y56533D01*
X100081Y56652D01*
X100363Y57826D01*
X100552Y60230D01*
X100664Y61082D01*
X100655Y61216D01*
X100681Y61348D01*
Y61877D01*
X100820Y63642D01*
X100681Y65407D01*
Y65936D01*
X100655Y66068D01*
X100664Y66202D01*
X100552Y67055D01*
X100363Y69458D01*
X100081Y70632D01*
X100065Y70751D01*
X100022Y70879D01*
X100013Y71013D01*
X99785Y71862D01*
X99001Y75131D01*
X96768Y80521D01*
X95012Y83386D01*
X94572Y84148D01*
X94483Y84249D01*
X94424Y84370D01*
X94351Y84466D01*
X93720Y85495D01*
X92154Y87329D01*
X91631Y88010D01*
X91530Y88099D01*
X91455Y88211D01*
X91081Y88584D01*
X89931Y89931D01*
X88584Y91081D01*
X88211Y91455D01*
X88099Y91530D01*
X88010Y91631D01*
X87329Y92154D01*
X85495Y93720D01*
X84466Y94351D01*
X84370Y94424D01*
X84249Y94483D01*
X84148Y94572D01*
X83386Y95012D01*
X80521Y96768D01*
X75131Y99001D01*
X71862Y99785D01*
X71013Y100013D01*
X70879Y100022D01*
X70751Y100065D01*
X70632Y100081D01*
X69458Y100363D01*
X67055Y100552D01*
X66202Y100664D01*
X66068Y100655D01*
X65936Y100681D01*
X65407D01*
X63642Y100820D01*
D02*
G37*
G36*
X133500Y111500D02*
X125500D01*
Y100500D01*
X133500D01*
Y111500D01*
D02*
G37*
G36*
X123500D02*
X115500D01*
Y100500D01*
X123500D01*
Y111500D01*
D02*
G37*
G36*
X741547Y49250D02*
X740750D01*
Y38250D01*
X751750D01*
Y39047D01*
X750949Y42035D01*
X749402Y44715D01*
X747215Y46902D01*
X744535Y48449D01*
X741547Y49250D01*
D02*
G37*
G36*
X876750D02*
X865750D01*
Y38250D01*
X876750D01*
Y49250D01*
D02*
G37*
G36*
X646750D02*
X635750D01*
Y38250D01*
X646750D01*
Y49250D01*
D02*
G37*
G36*
X416750D02*
X405750D01*
Y38250D01*
X416750D01*
Y49250D01*
D02*
G37*
G36*
X281547D02*
X280750D01*
Y38250D01*
X291750D01*
Y39047D01*
X290949Y42035D01*
X289402Y44715D01*
X287215Y46902D01*
X284535Y48449D01*
X281547Y49250D01*
D02*
G37*
G36*
X511547D02*
X510750D01*
Y38250D01*
X521750D01*
Y39047D01*
X520949Y42035D01*
X519402Y44715D01*
X517215Y46902D01*
X514535Y48449D01*
X511547Y49250D01*
D02*
G37*
G36*
X634250D02*
X623250D01*
Y38250D01*
X634250D01*
Y49250D01*
D02*
G37*
G36*
X404250D02*
X393250D01*
Y38250D01*
X404250D01*
Y49250D01*
D02*
G37*
G36*
X279250D02*
X278453D01*
X275465Y48449D01*
X272785Y46902D01*
X270598Y44715D01*
X269051Y42035D01*
X268250Y39047D01*
Y38250D01*
X279250D01*
Y49250D01*
D02*
G37*
G36*
X509250D02*
X508453D01*
X505465Y48449D01*
X502785Y46902D01*
X500598Y44715D01*
X499051Y42035D01*
X498250Y39047D01*
Y38250D01*
X509250D01*
Y49250D01*
D02*
G37*
G36*
X739250D02*
X738453D01*
X735465Y48449D01*
X732785Y46902D01*
X730598Y44715D01*
X729051Y42035D01*
X728250Y39047D01*
Y38250D01*
X739250D01*
Y49250D01*
D02*
G37*
G36*
X864250D02*
X853250D01*
Y38250D01*
X864250D01*
Y49250D01*
D02*
G37*
G36*
X876750Y36750D02*
X865750D01*
Y25750D01*
X876750D01*
Y36750D01*
D02*
G37*
G36*
X864250D02*
X853250D01*
Y25750D01*
X864250D01*
Y36750D01*
D02*
G37*
G36*
X751750D02*
X740750D01*
Y25750D01*
X741547D01*
X744535Y26551D01*
X747215Y28098D01*
X749402Y30285D01*
X750949Y32965D01*
X751750Y35953D01*
Y36750D01*
D02*
G37*
G36*
X739250D02*
X728250D01*
Y35953D01*
X729051Y32965D01*
X730598Y30285D01*
X732785Y28098D01*
X735465Y26551D01*
X738453Y25750D01*
X739250D01*
Y36750D01*
D02*
G37*
G36*
X646750D02*
X635750D01*
Y25750D01*
X646750D01*
Y36750D01*
D02*
G37*
G36*
X634250D02*
X623250D01*
Y25750D01*
X634250D01*
Y36750D01*
D02*
G37*
G36*
X521750D02*
X510750D01*
Y25750D01*
X511547D01*
X514535Y26551D01*
X517215Y28098D01*
X519402Y30285D01*
X520949Y32965D01*
X521750Y35953D01*
Y36750D01*
D02*
G37*
G36*
X509250D02*
X498250D01*
Y35953D01*
X499051Y32965D01*
X500598Y30285D01*
X502785Y28098D01*
X505465Y26551D01*
X508453Y25750D01*
X509250D01*
Y36750D01*
D02*
G37*
G36*
X416750D02*
X405750D01*
Y25750D01*
X416750D01*
Y36750D01*
D02*
G37*
G36*
X404250D02*
X393250D01*
Y25750D01*
X404250D01*
Y36750D01*
D02*
G37*
G36*
X291750D02*
X280750D01*
Y25750D01*
X281547D01*
X284535Y26551D01*
X287215Y28098D01*
X289402Y30285D01*
X290949Y32965D01*
X291750Y35953D01*
Y36750D01*
D02*
G37*
G36*
X279250D02*
X268250D01*
Y35953D01*
X269051Y32965D01*
X270598Y30285D01*
X272785Y28098D01*
X275465Y26551D01*
X278453Y25750D01*
X279250D01*
Y36750D01*
D02*
G37*
G36*
X625995Y17500D02*
X624005D01*
X622168Y16739D01*
X621497Y16069D01*
X376003D01*
X375332Y16739D01*
X373495Y17500D01*
X371505D01*
X369668Y16739D01*
X368261Y15332D01*
X367500Y13495D01*
Y11505D01*
X368261Y9668D01*
X369668Y8261D01*
X371505Y7500D01*
X373495D01*
X375332Y8261D01*
X376003Y8931D01*
X621497D01*
X622168Y8261D01*
X624005Y7500D01*
X625995D01*
X627832Y8261D01*
X629239Y9668D01*
X630000Y11505D01*
Y13495D01*
X629239Y15332D01*
X627832Y16739D01*
X625995Y17500D01*
D02*
G37*
%LPD*%
D11*
X529000Y137500D02*
X562500D01*
X137500Y379000D02*
Y412500D01*
X865000Y120000D02*
Y127500D01*
X855000Y137500D02*
X865000Y127500D01*
X812500Y137500D02*
X855000D01*
X597000Y122500D02*
X605000D01*
X582500Y137000D02*
X597000Y122500D01*
X582500Y137000D02*
Y137500D01*
X125000Y592500D02*
X137500D01*
X645031Y79500D02*
X660000D01*
X635000Y87500D02*
X637031D01*
X645031Y79500D01*
X698249Y93749D02*
X700000Y95500D01*
X662500Y122500D02*
X691251Y93749D01*
X698249D01*
X700000Y79500D02*
X701500Y81000D01*
X715000D01*
X728764D01*
X735265Y87500D02*
X740000D01*
X728764Y81000D02*
X735265Y87500D01*
X350672Y128172D02*
Y135672D01*
X352500Y137500D01*
X345000Y122500D02*
X350672Y128172D01*
X117500Y272500D02*
X137500D01*
X737500Y85000D02*
X740000Y87500D01*
X300000Y85000D02*
X317500D01*
X258500Y100000D02*
X285000D01*
X300000Y85000D01*
X255000Y103500D02*
X258500Y100000D01*
X237500Y87500D02*
X255000D01*
X280000D01*
X505265D02*
X510000D01*
X501264Y83500D02*
X505265Y87500D01*
X485000Y83500D02*
X501264D01*
X759000Y137500D02*
X792500D01*
X299000D02*
X332500D01*
X137500Y219000D02*
Y252500D01*
X137500Y272500D02*
X137500Y272500D01*
X117500Y432500D02*
X137500D01*
Y539000D02*
Y572500D01*
D12*
X812500Y137500D02*
D03*
X792500D02*
D03*
X562500D02*
D03*
X582500D02*
D03*
X352500D02*
D03*
X332500D02*
D03*
D13*
X746000D02*
D03*
X759000D02*
D03*
X529000D02*
D03*
X516000D02*
D03*
X286000D02*
D03*
X299000D02*
D03*
D14*
X715000Y81000D02*
D03*
Y94000D02*
D03*
X485000Y83500D02*
D03*
Y96500D02*
D03*
X237500Y87500D02*
D03*
Y100500D02*
D03*
X137500Y219000D02*
D03*
Y206000D02*
D03*
Y379000D02*
D03*
Y366000D02*
D03*
Y539000D02*
D03*
Y526000D02*
D03*
D15*
X700000Y79500D02*
D03*
Y95500D02*
D03*
X660000D02*
D03*
Y79500D02*
D03*
X255000Y103500D02*
D03*
Y87500D02*
D03*
D16*
X160500Y112500D02*
D03*
X124500D02*
D03*
D17*
X137500Y252500D02*
D03*
Y272500D02*
D03*
Y412500D02*
D03*
Y432500D02*
D03*
Y592500D02*
D03*
Y572500D02*
D03*
D27*
X659250Y95500D02*
X660000D01*
X652500Y102250D02*
X659250Y95500D01*
X652500Y102250D02*
Y102500D01*
X372500Y12500D02*
X625000D01*
D28*
X268095Y78000D02*
X276095Y86000D01*
X724500Y72000D02*
X737500Y85000D01*
X510000Y85000D02*
Y87500D01*
X77500Y530000D02*
Y635000D01*
X87500Y645000D01*
X77500Y530000D02*
X87500Y520000D01*
X77500Y370000D02*
X87500Y360000D01*
X77500Y475000D02*
X87500Y485000D01*
X77500Y370000D02*
Y475000D01*
Y210000D02*
X87500Y200000D01*
X77500Y315000D02*
X87500Y325000D01*
X77500Y210000D02*
Y315000D01*
X854500Y77000D02*
X865000Y87500D01*
X750500Y77000D02*
X854500D01*
X740000Y87500D02*
X750500Y77000D01*
X510000Y87500D02*
X522500Y75000D01*
X622500D02*
X635000Y87500D01*
X522500Y75000D02*
X622500D01*
X208000Y72000D02*
X724500D01*
X190000Y90000D02*
X208000Y72000D01*
X395500Y78000D02*
X405000Y87500D01*
X280000D02*
X289500Y78000D01*
X395500D01*
X213000Y75000D02*
X500000D01*
X188000Y100000D02*
X213000Y75000D01*
X173500Y69000D02*
X478106D01*
X482106Y65000D01*
X167500Y75000D02*
X173500Y69000D01*
X474000Y66000D02*
X483000Y57000D01*
X163785Y67500D02*
X165285Y66000D01*
X474000D01*
X162500Y67500D02*
X163785D01*
X482106Y65000D02*
X483000D01*
X500000Y75000D02*
X510000Y85000D01*
X218000Y78000D02*
X268095D01*
X191000Y105000D02*
X218000Y78000D01*
X175000Y105000D02*
X191000D01*
X182500Y100000D02*
X188000D01*
D29*
X865000Y37500D02*
D03*
X635000D02*
D03*
X405000D02*
D03*
D30*
X865000Y87500D02*
D03*
X740000Y37500D02*
D03*
Y87500D02*
D03*
X635000D02*
D03*
X510000Y37500D02*
D03*
Y87500D02*
D03*
X280000D02*
D03*
Y37500D02*
D03*
X405000Y87500D02*
D03*
X87500Y645000D02*
D03*
X37500D02*
D03*
X87500Y520000D02*
D03*
Y360000D02*
D03*
X37500Y485000D02*
D03*
X87500D02*
D03*
Y200000D02*
D03*
X37500Y325000D02*
D03*
X87500D02*
D03*
D31*
X37500Y520000D02*
D03*
Y360000D02*
D03*
Y200000D02*
D03*
D32*
X865000Y120000D02*
D03*
X605000Y122500D02*
D03*
X125000Y592500D02*
D03*
X840000Y40000D02*
D03*
X800000D02*
D03*
X760000D02*
D03*
X480000D02*
D03*
X440000D02*
D03*
X240000D02*
D03*
X120000D02*
D03*
X60000Y640000D02*
D03*
X40000Y600000D02*
D03*
X60000Y560000D02*
D03*
Y480000D02*
D03*
X40000Y440000D02*
D03*
X60000Y400000D02*
D03*
Y320000D02*
D03*
X40000Y280000D02*
D03*
X60000Y240000D02*
D03*
Y160000D02*
D03*
X652500Y102500D02*
D03*
X342500Y57375D02*
D03*
X327500Y122500D02*
D03*
X345000D02*
D03*
X452000Y53000D02*
D03*
X372500Y12500D02*
D03*
X347000Y12000D02*
D03*
X220000Y22500D02*
D03*
X187500Y7500D02*
D03*
X96000Y97000D02*
D03*
X87500Y272500D02*
D03*
X117500D02*
D03*
X378000Y30000D02*
D03*
X652500Y60000D02*
D03*
X627500D02*
D03*
X830000D02*
D03*
X772500D02*
D03*
X662500Y122500D02*
D03*
X317500Y85000D02*
D03*
X320000Y57500D02*
D03*
X87500Y435000D02*
D03*
Y600000D02*
D03*
X117500Y432500D02*
D03*
X552500Y87500D02*
D03*
Y110000D02*
D03*
X540000D02*
D03*
Y87500D02*
D03*
X252000Y125000D02*
D03*
X483000Y57000D02*
D03*
Y65000D02*
D03*
X186000Y59000D02*
D03*
X167500Y75000D02*
D03*
X190000Y90000D02*
D03*
X182500Y100000D02*
D03*
X175000Y105000D02*
D03*
Y82500D02*
D03*
X152500Y92500D02*
D03*
X162500Y67500D02*
D03*
X125000Y68000D02*
D03*
X82500Y127500D02*
D03*
X80000Y145000D02*
D03*
X109000Y128000D02*
D03*
X123000Y141000D02*
D03*
X90000Y175000D02*
D03*
X130000D02*
D03*
X625000Y12500D02*
D03*
M02*
