G04*
G04 #@! TF.GenerationSoftware,Altium Limited,Altium Designer,23.3.1 (30)*
G04*
G04 Layer_Color=128*
%FSLAX44Y44*%
%MOMM*%
G71*
G04*
G04 #@! TF.SameCoordinates,77D199DB-A247-405A-9097-576A226775B8*
G04*
G04*
G04 #@! TF.FilePolarity,Positive*
G04*
G01*
G75*
%ADD13R,0.8000X0.9500*%
%ADD14R,0.9500X0.8000*%
%ADD15R,1.0500X0.9000*%
%ADD33R,0.7620X0.7620*%
%ADD34R,1.0500X1.7200*%
G04:AMPARAMS|DCode=35|XSize=1.05mm|YSize=0.9mm|CornerRadius=0mm|HoleSize=0mm|Usage=FLASHONLY|Rotation=315.000|XOffset=0mm|YOffset=0mm|HoleType=Round|Shape=Rectangle|*
%AMROTATEDRECTD35*
4,1,4,-0.6894,0.0530,-0.0530,0.6894,0.6894,-0.0530,0.0530,-0.6894,-0.6894,0.0530,0.0*
%
%ADD35ROTATEDRECTD35*%

%ADD36R,0.9542X2.7062*%
%ADD37O,1.4500X0.6000*%
%ADD38R,1.4500X0.6000*%
%ADD39R,2.1500X0.9000*%
%ADD40R,2.1500X3.2500*%
G04:AMPARAMS|DCode=41|XSize=0.29mm|YSize=1.4mm|CornerRadius=0mm|HoleSize=0mm|Usage=FLASHONLY|Rotation=225.000|XOffset=0mm|YOffset=0mm|HoleType=Round|Shape=Round|*
%AMOVALD41*
21,1,1.1100,0.2900,0.0000,0.0000,315.0*
1,1,0.2900,-0.3925,0.3925*
1,1,0.2900,0.3925,-0.3925*
%
%ADD41OVALD41*%

G04:AMPARAMS|DCode=42|XSize=0.29mm|YSize=1.4mm|CornerRadius=0mm|HoleSize=0mm|Usage=FLASHONLY|Rotation=315.000|XOffset=0mm|YOffset=0mm|HoleType=Round|Shape=Round|*
%AMOVALD42*
21,1,1.1100,0.2900,0.0000,0.0000,45.0*
1,1,0.2900,-0.3925,-0.3925*
1,1,0.2900,0.3925,0.3925*
%
%ADD42OVALD42*%

G04:AMPARAMS|DCode=43|XSize=1.5mm|YSize=2mm|CornerRadius=0.375mm|HoleSize=0mm|Usage=FLASHONLY|Rotation=0.000|XOffset=0mm|YOffset=0mm|HoleType=Round|Shape=RoundedRectangle|*
%AMROUNDEDRECTD43*
21,1,1.5000,1.2500,0,0,0.0*
21,1,0.7500,2.0000,0,0,0.0*
1,1,0.7500,0.3750,-0.6250*
1,1,0.7500,-0.3750,-0.6250*
1,1,0.7500,-0.3750,0.6250*
1,1,0.7500,0.3750,0.6250*
%
%ADD43ROUNDEDRECTD43*%
G04:AMPARAMS|DCode=44|XSize=1.05mm|YSize=1.3mm|CornerRadius=0mm|HoleSize=0mm|Usage=FLASHONLY|Rotation=225.000|XOffset=0mm|YOffset=0mm|HoleType=Round|Shape=Rectangle|*
%AMROTATEDRECTD44*
4,1,4,-0.0884,0.8309,0.8309,-0.0884,0.0884,-0.8309,-0.8309,0.0884,-0.0884,0.8309,0.0*
%
%ADD44ROTATEDRECTD44*%

G04:AMPARAMS|DCode=45|XSize=0.95mm|YSize=0.8mm|CornerRadius=0mm|HoleSize=0mm|Usage=FLASHONLY|Rotation=45.000|XOffset=0mm|YOffset=0mm|HoleType=Round|Shape=Rectangle|*
%AMROTATEDRECTD45*
4,1,4,-0.0530,-0.6187,-0.6187,-0.0530,0.0530,0.6187,0.6187,0.0530,-0.0530,-0.6187,0.0*
%
%ADD45ROTATEDRECTD45*%

%ADD46R,2.0000X4.5000*%
%ADD47R,1.0000X0.7000*%
G04:AMPARAMS|DCode=48|XSize=1.05mm|YSize=0.9mm|CornerRadius=0mm|HoleSize=0mm|Usage=FLASHONLY|Rotation=225.000|XOffset=0mm|YOffset=0mm|HoleType=Round|Shape=Rectangle|*
%AMROTATEDRECTD48*
4,1,4,0.0530,0.6894,0.6894,0.0530,-0.0530,-0.6894,-0.6894,-0.0530,0.0530,0.6894,0.0*
%
%ADD48ROTATEDRECTD48*%

%ADD49R,0.9000X1.0500*%
D13*
X783500Y140000D02*
D03*
X796500D02*
D03*
X724000D02*
D03*
X711000D02*
D03*
D14*
X377500Y39500D02*
D03*
Y52500D02*
D03*
Y85500D02*
D03*
Y72500D02*
D03*
X87500Y283500D02*
D03*
Y296500D02*
D03*
Y446000D02*
D03*
Y459000D02*
D03*
Y608500D02*
D03*
Y621500D02*
D03*
D15*
X745000Y112500D02*
D03*
Y128500D02*
D03*
X62500Y298000D02*
D03*
Y282000D02*
D03*
Y444500D02*
D03*
Y460500D02*
D03*
Y623000D02*
D03*
Y607000D02*
D03*
X357500Y28000D02*
D03*
Y12000D02*
D03*
X660000Y31000D02*
D03*
Y15000D02*
D03*
D33*
X428750Y72050D02*
D03*
Y53000D02*
D03*
X451610Y62525D02*
D03*
D34*
X454600Y105000D02*
D03*
X425400D02*
D03*
D35*
X138157Y168157D02*
D03*
X126843Y156843D02*
D03*
X98157Y163157D02*
D03*
X86843Y151843D02*
D03*
X150657Y155657D02*
D03*
X139343Y144343D02*
D03*
X210657Y30657D02*
D03*
X199343Y19343D02*
D03*
D36*
X683750Y17500D02*
D03*
X716250D02*
D03*
X683750Y50000D02*
D03*
X716250D02*
D03*
X811250Y117500D02*
D03*
X843750D02*
D03*
X597500Y87500D02*
D03*
X565000D02*
D03*
D37*
X357250Y81550D02*
D03*
Y68850D02*
D03*
Y56150D02*
D03*
Y43450D02*
D03*
X302750Y81550D02*
D03*
Y68850D02*
D03*
Y56150D02*
D03*
D38*
Y43450D02*
D03*
D39*
X601750Y58000D02*
D03*
Y35000D02*
D03*
Y12000D02*
D03*
D40*
X543250Y35000D02*
D03*
D41*
X131917Y99192D02*
D03*
X135452Y102728D02*
D03*
X138988Y106264D02*
D03*
X142523Y109799D02*
D03*
X146059Y113335D02*
D03*
X149594Y116870D02*
D03*
X153130Y120406D02*
D03*
X156665Y123941D02*
D03*
X160201Y127477D02*
D03*
X163737Y131012D02*
D03*
X167272Y134548D02*
D03*
X170808Y138083D02*
D03*
X228083Y80808D02*
D03*
X224548Y77272D02*
D03*
X221012Y73737D02*
D03*
X217477Y70201D02*
D03*
X213941Y66666D02*
D03*
X210406Y63130D02*
D03*
X206870Y59594D02*
D03*
X203335Y56059D02*
D03*
X199799Y52523D02*
D03*
X196264Y48988D02*
D03*
X192728Y45452D02*
D03*
X189192Y41917D02*
D03*
D42*
Y138083D02*
D03*
X192728Y134548D02*
D03*
X196264Y131012D02*
D03*
X199799Y127477D02*
D03*
X203335Y123941D02*
D03*
X206870Y120406D02*
D03*
X210406Y116870D02*
D03*
X213941Y113335D02*
D03*
X217477Y109799D02*
D03*
X221012Y106263D02*
D03*
X224548Y102728D02*
D03*
X228083Y99192D02*
D03*
X170808Y41917D02*
D03*
X167272Y45452D02*
D03*
X163737Y48988D02*
D03*
X160201Y52523D02*
D03*
X156665Y56059D02*
D03*
X153130Y59594D02*
D03*
X149594Y63130D02*
D03*
X146059Y66666D02*
D03*
X142523Y70201D02*
D03*
X138988Y73737D02*
D03*
X135452Y77272D02*
D03*
X131917Y80808D02*
D03*
D43*
X807500Y82500D02*
D03*
X590000Y137500D02*
D03*
X560000D02*
D03*
X500000D02*
D03*
X530000D02*
D03*
X837500Y82500D02*
D03*
X335000Y137500D02*
D03*
X395000D02*
D03*
X365000D02*
D03*
X425000D02*
D03*
X455000D02*
D03*
D44*
X114318Y149345D02*
D03*
X130582Y133081D02*
D03*
X117500Y120000D02*
D03*
X101237Y136264D02*
D03*
D45*
X179596Y15404D02*
D03*
X170404Y24596D02*
D03*
D46*
X712500Y92500D02*
D03*
X682500D02*
D03*
D47*
X783500Y122000D02*
D03*
Y112500D02*
D03*
Y103000D02*
D03*
X761500D02*
D03*
Y112500D02*
D03*
Y122000D02*
D03*
D48*
X104343Y90657D02*
D03*
X115657Y79343D02*
D03*
X245000Y117500D02*
D03*
X233686Y128814D02*
D03*
X89343Y120657D02*
D03*
X100657Y109343D02*
D03*
D49*
X725500Y125000D02*
D03*
X709500D02*
D03*
M02*
