G04*
G04 #@! TF.GenerationSoftware,Altium Limited,Altium Designer,23.3.1 (30)*
G04*
G04 Layer_Color=32896*
%FSLAX44Y44*%
%MOMM*%
G71*
G04*
G04 #@! TF.SameCoordinates,77D199DB-A247-405A-9097-576A226775B8*
G04*
G04*
G04 #@! TF.FilePolarity,Positive*
G04*
G01*
G75*
%ADD10C,0.1500*%
%ADD11C,0.2000*%
%ADD68C,0.6000*%
%ADD69C,0.2500*%
%ADD70C,0.1270*%
G36*
X322612Y113902D02*
X311388D01*
Y134098D01*
X322612D01*
Y113902D01*
D02*
G37*
G36*
X617168Y98498D02*
X602832D01*
Y147502D01*
X617168D01*
Y98498D01*
D02*
G37*
G36*
X475612Y112551D02*
X464388D01*
Y147449D01*
X475612D01*
Y112551D01*
D02*
G37*
G36*
X340612Y103434D02*
X329388D01*
Y126566D01*
X340612D01*
Y103434D01*
D02*
G37*
G36*
X370612Y105530D02*
X359388D01*
Y124470D01*
X370612D01*
Y105530D01*
D02*
G37*
G36*
X415612Y113166D02*
X404388D01*
Y146834D01*
X415612D01*
Y113166D01*
D02*
G37*
G36*
X400612Y105164D02*
X389388D01*
Y124836D01*
X400612D01*
Y105164D01*
D02*
G37*
G36*
X505612Y104605D02*
X494388D01*
Y125395D01*
X505612D01*
Y104605D01*
D02*
G37*
G36*
X535612Y105499D02*
X524388D01*
Y124501D01*
X535612D01*
Y105499D01*
D02*
G37*
G36*
X565612Y103434D02*
X554388D01*
Y126566D01*
X565612D01*
Y103434D01*
D02*
G37*
G36*
X827612Y40860D02*
X817388D01*
Y74140D01*
X827612D01*
Y40860D01*
D02*
G37*
G36*
X595612Y126495D02*
Y103505D01*
X584388D01*
Y126495D01*
X595612D01*
D02*
G37*
G36*
X812462Y48861D02*
X802538D01*
Y66139D01*
X812462D01*
Y48861D01*
D02*
G37*
G36*
X842612Y46505D02*
X832388D01*
Y68495D01*
X842612D01*
Y46505D01*
D02*
G37*
%LPC*%
G36*
X319962Y131598D02*
X318850D01*
Y130517D01*
X314038D01*
Y129374D01*
X318850D01*
Y128324D01*
X314038D01*
X319962D01*
Y131598D01*
D02*
G37*
G36*
Y127599D02*
X316206D01*
X316125Y127593D01*
X316031D01*
X315938Y127587D01*
X315732Y127574D01*
X315525Y127555D01*
X315425Y127543D01*
X315338Y127530D01*
X315250Y127512D01*
X315182Y127493D01*
X315175D01*
X315169Y127487D01*
X315150Y127480D01*
X315126Y127474D01*
X315057Y127449D01*
X314969Y127405D01*
X314869Y127355D01*
X314757Y127287D01*
X314638Y127205D01*
X314513Y127105D01*
X314507D01*
X314501Y127093D01*
X314463Y127055D01*
X314407Y126999D01*
X314332Y126918D01*
X314257Y126824D01*
X314176Y126712D01*
X314101Y126587D01*
X314038Y126456D01*
Y126449D01*
X314032Y126437D01*
X314026Y126418D01*
X314013Y126393D01*
X314001Y126356D01*
X313988Y126312D01*
X313976Y126262D01*
X313963Y126212D01*
X313938Y126081D01*
X313913Y125937D01*
X313895Y125774D01*
X313888Y125593D01*
Y125531D01*
X313895Y125487D01*
Y125431D01*
X313907Y125362D01*
X313913Y125293D01*
X313926Y125212D01*
X313963Y125037D01*
X314013Y124850D01*
X314088Y124656D01*
X314132Y124562D01*
X314182Y124469D01*
X314188Y124462D01*
X314194Y124450D01*
X314213Y124425D01*
X314232Y124394D01*
X314263Y124350D01*
X314301Y124306D01*
X314382Y124206D01*
X314488Y124094D01*
X314619Y123981D01*
X314763Y123875D01*
X314838Y123831D01*
X314919Y123787D01*
X314925D01*
X314938Y123781D01*
X314969Y123769D01*
X315007Y123756D01*
X315057Y123744D01*
X315119Y123725D01*
X315188Y123706D01*
X315275Y123688D01*
X315375Y123669D01*
X315488Y123650D01*
X315607Y123631D01*
X315744Y123619D01*
X315894Y123606D01*
X316056Y123594D01*
X316231Y123588D01*
X319962D01*
Y126424D01*
Y124719D01*
X316131D01*
X316125D01*
X316113D01*
X316082D01*
X316050D01*
X316007D01*
X315963Y124725D01*
X315856Y124731D01*
X315738Y124737D01*
X315625Y124756D01*
X315513Y124775D01*
X315469Y124787D01*
X315425Y124800D01*
X315419Y124806D01*
X315394Y124818D01*
X315357Y124837D01*
X315313Y124868D01*
X315257Y124906D01*
X315207Y124956D01*
X315150Y125019D01*
X315100Y125087D01*
X315094Y125093D01*
X315082Y125125D01*
X315063Y125168D01*
X315044Y125225D01*
X315019Y125293D01*
X315000Y125375D01*
X314988Y125468D01*
X314982Y125568D01*
Y125618D01*
X314988Y125675D01*
X315000Y125743D01*
X315013Y125824D01*
X315038Y125912D01*
X315069Y125999D01*
X315113Y126081D01*
X315119Y126093D01*
X315138Y126118D01*
X315169Y126156D01*
X315207Y126199D01*
X315257Y126249D01*
X315319Y126299D01*
X315388Y126343D01*
X315463Y126381D01*
X315475Y126387D01*
X315507Y126393D01*
X315532Y126399D01*
X315563Y126406D01*
X315600Y126418D01*
X315644Y126424D01*
X315694Y126431D01*
X315750Y126443D01*
X315819Y126449D01*
X315894Y126456D01*
X315975Y126462D01*
X316063D01*
X316163Y126468D01*
X316269D01*
X319962D01*
Y127599D01*
D02*
G37*
G36*
X320112Y122563D02*
X316925D01*
X316894Y122557D01*
X316856D01*
X316763Y122550D01*
X316650Y122538D01*
X316525Y122513D01*
X316375Y122488D01*
X316219Y122450D01*
X316050Y122407D01*
X315875Y122344D01*
X315688Y122275D01*
X315507Y122188D01*
X315319Y122082D01*
X315138Y121963D01*
X314957Y121826D01*
X314782Y121669D01*
X314769Y121657D01*
X314744Y121626D01*
X314701Y121576D01*
X314644Y121513D01*
X314576Y121426D01*
X314501Y121319D01*
X314419Y121201D01*
X314338Y121063D01*
X314251Y120913D01*
X314170Y120745D01*
X314095Y120570D01*
X314026Y120376D01*
X313969Y120176D01*
X313926Y119964D01*
X313901Y119739D01*
X313888Y119501D01*
Y119445D01*
X313895Y119407D01*
Y119370D01*
X313901Y119276D01*
X313920Y119164D01*
X313938Y119032D01*
X313963Y118883D01*
X314001Y118720D01*
X314051Y118551D01*
X314113Y118370D01*
X314188Y118189D01*
X314276Y118001D01*
X314382Y117814D01*
X314507Y117633D01*
X314644Y117452D01*
X314807Y117283D01*
X314819Y117270D01*
X314851Y117246D01*
X314900Y117202D01*
X314969Y117146D01*
X315063Y117077D01*
X315169Y117002D01*
X315288Y116927D01*
X315425Y116846D01*
X315582Y116758D01*
X315750Y116683D01*
X315931Y116608D01*
X316125Y116539D01*
X316325Y116483D01*
X316544Y116439D01*
X316769Y116414D01*
X317000Y116402D01*
X320112D01*
Y119545D01*
X320105Y119614D01*
X320099Y119701D01*
X320087Y119807D01*
X320062Y119938D01*
X320037Y120076D01*
X319999Y120232D01*
X319949Y120401D01*
X319887Y120576D01*
X319818Y120751D01*
X319724Y120938D01*
X319624Y121119D01*
X319499Y121301D01*
X319362Y121482D01*
X319199Y121657D01*
X319187Y121669D01*
X319156Y121694D01*
X319106Y121738D01*
X319037Y121800D01*
X318950Y121869D01*
X318843Y121944D01*
X318718Y122025D01*
X318581Y122113D01*
X318425Y122194D01*
X318256Y122275D01*
X318075Y122350D01*
X317881Y122419D01*
X317669Y122482D01*
X317450Y122525D01*
X317219Y122550D01*
X316981Y122563D01*
X320112D01*
D02*
G37*
%LPD*%
G36*
X317069Y121426D02*
X317131D01*
X317200Y121413D01*
X317287Y121401D01*
X317381Y121382D01*
X317481Y121363D01*
X317594Y121332D01*
X317706Y121294D01*
X317825Y121244D01*
X317950Y121188D01*
X318069Y121126D01*
X318187Y121045D01*
X318306Y120957D01*
X318418Y120857D01*
X318425Y120851D01*
X318443Y120832D01*
X318475Y120801D01*
X318512Y120757D01*
X318556Y120701D01*
X318606Y120632D01*
X318656Y120557D01*
X318712Y120470D01*
X318768Y120376D01*
X318818Y120270D01*
X318868Y120157D01*
X318912Y120032D01*
X318950Y119907D01*
X318981Y119770D01*
X319000Y119626D01*
X319006Y119476D01*
Y119439D01*
X319000Y119395D01*
Y119339D01*
X318987Y119270D01*
X318974Y119189D01*
X318956Y119095D01*
X318937Y118995D01*
X318906Y118889D01*
X318868Y118776D01*
X318818Y118658D01*
X318762Y118545D01*
X318699Y118426D01*
X318618Y118308D01*
X318531Y118195D01*
X318431Y118089D01*
X318425Y118083D01*
X318406Y118064D01*
X318375Y118039D01*
X318331Y118001D01*
X318275Y117958D01*
X318206Y117914D01*
X318125Y117864D01*
X318037Y117814D01*
X317937Y117758D01*
X317825Y117708D01*
X317706Y117664D01*
X317581Y117620D01*
X317444Y117583D01*
X317294Y117558D01*
X317144Y117539D01*
X316981Y117533D01*
X316969D01*
X316938D01*
X316887Y117539D01*
X316819Y117545D01*
X316737Y117552D01*
X316638Y117570D01*
X316531Y117589D01*
X316419Y117620D01*
X316294Y117658D01*
X316169Y117708D01*
X316038Y117764D01*
X315907Y117833D01*
X315781Y117914D01*
X315657Y118008D01*
X315538Y118114D01*
X315425Y118239D01*
X315419Y118245D01*
X315407Y118264D01*
X315382Y118295D01*
X315357Y118333D01*
X315325Y118389D01*
X315288Y118451D01*
X315244Y118520D01*
X315207Y118601D01*
X315163Y118689D01*
X315119Y118783D01*
X315082Y118889D01*
X315051Y119001D01*
X315026Y119114D01*
X315000Y119239D01*
X314988Y119364D01*
X314982Y119495D01*
Y119532D01*
X314988Y119576D01*
Y119632D01*
X315000Y119701D01*
X315013Y119782D01*
X315032Y119870D01*
X315057Y119970D01*
X315082Y120076D01*
X315119Y120182D01*
X315169Y120295D01*
X315225Y120413D01*
X315288Y120526D01*
X315369Y120645D01*
X315457Y120757D01*
X315557Y120863D01*
X315563Y120870D01*
X315582Y120888D01*
X315619Y120913D01*
X315663Y120951D01*
X315719Y120995D01*
X315788Y121045D01*
X315863Y121095D01*
X315956Y121151D01*
X316050Y121201D01*
X316163Y121251D01*
X316281Y121301D01*
X316406Y121344D01*
X316538Y121382D01*
X316681Y121407D01*
X316831Y121426D01*
X316987Y121432D01*
X317000D01*
X317025D01*
X317069Y121426D01*
D02*
G37*
G36*
X320112Y116402D02*
X317081D01*
X317144Y116408D01*
X317219Y116414D01*
X317306Y116421D01*
X317406Y116433D01*
X317512Y116452D01*
X317631Y116477D01*
X317756Y116502D01*
X317887Y116533D01*
X318018Y116571D01*
X318156Y116621D01*
X318293Y116677D01*
X318425Y116739D01*
X318562Y116808D01*
X318568Y116814D01*
X318593Y116827D01*
X318631Y116852D01*
X318681Y116883D01*
X318743Y116927D01*
X318812Y116977D01*
X318887Y117039D01*
X318968Y117102D01*
X319062Y117183D01*
X319149Y117264D01*
X319243Y117358D01*
X319337Y117458D01*
X319431Y117570D01*
X319524Y117683D01*
X319612Y117808D01*
X319693Y117939D01*
X319699Y117945D01*
X319712Y117970D01*
X319730Y118014D01*
X319762Y118064D01*
X319793Y118133D01*
X319824Y118214D01*
X319862Y118301D01*
X319905Y118408D01*
X319943Y118514D01*
X319981Y118639D01*
X320012Y118764D01*
X320049Y118901D01*
X320074Y119039D01*
X320093Y119183D01*
X320105Y119332D01*
X320112Y119489D01*
Y116402D01*
D02*
G37*
%LPC*%
G36*
X614443Y145002D02*
X605557D01*
Y143381D01*
X611378Y139566D01*
X605557D01*
Y137888D01*
X614443D01*
Y145002D01*
D02*
G37*
G36*
Y136304D02*
X609527D01*
X609560D01*
Y133137D01*
X607216D01*
Y136304D01*
X605557D01*
Y131459D01*
X614443D01*
Y136304D01*
D02*
G37*
G36*
Y129875D02*
X609527D01*
X609560D01*
Y126707D01*
X607216D01*
Y129875D01*
X605557D01*
Y125029D01*
X614443D01*
Y129875D01*
D02*
G37*
G36*
Y123651D02*
Y119996D01*
X614433Y120108D01*
Y120249D01*
X614424Y120399D01*
X614405Y120568D01*
X614377Y120905D01*
X614330Y121252D01*
X614293Y121421D01*
X614265Y121580D01*
X614218Y121721D01*
X614171Y121842D01*
Y121852D01*
X614161Y121871D01*
X614143Y121899D01*
X614124Y121946D01*
X614096Y122002D01*
X614058Y122058D01*
X613965Y122208D01*
X613843Y122367D01*
X613693Y122536D01*
X613515Y122705D01*
X613299Y122855D01*
X613290D01*
X613271Y122873D01*
X613234Y122892D01*
X613187Y122911D01*
X613130Y122948D01*
X613065Y122977D01*
X612980Y123014D01*
X612887Y123052D01*
X612793Y123080D01*
X612681Y123117D01*
X612437Y123183D01*
X612156Y123220D01*
X611856Y123239D01*
X611846D01*
X611818D01*
X611771D01*
X611715Y123230D01*
X611640D01*
X611547Y123220D01*
X611453Y123202D01*
X611350Y123183D01*
X611115Y123136D01*
X610872Y123061D01*
X610628Y122958D01*
X610506Y122892D01*
X610394Y122817D01*
X610384D01*
X610366Y122799D01*
X610337Y122770D01*
X610300Y122742D01*
X610244Y122695D01*
X610187Y122639D01*
X610131Y122573D01*
X610056Y122499D01*
X609991Y122414D01*
X609916Y122320D01*
X609841Y122217D01*
X609766Y122105D01*
X609691Y121974D01*
X609625Y121842D01*
X609560Y121702D01*
X609494Y121543D01*
X605557Y123651D01*
Y121805D01*
X609316Y119799D01*
Y119640D01*
X605557D01*
Y117962D01*
X614443D01*
Y123651D01*
D02*
G37*
G36*
X614668Y116360D02*
Y112601D01*
X614658Y112676D01*
Y112770D01*
X614640Y112892D01*
X614630Y113023D01*
X614611Y113163D01*
X614583Y113323D01*
X614555Y113482D01*
X614471Y113838D01*
X614414Y114026D01*
X614358Y114213D01*
X614283Y114410D01*
X614199Y114598D01*
X614190Y114607D01*
X614180Y114644D01*
X614152Y114701D01*
X614115Y114766D01*
X614068Y114860D01*
X614002Y114963D01*
X613937Y115076D01*
X613862Y115197D01*
X613768Y115338D01*
X613674Y115478D01*
X613562Y115619D01*
X613440Y115769D01*
X613318Y115919D01*
X613177Y116069D01*
X612877Y116360D01*
X611753Y115169D01*
X611771Y115160D01*
X611809Y115113D01*
X611875Y115047D01*
X611950Y114954D01*
X612053Y114841D01*
X612156Y114710D01*
X612268Y114551D01*
X612390Y114373D01*
X612512Y114185D01*
X612624Y113979D01*
X612728Y113754D01*
X612831Y113510D01*
X612906Y113267D01*
X612971Y113004D01*
X613018Y112732D01*
X613027Y112451D01*
Y112395D01*
X613018Y112329D01*
Y112236D01*
X612999Y112133D01*
X612980Y112001D01*
X612952Y111861D01*
X612915Y111711D01*
X612868Y111542D01*
X612812Y111373D01*
X612746Y111195D01*
X612662Y111017D01*
X612559Y110839D01*
X612446Y110661D01*
X612306Y110483D01*
X612156Y110314D01*
X612146Y110305D01*
X612118Y110277D01*
X612071Y110230D01*
X611996Y110183D01*
X611912Y110108D01*
X611809Y110042D01*
X611697Y109958D01*
X611565Y109883D01*
X611415Y109799D01*
X611247Y109714D01*
X611068Y109649D01*
X610881Y109583D01*
X610684Y109527D01*
X610469Y109480D01*
X610244Y109452D01*
X610009Y109443D01*
X610000D01*
X609972D01*
X609925D01*
X609859Y109452D01*
X609785D01*
X609691Y109461D01*
X609597Y109471D01*
X609484Y109489D01*
X609241Y109536D01*
X608978Y109602D01*
X608697Y109696D01*
X608435Y109827D01*
X608425Y109836D01*
X608407Y109846D01*
X608369Y109864D01*
X608322Y109902D01*
X608266Y109939D01*
X608200Y109986D01*
X608041Y110108D01*
X607872Y110258D01*
X607694Y110445D01*
X607516Y110670D01*
X607357Y110914D01*
Y110923D01*
X607338Y110942D01*
X607319Y110989D01*
X607301Y111036D01*
X607273Y111102D01*
X607235Y111186D01*
X607198Y111280D01*
X607169Y111383D01*
X607132Y111486D01*
X607094Y111608D01*
X607029Y111879D01*
X606991Y112170D01*
X606973Y112489D01*
Y112611D01*
X606982Y112676D01*
X606991Y112751D01*
Y112835D01*
X607010Y112929D01*
X607038Y113135D01*
X607085Y113360D01*
X607151Y113595D01*
X607244Y113829D01*
Y113838D01*
X607254Y113857D01*
X607273Y113895D01*
X607301Y113932D01*
X607329Y113988D01*
X607366Y114063D01*
X607413Y114138D01*
X607469Y114223D01*
X607610Y114429D01*
X607685Y114532D01*
X607779Y114654D01*
X607882Y114775D01*
X607985Y114897D01*
X608107Y115038D01*
X608238Y115169D01*
X607038Y116322D01*
X607029Y116313D01*
X607001Y116275D01*
X606945Y116228D01*
X606879Y116153D01*
X606804Y116069D01*
X606710Y115966D01*
X606617Y115844D01*
X606513Y115722D01*
X606401Y115582D01*
X606288Y115432D01*
X606063Y115122D01*
X605867Y114794D01*
X605773Y114626D01*
X605698Y114457D01*
Y114447D01*
X605679Y114419D01*
X605661Y114373D01*
X605642Y114307D01*
X605614Y114223D01*
X605586Y114120D01*
X605548Y114007D01*
X605520Y113885D01*
X605482Y113745D01*
X605445Y113585D01*
X605417Y113426D01*
X605389Y113248D01*
X605370Y113060D01*
X605351Y112873D01*
X605332Y112460D01*
Y112367D01*
X605342Y112320D01*
Y112264D01*
X605351Y112114D01*
X605370Y111936D01*
X605398Y111739D01*
X605445Y111504D01*
X605501Y111261D01*
X605567Y110998D01*
X605651Y110727D01*
X605764Y110436D01*
X605886Y110155D01*
X606035Y109874D01*
X606213Y109593D01*
X606410Y109321D01*
X606645Y109068D01*
X606663Y109049D01*
X606701Y109011D01*
X606776Y108946D01*
X606879Y108861D01*
X607010Y108768D01*
X607169Y108655D01*
X607348Y108533D01*
X607554Y108412D01*
X607788Y108290D01*
X608041Y108168D01*
X608322Y108065D01*
X608622Y107962D01*
X608941Y107877D01*
X609278Y107812D01*
X609635Y107774D01*
X610009Y107755D01*
X605332D01*
X610141D01*
X610234Y107765D01*
X610347Y107774D01*
X610487Y107784D01*
X610637Y107802D01*
X610806Y107830D01*
X610984Y107859D01*
X611172Y107905D01*
X611368Y107952D01*
X611565Y108008D01*
X611771Y108074D01*
X611978Y108159D01*
X612174Y108252D01*
X612371Y108355D01*
X612381Y108365D01*
X612418Y108383D01*
X612474Y108421D01*
X612540Y108468D01*
X612634Y108533D01*
X612728Y108608D01*
X612840Y108693D01*
X612962Y108796D01*
X613093Y108908D01*
X613234Y109039D01*
X613365Y109180D01*
X613505Y109330D01*
X613646Y109499D01*
X613777Y109677D01*
X613908Y109864D01*
X614030Y110070D01*
X614040Y110080D01*
X614058Y110117D01*
X614086Y110183D01*
X614133Y110267D01*
X614180Y110370D01*
X614236Y110492D01*
X614293Y110633D01*
X614349Y110792D01*
X614405Y110970D01*
X614471Y111158D01*
X614518Y111355D01*
X614565Y111570D01*
X614611Y111786D01*
X614640Y112011D01*
X614658Y112245D01*
X614668Y112489D01*
Y107755D01*
D01*
Y116360D01*
D02*
G37*
G36*
Y106584D02*
X605332D01*
X607798D01*
X607741Y106574D01*
X607666D01*
X607573Y106565D01*
X607460Y106546D01*
X607338Y106518D01*
X607216Y106490D01*
X607076Y106453D01*
X606926Y106396D01*
X606776Y106340D01*
X606626Y106265D01*
X606476Y106181D01*
X606326Y106078D01*
X606185Y105956D01*
X606045Y105825D01*
X606035Y105815D01*
X606017Y105787D01*
X605979Y105750D01*
X605932Y105684D01*
X605876Y105609D01*
X605820Y105525D01*
X605754Y105412D01*
X605689Y105290D01*
X605623Y105159D01*
X605557Y105009D01*
X605501Y104850D01*
X605445Y104672D01*
X605398Y104484D01*
X605361Y104288D01*
X605342Y104081D01*
X605332Y103856D01*
Y100998D01*
Y103763D01*
X605342Y103697D01*
X605351Y103613D01*
X605361Y103519D01*
X605370Y103407D01*
X605389Y103294D01*
X605445Y103032D01*
X605529Y102751D01*
X605576Y102610D01*
X605642Y102469D01*
X605707Y102329D01*
X605792Y102198D01*
X605801Y102188D01*
X605811Y102169D01*
X605839Y102132D01*
X605886Y102076D01*
X605932Y102019D01*
X605989Y101954D01*
X606063Y101869D01*
X606148Y101785D01*
X606251Y101691D01*
X606354Y101598D01*
X606476Y101495D01*
X606607Y101391D01*
X606748Y101298D01*
X606907Y101195D01*
X607076Y101091D01*
X607254Y100998D01*
X608116Y102413D01*
X608107Y102423D01*
X608069Y102441D01*
X608004Y102479D01*
X607929Y102526D01*
X607844Y102591D01*
X607741Y102666D01*
X607638Y102751D01*
X607526Y102844D01*
X607413Y102947D01*
X607310Y103060D01*
X607207Y103182D01*
X607123Y103313D01*
X607048Y103444D01*
X606982Y103594D01*
X606945Y103744D01*
X606935Y103894D01*
Y103969D01*
X606945Y104044D01*
X606963Y104147D01*
X607001Y104260D01*
X607038Y104381D01*
X607104Y104503D01*
X607188Y104625D01*
X607198Y104634D01*
X607235Y104672D01*
X607282Y104719D01*
X607357Y104775D01*
X607441Y104831D01*
X607544Y104878D01*
X607648Y104916D01*
X607769Y104925D01*
X607779D01*
X607826D01*
X607882Y104916D01*
X607957Y104897D01*
X608050Y104869D01*
X608154Y104831D01*
X608257Y104775D01*
X608369Y104700D01*
X608388Y104691D01*
X608425Y104653D01*
X608500Y104587D01*
X608604Y104494D01*
X608660Y104428D01*
X608735Y104363D01*
X608810Y104278D01*
X608894Y104185D01*
X608978Y104081D01*
X609081Y103969D01*
X609185Y103847D01*
X609297Y103707D01*
X609306Y103688D01*
X609353Y103641D01*
X609410Y103566D01*
X609494Y103472D01*
X609597Y103360D01*
X609710Y103229D01*
X609831Y103078D01*
X609972Y102929D01*
X610262Y102610D01*
X610422Y102451D01*
X610572Y102301D01*
X610722Y102160D01*
X610862Y102038D01*
X611003Y101926D01*
X611125Y101832D01*
X611134D01*
X611153Y101813D01*
X611190Y101795D01*
X611237Y101766D01*
X611293Y101738D01*
X611368Y101701D01*
X611443Y101663D01*
X611528Y101626D01*
X611725Y101541D01*
X611940Y101476D01*
X612174Y101429D01*
X612296Y101420D01*
X612418Y101410D01*
X612427D01*
X612456D01*
X612512Y101420D01*
X612568D01*
X612653Y101429D01*
X612746Y101448D01*
X612849Y101466D01*
X612962Y101495D01*
X613084Y101532D01*
X613205Y101579D01*
X613337Y101635D01*
X613477Y101710D01*
X613609Y101785D01*
X613740Y101879D01*
X613871Y101991D01*
X614002Y102113D01*
X614011Y102122D01*
X614030Y102141D01*
X614068Y102188D01*
X614105Y102235D01*
X614152Y102310D01*
X614208Y102394D01*
X614274Y102488D01*
X614339Y102591D01*
X614396Y102713D01*
X614461Y102844D01*
X614518Y102985D01*
X614565Y103144D01*
X614602Y103303D01*
X614640Y103482D01*
X614658Y103660D01*
X614668Y103847D01*
Y103960D01*
X614658Y104016D01*
X614649Y104091D01*
X614630Y104260D01*
X614593Y104447D01*
X614536Y104663D01*
X614461Y104887D01*
X614358Y105112D01*
Y105122D01*
X614339Y105140D01*
X614321Y105178D01*
X614302Y105216D01*
X614265Y105272D01*
X614218Y105347D01*
X614161Y105422D01*
X614105Y105506D01*
X614030Y105600D01*
X613946Y105703D01*
X613852Y105806D01*
X613749Y105928D01*
X613637Y106040D01*
X613515Y106162D01*
X613383Y106293D01*
X613234Y106425D01*
X612128Y105169D01*
X612137Y105159D01*
X612165Y105140D01*
X612212Y105103D01*
X612268Y105056D01*
X612343Y104991D01*
X612418Y104925D01*
X612503Y104841D01*
X612587Y104747D01*
X612756Y104550D01*
X612831Y104438D01*
X612906Y104316D01*
X612962Y104194D01*
X613009Y104072D01*
X613037Y103950D01*
X613046Y103819D01*
Y103763D01*
X613037Y103707D01*
X613027Y103631D01*
X612999Y103538D01*
X612971Y103453D01*
X612924Y103360D01*
X612859Y103275D01*
X612849Y103266D01*
X612831Y103247D01*
X612793Y103210D01*
X612746Y103172D01*
X612681Y103135D01*
X612615Y103097D01*
X612540Y103078D01*
X612465Y103069D01*
X612456D01*
X612427D01*
X612381Y103078D01*
X612324Y103088D01*
X612259Y103107D01*
X612193Y103135D01*
X612118Y103172D01*
X612043Y103219D01*
X612034Y103229D01*
X611987Y103266D01*
X611950Y103294D01*
X611912Y103341D01*
X611856Y103388D01*
X611800Y103453D01*
X611725Y103528D01*
X611650Y103613D01*
X611556Y103716D01*
X611443Y103828D01*
X611331Y103960D01*
X611200Y104109D01*
X611059Y104269D01*
X610900Y104456D01*
X610890Y104466D01*
X610862Y104503D01*
X610825Y104550D01*
X610769Y104616D01*
X610703Y104691D01*
X610628Y104775D01*
X610469Y104972D01*
X610291Y105169D01*
X610122Y105365D01*
X610047Y105450D01*
X609981Y105525D01*
X609925Y105590D01*
X609878Y105637D01*
X609869Y105647D01*
X609859Y105656D01*
X609831Y105684D01*
X609785Y105722D01*
X609691Y105815D01*
X609560Y105918D01*
X609400Y106040D01*
X609231Y106162D01*
X609053Y106275D01*
X608875Y106368D01*
X608866D01*
X608857Y106378D01*
X608828Y106387D01*
X608791Y106406D01*
X608697Y106434D01*
X608575Y106481D01*
X608416Y106518D01*
X608247Y106546D01*
X608050Y106574D01*
X607844Y106584D01*
X614668D01*
D02*
G37*
%LPD*%
G36*
X614443Y139482D02*
X608594Y143324D01*
X614443D01*
Y139482D01*
D02*
G37*
G36*
X612784Y133137D02*
X611200D01*
Y136304D01*
X612784D01*
Y133137D01*
D02*
G37*
G36*
Y126707D02*
X611200D01*
Y129875D01*
X612784D01*
Y126707D01*
D02*
G37*
G36*
X611978Y121589D02*
X612043Y121580D01*
X612128Y121561D01*
X612212Y121533D01*
X612296Y121496D01*
X612381Y121440D01*
X612390Y121430D01*
X612418Y121411D01*
X612456Y121383D01*
X612503Y121336D01*
X612549Y121280D01*
X612606Y121205D01*
X612653Y121130D01*
X612690Y121036D01*
X612699Y121027D01*
X612709Y120990D01*
X612728Y120924D01*
X612746Y120821D01*
X612765Y120699D01*
X612774Y120530D01*
X612784Y120437D01*
X612793Y120333D01*
Y119640D01*
X610965D01*
Y120296D01*
X610975Y120362D01*
Y120437D01*
X610993Y120615D01*
X611012Y120802D01*
X611050Y120980D01*
X611106Y121149D01*
X611134Y121224D01*
X611172Y121290D01*
X611181Y121299D01*
X611209Y121336D01*
X611265Y121383D01*
X611340Y121449D01*
X611434Y121505D01*
X611556Y121552D01*
X611706Y121589D01*
X611875Y121599D01*
X611884D01*
X611921D01*
X611978Y121589D01*
D02*
G37*
%LPC*%
G36*
X472962Y144949D02*
X467038D01*
Y140207D01*
X472962D01*
Y144949D01*
D02*
G37*
G36*
Y136833D02*
Y136751D01*
X471918D01*
Y134821D01*
X470837Y134577D01*
Y134583D01*
X470844Y134596D01*
Y134614D01*
X470850Y134639D01*
X470862Y134702D01*
X470875Y134771D01*
Y134777D01*
X470881Y134789D01*
Y134808D01*
X470887Y134833D01*
X470894Y134889D01*
Y134996D01*
X470887Y135033D01*
Y135096D01*
X470875Y135164D01*
X470862Y135239D01*
X470850Y135333D01*
X470825Y135427D01*
X470793Y135533D01*
X470762Y135639D01*
X470712Y135752D01*
X470662Y135864D01*
X470600Y135977D01*
X470525Y136083D01*
X470444Y136195D01*
X470344Y136295D01*
X470337Y136301D01*
X470319Y136320D01*
X470287Y136345D01*
X470244Y136376D01*
X470187Y136420D01*
X470125Y136464D01*
X470050Y136514D01*
X469963Y136564D01*
X469863Y136614D01*
X469756Y136664D01*
X469644Y136708D01*
X469519Y136751D01*
X469388Y136783D01*
X469244Y136808D01*
X469094Y136826D01*
X468938Y136833D01*
X472962D01*
X466888D01*
X468900D01*
X468857Y136826D01*
X468794D01*
X468719Y136814D01*
X468632Y136801D01*
X468538Y136783D01*
X468432Y136758D01*
X468319Y136726D01*
X468200Y136689D01*
X468075Y136639D01*
X467957Y136583D01*
X467832Y136514D01*
X467707Y136433D01*
X467588Y136345D01*
X467476Y136239D01*
X467469Y136233D01*
X467451Y136214D01*
X467419Y136177D01*
X467382Y136133D01*
X467338Y136077D01*
X467288Y136008D01*
X467238Y135927D01*
X467182Y135839D01*
X467126Y135739D01*
X467076Y135633D01*
X467026Y135514D01*
X466982Y135389D01*
X466945Y135252D01*
X466913Y135114D01*
X466894Y134964D01*
X466888Y134808D01*
D01*
Y134733D01*
X466894Y134683D01*
X466901Y134614D01*
X466913Y134539D01*
X466926Y134452D01*
X466945Y134358D01*
X466963Y134258D01*
X466995Y134152D01*
X467026Y134046D01*
X467070Y133933D01*
X467119Y133827D01*
X467176Y133715D01*
X467244Y133608D01*
X467319Y133502D01*
X467326Y133496D01*
X467338Y133477D01*
X467363Y133452D01*
X467401Y133415D01*
X467444Y133371D01*
X467494Y133321D01*
X467557Y133271D01*
X467632Y133215D01*
X467713Y133152D01*
X467801Y133096D01*
X467894Y133034D01*
X468000Y132977D01*
X468119Y132921D01*
X468238Y132877D01*
X468369Y132834D01*
X468507Y132796D01*
Y133983D01*
X468494Y133990D01*
X468463Y134008D01*
X468413Y134040D01*
X468350Y134077D01*
X468282Y134127D01*
X468207Y134190D01*
X468144Y134258D01*
X468082Y134340D01*
X468075Y134352D01*
X468063Y134377D01*
X468038Y134427D01*
X468013Y134483D01*
X467988Y134558D01*
X467963Y134639D01*
X467951Y134733D01*
X467944Y134827D01*
Y134864D01*
X467951Y134889D01*
X467957Y134958D01*
X467976Y135046D01*
X468013Y135146D01*
X468057Y135252D01*
X468125Y135364D01*
X468163Y135414D01*
X468213Y135464D01*
X468219Y135471D01*
X468226Y135477D01*
X468263Y135508D01*
X468319Y135545D01*
X468400Y135595D01*
X468500Y135645D01*
X468619Y135683D01*
X468750Y135714D01*
X468900Y135727D01*
X468907D01*
X468919D01*
X468938D01*
X468969Y135720D01*
X469000D01*
X469044Y135714D01*
X469138Y135695D01*
X469244Y135670D01*
X469356Y135627D01*
X469463Y135564D01*
X469569Y135483D01*
X469575D01*
X469581Y135471D01*
X469613Y135439D01*
X469656Y135389D01*
X469706Y135321D01*
X469750Y135233D01*
X469794Y135133D01*
X469825Y135014D01*
X469837Y134952D01*
Y134858D01*
X469831Y134821D01*
X469825Y134777D01*
X469813Y134721D01*
X469800Y134658D01*
X469775Y134596D01*
X469744Y134527D01*
X469738Y134521D01*
X469725Y134496D01*
X469706Y134465D01*
X469675Y134421D01*
X469631Y134365D01*
X469588Y134308D01*
X469531Y134240D01*
X469463Y134177D01*
X469669Y133258D01*
X472962Y133977D01*
Y136833D01*
D02*
G37*
G36*
X473112Y132346D02*
X468657D01*
X468619Y132340D01*
X468575D01*
X468519Y132334D01*
X468463Y132327D01*
X468394Y132315D01*
X468250Y132284D01*
X468088Y132240D01*
X467925Y132178D01*
X467757Y132090D01*
X467751D01*
X467738Y132078D01*
X467713Y132065D01*
X467688Y132046D01*
X467651Y132015D01*
X467607Y131984D01*
X467513Y131909D01*
X467407Y131809D01*
X467301Y131690D01*
X467201Y131553D01*
X467107Y131397D01*
Y131390D01*
X467101Y131378D01*
X467088Y131353D01*
X467076Y131321D01*
X467057Y131278D01*
X467038Y131228D01*
X467020Y131165D01*
X467001Y131097D01*
X466976Y131022D01*
X466957Y130940D01*
X466938Y130847D01*
X466926Y130753D01*
X466907Y130647D01*
X466901Y130534D01*
X466888Y130297D01*
Y130328D01*
Y128229D01*
Y130228D01*
X466894Y130178D01*
Y130116D01*
X466901Y130047D01*
X466907Y129972D01*
X466913Y129884D01*
X466938Y129703D01*
X466976Y129509D01*
X467026Y129322D01*
X467057Y129235D01*
X467094Y129153D01*
Y129147D01*
X467107Y129135D01*
X467119Y129116D01*
X467132Y129085D01*
X467157Y129047D01*
X467182Y129010D01*
X467257Y128910D01*
X467344Y128803D01*
X467457Y128691D01*
X467588Y128579D01*
X467738Y128478D01*
X467744D01*
X467757Y128466D01*
X467782Y128454D01*
X467813Y128441D01*
X467857Y128422D01*
X467901Y128397D01*
X467957Y128378D01*
X468019Y128354D01*
X468088Y128329D01*
X468163Y128310D01*
X468332Y128266D01*
X468513Y128241D01*
X468707Y128229D01*
X468750D01*
X468788Y128235D01*
X468825D01*
X468875Y128241D01*
X468988Y128254D01*
X469119Y128279D01*
X469263Y128316D01*
X469413Y128360D01*
X469563Y128428D01*
X469569D01*
X469581Y128441D01*
X469600Y128454D01*
X469625Y128466D01*
X469663Y128491D01*
X469700Y128516D01*
X469794Y128585D01*
X469900Y128666D01*
X470019Y128772D01*
X470137Y128897D01*
X470250Y129041D01*
X470256D01*
X470262Y129028D01*
X470300Y128997D01*
X470350Y128947D01*
X470425Y128891D01*
X470506Y128822D01*
X470606Y128753D01*
X470706Y128691D01*
X470818Y128635D01*
X470825D01*
X470831Y128629D01*
X470850Y128622D01*
X470875Y128616D01*
X470931Y128591D01*
X471012Y128572D01*
X471112Y128547D01*
X471218Y128522D01*
X471337Y128510D01*
X471462Y128504D01*
X471468D01*
X471481D01*
X471506D01*
X471543Y128510D01*
X471581D01*
X471631Y128516D01*
X471743Y128528D01*
X471875Y128560D01*
X472012Y128597D01*
X472162Y128647D01*
X472306Y128722D01*
X472312D01*
X472324Y128735D01*
X472343Y128747D01*
X472368Y128766D01*
X472437Y128816D01*
X472524Y128885D01*
X472618Y128978D01*
X472718Y129085D01*
X472812Y129210D01*
X472899Y129353D01*
Y129360D01*
X472906Y129372D01*
X472918Y129397D01*
X472930Y129428D01*
X472949Y129466D01*
X472968Y129509D01*
X472987Y129566D01*
X473005Y129622D01*
X473043Y129759D01*
X473080Y129916D01*
X473106Y130097D01*
X473112Y130284D01*
Y128822D01*
Y130334D01*
X473106Y130372D01*
Y130415D01*
X473099Y130472D01*
X473093Y130528D01*
X473087Y130597D01*
X473055Y130740D01*
X473018Y130890D01*
X472968Y131053D01*
X472893Y131203D01*
Y131209D01*
X472881Y131222D01*
X472868Y131240D01*
X472855Y131265D01*
X472805Y131340D01*
X472737Y131428D01*
X472649Y131528D01*
X472549Y131634D01*
X472424Y131734D01*
X472287Y131828D01*
X472281D01*
X472268Y131840D01*
X472249Y131846D01*
X472218Y131865D01*
X472181Y131884D01*
X472143Y131903D01*
X472037Y131946D01*
X471912Y131984D01*
X471768Y132021D01*
X471612Y132046D01*
X471450Y132059D01*
X471443D01*
X471437D01*
X471418D01*
X471393D01*
X471337Y132053D01*
X471256Y132046D01*
X471162Y132028D01*
X471062Y132009D01*
X470962Y131978D01*
X470856Y131934D01*
X470844Y131928D01*
X470806Y131909D01*
X470756Y131878D01*
X470681Y131834D01*
X470587Y131778D01*
X470487Y131703D01*
X470375Y131609D01*
X470250Y131503D01*
Y131509D01*
X470237Y131522D01*
X470225Y131540D01*
X470206Y131572D01*
X470150Y131640D01*
X470069Y131728D01*
X469975Y131828D01*
X469863Y131934D01*
X469731Y132034D01*
X469588Y132121D01*
X469581D01*
X469569Y132134D01*
X469550Y132140D01*
X469519Y132159D01*
X469481Y132171D01*
X469431Y132190D01*
X469381Y132215D01*
X469325Y132234D01*
X469194Y132277D01*
X469044Y132309D01*
X468881Y132334D01*
X468707Y132346D01*
X473112D01*
D02*
G37*
G36*
Y127754D02*
D01*
Y127229D01*
X469300D01*
Y127754D01*
X473112D01*
X468257D01*
Y127229D01*
X467038D01*
Y126123D01*
X468257D01*
Y123536D01*
X467038D01*
X473112D01*
Y127754D01*
D02*
G37*
G36*
Y122967D02*
D01*
Y121218D01*
X473106Y121255D01*
X473099Y121305D01*
X473087Y121418D01*
X473062Y121543D01*
X473024Y121686D01*
X472974Y121837D01*
X472906Y121986D01*
Y121993D01*
X472893Y122005D01*
X472881Y122030D01*
X472868Y122055D01*
X472843Y122093D01*
X472812Y122143D01*
X472774Y122193D01*
X472737Y122249D01*
X472687Y122311D01*
X472631Y122380D01*
X472568Y122449D01*
X472499Y122530D01*
X472424Y122605D01*
X472343Y122686D01*
X472256Y122774D01*
X472156Y122861D01*
X471418Y122024D01*
X471425Y122018D01*
X471443Y122005D01*
X471475Y121980D01*
X471512Y121949D01*
X471562Y121905D01*
X471612Y121861D01*
X471668Y121805D01*
X471725Y121743D01*
X471837Y121611D01*
X471887Y121537D01*
X471937Y121455D01*
X471974Y121374D01*
X472006Y121293D01*
X472024Y121212D01*
X472031Y121124D01*
Y121087D01*
X472024Y121049D01*
X472018Y120999D01*
X472000Y120937D01*
X471981Y120880D01*
X471950Y120818D01*
X471906Y120762D01*
X471899Y120756D01*
X471887Y120743D01*
X471862Y120718D01*
X471831Y120693D01*
X471787Y120668D01*
X471743Y120643D01*
X471693Y120631D01*
X471643Y120624D01*
X471637D01*
X471618D01*
X471587Y120631D01*
X471550Y120637D01*
X471506Y120649D01*
X471462Y120668D01*
X471412Y120693D01*
X471362Y120724D01*
X471356Y120730D01*
X471325Y120756D01*
X471300Y120774D01*
X471275Y120806D01*
X471237Y120837D01*
X471200Y120880D01*
X471150Y120930D01*
X471100Y120987D01*
X471037Y121055D01*
X470962Y121130D01*
X470887Y121218D01*
X470800Y121318D01*
X470706Y121424D01*
X470600Y121549D01*
X470594Y121555D01*
X470575Y121580D01*
X470550Y121611D01*
X470512Y121655D01*
X470469Y121705D01*
X470419Y121762D01*
X470312Y121893D01*
X470194Y122024D01*
X470081Y122155D01*
X470031Y122211D01*
X469987Y122261D01*
X469950Y122305D01*
X469919Y122336D01*
X469912Y122343D01*
X469906Y122349D01*
X469888Y122368D01*
X469856Y122393D01*
X469794Y122455D01*
X469706Y122524D01*
X469600Y122605D01*
X469488Y122686D01*
X469369Y122761D01*
X469250Y122824D01*
X469244D01*
X469238Y122830D01*
X469219Y122836D01*
X469194Y122849D01*
X469132Y122867D01*
X469050Y122899D01*
X468944Y122924D01*
X468831Y122942D01*
X468700Y122961D01*
X468563Y122967D01*
X473112D01*
X468532D01*
X468494Y122961D01*
X468444D01*
X468382Y122955D01*
X468307Y122942D01*
X468226Y122924D01*
X468144Y122905D01*
X468050Y122880D01*
X467951Y122843D01*
X467851Y122805D01*
X467751Y122755D01*
X467651Y122699D01*
X467551Y122630D01*
X467457Y122549D01*
X467363Y122461D01*
X467357Y122455D01*
X467344Y122436D01*
X467319Y122411D01*
X467288Y122368D01*
X467251Y122318D01*
X467213Y122261D01*
X467169Y122186D01*
X467126Y122105D01*
X467082Y122018D01*
X467038Y121918D01*
X467001Y121812D01*
X466963Y121693D01*
X466932Y121568D01*
X466907Y121437D01*
X466894Y121299D01*
X466888Y121149D01*
Y121087D01*
X466894Y121043D01*
X466901Y120987D01*
X466907Y120924D01*
X466913Y120849D01*
X466926Y120774D01*
X466963Y120599D01*
X467020Y120412D01*
X467051Y120318D01*
X467094Y120224D01*
X467138Y120131D01*
X467195Y120043D01*
X467201Y120037D01*
X467207Y120024D01*
X467226Y119999D01*
X467257Y119962D01*
X467288Y119924D01*
X467326Y119881D01*
X467376Y119824D01*
X467432Y119768D01*
X467501Y119706D01*
X467569Y119643D01*
X467651Y119574D01*
X467738Y119506D01*
X467832Y119443D01*
X467938Y119375D01*
X468050Y119306D01*
X468169Y119243D01*
X468744Y120187D01*
X468738Y120193D01*
X468713Y120206D01*
X468669Y120231D01*
X468619Y120262D01*
X468563Y120306D01*
X468494Y120356D01*
X468425Y120412D01*
X468350Y120474D01*
X468275Y120543D01*
X468207Y120618D01*
X468138Y120699D01*
X468082Y120787D01*
X468032Y120874D01*
X467988Y120974D01*
X467963Y121074D01*
X467957Y121174D01*
Y121224D01*
X467963Y121274D01*
X467976Y121343D01*
X468000Y121418D01*
X468026Y121499D01*
X468069Y121580D01*
X468125Y121662D01*
X468132Y121668D01*
X468157Y121693D01*
X468188Y121724D01*
X468238Y121762D01*
X468294Y121799D01*
X468363Y121830D01*
X468432Y121855D01*
X468513Y121861D01*
X468519D01*
X468550D01*
X468588Y121855D01*
X468638Y121843D01*
X468700Y121824D01*
X468769Y121799D01*
X468838Y121762D01*
X468913Y121712D01*
X468925Y121705D01*
X468950Y121680D01*
X469000Y121636D01*
X469069Y121574D01*
X469106Y121530D01*
X469156Y121487D01*
X469207Y121430D01*
X469263Y121368D01*
X469319Y121299D01*
X469388Y121224D01*
X469456Y121143D01*
X469531Y121049D01*
X469538Y121037D01*
X469569Y121005D01*
X469606Y120955D01*
X469663Y120893D01*
X469731Y120818D01*
X469806Y120730D01*
X469888Y120631D01*
X469981Y120531D01*
X470175Y120318D01*
X470281Y120212D01*
X470381Y120112D01*
X470481Y120018D01*
X470575Y119937D01*
X470669Y119862D01*
X470750Y119799D01*
X470756D01*
X470769Y119787D01*
X470793Y119775D01*
X470825Y119756D01*
X470862Y119737D01*
X470912Y119712D01*
X470962Y119687D01*
X471018Y119662D01*
X471150Y119606D01*
X471293Y119562D01*
X471450Y119531D01*
X471531Y119525D01*
X471612Y119518D01*
X471618D01*
X471637D01*
X471675Y119525D01*
X471712D01*
X471768Y119531D01*
X471831Y119543D01*
X471899Y119556D01*
X471974Y119574D01*
X472056Y119600D01*
X472137Y119631D01*
X472224Y119668D01*
X472318Y119718D01*
X472406Y119768D01*
X472493Y119831D01*
X472581Y119906D01*
X472668Y119987D01*
X472674Y119993D01*
X472687Y120006D01*
X472712Y120037D01*
X472737Y120068D01*
X472768Y120118D01*
X472805Y120174D01*
X472849Y120237D01*
X472893Y120306D01*
X472930Y120387D01*
X472974Y120474D01*
X473012Y120568D01*
X473043Y120674D01*
X473068Y120780D01*
X473093Y120899D01*
X473106Y121018D01*
X473112Y121143D01*
Y119243D01*
X466888D01*
X473112D01*
Y122967D01*
D02*
G37*
G36*
X472962Y118843D02*
D01*
Y116407D01*
X472956Y116482D01*
Y116575D01*
X472949Y116675D01*
X472937Y116788D01*
X472918Y117013D01*
X472887Y117244D01*
X472862Y117356D01*
X472843Y117463D01*
X472812Y117556D01*
X472780Y117638D01*
Y117644D01*
X472774Y117656D01*
X472762Y117675D01*
X472749Y117706D01*
X472731Y117744D01*
X472706Y117781D01*
X472643Y117881D01*
X472562Y117987D01*
X472462Y118100D01*
X472343Y118212D01*
X472199Y118312D01*
X472193D01*
X472181Y118325D01*
X472156Y118337D01*
X472124Y118350D01*
X472087Y118375D01*
X472043Y118394D01*
X471987Y118419D01*
X471925Y118444D01*
X471862Y118462D01*
X471787Y118487D01*
X471625Y118531D01*
X471437Y118556D01*
X471237Y118568D01*
X471231D01*
X471212D01*
X471181D01*
X471143Y118562D01*
X471093D01*
X471031Y118556D01*
X470969Y118544D01*
X470900Y118531D01*
X470744Y118500D01*
X470581Y118450D01*
X470419Y118381D01*
X470337Y118337D01*
X470262Y118287D01*
X470256D01*
X470244Y118275D01*
X470225Y118256D01*
X470200Y118237D01*
X470163Y118206D01*
X470125Y118169D01*
X470088Y118125D01*
X470037Y118075D01*
X469994Y118019D01*
X469944Y117956D01*
X469894Y117887D01*
X469844Y117812D01*
X469794Y117725D01*
X469750Y117638D01*
X469706Y117544D01*
X469663Y117438D01*
X467038Y118843D01*
Y117612D01*
X469544Y116275D01*
Y116169D01*
X467038D01*
Y115051D01*
X472962D01*
Y118843D01*
D02*
G37*
%LPD*%
G36*
X470919Y141325D02*
X467038D01*
Y143868D01*
X470919Y141325D01*
D02*
G37*
G36*
X472962Y141269D02*
X469063Y143831D01*
X472962D01*
Y141269D01*
D02*
G37*
G36*
X471481Y130915D02*
X471543Y130903D01*
X471618Y130884D01*
X471693Y130847D01*
X471774Y130803D01*
X471843Y130740D01*
X471850Y130734D01*
X471875Y130709D01*
X471899Y130665D01*
X471937Y130609D01*
X471968Y130541D01*
X472000Y130453D01*
X472018Y130353D01*
X472024Y130247D01*
Y130203D01*
X472012Y130147D01*
X472000Y130084D01*
X471981Y130009D01*
X471943Y129934D01*
X471899Y129859D01*
X471837Y129784D01*
X471831Y129778D01*
X471806Y129759D01*
X471762Y129728D01*
X471712Y129697D01*
X471643Y129666D01*
X471568Y129635D01*
X471475Y129616D01*
X471375Y129609D01*
X471362D01*
X471325Y129616D01*
X471275Y129622D01*
X471206Y129635D01*
X471131Y129653D01*
X471050Y129691D01*
X470969Y129734D01*
X470894Y129797D01*
X470887Y129803D01*
X470862Y129834D01*
X470837Y129872D01*
X470800Y129928D01*
X470769Y129997D01*
X470737Y130078D01*
X470712Y130166D01*
X470706Y130266D01*
Y130278D01*
X470712Y130316D01*
X470719Y130365D01*
X470731Y130434D01*
X470750Y130509D01*
X470787Y130590D01*
X470831Y130665D01*
X470894Y130740D01*
X470900Y130747D01*
X470925Y130772D01*
X470969Y130803D01*
X471025Y130834D01*
X471093Y130872D01*
X471181Y130897D01*
X471275Y130922D01*
X471381Y130928D01*
X471387D01*
X471393D01*
X471431D01*
X471481Y130915D01*
D02*
G37*
G36*
X468844Y131222D02*
X468913Y131215D01*
X469000Y131197D01*
X469094Y131165D01*
X469200Y131115D01*
X469300Y131047D01*
X469350Y131009D01*
X469400Y130959D01*
X469413Y130947D01*
X469438Y130909D01*
X469481Y130853D01*
X469525Y130778D01*
X469569Y130678D01*
X469613Y130566D01*
X469638Y130441D01*
X469650Y130297D01*
Y130259D01*
X469644Y130228D01*
Y130191D01*
X469638Y130153D01*
X469619Y130059D01*
X469588Y129947D01*
X469544Y129834D01*
X469481Y129716D01*
X469400Y129609D01*
X469388Y129597D01*
X469356Y129566D01*
X469300Y129522D01*
X469231Y129472D01*
X469144Y129422D01*
X469044Y129378D01*
X468932Y129347D01*
X468869Y129341D01*
X468807Y129334D01*
X468800D01*
X468794D01*
X468775D01*
X468750Y129341D01*
X468682Y129347D01*
X468600Y129366D01*
X468500Y129397D01*
X468400Y129441D01*
X468300Y129503D01*
X468200Y129591D01*
X468188Y129603D01*
X468163Y129641D01*
X468125Y129697D01*
X468082Y129778D01*
X468032Y129878D01*
X467994Y129997D01*
X467969Y130128D01*
X467957Y130284D01*
Y130328D01*
X467963Y130353D01*
Y130391D01*
X467969Y130434D01*
X467988Y130534D01*
X468013Y130640D01*
X468057Y130759D01*
X468113Y130872D01*
X468188Y130972D01*
X468200Y130984D01*
X468232Y131009D01*
X468282Y131053D01*
X468350Y131103D01*
X468432Y131147D01*
X468538Y131190D01*
X468650Y131215D01*
X468782Y131228D01*
X468788D01*
X468800D01*
X468819D01*
X468844Y131222D01*
D02*
G37*
G36*
X469300Y124767D02*
Y126123D01*
X471281D01*
X469300Y124767D01*
D02*
G37*
G36*
X473112Y123536D02*
X469294D01*
X473112Y126104D01*
Y123536D01*
D02*
G37*
G36*
X471318Y117469D02*
X471362Y117463D01*
X471418Y117450D01*
X471475Y117431D01*
X471531Y117406D01*
X471587Y117369D01*
X471593Y117363D01*
X471612Y117350D01*
X471637Y117331D01*
X471668Y117300D01*
X471700Y117263D01*
X471737Y117213D01*
X471768Y117163D01*
X471793Y117100D01*
X471800Y117094D01*
X471806Y117069D01*
X471818Y117025D01*
X471831Y116957D01*
X471843Y116875D01*
X471850Y116763D01*
X471856Y116700D01*
X471862Y116631D01*
Y116169D01*
X470644D01*
Y116607D01*
X470650Y116650D01*
Y116700D01*
X470662Y116819D01*
X470675Y116944D01*
X470700Y117063D01*
X470737Y117175D01*
X470756Y117225D01*
X470781Y117269D01*
X470787Y117275D01*
X470806Y117300D01*
X470844Y117331D01*
X470894Y117375D01*
X470956Y117413D01*
X471037Y117444D01*
X471137Y117469D01*
X471250Y117475D01*
X471256D01*
X471281D01*
X471318Y117469D01*
D02*
G37*
%LPC*%
G36*
X332038Y124066D02*
Y122198D01*
D01*
Y124066D01*
D02*
G37*
G36*
X336418D02*
X332038Y122198D01*
Y121486D01*
X336418Y119618D01*
X332038D01*
X336418D01*
Y120742D01*
X333832Y121842D01*
X336418Y122948D01*
Y124066D01*
D02*
G37*
G36*
X338112Y116943D02*
X331888D01*
X333750D01*
X333713Y116937D01*
X333657D01*
X333588Y116924D01*
X333507Y116912D01*
X333419Y116893D01*
X333319Y116868D01*
X333219Y116837D01*
X333107Y116799D01*
X333000Y116749D01*
X332882Y116693D01*
X332769Y116625D01*
X332657Y116543D01*
X332544Y116456D01*
X332438Y116350D01*
X332432Y116343D01*
X332413Y116325D01*
X332388Y116287D01*
X332351Y116243D01*
X332313Y116187D01*
X332263Y116118D01*
X332213Y116037D01*
X332163Y115943D01*
X332113Y115837D01*
X332063Y115725D01*
X332013Y115606D01*
X331976Y115475D01*
X331938Y115331D01*
X331913Y115181D01*
X331895Y115025D01*
X331888Y114856D01*
Y112857D01*
Y114819D01*
X331895Y114775D01*
Y114712D01*
X331907Y114638D01*
X331913Y114556D01*
X331932Y114463D01*
X331951Y114356D01*
X331982Y114250D01*
X332013Y114131D01*
X332057Y114019D01*
X332107Y113900D01*
X332169Y113781D01*
X332238Y113669D01*
X332313Y113557D01*
X332407Y113450D01*
X332413Y113444D01*
X332432Y113425D01*
X332463Y113400D01*
X332501Y113363D01*
X332557Y113325D01*
X332619Y113275D01*
X332694Y113225D01*
X332782Y113175D01*
X332876Y113119D01*
X332988Y113069D01*
X333101Y113019D01*
X333232Y112969D01*
X333369Y112932D01*
X333513Y112894D01*
X333669Y112869D01*
X333832Y112857D01*
D01*
Y113975D01*
X333825D01*
X333813Y113982D01*
X333788D01*
X333757Y113988D01*
X333719Y114000D01*
X333675Y114013D01*
X333575Y114038D01*
X333463Y114081D01*
X333344Y114138D01*
X333238Y114206D01*
X333144Y114288D01*
X333138Y114300D01*
X333113Y114331D01*
X333075Y114388D01*
X333038Y114463D01*
X332994Y114550D01*
X332963Y114663D01*
X332938Y114781D01*
X332925Y114919D01*
Y114956D01*
X332932Y114987D01*
X332938Y115056D01*
X332957Y115150D01*
X332988Y115250D01*
X333032Y115356D01*
X333094Y115469D01*
X333176Y115569D01*
X333188Y115581D01*
X333219Y115612D01*
X333275Y115650D01*
X333350Y115700D01*
X333438Y115750D01*
X333544Y115787D01*
X333663Y115819D01*
X333794Y115831D01*
X333800D01*
X333813D01*
X333832D01*
X333863Y115825D01*
X333894Y115819D01*
X333938Y115812D01*
X334031Y115787D01*
X334138Y115744D01*
X334250Y115681D01*
X334306Y115644D01*
X334363Y115600D01*
X334419Y115544D01*
X334469Y115481D01*
X334475Y115475D01*
X334481Y115462D01*
X334494Y115444D01*
X334513Y115419D01*
X334538Y115381D01*
X334556Y115337D01*
X334588Y115281D01*
X334613Y115225D01*
X334638Y115156D01*
X334663Y115081D01*
X334688Y115000D01*
X334713Y114906D01*
X334731Y114812D01*
X334744Y114706D01*
X334756Y114594D01*
X334763Y114475D01*
X335731D01*
Y114494D01*
X335737Y114513D01*
Y114544D01*
X335744Y114613D01*
X335756Y114706D01*
X335775Y114800D01*
X335800Y114900D01*
X335825Y115000D01*
X335856Y115081D01*
X335862Y115087D01*
X335875Y115112D01*
X335894Y115150D01*
X335925Y115194D01*
X335962Y115244D01*
X336006Y115300D01*
X336056Y115350D01*
X336112Y115394D01*
X336119Y115400D01*
X336143Y115412D01*
X336175Y115431D01*
X336218Y115450D01*
X336275Y115469D01*
X336331Y115487D01*
X336400Y115500D01*
X336468Y115506D01*
X336481D01*
X336506D01*
X336550Y115500D01*
X336606Y115487D01*
X336668Y115462D01*
X336737Y115431D01*
X336806Y115387D01*
X336868Y115331D01*
X336875Y115325D01*
X336893Y115300D01*
X336918Y115262D01*
X336950Y115212D01*
X336981Y115150D01*
X337006Y115075D01*
X337024Y114987D01*
X337031Y114888D01*
Y114844D01*
X337024Y114800D01*
X337012Y114744D01*
X336993Y114675D01*
X336968Y114600D01*
X336931Y114519D01*
X336881Y114444D01*
X336875Y114438D01*
X336856Y114413D01*
X336824Y114375D01*
X336781Y114338D01*
X336725Y114288D01*
X336662Y114244D01*
X336587Y114206D01*
X336506Y114175D01*
Y113094D01*
X336512D01*
X336537Y113101D01*
X336568Y113107D01*
X336612Y113113D01*
X336668Y113125D01*
X336731Y113138D01*
X336806Y113163D01*
X336881Y113182D01*
X337049Y113244D01*
X337224Y113325D01*
X337312Y113375D01*
X337393Y113432D01*
X337481Y113494D01*
X337556Y113563D01*
X337562Y113569D01*
X337581Y113588D01*
X337606Y113619D01*
X337643Y113663D01*
X337687Y113713D01*
X337731Y113775D01*
X337781Y113850D01*
X337837Y113932D01*
X337887Y114025D01*
X337937Y114131D01*
X337980Y114244D01*
X338024Y114363D01*
X338062Y114488D01*
X338087Y114625D01*
X338106Y114769D01*
X338112Y114919D01*
Y115025D01*
Y114987D01*
X338106Y115044D01*
X338099Y115106D01*
X338087Y115175D01*
X338074Y115256D01*
X338055Y115344D01*
X338031Y115444D01*
X337999Y115537D01*
X337962Y115644D01*
X337912Y115744D01*
X337862Y115850D01*
X337799Y115950D01*
X337724Y116050D01*
X337643Y116143D01*
X337637Y116150D01*
X337624Y116162D01*
X337599Y116187D01*
X337562Y116218D01*
X337518Y116256D01*
X337462Y116300D01*
X337399Y116343D01*
X337331Y116393D01*
X337256Y116437D01*
X337174Y116481D01*
X337081Y116525D01*
X336987Y116562D01*
X336881Y116593D01*
X336775Y116618D01*
X336662Y116631D01*
X336543Y116637D01*
X336537D01*
X336525D01*
X336506D01*
X336475Y116631D01*
X336443D01*
X336400Y116625D01*
X336306Y116612D01*
X336194Y116581D01*
X336075Y116543D01*
X335950Y116493D01*
X335825Y116418D01*
X335819D01*
X335812Y116406D01*
X335794Y116393D01*
X335769Y116381D01*
X335712Y116331D01*
X335637Y116262D01*
X335550Y116175D01*
X335462Y116068D01*
X335375Y115937D01*
X335294Y115794D01*
Y115800D01*
X335287Y115819D01*
X335275Y115843D01*
X335262Y115881D01*
X335244Y115925D01*
X335225Y115981D01*
X335163Y116100D01*
X335088Y116237D01*
X334994Y116375D01*
X334875Y116512D01*
X334731Y116637D01*
X334725Y116643D01*
X334713Y116650D01*
X334694Y116668D01*
X334663Y116687D01*
X334625Y116706D01*
X334575Y116737D01*
X334525Y116762D01*
X334463Y116793D01*
X334400Y116818D01*
X334325Y116849D01*
X334163Y116893D01*
X333982Y116931D01*
X333888Y116937D01*
X333788Y116943D01*
X338112D01*
D02*
G37*
G36*
X332557Y112094D02*
X331926D01*
X332513D01*
X332463Y112082D01*
X332401Y112070D01*
X332332Y112051D01*
X332257Y112013D01*
X332182Y111969D01*
X332107Y111907D01*
X332101Y111901D01*
X332082Y111876D01*
X332051Y111832D01*
X332020Y111782D01*
X331982Y111720D01*
X331957Y111638D01*
X331932Y111557D01*
X331926Y111463D01*
Y110832D01*
D01*
Y111420D01*
X331938Y111370D01*
X331951Y111307D01*
X331969Y111238D01*
X332001Y111164D01*
X332044Y111088D01*
X332107Y111013D01*
X332113Y111007D01*
X332138Y110989D01*
X332182Y110957D01*
X332232Y110926D01*
X332301Y110889D01*
X332376Y110864D01*
X332463Y110838D01*
X332557Y110832D01*
X333188D01*
X332601D01*
X332651Y110845D01*
X332713Y110857D01*
X332782Y110876D01*
X332857Y110907D01*
X332932Y110951D01*
X333000Y111013D01*
X333007Y111020D01*
X333032Y111045D01*
X333063Y111088D01*
X333094Y111138D01*
X333132Y111207D01*
X333157Y111282D01*
X333182Y111370D01*
X333188Y111463D01*
Y111507D01*
X333176Y111557D01*
X333163Y111613D01*
X333144Y111682D01*
X333107Y111757D01*
X333063Y111832D01*
X333000Y111907D01*
X332994Y111913D01*
X332969Y111938D01*
X332932Y111969D01*
X332876Y112001D01*
X332813Y112038D01*
X332738Y112063D01*
X332651Y112088D01*
X332557Y112094D01*
D02*
G37*
G36*
X338112Y110020D02*
X331888D01*
X333750D01*
X333713Y110014D01*
X333657D01*
X333588Y110001D01*
X333507Y109989D01*
X333419Y109970D01*
X333319Y109945D01*
X333219Y109914D01*
X333107Y109876D01*
X333000Y109826D01*
X332882Y109770D01*
X332769Y109701D01*
X332657Y109620D01*
X332544Y109533D01*
X332438Y109426D01*
X332432Y109420D01*
X332413Y109401D01*
X332388Y109364D01*
X332351Y109320D01*
X332313Y109264D01*
X332263Y109195D01*
X332213Y109114D01*
X332163Y109020D01*
X332113Y108914D01*
X332063Y108802D01*
X332013Y108683D01*
X331976Y108552D01*
X331938Y108408D01*
X331913Y108258D01*
X331895Y108102D01*
X331888Y107933D01*
Y105934D01*
Y107895D01*
X331895Y107852D01*
Y107789D01*
X331907Y107714D01*
X331913Y107633D01*
X331932Y107539D01*
X331951Y107433D01*
X331982Y107327D01*
X332013Y107208D01*
X332057Y107096D01*
X332107Y106977D01*
X332169Y106858D01*
X332238Y106746D01*
X332313Y106633D01*
X332407Y106527D01*
X332413Y106521D01*
X332432Y106502D01*
X332463Y106477D01*
X332501Y106440D01*
X332557Y106402D01*
X332619Y106352D01*
X332694Y106302D01*
X332782Y106252D01*
X332876Y106196D01*
X332988Y106146D01*
X333101Y106096D01*
X333232Y106046D01*
X333369Y106009D01*
X333513Y105971D01*
X333669Y105946D01*
X333832Y105934D01*
Y107052D01*
X333825D01*
X333813Y107058D01*
X333788D01*
X333757Y107065D01*
X333719Y107077D01*
X333675Y107090D01*
X333575Y107114D01*
X333463Y107158D01*
X333344Y107214D01*
X333238Y107283D01*
X333144Y107364D01*
X333138Y107377D01*
X333113Y107408D01*
X333075Y107464D01*
X333038Y107539D01*
X332994Y107627D01*
X332963Y107739D01*
X332938Y107858D01*
X332925Y107996D01*
Y108033D01*
X332932Y108064D01*
X332938Y108133D01*
X332957Y108227D01*
X332988Y108327D01*
X333032Y108433D01*
X333094Y108545D01*
X333176Y108645D01*
X333188Y108658D01*
X333219Y108689D01*
X333275Y108727D01*
X333350Y108777D01*
X333438Y108827D01*
X333544Y108864D01*
X333663Y108895D01*
X333794Y108908D01*
X333800D01*
X333813D01*
X333832D01*
X333863Y108902D01*
X333894Y108895D01*
X333938Y108889D01*
X334031Y108864D01*
X334138Y108820D01*
X334250Y108758D01*
X334306Y108720D01*
X334363Y108677D01*
X334419Y108620D01*
X334469Y108558D01*
X334475Y108552D01*
X334481Y108539D01*
X334494Y108520D01*
X334513Y108495D01*
X334538Y108458D01*
X334556Y108414D01*
X334588Y108358D01*
X334613Y108302D01*
X334638Y108233D01*
X334663Y108158D01*
X334688Y108077D01*
X334713Y107983D01*
X334731Y107889D01*
X334744Y107783D01*
X334756Y107671D01*
X334763Y107552D01*
X335731D01*
Y107571D01*
X335737Y107589D01*
Y107621D01*
X335744Y107689D01*
X335756Y107783D01*
X335775Y107877D01*
X335800Y107977D01*
X335825Y108077D01*
X335856Y108158D01*
X335862Y108164D01*
X335875Y108189D01*
X335894Y108227D01*
X335925Y108270D01*
X335962Y108320D01*
X336006Y108377D01*
X336056Y108427D01*
X336112Y108470D01*
X336119Y108477D01*
X336143Y108489D01*
X336175Y108508D01*
X336218Y108527D01*
X336275Y108545D01*
X336331Y108564D01*
X336400Y108577D01*
X336468Y108583D01*
X336481D01*
X336506D01*
X336550Y108577D01*
X336606Y108564D01*
X336668Y108539D01*
X336737Y108508D01*
X336806Y108464D01*
X336868Y108408D01*
X336875Y108402D01*
X336893Y108377D01*
X336918Y108339D01*
X336950Y108289D01*
X336981Y108227D01*
X337006Y108152D01*
X337024Y108064D01*
X337031Y107964D01*
Y107921D01*
X337024Y107877D01*
X337012Y107821D01*
X336993Y107752D01*
X336968Y107677D01*
X336931Y107596D01*
X336881Y107521D01*
X336875Y107514D01*
X336856Y107489D01*
X336824Y107452D01*
X336781Y107414D01*
X336725Y107364D01*
X336662Y107321D01*
X336587Y107283D01*
X336506Y107252D01*
Y106171D01*
X336512D01*
X336537Y106177D01*
X336568Y106184D01*
X336612Y106190D01*
X336668Y106202D01*
X336731Y106215D01*
X336806Y106240D01*
X336881Y106258D01*
X337049Y106321D01*
X337224Y106402D01*
X337312Y106452D01*
X337393Y106508D01*
X337481Y106571D01*
X337556Y106640D01*
X337562Y106646D01*
X337581Y106665D01*
X337606Y106696D01*
X337643Y106740D01*
X337687Y106790D01*
X337731Y106852D01*
X337781Y106927D01*
X337837Y107008D01*
X337887Y107102D01*
X337937Y107208D01*
X337980Y107321D01*
X338024Y107439D01*
X338062Y107564D01*
X338087Y107702D01*
X338106Y107846D01*
X338112Y107996D01*
Y108102D01*
Y108064D01*
X338106Y108120D01*
X338099Y108183D01*
X338087Y108252D01*
X338074Y108333D01*
X338055Y108420D01*
X338031Y108520D01*
X337999Y108614D01*
X337962Y108720D01*
X337912Y108820D01*
X337862Y108926D01*
X337799Y109026D01*
X337724Y109127D01*
X337643Y109220D01*
X337637Y109227D01*
X337624Y109239D01*
X337599Y109264D01*
X337562Y109295D01*
X337518Y109333D01*
X337462Y109376D01*
X337399Y109420D01*
X337331Y109470D01*
X337256Y109514D01*
X337174Y109558D01*
X337081Y109601D01*
X336987Y109639D01*
X336881Y109670D01*
X336775Y109695D01*
X336662Y109708D01*
X336543Y109714D01*
X336537D01*
X336525D01*
X336506D01*
X336475Y109708D01*
X336443D01*
X336400Y109701D01*
X336306Y109689D01*
X336194Y109658D01*
X336075Y109620D01*
X335950Y109570D01*
X335825Y109495D01*
X335819D01*
X335812Y109483D01*
X335794Y109470D01*
X335769Y109458D01*
X335712Y109408D01*
X335637Y109339D01*
X335550Y109251D01*
X335462Y109145D01*
X335375Y109014D01*
X335294Y108870D01*
Y108876D01*
X335287Y108895D01*
X335275Y108920D01*
X335262Y108958D01*
X335244Y109002D01*
X335225Y109058D01*
X335163Y109177D01*
X335088Y109314D01*
X334994Y109451D01*
X334875Y109589D01*
X334731Y109714D01*
X334725Y109720D01*
X334713Y109726D01*
X334694Y109745D01*
X334663Y109764D01*
X334625Y109783D01*
X334575Y109814D01*
X334525Y109839D01*
X334463Y109870D01*
X334400Y109895D01*
X334325Y109926D01*
X334163Y109970D01*
X333982Y110007D01*
X333888Y110014D01*
X333788Y110020D01*
X338112D01*
D02*
G37*
G36*
X368112Y121970D02*
X364925D01*
X364894Y121964D01*
X364856D01*
X364762Y121958D01*
X364650Y121945D01*
X364525Y121920D01*
X364375Y121895D01*
X364219Y121858D01*
X364050Y121814D01*
X363875Y121751D01*
X363688Y121683D01*
X363507Y121595D01*
X363319Y121489D01*
X363138Y121370D01*
X362957Y121233D01*
X362782Y121076D01*
X362769Y121064D01*
X362744Y121033D01*
X362701Y120983D01*
X362644Y120920D01*
X362576Y120833D01*
X362501Y120727D01*
X362419Y120608D01*
X362338Y120470D01*
X362251Y120321D01*
X362169Y120152D01*
X362094Y119977D01*
X362026Y119783D01*
X361969Y119583D01*
X361926Y119371D01*
X361901Y119146D01*
X361888Y118908D01*
Y118852D01*
X361894Y118815D01*
Y118777D01*
X361901Y118683D01*
X361920Y118571D01*
X361938Y118440D01*
X361963Y118290D01*
X362001Y118127D01*
X362051Y117959D01*
X362113Y117777D01*
X362188Y117596D01*
X362276Y117409D01*
X362382Y117221D01*
X362507Y117040D01*
X362644Y116859D01*
X362807Y116690D01*
X362819Y116678D01*
X362850Y116653D01*
X362901Y116609D01*
X362969Y116553D01*
X363063Y116484D01*
X363169Y116409D01*
X363288Y116334D01*
X363425Y116253D01*
X363582Y116165D01*
X363750Y116090D01*
X363932Y116015D01*
X364125Y115947D01*
X364325Y115890D01*
X364544Y115847D01*
X364769Y115822D01*
X365000Y115809D01*
X368112D01*
Y118952D01*
X368105Y119021D01*
X368099Y119108D01*
X368087Y119214D01*
X368062Y119346D01*
X368037Y119483D01*
X367999Y119639D01*
X367949Y119808D01*
X367887Y119983D01*
X367818Y120158D01*
X367724Y120345D01*
X367624Y120527D01*
X367499Y120708D01*
X367362Y120889D01*
X367199Y121064D01*
X367187Y121076D01*
X367156Y121102D01*
X367106Y121145D01*
X367037Y121208D01*
X366950Y121277D01*
X366843Y121351D01*
X366718Y121433D01*
X366581Y121520D01*
X366425Y121601D01*
X366256Y121683D01*
X366075Y121758D01*
X365881Y121826D01*
X365669Y121889D01*
X365450Y121933D01*
X365219Y121958D01*
X364981Y121970D01*
X368112D01*
D02*
G37*
G36*
X367962Y114834D02*
X362038D01*
Y113716D01*
X367962D01*
Y114834D01*
D02*
G37*
G36*
Y112722D02*
D01*
Y109486D01*
X367956Y109573D01*
X367949Y109679D01*
X367943Y109804D01*
X367937Y109942D01*
X367924Y110086D01*
X367906Y110242D01*
X367881Y110398D01*
X367824Y110717D01*
X367787Y110873D01*
X367743Y111017D01*
X367693Y111154D01*
X367637Y111279D01*
X367631Y111285D01*
X367624Y111304D01*
X367606Y111341D01*
X367574Y111385D01*
X367543Y111435D01*
X367499Y111498D01*
X367449Y111573D01*
X367387Y111648D01*
X367318Y111729D01*
X367243Y111810D01*
X367156Y111898D01*
X367062Y111985D01*
X366962Y112073D01*
X366850Y112154D01*
X366725Y112235D01*
X366593Y112316D01*
X366587Y112323D01*
X366562Y112335D01*
X366518Y112354D01*
X366468Y112379D01*
X366400Y112410D01*
X366318Y112448D01*
X366218Y112479D01*
X366112Y112522D01*
X365993Y112560D01*
X365868Y112591D01*
X365731Y112629D01*
X365581Y112660D01*
X365425Y112685D01*
X365262Y112704D01*
X365088Y112716D01*
X364912Y112722D01*
X367962D01*
X364844D01*
X364800Y112716D01*
X364738D01*
X364669Y112710D01*
X364588Y112704D01*
X364500Y112691D01*
X364406Y112679D01*
X364306Y112666D01*
X364094Y112622D01*
X363875Y112566D01*
X363657Y112491D01*
X363650D01*
X363632Y112479D01*
X363600Y112466D01*
X363563Y112448D01*
X363513Y112429D01*
X363457Y112397D01*
X363394Y112366D01*
X363319Y112329D01*
X363169Y112241D01*
X363013Y112135D01*
X362850Y112010D01*
X362701Y111866D01*
X362694Y111860D01*
X362682Y111848D01*
X362663Y111829D01*
X362638Y111798D01*
X362607Y111760D01*
X362576Y111716D01*
X362538Y111666D01*
X362494Y111610D01*
X362407Y111479D01*
X362326Y111329D01*
X362244Y111173D01*
X362182Y110998D01*
Y110992D01*
X362176Y110973D01*
X362169Y110948D01*
X362157Y110904D01*
X362151Y110854D01*
X362138Y110792D01*
X362126Y110710D01*
X362113Y110623D01*
X362094Y110517D01*
X362082Y110398D01*
X362070Y110267D01*
X362063Y110117D01*
X362051Y109954D01*
X362044Y109779D01*
X362038Y109586D01*
Y108030D01*
X367962D01*
Y112722D01*
D02*
G37*
%LPD*%
G36*
X365069Y120833D02*
X365131D01*
X365200Y120820D01*
X365287Y120808D01*
X365381Y120789D01*
X365481Y120770D01*
X365594Y120739D01*
X365706Y120702D01*
X365825Y120652D01*
X365950Y120595D01*
X366068Y120533D01*
X366187Y120452D01*
X366306Y120364D01*
X366418Y120264D01*
X366425Y120258D01*
X366443Y120239D01*
X366475Y120208D01*
X366512Y120164D01*
X366556Y120108D01*
X366606Y120039D01*
X366656Y119964D01*
X366712Y119877D01*
X366768Y119783D01*
X366818Y119677D01*
X366868Y119564D01*
X366912Y119439D01*
X366950Y119314D01*
X366981Y119177D01*
X367000Y119033D01*
X367006Y118883D01*
Y118846D01*
X367000Y118802D01*
Y118746D01*
X366987Y118677D01*
X366974Y118596D01*
X366956Y118502D01*
X366937Y118402D01*
X366906Y118296D01*
X366868Y118183D01*
X366818Y118065D01*
X366762Y117952D01*
X366699Y117834D01*
X366618Y117715D01*
X366531Y117602D01*
X366431Y117496D01*
X366425Y117490D01*
X366406Y117471D01*
X366375Y117446D01*
X366331Y117409D01*
X366275Y117365D01*
X366206Y117321D01*
X366125Y117271D01*
X366037Y117221D01*
X365937Y117165D01*
X365825Y117115D01*
X365706Y117071D01*
X365581Y117028D01*
X365444Y116990D01*
X365294Y116965D01*
X365144Y116946D01*
X364981Y116940D01*
X364969D01*
X364938D01*
X364888Y116946D01*
X364819Y116953D01*
X364738Y116959D01*
X364638Y116978D01*
X364531Y116996D01*
X364419Y117028D01*
X364294Y117065D01*
X364169Y117115D01*
X364038Y117171D01*
X363907Y117240D01*
X363782Y117321D01*
X363657Y117415D01*
X363538Y117521D01*
X363425Y117646D01*
X363419Y117652D01*
X363407Y117671D01*
X363382Y117702D01*
X363357Y117740D01*
X363325Y117796D01*
X363288Y117859D01*
X363244Y117927D01*
X363207Y118009D01*
X363163Y118096D01*
X363119Y118190D01*
X363082Y118296D01*
X363050Y118408D01*
X363026Y118521D01*
X363000Y118646D01*
X362988Y118771D01*
X362982Y118902D01*
Y118940D01*
X362988Y118983D01*
Y119040D01*
X363000Y119108D01*
X363013Y119190D01*
X363032Y119277D01*
X363057Y119377D01*
X363082Y119483D01*
X363119Y119589D01*
X363169Y119702D01*
X363225Y119821D01*
X363288Y119933D01*
X363369Y120052D01*
X363457Y120164D01*
X363557Y120271D01*
X363563Y120277D01*
X363582Y120295D01*
X363619Y120321D01*
X363663Y120358D01*
X363719Y120402D01*
X363788Y120452D01*
X363863Y120502D01*
X363956Y120558D01*
X364050Y120608D01*
X364163Y120658D01*
X364281Y120708D01*
X364406Y120752D01*
X364538Y120789D01*
X364681Y120814D01*
X364831Y120833D01*
X364987Y120839D01*
X365000D01*
X365025D01*
X365069Y120833D01*
D02*
G37*
G36*
X368112Y115809D02*
X365081D01*
X365144Y115815D01*
X365219Y115822D01*
X365306Y115828D01*
X365406Y115840D01*
X365512Y115859D01*
X365631Y115884D01*
X365756Y115909D01*
X365887Y115940D01*
X366018Y115978D01*
X366156Y116028D01*
X366293Y116084D01*
X366425Y116147D01*
X366562Y116215D01*
X366568Y116222D01*
X366593Y116234D01*
X366631Y116259D01*
X366681Y116290D01*
X366743Y116334D01*
X366812Y116384D01*
X366887Y116447D01*
X366968Y116509D01*
X367062Y116590D01*
X367149Y116671D01*
X367243Y116765D01*
X367337Y116865D01*
X367431Y116978D01*
X367524Y117090D01*
X367612Y117215D01*
X367693Y117346D01*
X367699Y117353D01*
X367712Y117378D01*
X367730Y117421D01*
X367762Y117471D01*
X367793Y117540D01*
X367824Y117621D01*
X367862Y117709D01*
X367906Y117815D01*
X367943Y117921D01*
X367980Y118046D01*
X368012Y118171D01*
X368049Y118308D01*
X368074Y118446D01*
X368093Y118590D01*
X368105Y118740D01*
X368112Y118896D01*
Y115809D01*
D02*
G37*
G36*
X365031Y111585D02*
X365100D01*
X365175Y111573D01*
X365269Y111566D01*
X365369Y111548D01*
X365481Y111523D01*
X365594Y111498D01*
X365712Y111460D01*
X365837Y111417D01*
X365956Y111367D01*
X366075Y111304D01*
X366193Y111235D01*
X366306Y111154D01*
X366406Y111060D01*
X366412Y111054D01*
X366425Y111035D01*
X366450Y111010D01*
X366481Y110973D01*
X366512Y110917D01*
X366556Y110854D01*
X366600Y110779D01*
X366643Y110692D01*
X366687Y110592D01*
X366725Y110479D01*
X366768Y110354D01*
X366800Y110217D01*
X366831Y110061D01*
X366856Y109898D01*
X366868Y109723D01*
X366875Y109529D01*
Y109148D01*
X363138D01*
Y109798D01*
X363144Y109861D01*
X363150Y109936D01*
Y110017D01*
X363163Y110104D01*
X363182Y110286D01*
X363213Y110473D01*
X363232Y110561D01*
X363257Y110648D01*
X363282Y110723D01*
X363313Y110792D01*
Y110798D01*
X363319Y110810D01*
X363332Y110823D01*
X363344Y110848D01*
X363388Y110917D01*
X363450Y110998D01*
X363538Y111085D01*
X363638Y111179D01*
X363763Y111279D01*
X363907Y111367D01*
X363913D01*
X363925Y111379D01*
X363950Y111385D01*
X363982Y111404D01*
X364025Y111417D01*
X364069Y111435D01*
X364132Y111460D01*
X364194Y111479D01*
X364263Y111498D01*
X364344Y111523D01*
X364431Y111542D01*
X364519Y111554D01*
X364719Y111579D01*
X364944Y111592D01*
X364956D01*
X364987D01*
X365031Y111585D01*
D02*
G37*
%LPC*%
G36*
X412962Y144334D02*
X407038D01*
D01*
X411175D01*
X411137Y144327D01*
X411081Y144321D01*
X411018Y144315D01*
X410950Y144309D01*
X410875Y144290D01*
X410712Y144253D01*
X410544Y144196D01*
X410456Y144159D01*
X410369Y144115D01*
X410287Y144059D01*
X410206Y144003D01*
X410200Y143996D01*
X410187Y143990D01*
X410169Y143971D01*
X410137Y143946D01*
X410106Y143909D01*
X410069Y143871D01*
X410025Y143821D01*
X409981Y143771D01*
X409931Y143709D01*
X409888Y143646D01*
X409787Y143497D01*
X409700Y143322D01*
X409631Y143122D01*
Y143115D01*
X409625Y143109D01*
Y143084D01*
X409619Y143059D01*
X409613Y143022D01*
X409606Y142972D01*
X409594Y142915D01*
X409588Y142853D01*
X409581Y142778D01*
X409569Y142690D01*
X409563Y142591D01*
X409556Y142484D01*
X409550Y142366D01*
Y142234D01*
X409544Y142091D01*
Y141934D01*
X407038D01*
Y140816D01*
X412962D01*
Y144334D01*
D02*
G37*
G36*
Y137448D02*
Y137367D01*
X411918D01*
Y135436D01*
X410837Y135192D01*
Y135199D01*
X410844Y135211D01*
Y135230D01*
X410850Y135255D01*
X410862Y135317D01*
X410875Y135386D01*
Y135392D01*
X410881Y135405D01*
Y135424D01*
X410887Y135449D01*
X410894Y135505D01*
Y135611D01*
X410887Y135648D01*
Y135711D01*
X410875Y135780D01*
X410862Y135855D01*
X410850Y135948D01*
X410825Y136042D01*
X410793Y136148D01*
X410762Y136255D01*
X410712Y136367D01*
X410662Y136480D01*
X410600Y136592D01*
X410525Y136698D01*
X410444Y136811D01*
X410344Y136911D01*
X410337Y136917D01*
X410319Y136936D01*
X410287Y136961D01*
X410244Y136992D01*
X410187Y137036D01*
X410125Y137079D01*
X410050Y137129D01*
X409963Y137179D01*
X409863Y137229D01*
X409756Y137279D01*
X409644Y137323D01*
X409519Y137367D01*
X409388Y137398D01*
X409244Y137423D01*
X409094Y137442D01*
X408938Y137448D01*
X412962D01*
X406888D01*
X408900D01*
X408857Y137442D01*
X408794D01*
X408719Y137429D01*
X408632Y137417D01*
X408538Y137398D01*
X408432Y137373D01*
X408319Y137342D01*
X408200Y137304D01*
X408075Y137254D01*
X407957Y137198D01*
X407832Y137129D01*
X407707Y137048D01*
X407588Y136961D01*
X407476Y136854D01*
X407469Y136848D01*
X407451Y136829D01*
X407419Y136792D01*
X407382Y136748D01*
X407338Y136692D01*
X407288Y136623D01*
X407238Y136542D01*
X407182Y136454D01*
X407126Y136355D01*
X407076Y136248D01*
X407026Y136130D01*
X406982Y136005D01*
X406945Y135867D01*
X406913Y135730D01*
X406894Y135580D01*
X406888Y135424D01*
Y135349D01*
X406894Y135299D01*
X406901Y135230D01*
X406913Y135155D01*
X406926Y135067D01*
X406945Y134974D01*
X406963Y134874D01*
X406995Y134768D01*
X407026Y134661D01*
X407070Y134549D01*
X407119Y134443D01*
X407176Y134330D01*
X407244Y134224D01*
X407319Y134118D01*
X407326Y134111D01*
X407338Y134093D01*
X407363Y134068D01*
X407401Y134030D01*
X407444Y133986D01*
X407494Y133936D01*
X407557Y133886D01*
X407632Y133830D01*
X407713Y133768D01*
X407801Y133712D01*
X407894Y133649D01*
X408000Y133593D01*
X408119Y133537D01*
X408238Y133493D01*
X408369Y133449D01*
X408507Y133412D01*
D01*
Y134599D01*
X408494Y134605D01*
X408463Y134624D01*
X408413Y134655D01*
X408350Y134692D01*
X408282Y134742D01*
X408207Y134805D01*
X408144Y134874D01*
X408082Y134955D01*
X408075Y134967D01*
X408063Y134992D01*
X408038Y135042D01*
X408013Y135099D01*
X407988Y135174D01*
X407963Y135255D01*
X407951Y135349D01*
X407944Y135442D01*
Y135480D01*
X407951Y135505D01*
X407957Y135574D01*
X407976Y135661D01*
X408013Y135761D01*
X408057Y135867D01*
X408125Y135980D01*
X408163Y136030D01*
X408213Y136080D01*
X408219Y136086D01*
X408225Y136092D01*
X408263Y136123D01*
X408319Y136161D01*
X408400Y136211D01*
X408500Y136261D01*
X408619Y136298D01*
X408750Y136330D01*
X408900Y136342D01*
X408907D01*
X408919D01*
X408938D01*
X408969Y136336D01*
X409000D01*
X409044Y136330D01*
X409138Y136311D01*
X409244Y136286D01*
X409356Y136242D01*
X409463Y136180D01*
X409569Y136098D01*
X409575D01*
X409581Y136086D01*
X409613Y136055D01*
X409656Y136005D01*
X409706Y135936D01*
X409750Y135848D01*
X409794Y135749D01*
X409825Y135630D01*
X409837Y135567D01*
Y135473D01*
X409831Y135436D01*
X409825Y135392D01*
X409813Y135336D01*
X409800Y135274D01*
X409775Y135211D01*
X409744Y135142D01*
X409738Y135136D01*
X409725Y135111D01*
X409706Y135080D01*
X409675Y135036D01*
X409631Y134980D01*
X409588Y134924D01*
X409531Y134855D01*
X409463Y134792D01*
X409669Y133874D01*
X412962Y134593D01*
Y133412D01*
X408507D01*
X412962D01*
Y137448D01*
D02*
G37*
G36*
X413112Y132962D02*
X408657D01*
X408619Y132955D01*
X408575D01*
X408519Y132949D01*
X408463Y132943D01*
X408394Y132930D01*
X408250Y132899D01*
X408088Y132856D01*
X407925Y132793D01*
X407757Y132705D01*
X407751D01*
X407738Y132693D01*
X407713Y132681D01*
X407688Y132662D01*
X407651Y132631D01*
X407607Y132599D01*
X407513Y132524D01*
X407407Y132424D01*
X407301Y132306D01*
X407201Y132168D01*
X407107Y132012D01*
Y132006D01*
X407101Y131993D01*
X407088Y131968D01*
X407076Y131937D01*
X407057Y131893D01*
X407038Y131843D01*
X407020Y131781D01*
X407001Y131712D01*
X406976Y131637D01*
X406957Y131556D01*
X406938Y131462D01*
X406926Y131368D01*
X406907Y131262D01*
X406901Y131150D01*
X406888Y130912D01*
Y132962D01*
D01*
Y128844D01*
Y130843D01*
X406894Y130794D01*
Y130731D01*
X406901Y130662D01*
X406907Y130587D01*
X406913Y130500D01*
X406938Y130319D01*
X406976Y130125D01*
X407026Y129937D01*
X407057Y129850D01*
X407094Y129769D01*
Y129762D01*
X407107Y129750D01*
X407119Y129731D01*
X407132Y129700D01*
X407157Y129663D01*
X407182Y129625D01*
X407257Y129525D01*
X407344Y129419D01*
X407457Y129306D01*
X407588Y129194D01*
X407738Y129094D01*
X407744D01*
X407757Y129081D01*
X407782Y129069D01*
X407813Y129056D01*
X407857Y129038D01*
X407901Y129013D01*
X407957Y128994D01*
X408019Y128969D01*
X408088Y128944D01*
X408163Y128925D01*
X408332Y128882D01*
X408513Y128856D01*
X408707Y128844D01*
X408750D01*
X408788Y128850D01*
X408825D01*
X408875Y128856D01*
X408988Y128869D01*
X409119Y128894D01*
X409263Y128932D01*
X409413Y128975D01*
X409563Y129044D01*
X409569D01*
X409581Y129056D01*
X409600Y129069D01*
X409625Y129081D01*
X409663Y129106D01*
X409700Y129131D01*
X409794Y129200D01*
X409900Y129281D01*
X410019Y129388D01*
X410137Y129513D01*
X410250Y129656D01*
X410256D01*
X410262Y129644D01*
X410300Y129613D01*
X410350Y129563D01*
X410425Y129506D01*
X410506Y129438D01*
X410606Y129369D01*
X410706Y129306D01*
X410818Y129250D01*
X410825D01*
X410831Y129244D01*
X410850Y129238D01*
X410875Y129231D01*
X410931Y129206D01*
X411012Y129188D01*
X411112Y129163D01*
X411218Y129138D01*
X411337Y129125D01*
X411462Y129119D01*
X411468D01*
X411481D01*
X411506D01*
X411543Y129125D01*
X411581D01*
X411631Y129131D01*
X411743Y129144D01*
X411875Y129175D01*
X412012Y129213D01*
X412162Y129263D01*
X412306Y129338D01*
X412312D01*
X412324Y129350D01*
X412343Y129363D01*
X412368Y129381D01*
X412437Y129431D01*
X412524Y129500D01*
X412618Y129594D01*
X412718Y129700D01*
X412812Y129825D01*
X412899Y129969D01*
Y129975D01*
X412906Y129987D01*
X412918Y130012D01*
X412930Y130044D01*
X412949Y130081D01*
X412968Y130125D01*
X412987Y130181D01*
X413005Y130237D01*
X413043Y130375D01*
X413080Y130531D01*
X413105Y130712D01*
X413112Y130900D01*
Y130950D01*
X413105Y130987D01*
Y131031D01*
X413099Y131087D01*
X413093Y131143D01*
X413087Y131212D01*
X413055Y131356D01*
X413018Y131506D01*
X412968Y131668D01*
X412893Y131818D01*
Y131825D01*
X412881Y131837D01*
X412868Y131856D01*
X412855Y131881D01*
X412805Y131956D01*
X412737Y132043D01*
X412649Y132143D01*
X412549Y132249D01*
X412424Y132349D01*
X412287Y132443D01*
X412281D01*
X412268Y132456D01*
X412249Y132462D01*
X412218Y132481D01*
X412181Y132499D01*
X412143Y132518D01*
X412037Y132562D01*
X411912Y132599D01*
X411768Y132637D01*
X411612Y132662D01*
X411450Y132674D01*
X411443D01*
X411437D01*
X411418D01*
X411393D01*
X411337Y132668D01*
X411256Y132662D01*
X411162Y132643D01*
X411062Y132624D01*
X410962Y132593D01*
X410856Y132549D01*
X410844Y132543D01*
X410806Y132524D01*
X410756Y132493D01*
X410681Y132449D01*
X410587Y132393D01*
X410487Y132318D01*
X410375Y132224D01*
X410250Y132118D01*
Y132124D01*
X410237Y132137D01*
X410225Y132156D01*
X410206Y132187D01*
X410150Y132256D01*
X410069Y132343D01*
X409975Y132443D01*
X409863Y132549D01*
X409731Y132649D01*
X409588Y132737D01*
X409581D01*
X409569Y132749D01*
X409550Y132755D01*
X409519Y132774D01*
X409481Y132787D01*
X409431Y132806D01*
X409381Y132830D01*
X409325Y132849D01*
X409194Y132893D01*
X409044Y132924D01*
X408881Y132949D01*
X408707Y132962D01*
X413112D01*
D02*
G37*
G36*
Y128369D02*
D01*
Y127844D01*
X409300D01*
Y128369D01*
X413112D01*
X408257D01*
Y127844D01*
X407038D01*
Y126738D01*
X408257D01*
Y124151D01*
X407038D01*
X413112D01*
Y128369D01*
D02*
G37*
G36*
Y123583D02*
X408532D01*
X408494Y123577D01*
X408444D01*
X408382Y123570D01*
X408307Y123558D01*
X408225Y123539D01*
X408144Y123520D01*
X408050Y123495D01*
X407951Y123458D01*
X407850Y123420D01*
X407751Y123370D01*
X407651Y123314D01*
X407551Y123245D01*
X407457Y123164D01*
X407363Y123077D01*
X407357Y123070D01*
X407344Y123052D01*
X407319Y123027D01*
X407288Y122983D01*
X407251Y122933D01*
X407213Y122877D01*
X407169Y122802D01*
X407126Y122721D01*
X407082Y122633D01*
X407038Y122533D01*
X407001Y122427D01*
X406963Y122308D01*
X406932Y122183D01*
X406907Y122052D01*
X406894Y121915D01*
X406888Y121765D01*
Y121889D01*
Y121765D01*
Y121702D01*
X406894Y121658D01*
X406901Y121602D01*
X406907Y121540D01*
X406913Y121465D01*
X406926Y121390D01*
X406963Y121215D01*
X407020Y121027D01*
X407051Y120934D01*
X407094Y120840D01*
X407138Y120746D01*
X407195Y120659D01*
X407201Y120652D01*
X407207Y120640D01*
X407226Y120615D01*
X407257Y120577D01*
X407288Y120540D01*
X407326Y120496D01*
X407376Y120440D01*
X407432Y120384D01*
X407501Y120321D01*
X407569Y120259D01*
X407651Y120190D01*
X407738Y120121D01*
X407832Y120059D01*
X407938Y119990D01*
X408050Y119921D01*
X408169Y119859D01*
X408744Y120802D01*
X408738Y120808D01*
X408713Y120821D01*
X408669Y120846D01*
X408619Y120877D01*
X408563Y120921D01*
X408494Y120971D01*
X408425Y121027D01*
X408350Y121090D01*
X408275Y121159D01*
X408207Y121233D01*
X408138Y121315D01*
X408082Y121402D01*
X408032Y121490D01*
X407988Y121590D01*
X407963Y121690D01*
X407957Y121790D01*
Y121840D01*
X407963Y121889D01*
X407976Y121958D01*
X408000Y122033D01*
X408026Y122114D01*
X408069Y122196D01*
X408125Y122277D01*
X408132Y122283D01*
X408157Y122308D01*
X408188Y122339D01*
X408238Y122377D01*
X408294Y122414D01*
X408363Y122446D01*
X408432Y122471D01*
X408513Y122477D01*
X408519D01*
X408550D01*
X408588Y122471D01*
X408638Y122458D01*
X408700Y122439D01*
X408769Y122414D01*
X408838Y122377D01*
X408913Y122327D01*
X408925Y122321D01*
X408950Y122296D01*
X409000Y122252D01*
X409069Y122189D01*
X409106Y122146D01*
X409156Y122102D01*
X409206Y122046D01*
X409263Y121983D01*
X409319Y121915D01*
X409388Y121840D01*
X409456Y121758D01*
X409531Y121665D01*
X409538Y121652D01*
X409569Y121621D01*
X409606Y121571D01*
X409663Y121508D01*
X409731Y121433D01*
X409806Y121346D01*
X409888Y121246D01*
X409981Y121146D01*
X410175Y120934D01*
X410281Y120827D01*
X410381Y120727D01*
X410481Y120634D01*
X410575Y120552D01*
X410669Y120477D01*
X410750Y120415D01*
X410756D01*
X410769Y120402D01*
X410793Y120390D01*
X410825Y120371D01*
X410862Y120352D01*
X410912Y120327D01*
X410962Y120302D01*
X411018Y120277D01*
X411150Y120221D01*
X411293Y120177D01*
X411450Y120146D01*
X411531Y120140D01*
X411612Y120134D01*
X411618D01*
X411637D01*
X411675Y120140D01*
X411712D01*
X411768Y120146D01*
X411831Y120159D01*
X411899Y120171D01*
X411974Y120190D01*
X412056Y120215D01*
X412137Y120246D01*
X412224Y120284D01*
X412318Y120334D01*
X412406Y120384D01*
X412493Y120446D01*
X412581Y120521D01*
X412668Y120602D01*
X412674Y120609D01*
X412687Y120621D01*
X412712Y120652D01*
X412737Y120684D01*
X412768Y120734D01*
X412805Y120790D01*
X412849Y120852D01*
X412893Y120921D01*
X412930Y121002D01*
X412974Y121090D01*
X413012Y121184D01*
X413043Y121290D01*
X413068Y121396D01*
X413093Y121515D01*
X413105Y121633D01*
X413112Y121758D01*
Y121989D01*
Y121833D01*
X413105Y121871D01*
X413099Y121921D01*
X413087Y122033D01*
X413062Y122158D01*
X413024Y122302D01*
X412974Y122452D01*
X412906Y122602D01*
Y122608D01*
X412893Y122621D01*
X412881Y122646D01*
X412868Y122671D01*
X412843Y122708D01*
X412812Y122758D01*
X412774Y122808D01*
X412737Y122864D01*
X412687Y122927D01*
X412631Y122996D01*
X412568Y123064D01*
X412499Y123145D01*
X412424Y123220D01*
X412343Y123302D01*
X412256Y123389D01*
X412156Y123477D01*
X411418Y122639D01*
X411425Y122633D01*
X411443Y122621D01*
X411475Y122596D01*
X411512Y122564D01*
X411562Y122521D01*
X411612Y122477D01*
X411668Y122421D01*
X411725Y122358D01*
X411837Y122227D01*
X411887Y122152D01*
X411937Y122071D01*
X411974Y121989D01*
X412006Y121908D01*
X412024Y121827D01*
X412031Y121740D01*
Y121702D01*
X412024Y121665D01*
X412018Y121615D01*
X412000Y121552D01*
X411981Y121496D01*
X411950Y121433D01*
X411906Y121377D01*
X411899Y121371D01*
X411887Y121358D01*
X411862Y121333D01*
X411831Y121308D01*
X411787Y121283D01*
X411743Y121258D01*
X411693Y121246D01*
X411643Y121240D01*
X411637D01*
X411618D01*
X411587Y121246D01*
X411550Y121252D01*
X411506Y121265D01*
X411462Y121283D01*
X411412Y121308D01*
X411362Y121340D01*
X411356Y121346D01*
X411325Y121371D01*
X411300Y121390D01*
X411275Y121421D01*
X411237Y121452D01*
X411200Y121496D01*
X411150Y121546D01*
X411100Y121602D01*
X411037Y121671D01*
X410962Y121746D01*
X410887Y121833D01*
X410800Y121933D01*
X410706Y122039D01*
X410600Y122164D01*
X410594Y122171D01*
X410575Y122196D01*
X410550Y122227D01*
X410512Y122271D01*
X410469Y122321D01*
X410419Y122377D01*
X410312Y122508D01*
X410194Y122639D01*
X410081Y122771D01*
X410031Y122827D01*
X409987Y122877D01*
X409950Y122921D01*
X409919Y122952D01*
X409912Y122958D01*
X409906Y122964D01*
X409888Y122983D01*
X409856Y123008D01*
X409794Y123070D01*
X409706Y123139D01*
X409600Y123220D01*
X409488Y123302D01*
X409369Y123377D01*
X409250Y123439D01*
X409244D01*
X409238Y123445D01*
X409219Y123452D01*
X409194Y123464D01*
X409132Y123483D01*
X409050Y123514D01*
X408944Y123539D01*
X408831Y123558D01*
X408700Y123577D01*
X408563Y123583D01*
X413112D01*
D02*
G37*
G36*
X412962Y119459D02*
X407038D01*
Y115666D01*
X412962D01*
Y117022D01*
X412956Y117097D01*
Y117191D01*
X412949Y117291D01*
X412937Y117403D01*
X412918Y117628D01*
X412887Y117859D01*
X412862Y117972D01*
X412843Y118078D01*
X412812Y118172D01*
X412780Y118253D01*
Y118259D01*
X412774Y118272D01*
X412762Y118290D01*
X412749Y118322D01*
X412730Y118359D01*
X412706Y118397D01*
X412643Y118497D01*
X412562Y118603D01*
X412462Y118715D01*
X412343Y118828D01*
X412199Y118928D01*
X412193D01*
X412181Y118940D01*
X412156Y118953D01*
X412124Y118965D01*
X412087Y118990D01*
X412043Y119009D01*
X411987Y119034D01*
X411925Y119059D01*
X411862Y119078D01*
X411787Y119103D01*
X411625Y119146D01*
X411437Y119171D01*
X411237Y119184D01*
X411231D01*
X411212D01*
X411181D01*
X411143Y119178D01*
X411093D01*
X411031Y119171D01*
X410969Y119159D01*
X410900Y119146D01*
X410744Y119115D01*
X410581Y119065D01*
X410419Y118996D01*
X410337Y118953D01*
X410262Y118903D01*
X410256D01*
X410244Y118890D01*
X410225Y118871D01*
X410200Y118853D01*
X410163Y118822D01*
X410125Y118784D01*
X410088Y118740D01*
X410037Y118690D01*
X409994Y118634D01*
X409944Y118572D01*
X409894Y118503D01*
X409844Y118428D01*
X409794Y118340D01*
X409750Y118253D01*
X409706Y118159D01*
X409663Y118053D01*
X407038Y119459D01*
X412962D01*
D02*
G37*
%LPD*%
G36*
Y142166D02*
X412956Y142247D01*
Y142340D01*
X412949Y142441D01*
X412937Y142547D01*
X412918Y142778D01*
X412887Y143009D01*
X412862Y143115D01*
X412843Y143222D01*
X412812Y143315D01*
X412780Y143403D01*
Y143409D01*
X412774Y143421D01*
X412762Y143447D01*
X412749Y143471D01*
X412724Y143509D01*
X412699Y143553D01*
X412643Y143653D01*
X412562Y143759D01*
X412462Y143871D01*
X412337Y143984D01*
X412199Y144084D01*
X412193D01*
X412181Y144096D01*
X412162Y144109D01*
X412131Y144121D01*
X412087Y144140D01*
X412043Y144165D01*
X411987Y144184D01*
X411931Y144209D01*
X411862Y144234D01*
X411787Y144253D01*
X411625Y144296D01*
X411437Y144321D01*
X411237Y144334D01*
X412962D01*
Y142166D01*
D02*
G37*
G36*
X411293Y143234D02*
X411356Y143228D01*
X411431Y143209D01*
X411512Y143178D01*
X411593Y143128D01*
X411675Y143059D01*
X411712Y143022D01*
X411743Y142972D01*
X411749Y142965D01*
X411762Y142934D01*
X411781Y142884D01*
X411806Y142809D01*
X411812Y142765D01*
X411824Y142709D01*
X411837Y142653D01*
X411843Y142584D01*
X411850Y142515D01*
X411856Y142434D01*
X411862Y142347D01*
Y141934D01*
X410644D01*
Y142359D01*
X410650Y142434D01*
Y142522D01*
X410656Y142622D01*
X410669Y142715D01*
X410681Y142809D01*
X410700Y142878D01*
X410706Y142884D01*
X410712Y142903D01*
X410725Y142934D01*
X410750Y142972D01*
X410775Y143015D01*
X410812Y143059D01*
X410850Y143103D01*
X410900Y143140D01*
X410906Y143147D01*
X410925Y143159D01*
X410956Y143172D01*
X410993Y143190D01*
X411044Y143209D01*
X411106Y143228D01*
X411168Y143234D01*
X411237Y143240D01*
X411243D01*
X411250D01*
X411268D01*
X411293Y143234D01*
D02*
G37*
G36*
X411481Y131531D02*
X411543Y131518D01*
X411618Y131500D01*
X411693Y131462D01*
X411774Y131418D01*
X411843Y131356D01*
X411850Y131350D01*
X411875Y131325D01*
X411899Y131281D01*
X411937Y131225D01*
X411968Y131156D01*
X412000Y131068D01*
X412018Y130968D01*
X412024Y130862D01*
Y130819D01*
X412012Y130762D01*
X412000Y130700D01*
X411981Y130625D01*
X411943Y130550D01*
X411899Y130475D01*
X411837Y130400D01*
X411831Y130394D01*
X411806Y130375D01*
X411762Y130344D01*
X411712Y130312D01*
X411643Y130281D01*
X411568Y130250D01*
X411475Y130231D01*
X411375Y130225D01*
X411362D01*
X411325Y130231D01*
X411275Y130237D01*
X411206Y130250D01*
X411131Y130269D01*
X411050Y130306D01*
X410969Y130350D01*
X410894Y130412D01*
X410887Y130419D01*
X410862Y130450D01*
X410837Y130487D01*
X410800Y130544D01*
X410769Y130612D01*
X410737Y130694D01*
X410712Y130781D01*
X410706Y130881D01*
Y130893D01*
X410712Y130931D01*
X410719Y130981D01*
X410731Y131050D01*
X410750Y131125D01*
X410787Y131206D01*
X410831Y131281D01*
X410894Y131356D01*
X410900Y131362D01*
X410925Y131387D01*
X410969Y131418D01*
X411025Y131450D01*
X411093Y131487D01*
X411181Y131512D01*
X411275Y131537D01*
X411381Y131543D01*
X411387D01*
X411393D01*
X411431D01*
X411481Y131531D01*
D02*
G37*
G36*
X408844Y131837D02*
X408913Y131831D01*
X409000Y131812D01*
X409094Y131781D01*
X409200Y131731D01*
X409300Y131662D01*
X409350Y131624D01*
X409400Y131574D01*
X409413Y131562D01*
X409438Y131525D01*
X409481Y131468D01*
X409525Y131393D01*
X409569Y131293D01*
X409613Y131181D01*
X409638Y131056D01*
X409650Y130912D01*
Y130875D01*
X409644Y130843D01*
Y130806D01*
X409638Y130768D01*
X409619Y130675D01*
X409588Y130562D01*
X409544Y130450D01*
X409481Y130331D01*
X409400Y130225D01*
X409388Y130212D01*
X409356Y130181D01*
X409300Y130137D01*
X409231Y130087D01*
X409144Y130037D01*
X409044Y129994D01*
X408932Y129963D01*
X408869Y129956D01*
X408806Y129950D01*
X408800D01*
X408794D01*
X408775D01*
X408750Y129956D01*
X408682Y129963D01*
X408600Y129981D01*
X408500Y130012D01*
X408400Y130056D01*
X408300Y130119D01*
X408200Y130206D01*
X408188Y130219D01*
X408163Y130256D01*
X408125Y130312D01*
X408082Y130394D01*
X408032Y130494D01*
X407994Y130612D01*
X407969Y130744D01*
X407957Y130900D01*
Y130943D01*
X407963Y130968D01*
Y131006D01*
X407969Y131050D01*
X407988Y131150D01*
X408013Y131256D01*
X408057Y131375D01*
X408113Y131487D01*
X408188Y131587D01*
X408200Y131600D01*
X408232Y131624D01*
X408282Y131668D01*
X408350Y131718D01*
X408432Y131762D01*
X408538Y131806D01*
X408650Y131831D01*
X408782Y131843D01*
X408788D01*
X408800D01*
X408819D01*
X408844Y131837D01*
D02*
G37*
G36*
X409300Y125382D02*
Y126738D01*
X411281D01*
X409300Y125382D01*
D02*
G37*
G36*
X413112Y124151D02*
X409294D01*
X413112Y126720D01*
Y124151D01*
D02*
G37*
G36*
X411318Y118084D02*
X411362Y118078D01*
X411418Y118066D01*
X411475Y118047D01*
X411531Y118022D01*
X411587Y117984D01*
X411593Y117978D01*
X411612Y117965D01*
X411637Y117947D01*
X411668Y117915D01*
X411700Y117878D01*
X411737Y117828D01*
X411768Y117778D01*
X411793Y117716D01*
X411800Y117709D01*
X411806Y117684D01*
X411818Y117641D01*
X411831Y117572D01*
X411843Y117491D01*
X411850Y117378D01*
X411856Y117316D01*
X411862Y117247D01*
Y116785D01*
X410644D01*
Y117222D01*
X410650Y117266D01*
Y117316D01*
X410662Y117434D01*
X410675Y117559D01*
X410700Y117678D01*
X410737Y117791D01*
X410756Y117841D01*
X410781Y117884D01*
X410787Y117891D01*
X410806Y117915D01*
X410844Y117947D01*
X410894Y117991D01*
X410956Y118028D01*
X411037Y118059D01*
X411137Y118084D01*
X411250Y118090D01*
X411256D01*
X411281D01*
X411318Y118084D01*
D02*
G37*
G36*
X409544Y116891D02*
Y116785D01*
X407038D01*
Y118228D01*
X409544Y116891D01*
D02*
G37*
%LPC*%
G36*
X397962Y122336D02*
Y122136D01*
X395319Y120061D01*
X392038Y122336D01*
Y118031D01*
X397962D01*
Y122336D01*
D02*
G37*
G36*
Y117162D02*
Y115506D01*
X393113D01*
Y117162D01*
X397962D01*
X392038D01*
Y114388D01*
X397962D01*
Y117162D01*
D02*
G37*
G36*
X398112Y113400D02*
D01*
Y110895D01*
X398106Y110945D01*
Y111007D01*
X398093Y111088D01*
X398087Y111176D01*
X398074Y111270D01*
X398055Y111376D01*
X398037Y111482D01*
X397980Y111720D01*
X397943Y111845D01*
X397906Y111969D01*
X397855Y112101D01*
X397799Y112226D01*
X397793Y112232D01*
X397787Y112257D01*
X397768Y112294D01*
X397743Y112338D01*
X397712Y112401D01*
X397668Y112469D01*
X397624Y112544D01*
X397574Y112626D01*
X397512Y112719D01*
X397449Y112813D01*
X397374Y112907D01*
X397293Y113007D01*
X397212Y113107D01*
X397118Y113207D01*
X396918Y113400D01*
X396168Y112607D01*
X396181Y112601D01*
X396206Y112569D01*
X396250Y112526D01*
X396300Y112463D01*
X396368Y112388D01*
X396437Y112301D01*
X396512Y112194D01*
X396593Y112076D01*
X396675Y111951D01*
X396749Y111813D01*
X396818Y111663D01*
X396887Y111501D01*
X396937Y111338D01*
X396981Y111164D01*
X397012Y110982D01*
X397018Y110795D01*
Y110757D01*
X397012Y110714D01*
Y110651D01*
X397000Y110582D01*
X396987Y110495D01*
X396968Y110401D01*
X396943Y110301D01*
X396912Y110189D01*
X396875Y110076D01*
X396831Y109958D01*
X396774Y109839D01*
X396706Y109720D01*
X396631Y109601D01*
X396537Y109483D01*
X396437Y109370D01*
X396431Y109364D01*
X396412Y109345D01*
X396381Y109314D01*
X396331Y109283D01*
X396275Y109233D01*
X396206Y109189D01*
X396131Y109133D01*
X396044Y109083D01*
X395943Y109026D01*
X395831Y108970D01*
X395712Y108927D01*
X395587Y108883D01*
X395456Y108845D01*
X395312Y108814D01*
X395163Y108795D01*
X395006Y108789D01*
X395000D01*
X394981D01*
X394950D01*
X394906Y108795D01*
X394856D01*
X394794Y108802D01*
X394731Y108808D01*
X394656Y108820D01*
X394494Y108852D01*
X394319Y108895D01*
X394132Y108958D01*
X393956Y109045D01*
X393950Y109052D01*
X393938Y109058D01*
X393913Y109070D01*
X393881Y109095D01*
X393844Y109120D01*
X393800Y109151D01*
X393694Y109233D01*
X393582Y109333D01*
X393463Y109458D01*
X393344Y109608D01*
X393238Y109770D01*
Y109776D01*
X393226Y109789D01*
X393213Y109820D01*
X393200Y109851D01*
X393182Y109895D01*
X393157Y109951D01*
X393132Y110014D01*
X393113Y110083D01*
X393088Y110151D01*
X393063Y110232D01*
X393019Y110414D01*
X392994Y110607D01*
X392982Y110820D01*
Y110901D01*
X392988Y110945D01*
X392994Y110995D01*
Y111051D01*
X393007Y111114D01*
X393026Y111251D01*
X393057Y111401D01*
X393101Y111557D01*
X393163Y111713D01*
Y111720D01*
X393169Y111732D01*
X393182Y111757D01*
X393200Y111782D01*
X393219Y111820D01*
X393244Y111870D01*
X393275Y111919D01*
X393313Y111976D01*
X393407Y112113D01*
X393457Y112182D01*
X393519Y112263D01*
X393588Y112344D01*
X393657Y112426D01*
X393738Y112519D01*
X393825Y112607D01*
X393026Y113375D01*
X393019Y113369D01*
X393000Y113344D01*
X392963Y113313D01*
X392919Y113263D01*
X392869Y113207D01*
X392807Y113138D01*
X392744Y113057D01*
X392676Y112976D01*
X392601Y112882D01*
X392526Y112782D01*
X392376Y112576D01*
X392244Y112357D01*
X392182Y112245D01*
X392132Y112132D01*
Y112126D01*
X392119Y112107D01*
X392107Y112076D01*
X392094Y112032D01*
X392076Y111976D01*
X392057Y111907D01*
X392032Y111832D01*
X392013Y111751D01*
X391988Y111657D01*
X391963Y111551D01*
X391945Y111445D01*
X391926Y111326D01*
X391913Y111201D01*
X391901Y111076D01*
X391888Y110801D01*
Y110739D01*
X391894Y110707D01*
Y110670D01*
X391901Y110570D01*
X391913Y110451D01*
X391932Y110320D01*
X391963Y110164D01*
X392001Y110001D01*
X392044Y109826D01*
X392101Y109645D01*
X392176Y109451D01*
X392257Y109264D01*
X392357Y109076D01*
X392476Y108889D01*
X392607Y108708D01*
X392763Y108539D01*
X392776Y108527D01*
X392801Y108502D01*
X392850Y108458D01*
X392919Y108402D01*
X393007Y108339D01*
X393113Y108264D01*
X393232Y108183D01*
X393369Y108102D01*
X393525Y108020D01*
X393694Y107939D01*
X393881Y107871D01*
X394081Y107802D01*
X394294Y107746D01*
X394519Y107702D01*
X394756Y107677D01*
X395006Y107664D01*
X391888D01*
X398112D01*
Y113400D01*
D02*
G37*
%LPD*%
G36*
X397962Y119168D02*
X395919D01*
X397962Y120780D01*
Y119168D01*
D02*
G37*
G36*
X394681D02*
X392038D01*
Y120998D01*
X394681Y119168D01*
D02*
G37*
G36*
X398112Y107664D02*
X395094D01*
X395156Y107671D01*
X395231Y107677D01*
X395325Y107683D01*
X395425Y107696D01*
X395537Y107714D01*
X395656Y107733D01*
X395781Y107764D01*
X395912Y107796D01*
X396044Y107833D01*
X396181Y107877D01*
X396318Y107933D01*
X396450Y107996D01*
X396581Y108064D01*
X396587Y108070D01*
X396612Y108083D01*
X396650Y108108D01*
X396693Y108139D01*
X396756Y108183D01*
X396818Y108233D01*
X396893Y108289D01*
X396974Y108358D01*
X397062Y108433D01*
X397156Y108520D01*
X397243Y108614D01*
X397337Y108714D01*
X397431Y108827D01*
X397518Y108945D01*
X397606Y109070D01*
X397687Y109208D01*
X397693Y109214D01*
X397706Y109239D01*
X397724Y109283D01*
X397756Y109339D01*
X397787Y109408D01*
X397824Y109489D01*
X397862Y109583D01*
X397899Y109689D01*
X397937Y109808D01*
X397980Y109932D01*
X398012Y110064D01*
X398043Y110208D01*
X398074Y110351D01*
X398093Y110501D01*
X398106Y110657D01*
X398112Y110820D01*
Y107664D01*
D02*
G37*
%LPC*%
G36*
X502962Y122895D02*
Y120620D01*
X497038Y122895D01*
Y117190D01*
X502962Y119477D01*
Y122895D01*
D02*
G37*
G36*
Y116603D02*
X499844D01*
X499800Y116596D01*
X499738D01*
X499669Y116590D01*
X499588Y116584D01*
X499500Y116571D01*
X499406Y116559D01*
X499306Y116546D01*
X499094Y116503D01*
X498875Y116447D01*
X498657Y116371D01*
X498650D01*
X498632Y116359D01*
X498600Y116347D01*
X498563Y116328D01*
X498513Y116309D01*
X498457Y116278D01*
X498394Y116247D01*
X498319Y116209D01*
X498169Y116122D01*
X498013Y116015D01*
X497850Y115890D01*
X497701Y115747D01*
X497694Y115740D01*
X497682Y115728D01*
X497663Y115709D01*
X497638Y115678D01*
X497607Y115640D01*
X497576Y115597D01*
X497538Y115547D01*
X497494Y115491D01*
X497407Y115359D01*
X497326Y115209D01*
X497244Y115053D01*
X497182Y114878D01*
Y114872D01*
X497176Y114853D01*
X497169Y114828D01*
X497157Y114784D01*
X497151Y114734D01*
X497138Y114672D01*
X497126Y114591D01*
X497113Y114503D01*
X497094Y114397D01*
X497082Y114278D01*
X497070Y114147D01*
X497063Y113997D01*
X497051Y113835D01*
X497044Y113660D01*
X497038Y113466D01*
Y116603D01*
D01*
D01*
Y111910D01*
X502962D01*
Y113366D01*
X502956Y113454D01*
X502949Y113560D01*
X502943Y113685D01*
X502937Y113822D01*
X502924Y113966D01*
X502906Y114122D01*
X502881Y114278D01*
X502824Y114597D01*
X502787Y114753D01*
X502743Y114897D01*
X502693Y115034D01*
X502637Y115159D01*
X502631Y115166D01*
X502624Y115184D01*
X502606Y115222D01*
X502574Y115266D01*
X502543Y115316D01*
X502499Y115378D01*
X502449Y115453D01*
X502387Y115528D01*
X502318Y115609D01*
X502243Y115690D01*
X502156Y115778D01*
X502062Y115865D01*
X501962Y115953D01*
X501850Y116034D01*
X501725Y116115D01*
X501593Y116196D01*
X501587Y116203D01*
X501562Y116215D01*
X501518Y116234D01*
X501468Y116259D01*
X501400Y116290D01*
X501318Y116328D01*
X501218Y116359D01*
X501112Y116403D01*
X500993Y116440D01*
X500868Y116472D01*
X500731Y116509D01*
X500581Y116540D01*
X500425Y116565D01*
X500262Y116584D01*
X500087Y116596D01*
X499912Y116603D01*
X502962D01*
D02*
G37*
G36*
X503112Y110829D02*
X498532D01*
X498494Y110823D01*
X498444D01*
X498382Y110817D01*
X498307Y110804D01*
X498225Y110785D01*
X498144Y110767D01*
X498050Y110742D01*
X497951Y110704D01*
X497850Y110667D01*
X497751Y110617D01*
X497651Y110561D01*
X497551Y110492D01*
X497457Y110410D01*
X497363Y110323D01*
X497357Y110317D01*
X497344Y110298D01*
X497319Y110273D01*
X497288Y110229D01*
X497251Y110179D01*
X497213Y110123D01*
X497169Y110048D01*
X497126Y109967D01*
X497082Y109879D01*
X497038Y109779D01*
X497001Y109673D01*
X496963Y109555D01*
X496932Y109430D01*
X496907Y109298D01*
X496894Y109161D01*
X496888Y109011D01*
Y109036D01*
Y109011D01*
Y107105D01*
Y108948D01*
X496894Y108905D01*
X496901Y108848D01*
X496907Y108786D01*
X496913Y108711D01*
X496926Y108636D01*
X496963Y108461D01*
X497020Y108274D01*
X497051Y108180D01*
X497094Y108086D01*
X497138Y107992D01*
X497194Y107905D01*
X497201Y107899D01*
X497207Y107886D01*
X497226Y107861D01*
X497257Y107824D01*
X497288Y107786D01*
X497326Y107743D01*
X497376Y107686D01*
X497432Y107630D01*
X497501Y107568D01*
X497569Y107505D01*
X497651Y107436D01*
X497738Y107368D01*
X497832Y107305D01*
X497938Y107236D01*
X498050Y107168D01*
X498169Y107105D01*
X498744Y108049D01*
X498738Y108055D01*
X498713Y108067D01*
X498669Y108092D01*
X498619Y108124D01*
X498563Y108167D01*
X498494Y108217D01*
X498425Y108274D01*
X498350Y108336D01*
X498275Y108405D01*
X498207Y108480D01*
X498138Y108561D01*
X498082Y108649D01*
X498032Y108736D01*
X497988Y108836D01*
X497963Y108936D01*
X497957Y109036D01*
Y109086D01*
X497963Y109136D01*
X497976Y109205D01*
X498000Y109280D01*
X498026Y109361D01*
X498069Y109442D01*
X498125Y109523D01*
X498132Y109529D01*
X498157Y109555D01*
X498188Y109586D01*
X498238Y109623D01*
X498294Y109661D01*
X498363Y109692D01*
X498432Y109717D01*
X498513Y109723D01*
X498519D01*
X498550D01*
X498588Y109717D01*
X498638Y109705D01*
X498700Y109686D01*
X498769Y109661D01*
X498838Y109623D01*
X498913Y109573D01*
X498925Y109567D01*
X498950Y109542D01*
X499000Y109498D01*
X499069Y109436D01*
X499106Y109392D01*
X499156Y109348D01*
X499206Y109292D01*
X499263Y109230D01*
X499319Y109161D01*
X499388Y109086D01*
X499456Y109005D01*
X499531Y108911D01*
X499538Y108898D01*
X499569Y108867D01*
X499606Y108817D01*
X499663Y108755D01*
X499731Y108680D01*
X499806Y108592D01*
X499888Y108492D01*
X499981Y108392D01*
X500175Y108180D01*
X500281Y108074D01*
X500381Y107974D01*
X500481Y107880D01*
X500575Y107799D01*
X500668Y107724D01*
X500750Y107661D01*
X500756D01*
X500769Y107649D01*
X500793Y107636D01*
X500825Y107618D01*
X500862Y107599D01*
X500912Y107574D01*
X500962Y107549D01*
X501018Y107524D01*
X501150Y107467D01*
X501293Y107424D01*
X501450Y107393D01*
X501531Y107386D01*
X501612Y107380D01*
X501618D01*
X501637D01*
X501674Y107386D01*
X501712D01*
X501768Y107393D01*
X501831Y107405D01*
X501899Y107417D01*
X501974Y107436D01*
X502056Y107461D01*
X502137Y107493D01*
X502224Y107530D01*
X502318Y107580D01*
X502406Y107630D01*
X502493Y107692D01*
X502581Y107767D01*
X502668Y107849D01*
X502674Y107855D01*
X502687Y107867D01*
X502712Y107899D01*
X502737Y107930D01*
X502768Y107980D01*
X502805Y108036D01*
X502849Y108099D01*
X502893Y108167D01*
X502930Y108249D01*
X502974Y108336D01*
X503012Y108430D01*
X503043Y108536D01*
X503068Y108642D01*
X503093Y108761D01*
X503105Y108880D01*
X503112Y109005D01*
Y109080D01*
X503105Y109117D01*
X503099Y109167D01*
X503087Y109280D01*
X503062Y109404D01*
X503024Y109548D01*
X502974Y109698D01*
X502906Y109848D01*
Y109854D01*
X502893Y109867D01*
X502881Y109892D01*
X502868Y109917D01*
X502843Y109954D01*
X502812Y110004D01*
X502774Y110054D01*
X502737Y110111D01*
X502687Y110173D01*
X502631Y110242D01*
X502568Y110310D01*
X502499Y110392D01*
X502424Y110467D01*
X502343Y110548D01*
X502256Y110635D01*
X502156Y110723D01*
X501418Y109886D01*
X501425Y109879D01*
X501443Y109867D01*
X501475Y109842D01*
X501512Y109811D01*
X501562Y109767D01*
X501612Y109723D01*
X501668Y109667D01*
X501725Y109605D01*
X501837Y109473D01*
X501887Y109398D01*
X501937Y109317D01*
X501974Y109236D01*
X502006Y109155D01*
X502024Y109073D01*
X502031Y108986D01*
Y108948D01*
X502024Y108911D01*
X502018Y108861D01*
X502000Y108798D01*
X501981Y108742D01*
X501950Y108680D01*
X501906Y108624D01*
X501899Y108617D01*
X501887Y108605D01*
X501862Y108580D01*
X501831Y108555D01*
X501787Y108530D01*
X501743Y108505D01*
X501693Y108492D01*
X501643Y108486D01*
X501637D01*
X501618D01*
X501587Y108492D01*
X501550Y108498D01*
X501506Y108511D01*
X501462Y108530D01*
X501412Y108555D01*
X501362Y108586D01*
X501356Y108592D01*
X501325Y108617D01*
X501300Y108636D01*
X501275Y108667D01*
X501237Y108699D01*
X501200Y108742D01*
X501150Y108792D01*
X501100Y108848D01*
X501037Y108917D01*
X500962Y108992D01*
X500887Y109080D01*
X500800Y109180D01*
X500706Y109286D01*
X500600Y109411D01*
X500594Y109417D01*
X500575Y109442D01*
X500550Y109473D01*
X500512Y109517D01*
X500469Y109567D01*
X500419Y109623D01*
X500312Y109754D01*
X500194Y109886D01*
X500081Y110017D01*
X500031Y110073D01*
X499987Y110123D01*
X499950Y110167D01*
X499919Y110198D01*
X499912Y110204D01*
X499906Y110211D01*
X499888Y110229D01*
X499856Y110254D01*
X499794Y110317D01*
X499706Y110386D01*
X499600Y110467D01*
X499488Y110548D01*
X499369Y110623D01*
X499250Y110686D01*
X499244D01*
X499238Y110692D01*
X499219Y110698D01*
X499194Y110710D01*
X499131Y110729D01*
X499050Y110760D01*
X498944Y110785D01*
X498831Y110804D01*
X498700Y110823D01*
X498563Y110829D01*
X503112D01*
D02*
G37*
%LPD*%
G36*
X501387Y120052D02*
X499350Y119252D01*
Y120845D01*
X501387Y120052D01*
D02*
G37*
G36*
X498257Y121264D02*
Y118840D01*
X497038Y118365D01*
Y121720D01*
X498257Y121264D01*
D02*
G37*
G36*
X500031Y115465D02*
X500100D01*
X500175Y115453D01*
X500269Y115447D01*
X500369Y115428D01*
X500481Y115403D01*
X500594Y115378D01*
X500712Y115340D01*
X500837Y115297D01*
X500956Y115247D01*
X501075Y115184D01*
X501193Y115116D01*
X501306Y115034D01*
X501406Y114941D01*
X501412Y114934D01*
X501425Y114916D01*
X501450Y114891D01*
X501481Y114853D01*
X501512Y114797D01*
X501556Y114734D01*
X501600Y114659D01*
X501643Y114572D01*
X501687Y114472D01*
X501725Y114360D01*
X501768Y114235D01*
X501800Y114097D01*
X501831Y113941D01*
X501856Y113778D01*
X501868Y113603D01*
X501875Y113410D01*
Y113029D01*
X498138D01*
Y113678D01*
X498144Y113741D01*
X498150Y113816D01*
Y113897D01*
X498163Y113985D01*
X498182Y114166D01*
X498213Y114353D01*
X498232Y114441D01*
X498257Y114528D01*
X498282Y114603D01*
X498313Y114672D01*
Y114678D01*
X498319Y114691D01*
X498332Y114703D01*
X498344Y114728D01*
X498388Y114797D01*
X498450Y114878D01*
X498538Y114966D01*
X498638Y115059D01*
X498763Y115159D01*
X498907Y115247D01*
X498913D01*
X498925Y115259D01*
X498950Y115266D01*
X498982Y115284D01*
X499025Y115297D01*
X499069Y115316D01*
X499131Y115340D01*
X499194Y115359D01*
X499263Y115378D01*
X499344Y115403D01*
X499431Y115422D01*
X499519Y115434D01*
X499719Y115459D01*
X499944Y115472D01*
X499956D01*
X499987D01*
X500031Y115465D01*
D02*
G37*
%LPC*%
G36*
X532962Y122001D02*
Y120345D01*
X528113D01*
Y122001D01*
X532962D01*
X527038D01*
Y119227D01*
X532962D01*
Y122001D01*
D02*
G37*
G36*
X531918Y118240D02*
X531169Y117446D01*
X531181Y117440D01*
X531206Y117409D01*
X531250Y117365D01*
X531300Y117303D01*
X531368Y117227D01*
X531437Y117140D01*
X531512Y117034D01*
X531593Y116915D01*
X531675Y116790D01*
X531750Y116653D01*
X531818Y116503D01*
X531887Y116340D01*
X531937Y116178D01*
X531981Y116003D01*
X532012Y115822D01*
X532018Y115634D01*
Y115597D01*
X532012Y115553D01*
Y115490D01*
X532000Y115422D01*
X531987Y115334D01*
X531968Y115240D01*
X531943Y115140D01*
X531912Y115028D01*
X531875Y114916D01*
X531831Y114797D01*
X531775Y114678D01*
X531706Y114559D01*
X531631Y114441D01*
X531537Y114322D01*
X531437Y114209D01*
X531431Y114203D01*
X531412Y114185D01*
X531381Y114153D01*
X531331Y114122D01*
X531275Y114072D01*
X531206Y114028D01*
X531131Y113972D01*
X531044Y113922D01*
X530943Y113866D01*
X530831Y113810D01*
X530712Y113766D01*
X530587Y113722D01*
X530456Y113685D01*
X530312Y113653D01*
X530163Y113635D01*
X530006Y113628D01*
X530000D01*
X529981D01*
X529950D01*
X529906Y113635D01*
X529856D01*
X529794Y113641D01*
X529731Y113647D01*
X529656Y113660D01*
X529494Y113691D01*
X529319Y113735D01*
X529132Y113797D01*
X528956Y113885D01*
X528950Y113891D01*
X528938Y113897D01*
X528913Y113910D01*
X528881Y113935D01*
X528844Y113960D01*
X528800Y113991D01*
X528694Y114072D01*
X528582Y114172D01*
X528463Y114297D01*
X528344Y114447D01*
X528238Y114609D01*
Y114616D01*
X528226Y114628D01*
X528213Y114659D01*
X528200Y114691D01*
X528182Y114734D01*
X528157Y114791D01*
X528132Y114853D01*
X528113Y114922D01*
X528088Y114991D01*
X528063Y115072D01*
X528019Y115253D01*
X527994Y115447D01*
X527982Y115659D01*
Y115740D01*
X527988Y115784D01*
X527994Y115834D01*
Y115890D01*
X528007Y115953D01*
X528026Y116090D01*
X528057Y116240D01*
X528101Y116397D01*
X528163Y116553D01*
Y116559D01*
X528169Y116571D01*
X528182Y116596D01*
X528200Y116621D01*
X528219Y116659D01*
X528244Y116709D01*
X528275Y116759D01*
X528313Y116815D01*
X528407Y116953D01*
X528457Y117021D01*
X528519Y117102D01*
X528588Y117184D01*
X528657Y117265D01*
X528738Y117359D01*
X528825Y117446D01*
X528026Y118215D01*
X528019Y118209D01*
X528000Y118183D01*
X527963Y118152D01*
X527919Y118102D01*
X527869Y118046D01*
X527807Y117977D01*
X527744Y117896D01*
X527676Y117815D01*
X527601Y117721D01*
X527526Y117621D01*
X527376Y117415D01*
X527244Y117196D01*
X527182Y117084D01*
X527132Y116971D01*
Y116965D01*
X527119Y116946D01*
X527107Y116915D01*
X527094Y116871D01*
X527076Y116815D01*
X527057Y116746D01*
X527032Y116671D01*
X527013Y116590D01*
X526988Y116496D01*
X526963Y116390D01*
X526945Y116284D01*
X526926Y116165D01*
X526913Y116040D01*
X526901Y115915D01*
X526888Y115640D01*
Y115578D01*
X526895Y115547D01*
Y115509D01*
X526901Y115409D01*
X526913Y115290D01*
X526932Y115159D01*
X526963Y115003D01*
X527001Y114841D01*
X527044Y114666D01*
X527101Y114485D01*
X527176Y114291D01*
X527257Y114103D01*
X527357Y113916D01*
X527476Y113728D01*
X527607Y113547D01*
X527763Y113378D01*
X527776Y113366D01*
X527801Y113341D01*
X527851Y113297D01*
X527919Y113241D01*
X528007Y113179D01*
X528113Y113104D01*
X528232Y113022D01*
X528369Y112941D01*
X528525Y112860D01*
X528694Y112779D01*
X528881Y112710D01*
X529081Y112641D01*
X529294Y112585D01*
X529519Y112541D01*
X529756Y112516D01*
X530006Y112504D01*
X526888D01*
X533112D01*
Y115734D01*
X533106Y115784D01*
Y115847D01*
X533093Y115928D01*
X533087Y116015D01*
X533074Y116109D01*
X533055Y116215D01*
X533037Y116321D01*
X532980Y116559D01*
X532943Y116684D01*
X532906Y116809D01*
X532855Y116940D01*
X532799Y117065D01*
X532793Y117071D01*
X532787Y117096D01*
X532768Y117134D01*
X532743Y117177D01*
X532712Y117240D01*
X532668Y117309D01*
X532624Y117384D01*
X532574Y117465D01*
X532512Y117559D01*
X532449Y117652D01*
X532374Y117746D01*
X532293Y117846D01*
X532212Y117946D01*
X532118Y118046D01*
X531918Y118240D01*
D02*
G37*
G36*
X533112Y111723D02*
X528532D01*
X528494Y111716D01*
X528444D01*
X528382Y111710D01*
X528307Y111698D01*
X528226Y111679D01*
X528144Y111660D01*
X528050Y111635D01*
X527951Y111598D01*
X527851Y111560D01*
X527751Y111510D01*
X527651Y111454D01*
X527551Y111385D01*
X527457Y111304D01*
X527363Y111216D01*
X527357Y111210D01*
X527344Y111192D01*
X527319Y111167D01*
X527288Y111123D01*
X527251Y111073D01*
X527213Y111017D01*
X527169Y110942D01*
X527126Y110860D01*
X527082Y110773D01*
X527038Y110673D01*
X527001Y110567D01*
X526963Y110448D01*
X526932Y110323D01*
X526907Y110192D01*
X526895Y110054D01*
X526888Y109904D01*
Y107999D01*
Y109842D01*
X526895Y109798D01*
X526901Y109742D01*
X526907Y109679D01*
X526913Y109605D01*
X526926Y109529D01*
X526963Y109354D01*
X527020Y109167D01*
X527051Y109073D01*
X527094Y108980D01*
X527138Y108886D01*
X527195Y108798D01*
X527201Y108792D01*
X527207Y108780D01*
X527226Y108755D01*
X527257Y108717D01*
X527288Y108680D01*
X527326Y108636D01*
X527376Y108580D01*
X527432Y108524D01*
X527501Y108461D01*
X527569Y108399D01*
X527651Y108330D01*
X527738Y108261D01*
X527832Y108199D01*
X527938Y108130D01*
X528050Y108061D01*
X528169Y107999D01*
X528744Y108942D01*
X528738Y108948D01*
X528713Y108961D01*
X528669Y108986D01*
X528619Y109017D01*
X528563Y109061D01*
X528494Y109111D01*
X528425Y109167D01*
X528350Y109230D01*
X528275Y109298D01*
X528207Y109373D01*
X528138Y109454D01*
X528082Y109542D01*
X528032Y109629D01*
X527988Y109729D01*
X527963Y109829D01*
X527957Y109929D01*
Y109979D01*
X527963Y110029D01*
X527976Y110098D01*
X528000Y110173D01*
X528026Y110254D01*
X528069Y110336D01*
X528125Y110417D01*
X528132Y110423D01*
X528157Y110448D01*
X528188Y110479D01*
X528238Y110517D01*
X528294Y110554D01*
X528363Y110585D01*
X528432Y110610D01*
X528513Y110617D01*
X528519D01*
X528550D01*
X528588Y110610D01*
X528638Y110598D01*
X528700Y110579D01*
X528769Y110554D01*
X528838Y110517D01*
X528913Y110467D01*
X528925Y110461D01*
X528950Y110435D01*
X529000Y110392D01*
X529069Y110329D01*
X529106Y110286D01*
X529156Y110242D01*
X529207Y110186D01*
X529263Y110123D01*
X529319Y110054D01*
X529388Y109979D01*
X529456Y109898D01*
X529531Y109804D01*
X529538Y109792D01*
X529569Y109761D01*
X529606Y109711D01*
X529663Y109648D01*
X529731Y109573D01*
X529806Y109486D01*
X529888Y109386D01*
X529981Y109286D01*
X530175Y109073D01*
X530281Y108967D01*
X530381Y108867D01*
X530481Y108773D01*
X530575Y108692D01*
X530669Y108617D01*
X530750Y108555D01*
X530756D01*
X530769Y108542D01*
X530794Y108530D01*
X530825Y108511D01*
X530862Y108492D01*
X530912Y108467D01*
X530962Y108442D01*
X531018Y108417D01*
X531150Y108361D01*
X531293Y108317D01*
X531450Y108286D01*
X531531Y108280D01*
X531612Y108273D01*
X531618D01*
X531637D01*
X531675Y108280D01*
X531712D01*
X531768Y108286D01*
X531831Y108299D01*
X531899Y108311D01*
X531974Y108330D01*
X532056Y108355D01*
X532137Y108386D01*
X532224Y108424D01*
X532318Y108474D01*
X532406Y108524D01*
X532493Y108586D01*
X532581Y108661D01*
X532668Y108742D01*
X532674Y108748D01*
X532687Y108761D01*
X532712Y108792D01*
X532737Y108823D01*
X532768Y108873D01*
X532805Y108930D01*
X532849Y108992D01*
X532893Y109061D01*
X532930Y109142D01*
X532974Y109230D01*
X533012Y109323D01*
X533043Y109430D01*
X533068Y109536D01*
X533093Y109654D01*
X533106Y109773D01*
X533112Y109898D01*
Y109973D01*
X533106Y110011D01*
X533099Y110061D01*
X533087Y110173D01*
X533062Y110298D01*
X533024Y110442D01*
X532974Y110592D01*
X532906Y110742D01*
Y110748D01*
X532893Y110760D01*
X532881Y110785D01*
X532868Y110810D01*
X532843Y110848D01*
X532812Y110898D01*
X532774Y110948D01*
X532737Y111004D01*
X532687Y111067D01*
X532631Y111135D01*
X532568Y111204D01*
X532499Y111285D01*
X532424Y111360D01*
X532343Y111441D01*
X532256Y111529D01*
X532156Y111616D01*
X531418Y110779D01*
X531425Y110773D01*
X531443Y110760D01*
X531475Y110735D01*
X531512Y110704D01*
X531562Y110660D01*
X531612Y110617D01*
X531668Y110561D01*
X531725Y110498D01*
X531837Y110367D01*
X531887Y110292D01*
X531937Y110211D01*
X531974Y110129D01*
X532006Y110048D01*
X532024Y109967D01*
X532031Y109879D01*
Y109842D01*
X532024Y109804D01*
X532018Y109754D01*
X532000Y109692D01*
X531981Y109636D01*
X531950Y109573D01*
X531906Y109517D01*
X531899Y109511D01*
X531887Y109498D01*
X531862Y109473D01*
X531831Y109448D01*
X531787Y109423D01*
X531743Y109398D01*
X531693Y109386D01*
X531643Y109380D01*
X531637D01*
X531618D01*
X531587Y109386D01*
X531550Y109392D01*
X531506Y109404D01*
X531462Y109423D01*
X531412Y109448D01*
X531362Y109480D01*
X531356Y109486D01*
X531325Y109511D01*
X531300Y109529D01*
X531275Y109561D01*
X531237Y109592D01*
X531200Y109636D01*
X531150Y109686D01*
X531100Y109742D01*
X531037Y109811D01*
X530962Y109886D01*
X530887Y109973D01*
X530800Y110073D01*
X530706Y110179D01*
X530600Y110304D01*
X530594Y110310D01*
X530575Y110336D01*
X530550Y110367D01*
X530512Y110410D01*
X530469Y110461D01*
X530419Y110517D01*
X530312Y110648D01*
X530194Y110779D01*
X530081Y110910D01*
X530031Y110967D01*
X529987Y111017D01*
X529950Y111060D01*
X529919Y111092D01*
X529912Y111098D01*
X529906Y111104D01*
X529888Y111123D01*
X529856Y111148D01*
X529794Y111210D01*
X529706Y111279D01*
X529600Y111360D01*
X529488Y111441D01*
X529369Y111517D01*
X529250Y111579D01*
X529244D01*
X529238Y111585D01*
X529219Y111591D01*
X529194Y111604D01*
X529132Y111623D01*
X529050Y111654D01*
X528944Y111679D01*
X528832Y111698D01*
X528700Y111716D01*
X528563Y111723D01*
X533112D01*
D02*
G37*
%LPD*%
G36*
Y112504D02*
X530094D01*
X530156Y112510D01*
X530231Y112516D01*
X530325Y112522D01*
X530425Y112535D01*
X530537Y112554D01*
X530656Y112572D01*
X530781Y112604D01*
X530912Y112635D01*
X531044Y112672D01*
X531181Y112716D01*
X531318Y112772D01*
X531450Y112835D01*
X531581Y112904D01*
X531587Y112910D01*
X531612Y112922D01*
X531650Y112947D01*
X531693Y112979D01*
X531756Y113022D01*
X531818Y113072D01*
X531893Y113129D01*
X531974Y113197D01*
X532062Y113272D01*
X532156Y113360D01*
X532243Y113454D01*
X532337Y113553D01*
X532431Y113666D01*
X532518Y113785D01*
X532606Y113910D01*
X532687Y114047D01*
X532693Y114053D01*
X532706Y114078D01*
X532724Y114122D01*
X532756Y114178D01*
X532787Y114247D01*
X532824Y114328D01*
X532862Y114422D01*
X532899Y114528D01*
X532937Y114647D01*
X532980Y114772D01*
X533012Y114903D01*
X533043Y115047D01*
X533074Y115190D01*
X533093Y115340D01*
X533106Y115497D01*
X533112Y115659D01*
Y112504D01*
D02*
G37*
%LPC*%
G36*
X561418Y124066D02*
X557038D01*
Y119618D01*
Y121486D01*
X561418Y119618D01*
X557038D01*
X561418D01*
Y120742D01*
X558832Y121842D01*
X561418Y122948D01*
Y124066D01*
X557038Y122198D01*
Y124066D01*
X561418D01*
D02*
G37*
G36*
X563112Y116943D02*
X556888D01*
Y112857D01*
D01*
Y114819D01*
X556895Y114775D01*
Y114712D01*
X556907Y114638D01*
X556913Y114556D01*
X556932Y114463D01*
X556951Y114356D01*
X556982Y114250D01*
X557013Y114131D01*
X557057Y114019D01*
X557107Y113900D01*
X557169Y113781D01*
X557238Y113669D01*
X557313Y113557D01*
X557407Y113450D01*
X557413Y113444D01*
X557432Y113425D01*
X557463Y113400D01*
X557501Y113363D01*
X557557Y113325D01*
X557619Y113275D01*
X557694Y113225D01*
X557782Y113175D01*
X557876Y113119D01*
X557988Y113069D01*
X558101Y113019D01*
X558232Y112969D01*
X558369Y112932D01*
X558513Y112894D01*
X558669Y112869D01*
X558832Y112857D01*
D01*
Y113975D01*
X558825D01*
X558813Y113982D01*
X558788D01*
X558757Y113988D01*
X558719Y114000D01*
X558675Y114013D01*
X558575Y114038D01*
X558463Y114081D01*
X558344Y114138D01*
X558238Y114206D01*
X558144Y114288D01*
X558138Y114300D01*
X558113Y114331D01*
X558075Y114388D01*
X558038Y114463D01*
X557994Y114550D01*
X557963Y114663D01*
X557938Y114781D01*
X557926Y114919D01*
Y114956D01*
X557932Y114987D01*
X557938Y115056D01*
X557957Y115150D01*
X557988Y115250D01*
X558032Y115356D01*
X558094Y115469D01*
X558176Y115569D01*
X558188Y115581D01*
X558219Y115612D01*
X558275Y115650D01*
X558350Y115700D01*
X558438Y115750D01*
X558544Y115787D01*
X558663Y115819D01*
X558794Y115831D01*
X558800D01*
X558813D01*
X558832D01*
X558863Y115825D01*
X558894Y115819D01*
X558938Y115812D01*
X559031Y115787D01*
X559138Y115744D01*
X559250Y115681D01*
X559306Y115644D01*
X559363Y115600D01*
X559419Y115544D01*
X559469Y115481D01*
X559475Y115475D01*
X559481Y115462D01*
X559494Y115444D01*
X559513Y115419D01*
X559538Y115381D01*
X559556Y115337D01*
X559588Y115281D01*
X559613Y115225D01*
X559638Y115156D01*
X559663Y115081D01*
X559688Y115000D01*
X559713Y114906D01*
X559731Y114812D01*
X559744Y114706D01*
X559756Y114594D01*
X559763Y114475D01*
X560731D01*
Y114494D01*
X560737Y114513D01*
Y114544D01*
X560744Y114613D01*
X560756Y114706D01*
X560775Y114800D01*
X560800Y114900D01*
X560825Y115000D01*
X560856Y115081D01*
X560862Y115087D01*
X560875Y115112D01*
X560894Y115150D01*
X560925Y115194D01*
X560962Y115244D01*
X561006Y115300D01*
X561056Y115350D01*
X561112Y115394D01*
X561119Y115400D01*
X561143Y115412D01*
X561175Y115431D01*
X561218Y115450D01*
X561275Y115469D01*
X561331Y115487D01*
X561400Y115500D01*
X561468Y115506D01*
X561481D01*
X561506D01*
X561550Y115500D01*
X561606Y115487D01*
X561668Y115462D01*
X561737Y115431D01*
X561806Y115387D01*
X561868Y115331D01*
X561875Y115325D01*
X561893Y115300D01*
X561918Y115262D01*
X561950Y115212D01*
X561981Y115150D01*
X562006Y115075D01*
X562024Y114987D01*
X562031Y114888D01*
Y114844D01*
X562024Y114800D01*
X562012Y114744D01*
X561993Y114675D01*
X561968Y114600D01*
X561931Y114519D01*
X561881Y114444D01*
X561875Y114438D01*
X561856Y114413D01*
X561825Y114375D01*
X561781Y114338D01*
X561725Y114288D01*
X561662Y114244D01*
X561587Y114206D01*
X561506Y114175D01*
Y113094D01*
X561512D01*
X561537Y113101D01*
X561568Y113107D01*
X561612Y113113D01*
X561668Y113125D01*
X561731Y113138D01*
X561806Y113163D01*
X561881Y113182D01*
X562049Y113244D01*
X562225Y113325D01*
X562312Y113375D01*
X562393Y113432D01*
X562481Y113494D01*
X562556Y113563D01*
X562562Y113569D01*
X562581Y113588D01*
X562606Y113619D01*
X562643Y113663D01*
X562687Y113713D01*
X562731Y113775D01*
X562781Y113850D01*
X562837Y113932D01*
X562887Y114025D01*
X562937Y114131D01*
X562980Y114244D01*
X563024Y114363D01*
X563062Y114488D01*
X563087Y114625D01*
X563106Y114769D01*
X563112Y114919D01*
Y114987D01*
X563106Y115044D01*
X563099Y115106D01*
X563087Y115175D01*
X563074Y115256D01*
X563055Y115344D01*
X563031Y115444D01*
X562999Y115537D01*
X562962Y115644D01*
X562912Y115744D01*
X562862Y115850D01*
X562799Y115950D01*
X562724Y116050D01*
X562643Y116143D01*
X562637Y116150D01*
X562624Y116162D01*
X562599Y116187D01*
X562562Y116218D01*
X562518Y116256D01*
X562462Y116300D01*
X562399Y116343D01*
X562331Y116393D01*
X562256Y116437D01*
X562174Y116481D01*
X562081Y116525D01*
X561987Y116562D01*
X561881Y116593D01*
X561775Y116618D01*
X561662Y116631D01*
X561543Y116637D01*
X561537D01*
X561525D01*
X561506D01*
X561475Y116631D01*
X561443D01*
X561400Y116625D01*
X561306Y116612D01*
X561194Y116581D01*
X561075Y116543D01*
X560950Y116493D01*
X560825Y116418D01*
X560819D01*
X560812Y116406D01*
X560794Y116393D01*
X560769Y116381D01*
X560712Y116331D01*
X560637Y116262D01*
X560550Y116175D01*
X560462Y116068D01*
X560375Y115937D01*
X560294Y115794D01*
Y115800D01*
X560287Y115819D01*
X560275Y115843D01*
X560262Y115881D01*
X560244Y115925D01*
X560225Y115981D01*
X560163Y116100D01*
X560088Y116237D01*
X559994Y116375D01*
X559875Y116512D01*
X559731Y116637D01*
X559725Y116643D01*
X559713Y116650D01*
X559694Y116668D01*
X559663Y116687D01*
X559625Y116706D01*
X559575Y116737D01*
X559525Y116762D01*
X559463Y116793D01*
X559400Y116818D01*
X559325Y116849D01*
X559163Y116893D01*
X558982Y116931D01*
X558888Y116937D01*
X558788Y116943D01*
X563112D01*
D02*
G37*
G36*
X557557Y112094D02*
X556926D01*
X557513D01*
X557463Y112082D01*
X557401Y112070D01*
X557332Y112051D01*
X557257Y112013D01*
X557182Y111969D01*
X557107Y111907D01*
X557101Y111901D01*
X557082Y111876D01*
X557051Y111832D01*
X557020Y111782D01*
X556982Y111720D01*
X556957Y111638D01*
X556932Y111557D01*
X556926Y111463D01*
Y111420D01*
X556938Y111370D01*
X556951Y111307D01*
X556969Y111238D01*
X557001Y111164D01*
X557044Y111088D01*
X557107Y111013D01*
X557113Y111007D01*
X557138Y110989D01*
X557182Y110957D01*
X557232Y110926D01*
X557301Y110889D01*
X557376Y110864D01*
X557463Y110838D01*
X557557Y110832D01*
X558188D01*
X557601D01*
X557651Y110845D01*
X557713Y110857D01*
X557782Y110876D01*
X557857Y110907D01*
X557932Y110951D01*
X558000Y111013D01*
X558007Y111020D01*
X558032Y111045D01*
X558063Y111088D01*
X558094Y111138D01*
X558132Y111207D01*
X558157Y111282D01*
X558182Y111370D01*
X558188Y111463D01*
Y111507D01*
X558176Y111557D01*
X558163Y111613D01*
X558144Y111682D01*
X558107Y111757D01*
X558063Y111832D01*
X558000Y111907D01*
X557994Y111913D01*
X557969Y111938D01*
X557932Y111969D01*
X557876Y112001D01*
X557813Y112038D01*
X557738Y112063D01*
X557651Y112088D01*
X557557Y112094D01*
D02*
G37*
G36*
X563112Y110020D02*
X556888D01*
X558750D01*
X558713Y110014D01*
X558657D01*
X558588Y110001D01*
X558507Y109989D01*
X558419Y109970D01*
X558319Y109945D01*
X558219Y109914D01*
X558107Y109876D01*
X558000Y109826D01*
X557882Y109770D01*
X557769Y109701D01*
X557657Y109620D01*
X557544Y109533D01*
X557438Y109426D01*
X557432Y109420D01*
X557413Y109401D01*
X557388Y109364D01*
X557351Y109320D01*
X557313Y109264D01*
X557263Y109195D01*
X557213Y109114D01*
X557163Y109020D01*
X557113Y108914D01*
X557063Y108802D01*
X557013Y108683D01*
X556976Y108552D01*
X556938Y108408D01*
X556913Y108258D01*
X556895Y108102D01*
X556888Y107933D01*
Y107895D01*
X556895Y107852D01*
Y107789D01*
X556907Y107714D01*
X556913Y107633D01*
X556932Y107539D01*
X556951Y107433D01*
X556982Y107327D01*
X557013Y107208D01*
X557057Y107096D01*
X557107Y106977D01*
X557169Y106858D01*
X557238Y106746D01*
X557313Y106633D01*
X557407Y106527D01*
X557413Y106521D01*
X557432Y106502D01*
X557463Y106477D01*
X557501Y106440D01*
X557557Y106402D01*
X557619Y106352D01*
X557694Y106302D01*
X557782Y106252D01*
X557876Y106196D01*
X557988Y106146D01*
X558101Y106096D01*
X558232Y106046D01*
X558369Y106009D01*
X558513Y105971D01*
X558669Y105946D01*
X558832Y105934D01*
Y107052D01*
X558825D01*
X558813Y107058D01*
X558788D01*
X558757Y107065D01*
X558719Y107077D01*
X558675Y107090D01*
X558575Y107114D01*
X558463Y107158D01*
X558344Y107214D01*
X558238Y107283D01*
X558144Y107364D01*
X558138Y107377D01*
X558113Y107408D01*
X558075Y107464D01*
X558038Y107539D01*
X557994Y107627D01*
X557963Y107739D01*
X557938Y107858D01*
X557926Y107996D01*
Y108033D01*
X557932Y108064D01*
X557938Y108133D01*
X557957Y108227D01*
X557988Y108327D01*
X558032Y108433D01*
X558094Y108545D01*
X558176Y108645D01*
X558188Y108658D01*
X558219Y108689D01*
X558275Y108727D01*
X558350Y108777D01*
X558438Y108827D01*
X558544Y108864D01*
X558663Y108895D01*
X558794Y108908D01*
X558800D01*
X558813D01*
X558832D01*
X558863Y108902D01*
X558894Y108895D01*
X558938Y108889D01*
X559031Y108864D01*
X559138Y108820D01*
X559250Y108758D01*
X559306Y108720D01*
X559363Y108677D01*
X559419Y108620D01*
X559469Y108558D01*
X559475Y108552D01*
X559481Y108539D01*
X559494Y108520D01*
X559513Y108495D01*
X559538Y108458D01*
X559556Y108414D01*
X559588Y108358D01*
X559613Y108302D01*
X559638Y108233D01*
X559663Y108158D01*
X559688Y108077D01*
X559713Y107983D01*
X559731Y107889D01*
X559744Y107783D01*
X559756Y107671D01*
X559763Y107552D01*
X560731D01*
Y107571D01*
X560737Y107589D01*
Y107621D01*
X560744Y107689D01*
X560756Y107783D01*
X560775Y107877D01*
X560800Y107977D01*
X560825Y108077D01*
X560856Y108158D01*
X560862Y108164D01*
X560875Y108189D01*
X560894Y108227D01*
X560925Y108270D01*
X560962Y108320D01*
X561006Y108377D01*
X561056Y108427D01*
X561112Y108470D01*
X561119Y108477D01*
X561143Y108489D01*
X561175Y108508D01*
X561218Y108527D01*
X561275Y108545D01*
X561331Y108564D01*
X561400Y108577D01*
X561468Y108583D01*
X561481D01*
X561506D01*
X561550Y108577D01*
X561606Y108564D01*
X561668Y108539D01*
X561737Y108508D01*
X561806Y108464D01*
X561868Y108408D01*
X561875Y108402D01*
X561893Y108377D01*
X561918Y108339D01*
X561950Y108289D01*
X561981Y108227D01*
X562006Y108152D01*
X562024Y108064D01*
X562031Y107964D01*
Y107921D01*
X562024Y107877D01*
X562012Y107821D01*
X561993Y107752D01*
X561968Y107677D01*
X561931Y107596D01*
X561881Y107521D01*
X561875Y107514D01*
X561856Y107489D01*
X561825Y107452D01*
X561781Y107414D01*
X561725Y107364D01*
X561662Y107321D01*
X561587Y107283D01*
X561506Y107252D01*
Y106171D01*
X561512D01*
X561537Y106177D01*
X561568Y106184D01*
X561612Y106190D01*
X561668Y106202D01*
X561731Y106215D01*
X561806Y106240D01*
X561881Y106258D01*
X562049Y106321D01*
X562225Y106402D01*
X562312Y106452D01*
X562393Y106508D01*
X562481Y106571D01*
X562556Y106640D01*
X562562Y106646D01*
X562581Y106665D01*
X562606Y106696D01*
X562643Y106740D01*
X562687Y106790D01*
X562731Y106852D01*
X562781Y106927D01*
X562837Y107008D01*
X562887Y107102D01*
X562937Y107208D01*
X562980Y107321D01*
X563024Y107439D01*
X563062Y107564D01*
X563087Y107702D01*
X563106Y107846D01*
X563112Y107996D01*
Y105934D01*
Y108064D01*
X563106Y108120D01*
X563099Y108183D01*
X563087Y108252D01*
X563074Y108333D01*
X563055Y108420D01*
X563031Y108520D01*
X562999Y108614D01*
X562962Y108720D01*
X562912Y108820D01*
X562862Y108926D01*
X562799Y109026D01*
X562724Y109127D01*
X562643Y109220D01*
X562637Y109227D01*
X562624Y109239D01*
X562599Y109264D01*
X562562Y109295D01*
X562518Y109333D01*
X562462Y109376D01*
X562399Y109420D01*
X562331Y109470D01*
X562256Y109514D01*
X562174Y109558D01*
X562081Y109601D01*
X561987Y109639D01*
X561881Y109670D01*
X561775Y109695D01*
X561662Y109708D01*
X561543Y109714D01*
X561537D01*
X561525D01*
X561506D01*
X561475Y109708D01*
X561443D01*
X561400Y109701D01*
X561306Y109689D01*
X561194Y109658D01*
X561075Y109620D01*
X560950Y109570D01*
X560825Y109495D01*
X560819D01*
X560812Y109483D01*
X560794Y109470D01*
X560769Y109458D01*
X560712Y109408D01*
X560637Y109339D01*
X560550Y109251D01*
X560462Y109145D01*
X560375Y109014D01*
X560294Y108870D01*
Y108876D01*
X560287Y108895D01*
X560275Y108920D01*
X560262Y108958D01*
X560244Y109002D01*
X560225Y109058D01*
X560163Y109177D01*
X560088Y109314D01*
X559994Y109451D01*
X559875Y109589D01*
X559731Y109714D01*
X559725Y109720D01*
X559713Y109726D01*
X559694Y109745D01*
X559663Y109764D01*
X559625Y109783D01*
X559575Y109814D01*
X559525Y109839D01*
X559463Y109870D01*
X559400Y109895D01*
X559325Y109926D01*
X559163Y109970D01*
X558982Y110007D01*
X558888Y110014D01*
X558788Y110020D01*
X563112D01*
D02*
G37*
%LPD*%
G36*
X558713Y116937D02*
X558657D01*
X558588Y116924D01*
X558507Y116912D01*
X558419Y116893D01*
X558319Y116868D01*
X558219Y116837D01*
X558107Y116799D01*
X558000Y116749D01*
X557882Y116693D01*
X557769Y116625D01*
X557657Y116543D01*
X557544Y116456D01*
X557438Y116350D01*
X557432Y116343D01*
X557413Y116325D01*
X557388Y116287D01*
X557351Y116243D01*
X557313Y116187D01*
X557263Y116118D01*
X557213Y116037D01*
X557163Y115943D01*
X557113Y115837D01*
X557063Y115725D01*
X557013Y115606D01*
X556976Y115475D01*
X556938Y115331D01*
X556913Y115181D01*
X556895Y115025D01*
X556888Y114856D01*
Y116943D01*
X558750D01*
X558713Y116937D01*
D02*
G37*
%LPC*%
G36*
X825462Y72140D02*
X819538Y70009D01*
Y72140D01*
Y66823D01*
Y68922D01*
X825462Y66823D01*
Y67985D01*
X821250Y69472D01*
X825462Y70984D01*
Y72140D01*
D02*
G37*
G36*
X825612Y63955D02*
D01*
Y62086D01*
X825605Y62130D01*
Y62174D01*
X825599Y62230D01*
X825593Y62292D01*
X825581Y62361D01*
X825555Y62511D01*
X825512Y62667D01*
X825455Y62836D01*
X825380Y62992D01*
Y62999D01*
X825368Y63011D01*
X825356Y63030D01*
X825337Y63061D01*
X825318Y63099D01*
X825287Y63136D01*
X825212Y63230D01*
X825124Y63336D01*
X825012Y63449D01*
X824874Y63555D01*
X824724Y63655D01*
X824718D01*
X824706Y63667D01*
X824681Y63680D01*
X824650Y63692D01*
X824612Y63711D01*
X824562Y63736D01*
X824512Y63755D01*
X824456Y63780D01*
X824324Y63823D01*
X824175Y63867D01*
X824012Y63892D01*
X823850Y63905D01*
X823843D01*
X823825D01*
X823800D01*
X823756Y63898D01*
X823712D01*
X823650Y63886D01*
X823587Y63880D01*
X823512Y63867D01*
X823431Y63848D01*
X823344Y63830D01*
X823150Y63773D01*
X823044Y63742D01*
X822937Y63698D01*
X822825Y63655D01*
X822712Y63598D01*
X822706Y63592D01*
X822688Y63586D01*
X822650Y63567D01*
X822606Y63542D01*
X822550Y63505D01*
X822475Y63461D01*
X822400Y63411D01*
X822306Y63348D01*
X822206Y63280D01*
X822094Y63199D01*
X821981Y63111D01*
X821856Y63011D01*
X821719Y62899D01*
X821581Y62774D01*
X821432Y62642D01*
X821282Y62499D01*
X820582Y61830D01*
Y63955D01*
X819538D01*
Y59843D01*
X820076D01*
X821944Y61674D01*
X821950Y61680D01*
X821975Y61705D01*
X822006Y61736D01*
X822056Y61780D01*
X822113Y61836D01*
X822181Y61899D01*
X822250Y61961D01*
X822331Y62036D01*
X822506Y62186D01*
X822688Y62330D01*
X822775Y62399D01*
X822862Y62461D01*
X822944Y62517D01*
X823025Y62561D01*
X823031D01*
X823044Y62574D01*
X823062Y62580D01*
X823094Y62599D01*
X823131Y62611D01*
X823169Y62630D01*
X823269Y62674D01*
X823381Y62717D01*
X823506Y62749D01*
X823637Y62774D01*
X823762Y62786D01*
X823768D01*
X823775D01*
X823793D01*
X823818Y62780D01*
X823881Y62774D01*
X823962Y62755D01*
X824050Y62730D01*
X824150Y62686D01*
X824243Y62630D01*
X824331Y62555D01*
X824343Y62543D01*
X824368Y62511D01*
X824399Y62461D01*
X824443Y62393D01*
X824487Y62311D01*
X824518Y62211D01*
X824543Y62093D01*
X824556Y61968D01*
Y61930D01*
X824549Y61905D01*
X824543Y61843D01*
X824525Y61755D01*
X824487Y61661D01*
X824437Y61561D01*
X824374Y61455D01*
X824331Y61411D01*
X824281Y61361D01*
X824268Y61349D01*
X824231Y61324D01*
X824175Y61287D01*
X824087Y61237D01*
X823987Y61193D01*
X823862Y61149D01*
X823712Y61118D01*
X823550Y61105D01*
Y60006D01*
X823562D01*
X823594Y60012D01*
X823643D01*
X823706Y60024D01*
X823787Y60031D01*
X823881Y60049D01*
X823987Y60068D01*
X824100Y60099D01*
X824212Y60131D01*
X824337Y60174D01*
X824462Y60218D01*
X824587Y60274D01*
X824712Y60343D01*
X824831Y60418D01*
X824949Y60505D01*
X825056Y60606D01*
X825062Y60612D01*
X825081Y60630D01*
X825106Y60662D01*
X825143Y60705D01*
X825187Y60762D01*
X825231Y60830D01*
X825281Y60905D01*
X825337Y60993D01*
X825387Y61093D01*
X825437Y61199D01*
X825480Y61318D01*
X825524Y61443D01*
X825562Y61580D01*
X825587Y61724D01*
X825605Y61874D01*
X825612Y62036D01*
Y61149D01*
Y63955D01*
D02*
G37*
G36*
Y59387D02*
X819388D01*
X821250D01*
X821213Y59381D01*
X821157D01*
X821088Y59368D01*
X821007Y59356D01*
X820919Y59337D01*
X820819Y59312D01*
X820719Y59281D01*
X820607Y59243D01*
X820500Y59193D01*
X820382Y59137D01*
X820269Y59068D01*
X820157Y58987D01*
X820044Y58900D01*
X819938Y58793D01*
X819932Y58787D01*
X819913Y58768D01*
X819888Y58731D01*
X819851Y58687D01*
X819813Y58631D01*
X819763Y58562D01*
X819713Y58481D01*
X819663Y58387D01*
X819613Y58281D01*
X819563Y58169D01*
X819513Y58050D01*
X819476Y57919D01*
X819438Y57775D01*
X819413Y57625D01*
X819395Y57469D01*
X819388Y57300D01*
Y57263D01*
X819395Y57219D01*
Y57156D01*
X819407Y57081D01*
X819413Y57000D01*
X819432Y56906D01*
X819451Y56800D01*
X819482Y56694D01*
X819513Y56575D01*
X819557Y56463D01*
X819607Y56344D01*
X819669Y56225D01*
X819738Y56113D01*
X819813Y56000D01*
X819907Y55894D01*
X819913Y55888D01*
X819932Y55869D01*
X819963Y55844D01*
X820001Y55807D01*
X820057Y55769D01*
X820119Y55719D01*
X820194Y55669D01*
X820282Y55619D01*
X820376Y55563D01*
X820488Y55513D01*
X820601Y55463D01*
X820732Y55413D01*
X820869Y55376D01*
X821013Y55338D01*
X821169Y55313D01*
X821332Y55301D01*
D01*
Y56419D01*
X821325D01*
X821313Y56425D01*
X821288D01*
X821257Y56431D01*
X821219Y56444D01*
X821175Y56456D01*
X821075Y56481D01*
X820963Y56525D01*
X820844Y56582D01*
X820738Y56650D01*
X820644Y56732D01*
X820638Y56744D01*
X820613Y56775D01*
X820575Y56831D01*
X820538Y56906D01*
X820494Y56994D01*
X820463Y57106D01*
X820438Y57225D01*
X820425Y57362D01*
Y57400D01*
X820432Y57431D01*
X820438Y57500D01*
X820457Y57594D01*
X820488Y57694D01*
X820532Y57800D01*
X820594Y57912D01*
X820676Y58012D01*
X820688Y58025D01*
X820719Y58056D01*
X820775Y58094D01*
X820850Y58144D01*
X820938Y58194D01*
X821044Y58231D01*
X821163Y58262D01*
X821294Y58275D01*
X821300D01*
X821313D01*
X821332D01*
X821363Y58269D01*
X821394Y58262D01*
X821438Y58256D01*
X821532Y58231D01*
X821638Y58187D01*
X821750Y58125D01*
X821806Y58087D01*
X821863Y58044D01*
X821919Y57987D01*
X821969Y57925D01*
X821975Y57919D01*
X821981Y57906D01*
X821994Y57887D01*
X822013Y57862D01*
X822038Y57825D01*
X822056Y57781D01*
X822088Y57725D01*
X822113Y57669D01*
X822138Y57600D01*
X822163Y57525D01*
X822188Y57444D01*
X822213Y57350D01*
X822231Y57256D01*
X822244Y57150D01*
X822256Y57038D01*
X822263Y56919D01*
X823231D01*
Y56938D01*
X823237Y56956D01*
Y56988D01*
X823244Y57056D01*
X823256Y57150D01*
X823275Y57244D01*
X823300Y57344D01*
X823325Y57444D01*
X823356Y57525D01*
X823362Y57531D01*
X823375Y57556D01*
X823393Y57594D01*
X823425Y57638D01*
X823462Y57688D01*
X823506Y57744D01*
X823556Y57794D01*
X823612Y57837D01*
X823618Y57844D01*
X823643Y57856D01*
X823675Y57875D01*
X823718Y57894D01*
X823775Y57912D01*
X823831Y57931D01*
X823900Y57944D01*
X823968Y57950D01*
X823981D01*
X824006D01*
X824050Y57944D01*
X824106Y57931D01*
X824168Y57906D01*
X824237Y57875D01*
X824306Y57831D01*
X824368Y57775D01*
X824374Y57769D01*
X824393Y57744D01*
X824418Y57706D01*
X824449Y57656D01*
X824481Y57594D01*
X824506Y57519D01*
X824525Y57431D01*
X824531Y57331D01*
Y57288D01*
X824525Y57244D01*
X824512Y57188D01*
X824493Y57119D01*
X824468Y57044D01*
X824431Y56963D01*
X824381Y56888D01*
X824374Y56881D01*
X824356Y56856D01*
X824324Y56819D01*
X824281Y56781D01*
X824225Y56732D01*
X824162Y56688D01*
X824087Y56650D01*
X824006Y56619D01*
Y55538D01*
X824012D01*
X824037Y55544D01*
X824068Y55550D01*
X824112Y55557D01*
X824168Y55569D01*
X824231Y55582D01*
X824306Y55607D01*
X824381Y55626D01*
X824549Y55688D01*
X824724Y55769D01*
X824812Y55819D01*
X824893Y55875D01*
X824981Y55938D01*
X825056Y56007D01*
X825062Y56013D01*
X825081Y56032D01*
X825106Y56063D01*
X825143Y56107D01*
X825187Y56157D01*
X825231Y56219D01*
X825281Y56294D01*
X825337Y56375D01*
X825387Y56469D01*
X825437Y56575D01*
X825480Y56688D01*
X825524Y56806D01*
X825562Y56931D01*
X825587Y57069D01*
X825605Y57213D01*
X825612Y57362D01*
Y55513D01*
Y57431D01*
X825605Y57488D01*
X825599Y57550D01*
X825587Y57619D01*
X825574Y57700D01*
X825555Y57787D01*
X825530Y57887D01*
X825499Y57981D01*
X825462Y58087D01*
X825412Y58187D01*
X825362Y58294D01*
X825299Y58394D01*
X825224Y58493D01*
X825143Y58587D01*
X825137Y58594D01*
X825124Y58606D01*
X825099Y58631D01*
X825062Y58662D01*
X825018Y58700D01*
X824962Y58743D01*
X824899Y58787D01*
X824831Y58837D01*
X824756Y58881D01*
X824674Y58925D01*
X824581Y58968D01*
X824487Y59006D01*
X824381Y59037D01*
X824275Y59062D01*
X824162Y59075D01*
X824043Y59081D01*
X824037D01*
X824025D01*
X824006D01*
X823975Y59075D01*
X823943D01*
X823900Y59068D01*
X823806Y59056D01*
X823693Y59025D01*
X823575Y58987D01*
X823450Y58937D01*
X823325Y58862D01*
X823318D01*
X823312Y58850D01*
X823294Y58837D01*
X823269Y58825D01*
X823212Y58775D01*
X823137Y58706D01*
X823050Y58618D01*
X822962Y58512D01*
X822875Y58381D01*
X822794Y58237D01*
Y58244D01*
X822787Y58262D01*
X822775Y58287D01*
X822762Y58325D01*
X822744Y58369D01*
X822725Y58425D01*
X822663Y58544D01*
X822588Y58681D01*
X822494Y58818D01*
X822375Y58956D01*
X822231Y59081D01*
X822225Y59087D01*
X822213Y59093D01*
X822194Y59112D01*
X822163Y59131D01*
X822125Y59150D01*
X822075Y59181D01*
X822025Y59206D01*
X821963Y59237D01*
X821900Y59262D01*
X821825Y59293D01*
X821663Y59337D01*
X821481Y59374D01*
X821388Y59381D01*
X821288Y59387D01*
X825612D01*
D02*
G37*
G36*
X822231Y52039D02*
X821207D01*
Y49996D01*
X822231D01*
Y52039D01*
D02*
G37*
G36*
X825612Y46578D02*
D01*
Y44741D01*
X825605Y44778D01*
Y44841D01*
X825593Y44910D01*
X825581Y44984D01*
X825562Y45078D01*
X825543Y45172D01*
X825512Y45278D01*
X825474Y45384D01*
X825431Y45497D01*
X825374Y45609D01*
X825312Y45722D01*
X825237Y45828D01*
X825149Y45940D01*
X825049Y46040D01*
X825043Y46047D01*
X825024Y46065D01*
X824993Y46090D01*
X824949Y46122D01*
X824899Y46165D01*
X824837Y46209D01*
X824762Y46259D01*
X824681Y46309D01*
X824593Y46359D01*
X824493Y46409D01*
X824387Y46453D01*
X824275Y46497D01*
X824156Y46528D01*
X824031Y46553D01*
X823900Y46572D01*
X823768Y46578D01*
X825612D01*
X819388D01*
X823718D01*
X823669Y46572D01*
X823600Y46565D01*
X823512Y46559D01*
X823419Y46540D01*
X823318Y46522D01*
X823219Y46490D01*
X823206Y46484D01*
X823187D01*
X823169Y46472D01*
X823137Y46465D01*
X823100Y46447D01*
X823056Y46434D01*
X823012Y46415D01*
X822956Y46390D01*
X822887Y46359D01*
X822819Y46328D01*
X822744Y46297D01*
X822663Y46253D01*
X822569Y46209D01*
X822475Y46165D01*
X822369Y46109D01*
X819388Y44591D01*
X819857Y43641D01*
X821881Y44678D01*
Y44647D01*
X821888Y44603D01*
Y44553D01*
X821900Y44485D01*
X821913Y44410D01*
X821925Y44322D01*
X821950Y44228D01*
X821975Y44135D01*
X822013Y44029D01*
X822056Y43922D01*
X822106Y43810D01*
X822169Y43703D01*
X822244Y43591D01*
X822325Y43485D01*
X822419Y43385D01*
X822425Y43379D01*
X822444Y43360D01*
X822475Y43335D01*
X822513Y43304D01*
X822569Y43266D01*
X822631Y43216D01*
X822706Y43172D01*
X822787Y43122D01*
X822881Y43073D01*
X822981Y43029D01*
X823094Y42985D01*
X823212Y42941D01*
X823337Y42910D01*
X823468Y42885D01*
X823612Y42866D01*
X823756Y42860D01*
X825612D01*
Y46578D01*
D02*
G37*
%LPD*%
G36*
X823800Y45466D02*
X823862Y45459D01*
X823943Y45447D01*
X824037Y45416D01*
X824131Y45378D01*
X824225Y45322D01*
X824318Y45247D01*
X824331Y45234D01*
X824356Y45209D01*
X824393Y45159D01*
X824437Y45097D01*
X824481Y45022D01*
X824518Y44935D01*
X824543Y44834D01*
X824556Y44728D01*
Y44697D01*
X824549Y44678D01*
X824543Y44616D01*
X824525Y44541D01*
X824500Y44453D01*
X824456Y44366D01*
X824399Y44272D01*
X824324Y44185D01*
X824312Y44178D01*
X824281Y44153D01*
X824231Y44116D01*
X824168Y44078D01*
X824081Y44035D01*
X823981Y44004D01*
X823868Y43979D01*
X823743Y43966D01*
X823737D01*
X823731D01*
X823712D01*
X823687Y43972D01*
X823625Y43979D01*
X823543Y43991D01*
X823456Y44022D01*
X823362Y44060D01*
X823269Y44110D01*
X823175Y44185D01*
X823162Y44197D01*
X823137Y44222D01*
X823106Y44272D01*
X823062Y44335D01*
X823019Y44416D01*
X822987Y44510D01*
X822962Y44610D01*
X822950Y44728D01*
Y44741D01*
X822956Y44778D01*
X822962Y44841D01*
X822981Y44910D01*
X823006Y44997D01*
X823044Y45084D01*
X823100Y45172D01*
X823175Y45253D01*
X823187Y45266D01*
X823219Y45291D01*
X823269Y45322D01*
X823331Y45366D01*
X823419Y45403D01*
X823512Y45441D01*
X823625Y45466D01*
X823743Y45472D01*
X823750D01*
X823756D01*
X823775D01*
X823800Y45466D01*
D02*
G37*
G36*
X825612Y42860D02*
X823793D01*
X823831Y42866D01*
X823887D01*
X823956Y42879D01*
X824031Y42891D01*
X824118Y42904D01*
X824212Y42929D01*
X824312Y42954D01*
X824418Y42991D01*
X824531Y43035D01*
X824643Y43085D01*
X824756Y43147D01*
X824862Y43222D01*
X824968Y43304D01*
X825074Y43397D01*
X825081Y43404D01*
X825099Y43422D01*
X825124Y43454D01*
X825156Y43497D01*
X825199Y43547D01*
X825243Y43610D01*
X825293Y43685D01*
X825343Y43766D01*
X825393Y43854D01*
X825443Y43953D01*
X825487Y44060D01*
X825530Y44178D01*
X825562Y44297D01*
X825587Y44428D01*
X825605Y44566D01*
X825612Y44703D01*
Y42860D01*
D02*
G37*
%LPC*%
G36*
X592962Y123995D02*
X589844D01*
X589800Y123988D01*
X589738D01*
X589669Y123982D01*
X589588Y123976D01*
X589500Y123963D01*
X589406Y123951D01*
X589306Y123938D01*
X589094Y123895D01*
X588875Y123838D01*
X588657Y123763D01*
X588650D01*
X588632Y123751D01*
X588600Y123738D01*
X588563Y123720D01*
X588513Y123701D01*
X588457Y123670D01*
X588394Y123638D01*
X588319Y123601D01*
X588169Y123513D01*
X588013Y123407D01*
X587850Y123282D01*
X587701Y123139D01*
X587694Y123132D01*
X587682Y123120D01*
X587663Y123101D01*
X587638Y123070D01*
X587607Y123032D01*
X587576Y122989D01*
X587538Y122938D01*
X587494Y122882D01*
X587407Y122751D01*
X587326Y122601D01*
X587244Y122445D01*
X587182Y122270D01*
Y122264D01*
X587176Y122245D01*
X587169Y122220D01*
X587157Y122176D01*
X587151Y122126D01*
X587138Y122064D01*
X587126Y121982D01*
X587113Y121895D01*
X587094Y121789D01*
X587082Y121670D01*
X587070Y121539D01*
X587063Y121389D01*
X587051Y121227D01*
X587044Y121052D01*
X587038Y120858D01*
Y123995D01*
D01*
D01*
Y119302D01*
X592962D01*
Y120758D01*
X592956Y120845D01*
X592949Y120951D01*
X592943Y121076D01*
X592937Y121214D01*
X592924Y121358D01*
X592906Y121514D01*
X592881Y121670D01*
X592824Y121989D01*
X592787Y122145D01*
X592743Y122289D01*
X592693Y122426D01*
X592637Y122551D01*
X592631Y122557D01*
X592624Y122576D01*
X592606Y122614D01*
X592574Y122657D01*
X592543Y122707D01*
X592499Y122770D01*
X592449Y122845D01*
X592387Y122920D01*
X592318Y123001D01*
X592243Y123082D01*
X592156Y123170D01*
X592062Y123257D01*
X591962Y123345D01*
X591850Y123426D01*
X591725Y123507D01*
X591593Y123588D01*
X591587Y123595D01*
X591562Y123607D01*
X591518Y123626D01*
X591468Y123651D01*
X591400Y123682D01*
X591318Y123720D01*
X591218Y123751D01*
X591112Y123795D01*
X590993Y123832D01*
X590868Y123863D01*
X590731Y123901D01*
X590581Y123932D01*
X590425Y123957D01*
X590262Y123976D01*
X590088Y123988D01*
X589912Y123995D01*
X592962D01*
D02*
G37*
G36*
Y117946D02*
X587038D01*
Y113203D01*
X592962D01*
Y117946D01*
D02*
G37*
G36*
X593112Y112166D02*
X586888D01*
X589719D01*
X589663Y112160D01*
X589594Y112154D01*
X589513Y112148D01*
X589419Y112135D01*
X589319Y112116D01*
X589206Y112091D01*
X589088Y112066D01*
X588969Y112035D01*
X588838Y111998D01*
X588707Y111948D01*
X588575Y111891D01*
X588444Y111829D01*
X588313Y111760D01*
X588307Y111754D01*
X588282Y111741D01*
X588244Y111716D01*
X588200Y111685D01*
X588138Y111648D01*
X588075Y111598D01*
X588000Y111542D01*
X587919Y111479D01*
X587838Y111410D01*
X587751Y111329D01*
X587663Y111242D01*
X587569Y111154D01*
X587488Y111054D01*
X587401Y110948D01*
X587326Y110835D01*
X587251Y110717D01*
X587244Y110710D01*
X587238Y110685D01*
X587220Y110654D01*
X587195Y110604D01*
X587169Y110542D01*
X587138Y110467D01*
X587101Y110386D01*
X587070Y110286D01*
X587038Y110179D01*
X587001Y110067D01*
X586969Y109942D01*
X586945Y109811D01*
X586920Y109673D01*
X586907Y109523D01*
X586894Y109367D01*
X586888Y109211D01*
Y106005D01*
D01*
Y109123D01*
X586894Y109055D01*
X586901Y108973D01*
X586907Y108880D01*
X586920Y108780D01*
X586938Y108661D01*
X586957Y108536D01*
X586988Y108405D01*
X587020Y108267D01*
X587057Y108130D01*
X587101Y107986D01*
X587157Y107849D01*
X587220Y107705D01*
X587288Y107568D01*
X587294Y107561D01*
X587307Y107536D01*
X587332Y107499D01*
X587363Y107449D01*
X587401Y107386D01*
X587457Y107317D01*
X587513Y107236D01*
X587582Y107155D01*
X587657Y107061D01*
X587744Y106968D01*
X587838Y106874D01*
X587938Y106780D01*
X588044Y106686D01*
X588163Y106593D01*
X588294Y106505D01*
X588425Y106424D01*
X588432Y106418D01*
X588457Y106405D01*
X588500Y106386D01*
X588557Y106362D01*
X588625Y106324D01*
X588707Y106293D01*
X588800Y106255D01*
X588907Y106218D01*
X589019Y106174D01*
X589144Y106137D01*
X589275Y106105D01*
X589413Y106074D01*
X589563Y106043D01*
X589713Y106024D01*
X589869Y106012D01*
X590025Y106005D01*
X586888D01*
X593112D01*
X590075D01*
X590137Y106012D01*
X590225Y106018D01*
X590325Y106030D01*
X590444Y106049D01*
X590581Y106068D01*
X590725Y106105D01*
X590881Y106143D01*
X591044Y106193D01*
X591212Y106255D01*
X591387Y106330D01*
X591562Y106424D01*
X591737Y106524D01*
X591906Y106643D01*
X592075Y106780D01*
X592087Y106793D01*
X592118Y106824D01*
X592168Y106874D01*
X592237Y106949D01*
X592318Y107043D01*
X592406Y107149D01*
X592499Y107280D01*
X592593Y107430D01*
X592693Y107592D01*
X592787Y107774D01*
X592874Y107967D01*
X592949Y108180D01*
X593018Y108411D01*
X593068Y108655D01*
X593099Y108911D01*
X593112Y109180D01*
Y109255D01*
X593105Y109311D01*
Y109380D01*
X593099Y109461D01*
X593087Y109555D01*
X593074Y109654D01*
X593062Y109761D01*
X593043Y109873D01*
X592993Y110117D01*
X592918Y110373D01*
X592874Y110504D01*
X592824Y110629D01*
Y110635D01*
X592812Y110654D01*
X592799Y110685D01*
X592774Y110729D01*
X592749Y110779D01*
X592718Y110835D01*
X592674Y110904D01*
X592631Y110979D01*
X592574Y111067D01*
X592512Y111148D01*
X592449Y111242D01*
X592368Y111341D01*
X592287Y111435D01*
X592199Y111535D01*
X592099Y111641D01*
X591993Y111741D01*
X591206Y110948D01*
X591212Y110942D01*
X591243Y110917D01*
X591281Y110873D01*
X591331Y110817D01*
X591393Y110742D01*
X591462Y110654D01*
X591531Y110554D01*
X591606Y110448D01*
X591681Y110323D01*
X591756Y110186D01*
X591818Y110042D01*
X591881Y109886D01*
X591931Y109723D01*
X591974Y109555D01*
X592000Y109380D01*
X592006Y109192D01*
Y109155D01*
X592000Y109105D01*
Y109048D01*
X591987Y108973D01*
X591974Y108886D01*
X591956Y108786D01*
X591931Y108680D01*
X591899Y108567D01*
X591862Y108448D01*
X591818Y108330D01*
X591762Y108205D01*
X591693Y108080D01*
X591618Y107955D01*
X591525Y107836D01*
X591425Y107724D01*
X591418Y107717D01*
X591400Y107699D01*
X591368Y107668D01*
X591318Y107630D01*
X591262Y107586D01*
X591200Y107536D01*
X591119Y107486D01*
X591031Y107430D01*
X590931Y107374D01*
X590825Y107324D01*
X590706Y107274D01*
X590581Y107230D01*
X590450Y107193D01*
X590312Y107161D01*
X590162Y107143D01*
X590013Y107136D01*
X590000D01*
X589975D01*
X589931Y107143D01*
X589869Y107149D01*
X589794Y107155D01*
X589713Y107168D01*
X589613Y107186D01*
X589513Y107211D01*
X589400Y107243D01*
X589281Y107286D01*
X589163Y107336D01*
X589038Y107393D01*
X588919Y107467D01*
X588794Y107549D01*
X588675Y107642D01*
X588563Y107749D01*
X588557Y107755D01*
X588538Y107780D01*
X588507Y107811D01*
X588469Y107861D01*
X588425Y107917D01*
X588375Y107992D01*
X588319Y108074D01*
X588269Y108167D01*
X588213Y108273D01*
X588157Y108386D01*
X588107Y108511D01*
X588063Y108642D01*
X588026Y108786D01*
X587994Y108936D01*
X587976Y109098D01*
X587969Y109261D01*
Y109317D01*
X587976Y109361D01*
Y109411D01*
X587982Y109467D01*
X587988Y109529D01*
X588000Y109605D01*
X588032Y109754D01*
X588069Y109923D01*
X588132Y110086D01*
X588213Y110242D01*
Y110248D01*
X588225Y110260D01*
X588238Y110279D01*
X588257Y110310D01*
X588319Y110386D01*
X588400Y110473D01*
X588450Y110529D01*
X588507Y110579D01*
X588569Y110635D01*
X588638Y110685D01*
X588713Y110742D01*
X588800Y110792D01*
X588888Y110842D01*
X588982Y110892D01*
Y109180D01*
X590044D01*
Y112154D01*
X589794Y112166D01*
X593112D01*
D02*
G37*
%LPD*%
G36*
X590031Y122857D02*
X590100D01*
X590175Y122845D01*
X590269Y122839D01*
X590369Y122820D01*
X590481Y122795D01*
X590594Y122770D01*
X590712Y122732D01*
X590837Y122689D01*
X590956Y122639D01*
X591075Y122576D01*
X591193Y122507D01*
X591306Y122426D01*
X591406Y122332D01*
X591412Y122326D01*
X591425Y122308D01*
X591450Y122282D01*
X591481Y122245D01*
X591512Y122189D01*
X591556Y122126D01*
X591600Y122051D01*
X591643Y121964D01*
X591687Y121864D01*
X591725Y121751D01*
X591768Y121626D01*
X591800Y121489D01*
X591831Y121333D01*
X591856Y121170D01*
X591868Y120995D01*
X591875Y120802D01*
Y120420D01*
X588138D01*
Y121070D01*
X588144Y121133D01*
X588150Y121208D01*
Y121289D01*
X588163Y121376D01*
X588182Y121558D01*
X588213Y121745D01*
X588232Y121833D01*
X588257Y121920D01*
X588282Y121995D01*
X588313Y122064D01*
Y122070D01*
X588319Y122083D01*
X588332Y122095D01*
X588344Y122120D01*
X588388Y122189D01*
X588450Y122270D01*
X588538Y122357D01*
X588638Y122451D01*
X588763Y122551D01*
X588907Y122639D01*
X588913D01*
X588925Y122651D01*
X588950Y122657D01*
X588982Y122676D01*
X589025Y122689D01*
X589069Y122707D01*
X589132Y122732D01*
X589194Y122751D01*
X589263Y122770D01*
X589344Y122795D01*
X589431Y122814D01*
X589519Y122826D01*
X589719Y122851D01*
X589944Y122864D01*
X589956D01*
X589987D01*
X590031Y122857D01*
D02*
G37*
G36*
X590919Y114322D02*
X587038D01*
Y116865D01*
X590919Y114322D01*
D02*
G37*
G36*
X592962Y114266D02*
X589063Y116828D01*
X592962D01*
Y114266D01*
D02*
G37*
%LPC*%
G36*
X810462Y64139D02*
X804538D01*
Y59396D01*
X810462D01*
Y60459D01*
X806563Y63020D01*
X810462D01*
Y64139D01*
D02*
G37*
G36*
Y58122D02*
X804538D01*
Y57003D01*
X810462D01*
Y58122D01*
D02*
G37*
G36*
Y56178D02*
X804538Y54048D01*
Y56178D01*
Y50861D01*
Y52961D01*
X810462Y50861D01*
Y52023D01*
X806250Y53510D01*
X810462Y55023D01*
Y56178D01*
D02*
G37*
%LPD*%
G36*
X808419Y60515D02*
X804538D01*
Y63058D01*
X808419Y60515D01*
D02*
G37*
%LPC*%
G36*
X840462Y66494D02*
Y63258D01*
X840455Y63345D01*
X840449Y63452D01*
X840443Y63576D01*
X840437Y63714D01*
X840424Y63858D01*
X840406Y64014D01*
X840380Y64170D01*
X840324Y64489D01*
X840287Y64645D01*
X840243Y64789D01*
X840193Y64926D01*
X840137Y65051D01*
X840131Y65057D01*
X840124Y65076D01*
X840106Y65114D01*
X840074Y65157D01*
X840043Y65207D01*
X839999Y65270D01*
X839949Y65345D01*
X839887Y65420D01*
X839818Y65501D01*
X839743Y65582D01*
X839656Y65670D01*
X839562Y65757D01*
X839462Y65845D01*
X839350Y65926D01*
X839225Y66007D01*
X839093Y66088D01*
X839087Y66095D01*
X839062Y66107D01*
X839018Y66126D01*
X838968Y66151D01*
X838900Y66182D01*
X838818Y66220D01*
X838718Y66251D01*
X838612Y66295D01*
X838493Y66332D01*
X838369Y66363D01*
X838231Y66401D01*
X838081Y66432D01*
X837925Y66457D01*
X837762Y66476D01*
X837588Y66488D01*
X837412Y66494D01*
X840462D01*
X837344D01*
X837300Y66488D01*
X837238D01*
X837169Y66482D01*
X837088Y66476D01*
X837000Y66463D01*
X836906Y66451D01*
X836806Y66438D01*
X836594Y66395D01*
X836375Y66338D01*
X836157Y66263D01*
X836150D01*
X836132Y66251D01*
X836100Y66238D01*
X836063Y66220D01*
X836013Y66201D01*
X835957Y66170D01*
X835894Y66138D01*
X835819Y66101D01*
X835669Y66013D01*
X835513Y65907D01*
X835351Y65782D01*
X835201Y65638D01*
X835194Y65632D01*
X835182Y65620D01*
X835163Y65601D01*
X835138Y65570D01*
X835107Y65532D01*
X835076Y65489D01*
X835038Y65439D01*
X834994Y65382D01*
X834907Y65251D01*
X834826Y65101D01*
X834744Y64945D01*
X834682Y64770D01*
Y64764D01*
X834676Y64745D01*
X834669Y64720D01*
X834657Y64676D01*
X834651Y64626D01*
X834638Y64564D01*
X834626Y64482D01*
X834613Y64395D01*
X834594Y64289D01*
X834582Y64170D01*
X834569Y64039D01*
X834563Y63889D01*
X834551Y63727D01*
X834545Y63552D01*
X834538Y63358D01*
Y63552D01*
Y61802D01*
X840462D01*
Y66494D01*
D02*
G37*
G36*
Y60446D02*
X834538D01*
Y55704D01*
X840462D01*
Y60446D01*
D02*
G37*
G36*
X840612Y54666D02*
D01*
Y51755D01*
X840605Y51811D01*
Y51880D01*
X840599Y51961D01*
X840587Y52055D01*
X840574Y52154D01*
X840562Y52261D01*
X840543Y52373D01*
X840493Y52617D01*
X840418Y52873D01*
X840374Y53004D01*
X840324Y53129D01*
Y53135D01*
X840312Y53154D01*
X840299Y53185D01*
X840274Y53229D01*
X840249Y53279D01*
X840218Y53335D01*
X840174Y53404D01*
X840131Y53479D01*
X840074Y53567D01*
X840012Y53648D01*
X839949Y53741D01*
X839868Y53842D01*
X839787Y53935D01*
X839699Y54035D01*
X839600Y54141D01*
X839493Y54241D01*
X838706Y53448D01*
X838712Y53442D01*
X838743Y53417D01*
X838781Y53373D01*
X838831Y53317D01*
X838893Y53242D01*
X838962Y53154D01*
X839031Y53054D01*
X839106Y52948D01*
X839181Y52823D01*
X839256Y52686D01*
X839318Y52542D01*
X839381Y52386D01*
X839431Y52223D01*
X839474Y52055D01*
X839500Y51880D01*
X839506Y51692D01*
Y51655D01*
X839500Y51605D01*
Y51548D01*
X839487Y51473D01*
X839474Y51386D01*
X839456Y51286D01*
X839431Y51180D01*
X839399Y51067D01*
X839362Y50949D01*
X839318Y50830D01*
X839262Y50705D01*
X839193Y50580D01*
X839118Y50455D01*
X839025Y50336D01*
X838925Y50224D01*
X838918Y50217D01*
X838900Y50199D01*
X838868Y50167D01*
X838818Y50130D01*
X838762Y50086D01*
X838700Y50036D01*
X838618Y49986D01*
X838531Y49930D01*
X838431Y49874D01*
X838325Y49824D01*
X838206Y49774D01*
X838081Y49730D01*
X837950Y49693D01*
X837812Y49661D01*
X837663Y49643D01*
X837513Y49636D01*
X837500D01*
X837475D01*
X837431Y49643D01*
X837369Y49649D01*
X837294Y49655D01*
X837213Y49668D01*
X837113Y49686D01*
X837013Y49711D01*
X836900Y49743D01*
X836781Y49786D01*
X836663Y49836D01*
X836538Y49893D01*
X836419Y49967D01*
X836294Y50049D01*
X836175Y50142D01*
X836063Y50249D01*
X836057Y50255D01*
X836038Y50280D01*
X836007Y50311D01*
X835969Y50361D01*
X835925Y50417D01*
X835875Y50492D01*
X835819Y50574D01*
X835769Y50667D01*
X835713Y50774D01*
X835657Y50886D01*
X835607Y51011D01*
X835563Y51142D01*
X835526Y51286D01*
X835494Y51436D01*
X835475Y51598D01*
X835469Y51761D01*
Y51817D01*
X835475Y51861D01*
Y51911D01*
X835482Y51967D01*
X835488Y52030D01*
X835500Y52105D01*
X835532Y52254D01*
X835569Y52423D01*
X835632Y52586D01*
X835713Y52742D01*
Y52748D01*
X835725Y52761D01*
X835738Y52779D01*
X835757Y52811D01*
X835819Y52885D01*
X835900Y52973D01*
X835950Y53029D01*
X836007Y53079D01*
X836069Y53135D01*
X836138Y53185D01*
X836213Y53242D01*
X836300Y53292D01*
X836388Y53342D01*
X836481Y53392D01*
Y51680D01*
X837544D01*
Y54654D01*
X837294Y54666D01*
X840612D01*
X834388D01*
X837219D01*
X837163Y54660D01*
X837094Y54654D01*
X837013Y54648D01*
X836919Y54635D01*
X836819Y54616D01*
X836706Y54591D01*
X836588Y54566D01*
X836469Y54535D01*
X836338Y54498D01*
X836207Y54448D01*
X836075Y54391D01*
X835944Y54329D01*
X835813Y54260D01*
X835807Y54254D01*
X835782Y54241D01*
X835744Y54216D01*
X835701Y54185D01*
X835638Y54148D01*
X835575Y54098D01*
X835500Y54042D01*
X835419Y53979D01*
X835338Y53910D01*
X835251Y53829D01*
X835163Y53741D01*
X835069Y53654D01*
X834988Y53554D01*
X834901Y53448D01*
X834826Y53335D01*
X834751Y53217D01*
X834744Y53210D01*
X834738Y53185D01*
X834719Y53154D01*
X834695Y53104D01*
X834669Y53042D01*
X834638Y52967D01*
X834601Y52885D01*
X834569Y52786D01*
X834538Y52679D01*
X834501Y52567D01*
X834470Y52442D01*
X834445Y52311D01*
X834419Y52173D01*
X834407Y52023D01*
X834395Y51867D01*
X834388Y51711D01*
Y51623D01*
X834395Y51555D01*
X834401Y51473D01*
X834407Y51380D01*
X834419Y51280D01*
X834438Y51161D01*
X834457Y51036D01*
X834488Y50905D01*
X834520Y50767D01*
X834557Y50630D01*
X834601Y50486D01*
X834657Y50349D01*
X834719Y50205D01*
X834788Y50068D01*
X834794Y50061D01*
X834807Y50036D01*
X834832Y49999D01*
X834863Y49949D01*
X834901Y49886D01*
X834957Y49818D01*
X835013Y49736D01*
X835082Y49655D01*
X835157Y49561D01*
X835244Y49468D01*
X835338Y49374D01*
X835438Y49280D01*
X835544Y49187D01*
X835663Y49093D01*
X835794Y49005D01*
X835925Y48924D01*
X835932Y48918D01*
X835957Y48905D01*
X836000Y48886D01*
X836057Y48861D01*
X836125Y48824D01*
X836207Y48793D01*
X836300Y48755D01*
X836406Y48718D01*
X836519Y48674D01*
X836644Y48637D01*
X836775Y48605D01*
X836913Y48574D01*
X837063Y48543D01*
X837213Y48524D01*
X837369Y48512D01*
X837525Y48505D01*
X837575D01*
X837637Y48512D01*
X837725Y48518D01*
X837825Y48530D01*
X837944Y48549D01*
X838081Y48568D01*
X838225Y48605D01*
X838381Y48643D01*
X838543Y48693D01*
X838712Y48755D01*
X838887Y48830D01*
X839062Y48924D01*
X839237Y49024D01*
X839406Y49143D01*
X839575Y49280D01*
X839587Y49293D01*
X839618Y49324D01*
X839668Y49374D01*
X839737Y49449D01*
X839818Y49543D01*
X839906Y49649D01*
X839999Y49780D01*
X840093Y49930D01*
X840193Y50093D01*
X840287Y50274D01*
X840374Y50467D01*
X840449Y50680D01*
X840518Y50911D01*
X840568Y51155D01*
X840599Y51411D01*
X840612Y51680D01*
Y48755D01*
Y54666D01*
D02*
G37*
%LPD*%
G36*
X837531Y65357D02*
X837600D01*
X837675Y65345D01*
X837769Y65339D01*
X837869Y65320D01*
X837981Y65295D01*
X838094Y65270D01*
X838212Y65232D01*
X838337Y65189D01*
X838456Y65139D01*
X838575Y65076D01*
X838693Y65007D01*
X838806Y64926D01*
X838906Y64833D01*
X838912Y64826D01*
X838925Y64808D01*
X838950Y64783D01*
X838981Y64745D01*
X839012Y64689D01*
X839056Y64626D01*
X839100Y64551D01*
X839143Y64464D01*
X839187Y64364D01*
X839225Y64251D01*
X839268Y64126D01*
X839299Y63989D01*
X839331Y63833D01*
X839356Y63670D01*
X839368Y63495D01*
X839374Y63302D01*
Y62920D01*
X835638D01*
Y63570D01*
X835644Y63633D01*
X835650Y63708D01*
Y63789D01*
X835663Y63877D01*
X835682Y64058D01*
X835713Y64245D01*
X835732Y64333D01*
X835757Y64420D01*
X835782Y64495D01*
X835813Y64564D01*
Y64570D01*
X835819Y64583D01*
X835832Y64595D01*
X835844Y64620D01*
X835888Y64689D01*
X835950Y64770D01*
X836038Y64858D01*
X836138Y64951D01*
X836263Y65051D01*
X836406Y65139D01*
X836413D01*
X836425Y65151D01*
X836450Y65157D01*
X836481Y65176D01*
X836525Y65189D01*
X836569Y65207D01*
X836631Y65232D01*
X836694Y65251D01*
X836763Y65270D01*
X836844Y65295D01*
X836931Y65314D01*
X837019Y65326D01*
X837219Y65351D01*
X837444Y65364D01*
X837456D01*
X837487D01*
X837531Y65357D01*
D02*
G37*
G36*
X838419Y56822D02*
X834538D01*
Y59365D01*
X838419Y56822D01*
D02*
G37*
G36*
X840462Y56766D02*
X836563Y59328D01*
X840462D01*
Y56766D01*
D02*
G37*
D10*
X792000Y127500D02*
G03*
X792000Y127500I-500J0D01*
G01*
X325000Y100000D02*
X419150D01*
X490000Y99000D02*
Y146813D01*
X785000Y132750D02*
X795000D01*
X479000Y100000D02*
Y146813D01*
X460850Y100000D02*
X479000D01*
X431650D02*
X448350D01*
X176591Y28662D02*
X183662Y21591D01*
X80250Y447500D02*
Y457500D01*
X684500Y117500D02*
X709500D01*
X80250Y285000D02*
Y295000D01*
X94750Y285000D02*
Y295000D01*
X166338Y18409D02*
X173409Y11338D01*
X455000Y117000D02*
Y125000D01*
X436250Y47466D02*
X446530D01*
X435750Y77531D02*
X446530D01*
X490000Y99000D02*
X559229D01*
X325000Y100000D02*
Y146813D01*
X600000Y102031D02*
Y146813D01*
X446530Y70250D02*
Y77531D01*
X737250Y115500D02*
Y125500D01*
X384750Y74000D02*
Y84000D01*
X433750Y97000D02*
X446250D01*
X433750Y60500D02*
Y64500D01*
X446530Y47466D02*
Y54750D01*
X692500Y62750D02*
X707500D01*
X740500Y120500D02*
X749500D01*
X692500Y30250D02*
X707500D01*
X134445Y153484D02*
X141516Y160555D01*
X700000Y17500D02*
Y26750D01*
Y50000D02*
Y59250D01*
X425000Y117000D02*
Y125000D01*
X455000Y117000D02*
X465000D01*
X570771Y99000D02*
X591729D01*
X692500Y37250D02*
X707500D01*
X700000Y40750D02*
Y50000D01*
X415000Y117000D02*
X425000D01*
X820000Y104750D02*
X835000D01*
X827500Y108250D02*
Y117500D01*
X70250Y285000D02*
Y295000D01*
X820000Y130250D02*
X835000D01*
X58000Y290000D02*
X67000D01*
X752750Y115500D02*
Y125500D01*
X54750Y285000D02*
Y295000D01*
Y447500D02*
Y457500D01*
X70250Y447500D02*
Y457500D01*
X58000Y452500D02*
X67000D01*
X58000Y615000D02*
X67000D01*
X70250Y610000D02*
Y620000D01*
X370250Y41000D02*
Y51000D01*
X384750Y41000D02*
Y51000D01*
X370250Y74000D02*
Y84000D01*
X54750Y610000D02*
Y620000D01*
X827500Y117500D02*
Y126750D01*
X129318Y165682D02*
X135682Y159318D01*
X712500Y117250D02*
X722500D01*
X230328Y121212D02*
X237399Y114141D01*
X241288Y132172D02*
X248359Y125101D01*
X767500Y96750D02*
X777500D01*
X195984Y26944D02*
X203055Y34016D01*
X201818Y28182D02*
X208182Y21818D01*
X80250Y610000D02*
Y620000D01*
X94750Y610000D02*
Y620000D01*
X573750Y100250D02*
X588750D01*
X684500Y67500D02*
X709500D01*
X767500Y128250D02*
X777500D01*
X94750Y447500D02*
Y457500D01*
X365250Y15000D02*
Y25000D01*
X349750Y15000D02*
Y25000D01*
X573750Y74750D02*
X588750D01*
X581250Y87500D02*
Y96750D01*
Y78250D02*
Y87500D01*
X353000Y20000D02*
X362000D01*
X655500Y23000D02*
X664500D01*
X236161Y119975D02*
X242525Y126339D01*
X100984Y83055D02*
X108055Y75984D01*
X83484Y159445D02*
X90555Y166516D01*
X111945Y94016D02*
X119016Y86945D01*
X652250Y18000D02*
Y28000D01*
X692500Y4750D02*
X707500D01*
X700000Y8250D02*
Y17500D01*
X433750Y113000D02*
X446250D01*
X106818Y81818D02*
X113182Y88182D01*
X667750Y18000D02*
Y28000D01*
X123484Y164445D02*
X130555Y171516D01*
X85984Y113055D02*
X93055Y105984D01*
X91818Y111818D02*
X98182Y118182D01*
X717500Y120500D02*
Y129500D01*
X206945Y15984D02*
X214016Y23056D01*
X712500Y132750D02*
X722500D01*
X96945Y124016D02*
X104016Y116945D01*
X135984Y151945D02*
X143055Y159016D01*
X89318Y160682D02*
X95682Y154318D01*
X94445Y148484D02*
X101516Y155555D01*
X712500Y132750D02*
X722500D01*
X141818Y153182D02*
X148182Y146818D01*
X146945Y140984D02*
X154016Y148055D01*
X448747Y87501D02*
Y94499D01*
X445248D01*
X444082Y93333D01*
Y91000D01*
X445248Y89834D01*
X448747D01*
X446415D02*
X444082Y87501D01*
X441749D02*
X439417D01*
X440583D01*
Y94499D01*
X441749Y93333D01*
X431253Y94499D02*
X433585Y93333D01*
X435918Y91000D01*
Y88667D01*
X434752Y87501D01*
X432419D01*
X431253Y88667D01*
Y89834D01*
X432419Y91000D01*
X435918D01*
X384501Y20253D02*
X391499D01*
Y23752D01*
X390333Y24918D01*
X388000D01*
X386834Y23752D01*
Y20253D01*
Y22585D02*
X384501Y24918D01*
Y27251D02*
Y29583D01*
Y28417D01*
X391499D01*
X390333Y27251D01*
Y33082D02*
X391499Y34248D01*
Y36581D01*
X390333Y37747D01*
X389166D01*
X388000Y36581D01*
X386834Y37747D01*
X385667D01*
X384501Y36581D01*
Y34248D01*
X385667Y33082D01*
X386834D01*
X388000Y34248D01*
X389166Y33082D01*
X390333D01*
X388000Y34248D02*
Y36581D01*
X386501Y64253D02*
X393499D01*
Y67752D01*
X392333Y68918D01*
X390000D01*
X388834Y67752D01*
Y64253D01*
Y66585D02*
X386501Y68918D01*
Y71251D02*
Y73583D01*
Y72417D01*
X393499D01*
X392333Y71251D01*
X393499Y77082D02*
Y81747D01*
X392333D01*
X387667Y77082D01*
X386501D01*
X339330Y34499D02*
Y27501D01*
X335831D01*
X334665Y28667D01*
Y33333D01*
X335831Y34499D01*
X339330D01*
X332333D02*
Y27501D01*
X328834D01*
X327667Y28667D01*
Y33333D01*
X328834Y34499D01*
X332333D01*
X320670Y27501D02*
X325335D01*
X320670Y32166D01*
Y33333D01*
X321836Y34499D01*
X324169D01*
X325335Y33333D01*
X457499Y69169D02*
X450501D01*
Y72667D01*
X451667Y73834D01*
X456333D01*
X457499Y72667D01*
Y69169D01*
X450501Y80831D02*
Y76166D01*
X455166Y80831D01*
X456333D01*
X457499Y79665D01*
Y77333D01*
X456333Y76166D01*
X552499Y59335D02*
X545501D01*
Y62834D01*
X546667Y64000D01*
X551333D01*
X552499Y62834D01*
Y59335D01*
X545501Y66333D02*
Y68665D01*
Y67499D01*
X552499D01*
X551333Y66333D01*
X374333Y14335D02*
X375499Y13168D01*
Y10836D01*
X374333Y9670D01*
X369667D01*
X368501Y10836D01*
Y13168D01*
X369667Y14335D01*
X368501Y21332D02*
Y16667D01*
X373166Y21332D01*
X374333D01*
X375499Y20166D01*
Y17834D01*
X374333Y16667D01*
X368501Y28330D02*
Y23665D01*
X373166Y28330D01*
X374333D01*
X375499Y27164D01*
Y24831D01*
X374333Y23665D01*
X610333Y83084D02*
X611499Y81918D01*
Y79585D01*
X610333Y78419D01*
X605667D01*
X604501Y79585D01*
Y81918D01*
X605667Y83084D01*
X604501Y85417D02*
Y87750D01*
Y86583D01*
X611499D01*
X610333Y85417D01*
X604501Y91248D02*
Y93581D01*
Y92415D01*
X611499D01*
X610333Y91248D01*
X662333Y42834D02*
X663499Y41667D01*
Y39335D01*
X662333Y38168D01*
X657667D01*
X656501Y39335D01*
Y41667D01*
X657667Y42834D01*
X662333Y45166D02*
X663499Y46333D01*
Y48665D01*
X662333Y49831D01*
X661166D01*
X660000Y48665D01*
X658834Y49831D01*
X657667D01*
X656501Y48665D01*
Y46333D01*
X657667Y45166D01*
X658834D01*
X660000Y46333D01*
X661166Y45166D01*
X662333D01*
X660000Y46333D02*
Y48665D01*
X152247Y46701D02*
X147299Y41753D01*
X144825Y44227D01*
Y45876D01*
X148124Y49175D01*
X149773D01*
X152247Y46701D01*
X147299Y51649D02*
X142351Y46701D01*
X139876Y49175D01*
Y50825D01*
X143175Y54124D01*
X144825D01*
X147299Y51649D01*
X137402D02*
X135753Y53299D01*
X136578Y52474D01*
X141526Y57422D01*
Y55773D01*
X119247Y163701D02*
X115948Y167000D01*
X115124Y166175D01*
Y159578D01*
X114299Y158753D01*
X111000Y162052D01*
X106876Y167825D02*
X110175Y171124D01*
X111825D01*
X113474Y169474D01*
Y167825D01*
X110175Y164526D01*
X108526D01*
X106876Y166175D01*
X109351Y167000D02*
X106052D01*
X106876Y166175D02*
Y167825D01*
X104403Y168649D02*
X102753Y170299D01*
X103578Y169474D01*
X108526Y174422D01*
Y172773D01*
X165711Y5341D02*
X170659Y10289D01*
X168185Y12763D01*
X166536D01*
X164886Y11114D01*
Y9464D01*
X167360Y6990D01*
X165711Y8640D02*
X162412D01*
X160763Y10289D02*
X159114Y11938D01*
X159938Y11114D01*
X164886Y16062D01*
Y14412D01*
X158289Y22659D02*
X161588Y19361D01*
X159114Y16886D01*
X158289Y19361D01*
X157464Y20185D01*
X155815D01*
X154165Y18536D01*
Y16886D01*
X155815Y15237D01*
X157464D01*
X703747Y136501D02*
Y143499D01*
X700248D01*
X699082Y142333D01*
Y140000D01*
X700248Y138834D01*
X703747D01*
X701415D02*
X699082Y136501D01*
X696749D02*
X694417D01*
X695583D01*
Y143499D01*
X696749Y142333D01*
X690918D02*
X689752Y143499D01*
X687419D01*
X686253Y142333D01*
Y141166D01*
X687419Y140000D01*
X688585D01*
X687419D01*
X686253Y138834D01*
Y137667D01*
X687419Y136501D01*
X689752D01*
X690918Y137667D01*
X819747Y136501D02*
Y143499D01*
X816248D01*
X815082Y142333D01*
Y140000D01*
X816248Y138834D01*
X819747D01*
X817415D02*
X815082Y136501D01*
X812749D02*
X810417D01*
X811583D01*
Y143499D01*
X812749Y142333D01*
X803419Y136501D02*
Y143499D01*
X806918Y140000D01*
X802253D01*
X97501Y284168D02*
X104499D01*
Y287667D01*
X103333Y288834D01*
X101000D01*
X99834Y287667D01*
Y284168D01*
Y286501D02*
X97501Y288834D01*
X104499Y295831D02*
Y291166D01*
X101000D01*
X102166Y293499D01*
Y294665D01*
X101000Y295831D01*
X98667D01*
X97501Y294665D01*
Y292333D01*
X98667Y291166D01*
X97501Y446169D02*
X104499D01*
Y449667D01*
X103333Y450834D01*
X101000D01*
X99834Y449667D01*
Y446169D01*
Y448501D02*
X97501Y450834D01*
X103333Y453166D02*
X104499Y454333D01*
Y456665D01*
X103333Y457831D01*
X102166D01*
X101000Y456665D01*
Y455499D01*
Y456665D01*
X99834Y457831D01*
X98667D01*
X97501Y456665D01*
Y454333D01*
X98667Y453166D01*
X97501Y610335D02*
X104499D01*
Y613834D01*
X103333Y615000D01*
X101000D01*
X99834Y613834D01*
Y610335D01*
Y612667D02*
X97501Y615000D01*
Y617332D02*
Y619665D01*
Y618499D01*
X104499D01*
X103333Y617332D01*
X731499Y98335D02*
X724501D01*
Y103000D01*
Y105333D02*
Y107665D01*
Y106499D01*
X731499D01*
X730333Y105333D01*
X780164Y94499D02*
Y87501D01*
X776665D01*
X775499Y88667D01*
Y93333D01*
X776665Y94499D01*
X780164D01*
X773166Y87501D02*
Y92166D01*
X770834Y94499D01*
X768501Y92166D01*
Y87501D01*
Y91000D01*
X773166D01*
X766169Y87501D02*
X763836D01*
X765002D01*
Y94499D01*
X766169Y93333D01*
X86123Y108175D02*
X87773D01*
X89422Y106526D01*
Y104876D01*
X86123Y101578D01*
X84474D01*
X82825Y103227D01*
Y104876D01*
X77052Y109000D02*
X80351Y105701D01*
Y112299D01*
X81175Y113123D01*
X82825D01*
X84474Y111474D01*
Y109825D01*
X75402Y110649D02*
X73753Y112299D01*
X74578Y111474D01*
X79526Y116422D01*
Y114773D01*
X82948Y169351D02*
X84598D01*
X86247Y167701D01*
Y166052D01*
X82948Y162753D01*
X81299D01*
X79649Y164402D01*
Y166052D01*
X73877Y170175D02*
X77175Y166877D01*
Y173474D01*
X78000Y174299D01*
X79649D01*
X81299Y172649D01*
Y171000D01*
X76351Y175948D02*
Y177598D01*
X74701Y179247D01*
X73052D01*
X69753Y175948D01*
Y174299D01*
X71403Y172649D01*
X73052D01*
X76351Y175948D01*
X166536Y156763D02*
X168185D01*
X169835Y155114D01*
Y153464D01*
X166536Y150165D01*
X164886D01*
X163237Y151815D01*
Y153464D01*
X160763Y154289D02*
X159114Y155938D01*
X159938Y155114D01*
X164886Y160062D01*
Y158412D01*
X160763Y162536D02*
Y164185D01*
X159114Y165835D01*
X157464D01*
X156639Y165010D01*
Y163361D01*
X154990D01*
X154165Y162536D01*
Y160886D01*
X155815Y159237D01*
X157464D01*
X158289Y160062D01*
Y161711D01*
X159938D01*
X160763Y162536D01*
X158289Y161711D02*
X156639Y163361D01*
X118536Y63763D02*
X120185D01*
X121835Y62114D01*
Y60464D01*
X118536Y57165D01*
X116887D01*
X115237Y58815D01*
Y60464D01*
X112763Y61289D02*
X111114Y62938D01*
X111938Y62114D01*
X116887Y67062D01*
Y65412D01*
X109464Y66237D02*
X107815D01*
X106165Y67886D01*
Y69536D01*
X109464Y72835D01*
X111114D01*
X112763Y71185D01*
Y69536D01*
X111938Y68711D01*
X110289D01*
X107815Y71185D01*
X144536Y178763D02*
X146185D01*
X147835Y177114D01*
Y175464D01*
X144536Y172165D01*
X142886D01*
X141237Y173815D01*
Y175464D01*
X138763Y176289D02*
X137114Y177938D01*
X137938Y177114D01*
X142886Y182062D01*
Y180412D01*
X136289Y188659D02*
X137114Y186185D01*
Y182886D01*
X135464Y181237D01*
X133815D01*
X132165Y182886D01*
Y184536D01*
X132990Y185361D01*
X134640D01*
X137114Y182886D01*
X225536Y34763D02*
X227185D01*
X228835Y33114D01*
Y31464D01*
X225536Y28165D01*
X223886D01*
X222237Y29815D01*
Y31464D01*
X219763Y32289D02*
X218114Y33938D01*
X218938Y33114D01*
X223886Y38062D01*
Y36412D01*
X220588Y41361D02*
X217289Y44659D01*
X216464Y43835D01*
Y37237D01*
X215639Y36412D01*
X249536Y135546D02*
X251185D01*
X252835Y133897D01*
Y132247D01*
X249536Y128949D01*
X247886D01*
X246237Y130598D01*
Y132247D01*
X243763Y133072D02*
X242114Y134721D01*
X242938Y133897D01*
X247886Y138845D01*
Y137196D01*
X241289Y145442D02*
X244588Y142144D01*
X242114Y139670D01*
X241289Y142144D01*
X240464Y142968D01*
X238815D01*
X237165Y141319D01*
Y139670D01*
X238815Y138020D01*
X240464D01*
X730333Y14918D02*
X731499Y13752D01*
Y11419D01*
X730333Y10253D01*
X725667D01*
X724501Y11419D01*
Y13752D01*
X725667Y14918D01*
X724501Y17251D02*
Y19583D01*
Y18417D01*
X731499D01*
X730333Y17251D01*
Y23082D02*
X731499Y24248D01*
Y26581D01*
X730333Y27747D01*
X729166D01*
X728000Y26581D01*
Y25415D01*
Y26581D01*
X726834Y27747D01*
X725667D01*
X724501Y26581D01*
Y24248D01*
X725667Y23082D01*
X731333Y50918D02*
X732499Y49752D01*
Y47419D01*
X731333Y46253D01*
X726667D01*
X725501Y47419D01*
Y49752D01*
X726667Y50918D01*
X725501Y53251D02*
Y55583D01*
Y54417D01*
X732499D01*
X731333Y53251D01*
X725501Y63747D02*
Y59082D01*
X730166Y63747D01*
X731333D01*
X732499Y62581D01*
Y60248D01*
X731333Y59082D01*
X698082Y127333D02*
X699248Y128499D01*
X701581D01*
X702747Y127333D01*
Y122667D01*
X701581Y121501D01*
X699248D01*
X698082Y122667D01*
X695749Y121501D02*
X693417D01*
X694583D01*
Y128499D01*
X695749Y127333D01*
X689918D02*
X688752Y128499D01*
X686419D01*
X685253Y127333D01*
Y122667D01*
X686419Y121501D01*
X688752D01*
X689918Y122667D01*
Y127333D01*
X746166Y141333D02*
X747333Y142499D01*
X749665D01*
X750832Y141333D01*
Y136667D01*
X749665Y135501D01*
X747333D01*
X746166Y136667D01*
X743834D02*
X742667Y135501D01*
X740335D01*
X739168Y136667D01*
Y141333D01*
X740335Y142499D01*
X742667D01*
X743834Y141333D01*
Y140166D01*
X742667Y139000D01*
X739168D01*
X857333Y116834D02*
X858499Y115667D01*
Y113335D01*
X857333Y112169D01*
X852667D01*
X851501Y113335D01*
Y115667D01*
X852667Y116834D01*
X858499Y119166D02*
Y123832D01*
X857333D01*
X852667Y119166D01*
X851501D01*
X50333Y288834D02*
X51499Y287667D01*
Y285335D01*
X50333Y284168D01*
X45667D01*
X44501Y285335D01*
Y287667D01*
X45667Y288834D01*
X50333Y291166D02*
X51499Y292333D01*
Y294665D01*
X50333Y295831D01*
X49166D01*
X48000Y294665D01*
Y293499D01*
Y294665D01*
X46834Y295831D01*
X45667D01*
X44501Y294665D01*
Y292333D01*
X45667Y291166D01*
X50333Y450834D02*
X51499Y449667D01*
Y447335D01*
X50333Y446169D01*
X45667D01*
X44501Y447335D01*
Y449667D01*
X45667Y450834D01*
X44501Y457831D02*
Y453166D01*
X49166Y457831D01*
X50333D01*
X51499Y456665D01*
Y454333D01*
X50333Y453166D01*
X50333Y615000D02*
X51499Y613834D01*
Y611501D01*
X50333Y610335D01*
X45667D01*
X44501Y611501D01*
Y613834D01*
X45667Y615000D01*
X44501Y617332D02*
Y619665D01*
Y618499D01*
X51499D01*
X50333Y617332D01*
D11*
X314000Y37500D02*
X346000D01*
X314000Y87500D02*
X346000D01*
X314000Y37500D02*
Y87500D01*
X588000Y3564D02*
Y68500D01*
X557000Y3564D02*
Y68500D01*
X588000D01*
X346000Y37500D02*
Y87500D01*
X141109Y90000D02*
X180000Y128891D01*
Y51109D02*
X218891Y90000D01*
X141109D02*
X180000Y51109D01*
Y128891D02*
X218891Y90000D01*
D68*
X327000Y47500D02*
G03*
X327000Y47500I-3000J0D01*
G01*
X158251Y90000D02*
G03*
X158251Y90000I-3000J0D01*
G01*
D69*
X304000Y34950D02*
G03*
X304000Y34950I-1250J0D01*
G01*
X603000Y68000D02*
G03*
X603000Y68000I-1250J0D01*
G01*
X128217Y94243D02*
G03*
X128217Y94243I-1250J0D01*
G01*
D70*
X106151Y126753D02*
X107282Y125622D01*
X123829Y144431D02*
X124960Y143299D01*
M02*
