G04*
G04 #@! TF.GenerationSoftware,Altium Limited,Altium Designer,23.3.1 (30)*
G04*
G04 Layer_Color=65535*
%FSLAX44Y44*%
%MOMM*%
G71*
G04*
G04 #@! TF.SameCoordinates,385D930E-6DCE-4BF4-A8D5-39ABE76CC8D0*
G04*
G04*
G04 #@! TF.FilePolarity,Positive*
G04*
G01*
G75*
%ADD10C,0.1500*%
%ADD11C,0.2000*%
G36*
X44071Y183836D02*
X45004D01*
Y183743D01*
X45563D01*
Y183649D01*
X46123D01*
Y183556D01*
X46589D01*
Y183463D01*
X46963D01*
Y183369D01*
X47242D01*
Y183276D01*
X47616D01*
Y183183D01*
X47895D01*
Y183090D01*
X48082D01*
Y182996D01*
X48362D01*
Y182903D01*
X48548D01*
Y182810D01*
X48828D01*
Y182716D01*
X49015D01*
Y182623D01*
X49108D01*
Y182530D01*
X49295D01*
Y182437D01*
X49481D01*
Y182343D01*
X49668D01*
Y182250D01*
X49854D01*
Y182157D01*
X49948D01*
Y182063D01*
X50041D01*
Y181970D01*
X50228D01*
Y181877D01*
X50321D01*
Y181784D01*
X50507D01*
Y181690D01*
X50601D01*
Y181597D01*
X50694D01*
Y181504D01*
X50787D01*
Y181410D01*
X50881D01*
Y181317D01*
X50974D01*
Y181224D01*
X51067D01*
Y181131D01*
X51160D01*
Y181037D01*
X51254D01*
Y180944D01*
X51347D01*
Y180851D01*
X51440D01*
Y180757D01*
X51534D01*
Y180664D01*
X51627D01*
Y180571D01*
X51720D01*
Y180384D01*
X51813D01*
Y180291D01*
X51907D01*
Y180105D01*
X52000D01*
Y180011D01*
X52093D01*
Y179825D01*
X52187D01*
Y179731D01*
X52280D01*
Y179545D01*
X52373D01*
Y179358D01*
X52466D01*
Y179172D01*
X52560D01*
Y178985D01*
X52653D01*
Y178705D01*
X52746D01*
Y178425D01*
X52839D01*
Y178239D01*
X52933D01*
Y177866D01*
X53026D01*
Y177493D01*
X53119D01*
Y177119D01*
X53213D01*
Y176560D01*
X53306D01*
Y175534D01*
X53399D01*
Y174228D01*
X53306D01*
Y173015D01*
X53213D01*
Y172269D01*
X53119D01*
Y171709D01*
X53026D01*
Y171243D01*
X52933D01*
Y170776D01*
X52839D01*
Y170310D01*
X52746D01*
Y169937D01*
X52653D01*
Y169563D01*
X52560D01*
Y169284D01*
X52466D01*
Y168910D01*
X52373D01*
Y168631D01*
X52280D01*
Y168351D01*
X52187D01*
Y167978D01*
X52093D01*
Y167698D01*
X52000D01*
Y167418D01*
X51907D01*
Y167138D01*
X51813D01*
Y166858D01*
X51720D01*
Y166672D01*
X51627D01*
Y166392D01*
X51534D01*
Y166112D01*
X51440D01*
Y165832D01*
X51347D01*
Y165646D01*
X51254D01*
Y165366D01*
X51160D01*
Y165179D01*
X51067D01*
Y164899D01*
X50974D01*
Y164713D01*
X50881D01*
Y164526D01*
X50787D01*
Y164246D01*
X50694D01*
Y164060D01*
X50601D01*
Y163873D01*
X50507D01*
Y163687D01*
X50414D01*
Y163407D01*
X50321D01*
Y163220D01*
X50228D01*
Y163034D01*
X50134D01*
Y162847D01*
X50041D01*
Y162660D01*
X49948D01*
Y162474D01*
X49854D01*
Y162287D01*
X49761D01*
Y162101D01*
X49668D01*
Y161914D01*
X49575D01*
Y161728D01*
X49481D01*
Y161541D01*
X49388D01*
Y161261D01*
X49575D01*
Y161168D01*
X49668D01*
Y161075D01*
X49761D01*
Y160981D01*
X49854D01*
Y160888D01*
X49948D01*
Y160795D01*
X50041D01*
Y160702D01*
X50134D01*
Y160608D01*
X50228D01*
Y160515D01*
X50321D01*
Y160328D01*
X50414D01*
Y160235D01*
X50507D01*
Y160049D01*
X50601D01*
Y159862D01*
X50694D01*
Y159582D01*
X50787D01*
Y159302D01*
X50881D01*
Y158090D01*
X50787D01*
Y157810D01*
X50694D01*
Y157530D01*
X50601D01*
Y157343D01*
X50507D01*
Y157250D01*
X50414D01*
Y157063D01*
X50321D01*
Y156784D01*
X50228D01*
Y156597D01*
X50134D01*
Y156317D01*
X50041D01*
Y156131D01*
X49948D01*
Y155851D01*
X50041D01*
Y155571D01*
X50134D01*
Y155384D01*
X50228D01*
Y155105D01*
X50321D01*
Y154825D01*
X50414D01*
Y154638D01*
X50507D01*
Y154358D01*
X50601D01*
Y154172D01*
X50694D01*
Y153892D01*
X50787D01*
Y153705D01*
X50881D01*
Y153519D01*
X50974D01*
Y153239D01*
X51067D01*
Y153052D01*
X51160D01*
Y152866D01*
X51254D01*
Y152586D01*
X51347D01*
Y152399D01*
X51440D01*
Y152213D01*
X51534D01*
Y152026D01*
X51627D01*
Y151746D01*
X51720D01*
Y151560D01*
X51813D01*
Y151373D01*
X51907D01*
Y151187D01*
X52000D01*
Y151000D01*
X52093D01*
Y150813D01*
X52187D01*
Y150627D01*
X52280D01*
Y150440D01*
X52373D01*
Y150254D01*
X52466D01*
Y150067D01*
X52560D01*
Y149881D01*
X52653D01*
Y149694D01*
X52746D01*
Y149507D01*
X52839D01*
Y149414D01*
X52933D01*
Y149228D01*
X53026D01*
Y149041D01*
X53119D01*
Y148855D01*
X53213D01*
Y148761D01*
X53306D01*
Y148575D01*
X53399D01*
Y148388D01*
X53492D01*
Y148202D01*
X53586D01*
Y148108D01*
X53679D01*
Y147922D01*
X53772D01*
Y147828D01*
X53866D01*
Y147642D01*
X53959D01*
Y147549D01*
X54052D01*
Y147362D01*
X54145D01*
Y147175D01*
X54239D01*
Y147082D01*
X54332D01*
Y146896D01*
X54425D01*
Y146802D01*
X54519D01*
Y146709D01*
X54612D01*
Y146522D01*
X54705D01*
Y146429D01*
X54798D01*
Y146243D01*
X54892D01*
Y146149D01*
X54985D01*
Y146056D01*
X55078D01*
Y145869D01*
X55172D01*
Y145776D01*
X55265D01*
Y145683D01*
X55358D01*
Y145590D01*
X55451D01*
Y145496D01*
X55545D01*
Y145310D01*
X55638D01*
Y145216D01*
X55731D01*
Y145123D01*
X55825D01*
Y145030D01*
X55918D01*
Y144937D01*
X56011D01*
Y144750D01*
X56104D01*
Y144657D01*
X56198D01*
Y144563D01*
X56291D01*
Y144470D01*
X56384D01*
Y144377D01*
X56478D01*
Y144284D01*
X56571D01*
Y144190D01*
X56664D01*
Y144097D01*
X56757D01*
Y144004D01*
X56851D01*
Y143910D01*
X56944D01*
Y143817D01*
X57037D01*
Y143724D01*
X57131D01*
Y143631D01*
X57317D01*
Y143537D01*
X57410D01*
Y143444D01*
X57504D01*
Y143351D01*
X57597D01*
Y143257D01*
X57690D01*
Y143164D01*
X57877D01*
Y143071D01*
X57970D01*
Y142978D01*
X58063D01*
Y142884D01*
X58250D01*
Y142791D01*
X58343D01*
Y142698D01*
X58530D01*
Y142605D01*
X58623D01*
Y142511D01*
X58810D01*
Y142418D01*
X58996D01*
Y142325D01*
X59183D01*
Y142231D01*
X59276D01*
Y142138D01*
X59556D01*
Y142045D01*
X59742D01*
Y141952D01*
X59929D01*
Y141858D01*
X60209D01*
Y141765D01*
X60489D01*
Y141672D01*
X60862D01*
Y141578D01*
X61328D01*
Y141485D01*
X62168D01*
Y141392D01*
X63287D01*
Y141485D01*
X64220D01*
Y141578D01*
X64687D01*
Y141672D01*
X65060D01*
Y141765D01*
X65339D01*
Y141858D01*
X65619D01*
Y141952D01*
X65899D01*
Y142045D01*
X66086D01*
Y142138D01*
X66272D01*
Y142231D01*
X66459D01*
Y142325D01*
X66645D01*
Y142418D01*
X66739D01*
Y142511D01*
X66925D01*
Y142605D01*
X67019D01*
Y142698D01*
X67205D01*
Y142791D01*
X67298D01*
Y142884D01*
X67392D01*
Y142978D01*
X67485D01*
Y143071D01*
X67578D01*
Y143164D01*
X67672D01*
Y143257D01*
X67765D01*
Y143351D01*
X67858D01*
Y143444D01*
X67951D01*
Y143537D01*
X68045D01*
Y143631D01*
X68138D01*
Y143724D01*
X68231D01*
Y143817D01*
X68325D01*
Y144004D01*
X68418D01*
Y144097D01*
X68511D01*
Y144284D01*
X68604D01*
Y144470D01*
X68698D01*
Y144563D01*
X68791D01*
Y144750D01*
X68884D01*
Y144937D01*
X68978D01*
Y145216D01*
X69071D01*
Y145403D01*
X69164D01*
Y145683D01*
X69257D01*
Y145963D01*
X69351D01*
Y146336D01*
X69444D01*
Y146896D01*
X69537D01*
Y148948D01*
X69444D01*
Y149507D01*
X69351D01*
Y149787D01*
X69257D01*
Y150160D01*
X69164D01*
Y150440D01*
X69071D01*
Y150627D01*
X68978D01*
Y150813D01*
X68884D01*
Y151000D01*
X68791D01*
Y151187D01*
X68698D01*
Y151373D01*
X68604D01*
Y151466D01*
X68511D01*
Y151560D01*
X68418D01*
Y151746D01*
X68325D01*
Y151840D01*
X68231D01*
Y151933D01*
X68138D01*
Y152026D01*
X68045D01*
Y152119D01*
X67951D01*
Y152213D01*
X67858D01*
Y152306D01*
X67765D01*
Y152399D01*
X67672D01*
Y152493D01*
X67485D01*
Y152586D01*
X67392D01*
Y152679D01*
X67298D01*
Y152772D01*
X67112D01*
Y152866D01*
X67019D01*
Y152959D01*
X66832D01*
Y153052D01*
X66645D01*
Y153146D01*
X66459D01*
Y153239D01*
X66179D01*
Y153332D01*
X65992D01*
Y153425D01*
X65713D01*
Y153519D01*
X65433D01*
Y153612D01*
X65060D01*
Y153705D01*
X64687D01*
Y153799D01*
X64127D01*
Y153892D01*
X62075D01*
Y153985D01*
X61888D01*
Y154078D01*
X61701D01*
Y154265D01*
X61608D01*
Y154545D01*
X61701D01*
Y154731D01*
X61795D01*
Y154918D01*
X61888D01*
Y155011D01*
X61981D01*
Y155105D01*
X62168D01*
Y155198D01*
X62261D01*
Y155291D01*
X62448D01*
Y155384D01*
X62634D01*
Y155478D01*
X62914D01*
Y155571D01*
X63287D01*
Y155664D01*
X63847D01*
Y155757D01*
X65433D01*
Y155664D01*
X65992D01*
Y155571D01*
X66366D01*
Y155478D01*
X66739D01*
Y155384D01*
X67019D01*
Y155291D01*
X67298D01*
Y155198D01*
X67578D01*
Y155105D01*
X67765D01*
Y155011D01*
X67951D01*
Y154918D01*
X68138D01*
Y154825D01*
X68325D01*
Y154731D01*
X68511D01*
Y154638D01*
X68604D01*
Y154545D01*
X68791D01*
Y154452D01*
X68978D01*
Y154358D01*
X69071D01*
Y154265D01*
X69257D01*
Y154172D01*
X69351D01*
Y154078D01*
X69444D01*
Y153985D01*
X69537D01*
Y153892D01*
X69724D01*
Y153799D01*
X69817D01*
Y153705D01*
X69910D01*
Y153612D01*
X70004D01*
Y153519D01*
X70097D01*
Y153425D01*
X70190D01*
Y153332D01*
X70284D01*
Y153239D01*
X70377D01*
Y153146D01*
X70470D01*
Y153052D01*
X70563D01*
Y152959D01*
X70657D01*
Y152866D01*
X70750D01*
Y152679D01*
X70843D01*
Y152586D01*
X70937D01*
Y152493D01*
X71030D01*
Y152399D01*
X71123D01*
Y152213D01*
X71216D01*
Y152119D01*
X71310D01*
Y151933D01*
X71403D01*
Y151746D01*
X71496D01*
Y151653D01*
X71589D01*
Y151466D01*
X71683D01*
Y151280D01*
X71776D01*
Y151093D01*
X71869D01*
Y150907D01*
X71963D01*
Y150720D01*
X72056D01*
Y150440D01*
X72149D01*
Y150254D01*
X72242D01*
Y149974D01*
X72336D01*
Y149694D01*
X72429D01*
Y149414D01*
X72522D01*
Y149041D01*
X72616D01*
Y148575D01*
X72709D01*
Y148015D01*
X72802D01*
Y145590D01*
X72709D01*
Y145030D01*
X72616D01*
Y144657D01*
X72522D01*
Y144284D01*
X72429D01*
Y144004D01*
X72336D01*
Y143724D01*
X72242D01*
Y143444D01*
X72149D01*
Y143257D01*
X72056D01*
Y142978D01*
X71963D01*
Y142791D01*
X71869D01*
Y142605D01*
X71776D01*
Y142418D01*
X71683D01*
Y142231D01*
X71589D01*
Y142138D01*
X71496D01*
Y141952D01*
X71403D01*
Y141765D01*
X71310D01*
Y141672D01*
X71216D01*
Y141485D01*
X71123D01*
Y141392D01*
X71030D01*
Y141205D01*
X70937D01*
Y141112D01*
X70843D01*
Y140925D01*
X70750D01*
Y140832D01*
X70657D01*
Y140739D01*
X70563D01*
Y140646D01*
X70470D01*
Y140552D01*
X70377D01*
Y140366D01*
X70284D01*
Y140272D01*
X70190D01*
Y140179D01*
X70097D01*
Y140086D01*
X70004D01*
Y139993D01*
X69817D01*
Y139899D01*
X69724D01*
Y139806D01*
X69631D01*
Y139713D01*
X69537D01*
Y139619D01*
X69351D01*
Y139526D01*
X69257D01*
Y139433D01*
X69164D01*
Y139340D01*
X68978D01*
Y139246D01*
X68791D01*
Y139153D01*
X68698D01*
Y139060D01*
X68511D01*
Y138966D01*
X68325D01*
Y138873D01*
X68138D01*
Y138780D01*
X67951D01*
Y138687D01*
X67672D01*
Y138593D01*
X67485D01*
Y138500D01*
X67205D01*
Y138407D01*
X66925D01*
Y138313D01*
X66645D01*
Y138220D01*
X66366D01*
Y138127D01*
X65992D01*
Y138034D01*
X65526D01*
Y137940D01*
X65060D01*
Y137847D01*
X64407D01*
Y137754D01*
X63567D01*
Y137660D01*
X61981D01*
Y137567D01*
X61422D01*
Y137660D01*
X60582D01*
Y137474D01*
X60675D01*
Y137101D01*
X60769D01*
Y136728D01*
X60862D01*
Y136261D01*
X60955D01*
Y135888D01*
X61048D01*
Y135422D01*
X61142D01*
Y134955D01*
X61235D01*
Y134489D01*
X61328D01*
Y133929D01*
X61422D01*
Y133369D01*
X61515D01*
Y132716D01*
X61608D01*
Y132063D01*
X61701D01*
Y131037D01*
X61795D01*
Y127959D01*
X62728D01*
Y128052D01*
X63287D01*
Y128146D01*
X63754D01*
Y128239D01*
X64034D01*
Y128332D01*
X64313D01*
Y128425D01*
X64500D01*
Y128519D01*
X64687D01*
Y128612D01*
X64873D01*
Y128705D01*
X65060D01*
Y128799D01*
X65246D01*
Y128892D01*
X65339D01*
Y128985D01*
X65526D01*
Y129078D01*
X65619D01*
Y129172D01*
X65713D01*
Y129265D01*
X65806D01*
Y129358D01*
X65899D01*
Y129452D01*
X66086D01*
Y129545D01*
X66179D01*
Y129638D01*
X66272D01*
Y129825D01*
X66366D01*
Y129918D01*
X66459D01*
Y130011D01*
X66552D01*
Y130105D01*
X66645D01*
Y130291D01*
X66739D01*
Y130384D01*
X66832D01*
Y130478D01*
X66925D01*
Y130664D01*
X67019D01*
Y130851D01*
X67112D01*
Y130944D01*
X67205D01*
Y131131D01*
X67298D01*
Y131317D01*
X67392D01*
Y131597D01*
X67485D01*
Y131784D01*
X67578D01*
Y132063D01*
X67672D01*
Y132437D01*
X67765D01*
Y133090D01*
X67858D01*
Y133369D01*
X67951D01*
Y133556D01*
X68045D01*
Y133743D01*
X68138D01*
Y133836D01*
X68231D01*
Y133929D01*
X68698D01*
Y133836D01*
X68884D01*
Y133743D01*
X68978D01*
Y133649D01*
X69071D01*
Y133556D01*
X69164D01*
Y133463D01*
X69257D01*
Y133276D01*
X69351D01*
Y133090D01*
X69444D01*
Y132716D01*
X69537D01*
Y131317D01*
X69444D01*
Y130851D01*
X69351D01*
Y130571D01*
X69257D01*
Y130291D01*
X69164D01*
Y130011D01*
X69071D01*
Y129825D01*
X68978D01*
Y129638D01*
X68884D01*
Y129452D01*
X68791D01*
Y129265D01*
X68698D01*
Y129172D01*
X68604D01*
Y128985D01*
X68511D01*
Y128892D01*
X68418D01*
Y128705D01*
X68325D01*
Y128612D01*
X68231D01*
Y128519D01*
X68138D01*
Y128332D01*
X68045D01*
Y128239D01*
X67951D01*
Y128146D01*
X67858D01*
Y128052D01*
X67765D01*
Y127959D01*
X67672D01*
Y127866D01*
X67578D01*
Y127772D01*
X67485D01*
Y127679D01*
X67392D01*
Y127586D01*
X67298D01*
Y127493D01*
X67205D01*
Y127399D01*
X67019D01*
Y127306D01*
X66925D01*
Y127213D01*
X66832D01*
Y127119D01*
X66645D01*
Y127026D01*
X66552D01*
Y126933D01*
X66366D01*
Y126840D01*
X66272D01*
Y126746D01*
X66086D01*
Y126653D01*
X65992D01*
Y126560D01*
X65806D01*
Y126466D01*
X65619D01*
Y126373D01*
X65433D01*
Y126280D01*
X65246D01*
Y126187D01*
X65060D01*
Y126093D01*
X64873D01*
Y126000D01*
X64593D01*
Y125907D01*
X64313D01*
Y125813D01*
X64034D01*
Y125720D01*
X63660D01*
Y125627D01*
X63287D01*
Y125534D01*
X62821D01*
Y125440D01*
X62261D01*
Y125347D01*
X61422D01*
Y125067D01*
X61328D01*
Y124694D01*
X61235D01*
Y124321D01*
X61142D01*
Y124134D01*
X61048D01*
Y123855D01*
X60955D01*
Y123668D01*
X60862D01*
Y123388D01*
X60769D01*
Y123202D01*
X60675D01*
Y123015D01*
X60582D01*
Y122828D01*
X60489D01*
Y122642D01*
X60395D01*
Y122455D01*
X60302D01*
Y122269D01*
X60209D01*
Y122082D01*
X60116D01*
Y121989D01*
X60022D01*
Y121802D01*
X59929D01*
Y121616D01*
X59836D01*
Y121522D01*
X59742D01*
Y121336D01*
X59649D01*
Y121243D01*
X59556D01*
Y121056D01*
X59463D01*
Y120963D01*
X59369D01*
Y120776D01*
X59276D01*
Y120683D01*
X59183D01*
Y120590D01*
X59089D01*
Y120403D01*
X58996D01*
Y120310D01*
X58903D01*
Y120216D01*
X58810D01*
Y120123D01*
X58716D01*
Y120030D01*
X58623D01*
Y119843D01*
X58530D01*
Y119750D01*
X58437D01*
Y119657D01*
X58343D01*
Y119563D01*
X58250D01*
Y119470D01*
X58157D01*
Y119377D01*
X58063D01*
Y119284D01*
X57970D01*
Y119190D01*
X57877D01*
Y119097D01*
X57784D01*
Y119004D01*
X57690D01*
Y118910D01*
X57504D01*
Y118817D01*
X57410D01*
Y118724D01*
X57317D01*
Y118631D01*
X57224D01*
Y118537D01*
X57037D01*
Y118444D01*
X56944D01*
Y118351D01*
X56757D01*
Y118257D01*
X56664D01*
Y118164D01*
X56478D01*
Y118071D01*
X56384D01*
Y117978D01*
X56198D01*
Y117884D01*
X56011D01*
Y117791D01*
X55825D01*
Y117698D01*
X55638D01*
Y117605D01*
X55451D01*
Y117511D01*
X55265D01*
Y117418D01*
X54985D01*
Y117325D01*
X54705D01*
Y117231D01*
X54332D01*
Y117138D01*
X53959D01*
Y117045D01*
X53399D01*
Y116952D01*
X52746D01*
Y116858D01*
X52653D01*
Y116578D01*
X52560D01*
Y116392D01*
X52466D01*
Y116205D01*
X52373D01*
Y116019D01*
X52280D01*
Y115832D01*
X52187D01*
Y115739D01*
X52093D01*
Y115552D01*
X52000D01*
Y115366D01*
X51907D01*
Y115179D01*
X51813D01*
Y115086D01*
X51720D01*
Y114899D01*
X51627D01*
Y114713D01*
X51534D01*
Y114526D01*
X51440D01*
Y114433D01*
X51347D01*
Y114246D01*
X51254D01*
Y114060D01*
X51160D01*
Y113966D01*
X51067D01*
Y113780D01*
X50974D01*
Y113593D01*
X50881D01*
Y113500D01*
X50787D01*
Y113313D01*
X50694D01*
Y113127D01*
X50601D01*
Y113034D01*
X50507D01*
Y112847D01*
X50414D01*
Y112660D01*
X50321D01*
Y112567D01*
X50228D01*
Y112381D01*
X50134D01*
Y112287D01*
X50041D01*
Y112194D01*
X49948D01*
Y112007D01*
X49854D01*
Y111914D01*
X49761D01*
Y111821D01*
X49668D01*
Y111728D01*
X49575D01*
Y111541D01*
X49481D01*
Y111448D01*
X49388D01*
Y111355D01*
X49295D01*
Y111261D01*
X49201D01*
Y111168D01*
X49108D01*
Y111075D01*
X49015D01*
Y110981D01*
X48828D01*
Y110888D01*
X48735D01*
Y110795D01*
X48642D01*
Y110702D01*
X48548D01*
Y110608D01*
X48362D01*
Y110515D01*
X48269D01*
Y110422D01*
X48175D01*
Y110328D01*
X47989D01*
Y110235D01*
X47895D01*
Y110142D01*
X47709D01*
Y110049D01*
X47522D01*
Y109955D01*
X47336D01*
Y109862D01*
X47149D01*
Y109769D01*
X46963D01*
Y109675D01*
X46776D01*
Y109582D01*
X46589D01*
Y109489D01*
X46310D01*
Y109396D01*
X46030D01*
Y109302D01*
X45750D01*
Y109209D01*
X45377D01*
Y109116D01*
X44910D01*
Y109022D01*
X44444D01*
Y108929D01*
X42019D01*
Y109022D01*
X41366D01*
Y109116D01*
X40992D01*
Y109209D01*
X40619D01*
Y109302D01*
X40339D01*
Y109396D01*
X40060D01*
Y109489D01*
X39780D01*
Y109582D01*
X39593D01*
Y109675D01*
X39407D01*
Y109769D01*
X39220D01*
Y109862D01*
X39127D01*
Y109955D01*
X38940D01*
Y110049D01*
X38847D01*
Y110142D01*
X38660D01*
Y110235D01*
X38567D01*
Y110328D01*
X38474D01*
Y110422D01*
X38381D01*
Y110515D01*
X38194D01*
Y110702D01*
X38101D01*
Y110795D01*
X38007D01*
Y110888D01*
X37914D01*
Y110981D01*
X37821D01*
Y111168D01*
X37728D01*
Y111355D01*
X37634D01*
Y111634D01*
X37541D01*
Y112007D01*
X37634D01*
Y112101D01*
X37728D01*
Y112194D01*
X37914D01*
Y112287D01*
X39034D01*
Y112194D01*
X39500D01*
Y112101D01*
X39873D01*
Y112007D01*
X40153D01*
Y111914D01*
X40526D01*
Y111821D01*
X40806D01*
Y111728D01*
X41086D01*
Y111634D01*
X41366D01*
Y111541D01*
X41739D01*
Y111448D01*
X42392D01*
Y111355D01*
X42578D01*
Y111448D01*
X43511D01*
Y111541D01*
X43884D01*
Y111634D01*
X44164D01*
Y111728D01*
X44351D01*
Y111821D01*
X44537D01*
Y111914D01*
X44817D01*
Y112007D01*
X44910D01*
Y112101D01*
X45097D01*
Y112194D01*
X45284D01*
Y112287D01*
X45377D01*
Y112381D01*
X45563D01*
Y112474D01*
X45657D01*
Y112567D01*
X45750D01*
Y112660D01*
X45937D01*
Y112754D01*
X46030D01*
Y112847D01*
X46123D01*
Y112940D01*
X46216D01*
Y113034D01*
X46310D01*
Y113127D01*
X46403D01*
Y113220D01*
X46496D01*
Y113313D01*
X46589D01*
Y113407D01*
X46683D01*
Y113500D01*
X46776D01*
Y113593D01*
X46869D01*
Y113687D01*
X46963D01*
Y113780D01*
X47056D01*
Y113873D01*
X47149D01*
Y113966D01*
X47242D01*
Y114060D01*
X47336D01*
Y114246D01*
X47429D01*
Y114340D01*
X47522D01*
Y114433D01*
X47616D01*
Y114526D01*
X47709D01*
Y114713D01*
X47802D01*
Y114806D01*
X47895D01*
Y114899D01*
X47989D01*
Y115086D01*
X48082D01*
Y115179D01*
X48175D01*
Y115366D01*
X48269D01*
Y115552D01*
X48362D01*
Y115646D01*
X48455D01*
Y115832D01*
X48548D01*
Y116019D01*
X48642D01*
Y116205D01*
X48735D01*
Y116299D01*
X48828D01*
Y116578D01*
X48922D01*
Y116765D01*
X49015D01*
Y116952D01*
X49108D01*
Y117231D01*
X49201D01*
Y117325D01*
X49015D01*
Y117418D01*
X48735D01*
Y117511D01*
X48548D01*
Y117605D01*
X48269D01*
Y117698D01*
X48175D01*
Y117791D01*
X47989D01*
Y117884D01*
X47802D01*
Y117978D01*
X47616D01*
Y118071D01*
X47522D01*
Y118164D01*
X47336D01*
Y118257D01*
X47242D01*
Y118351D01*
X47149D01*
Y118444D01*
X46963D01*
Y118537D01*
X46869D01*
Y118631D01*
X46776D01*
Y118724D01*
X46683D01*
Y118817D01*
X46589D01*
Y118910D01*
X46496D01*
Y119004D01*
X46403D01*
Y119097D01*
X46310D01*
Y119190D01*
X46216D01*
Y119284D01*
X46123D01*
Y119377D01*
X46030D01*
Y119470D01*
X45937D01*
Y119563D01*
X45843D01*
Y119657D01*
X45750D01*
Y119843D01*
X45657D01*
Y119937D01*
X45563D01*
Y120030D01*
X45470D01*
Y120216D01*
X45377D01*
Y120310D01*
X45284D01*
Y120496D01*
X45190D01*
Y120683D01*
X45097D01*
Y120869D01*
X45004D01*
Y120963D01*
X44910D01*
Y121149D01*
X44817D01*
Y121336D01*
X44724D01*
Y121616D01*
X44631D01*
Y121802D01*
X44537D01*
Y122082D01*
X44444D01*
Y122362D01*
X44351D01*
Y122642D01*
X44257D01*
Y123015D01*
X44164D01*
Y123388D01*
X44071D01*
Y124041D01*
X43978D01*
Y125254D01*
X44071D01*
Y125720D01*
X44164D01*
Y125907D01*
X44257D01*
Y126093D01*
X44351D01*
Y126187D01*
X44444D01*
Y126280D01*
X44537D01*
Y126373D01*
X44631D01*
Y126466D01*
X44817D01*
Y126560D01*
X45097D01*
Y126466D01*
X45284D01*
Y126373D01*
X45377D01*
Y126187D01*
X45470D01*
Y126000D01*
X45563D01*
Y125720D01*
X45657D01*
Y125160D01*
X45750D01*
Y124694D01*
X45843D01*
Y124507D01*
X45937D01*
Y124228D01*
X46030D01*
Y123948D01*
X46123D01*
Y123761D01*
X46216D01*
Y123668D01*
X46310D01*
Y123481D01*
X46403D01*
Y123295D01*
X46496D01*
Y123108D01*
X46589D01*
Y123015D01*
X46683D01*
Y122828D01*
X46776D01*
Y122735D01*
X46869D01*
Y122642D01*
X46963D01*
Y122549D01*
X47056D01*
Y122362D01*
X47149D01*
Y122269D01*
X47242D01*
Y122175D01*
X47336D01*
Y122082D01*
X47429D01*
Y121989D01*
X47522D01*
Y121896D01*
X47709D01*
Y121802D01*
X47802D01*
Y121709D01*
X47895D01*
Y121616D01*
X48082D01*
Y121522D01*
X48175D01*
Y121429D01*
X48362D01*
Y121336D01*
X48455D01*
Y121243D01*
X48642D01*
Y121149D01*
X48828D01*
Y121056D01*
X49108D01*
Y120963D01*
X49295D01*
Y120869D01*
X49388D01*
Y121056D01*
X49295D01*
Y121522D01*
X49201D01*
Y121989D01*
X49108D01*
Y122362D01*
X49015D01*
Y122735D01*
X48922D01*
Y123015D01*
X48828D01*
Y123295D01*
X48735D01*
Y123575D01*
X48642D01*
Y123855D01*
X48548D01*
Y124134D01*
X48455D01*
Y124414D01*
X48362D01*
Y124601D01*
X48269D01*
Y124881D01*
X48175D01*
Y125067D01*
X48082D01*
Y125347D01*
X47989D01*
Y125534D01*
X47895D01*
Y125720D01*
X47802D01*
Y126000D01*
X47709D01*
Y126187D01*
X47616D01*
Y126373D01*
X47522D01*
Y126560D01*
X47429D01*
Y126746D01*
X47336D01*
Y126933D01*
X47242D01*
Y127119D01*
X47149D01*
Y127306D01*
X47056D01*
Y127493D01*
X46963D01*
Y127679D01*
X46869D01*
Y127866D01*
X46776D01*
Y128052D01*
X46683D01*
Y128239D01*
X46589D01*
Y128425D01*
X46496D01*
Y128519D01*
X46403D01*
Y128705D01*
X46310D01*
Y128892D01*
X46216D01*
Y129078D01*
X46123D01*
Y129265D01*
X46030D01*
Y129358D01*
X45937D01*
Y129545D01*
X45843D01*
Y129731D01*
X45750D01*
Y129825D01*
X45657D01*
Y130011D01*
X45563D01*
Y130198D01*
X45470D01*
Y130291D01*
X45377D01*
Y130478D01*
X45284D01*
Y130664D01*
X45190D01*
Y130757D01*
X45097D01*
Y130944D01*
X45004D01*
Y131131D01*
X44910D01*
Y131224D01*
X44817D01*
Y131410D01*
X44724D01*
Y131504D01*
X44631D01*
Y131690D01*
X44537D01*
Y131784D01*
X44444D01*
Y131970D01*
X44351D01*
Y132063D01*
X44257D01*
Y132250D01*
X44164D01*
Y132343D01*
X44071D01*
Y132530D01*
X43978D01*
Y132623D01*
X43884D01*
Y132810D01*
X43791D01*
Y132903D01*
X43698D01*
Y133090D01*
X43604D01*
Y133183D01*
X43511D01*
Y133276D01*
X43418D01*
Y133463D01*
X43325D01*
Y133556D01*
X43231D01*
Y133743D01*
X43138D01*
Y133836D01*
X43045D01*
Y133929D01*
X42951D01*
Y134116D01*
X42858D01*
Y134209D01*
X42765D01*
Y134302D01*
X42672D01*
Y134489D01*
X42578D01*
Y134582D01*
X42485D01*
Y134675D01*
X42392D01*
Y134489D01*
X42298D01*
Y134396D01*
X42205D01*
Y134302D01*
X42112D01*
Y134116D01*
X42019D01*
Y134022D01*
X41925D01*
Y133929D01*
X41832D01*
Y133743D01*
X41739D01*
Y133649D01*
X41645D01*
Y133556D01*
X41552D01*
Y133369D01*
X41459D01*
Y133276D01*
X41366D01*
Y133090D01*
X41272D01*
Y132996D01*
X41179D01*
Y132810D01*
X41086D01*
Y132716D01*
X40992D01*
Y132530D01*
X40899D01*
Y132437D01*
X40806D01*
Y132250D01*
X40713D01*
Y132157D01*
X40619D01*
Y131970D01*
X40526D01*
Y131877D01*
X40433D01*
Y131690D01*
X40339D01*
Y131597D01*
X40246D01*
Y131410D01*
X40153D01*
Y131224D01*
X40060D01*
Y131131D01*
X39966D01*
Y130944D01*
X39873D01*
Y130757D01*
X39780D01*
Y130571D01*
X39687D01*
Y130384D01*
X39593D01*
Y130291D01*
X39500D01*
Y130105D01*
X39407D01*
Y129918D01*
X39313D01*
Y129731D01*
X39220D01*
Y129545D01*
X39127D01*
Y129358D01*
X39034D01*
Y129172D01*
X38940D01*
Y128985D01*
X38847D01*
Y128705D01*
X38754D01*
Y128519D01*
X38660D01*
Y128332D01*
X38567D01*
Y128052D01*
X38474D01*
Y127866D01*
X38381D01*
Y127586D01*
X38287D01*
Y127306D01*
X38194D01*
Y127026D01*
X38101D01*
Y126840D01*
X38007D01*
Y126466D01*
X37914D01*
Y126187D01*
X37821D01*
Y125813D01*
X37728D01*
Y125440D01*
X37634D01*
Y124974D01*
X37541D01*
Y124507D01*
X37448D01*
Y123668D01*
X37355D01*
Y122175D01*
X37448D01*
Y121429D01*
X37541D01*
Y121056D01*
X37821D01*
Y121149D01*
X38101D01*
Y121243D01*
X38381D01*
Y121336D01*
X38567D01*
Y121429D01*
X38754D01*
Y121522D01*
X38940D01*
Y121616D01*
X39034D01*
Y121709D01*
X39220D01*
Y121802D01*
X39313D01*
Y121896D01*
X39407D01*
Y121989D01*
X39593D01*
Y122082D01*
X39687D01*
Y122175D01*
X39780D01*
Y122269D01*
X39873D01*
Y122455D01*
X39966D01*
Y122549D01*
X40060D01*
Y122642D01*
X40153D01*
Y122828D01*
X40246D01*
Y122922D01*
X40339D01*
Y123108D01*
X40433D01*
Y123295D01*
X40526D01*
Y123575D01*
X40619D01*
Y123855D01*
X40713D01*
Y124228D01*
X40806D01*
Y125160D01*
X40899D01*
Y125720D01*
X40992D01*
Y126000D01*
X41086D01*
Y126187D01*
X41179D01*
Y126373D01*
X41272D01*
Y126466D01*
X41459D01*
Y126560D01*
X41739D01*
Y126466D01*
X41925D01*
Y126373D01*
X42019D01*
Y126280D01*
X42205D01*
Y126093D01*
X42298D01*
Y126000D01*
X42392D01*
Y125720D01*
X42485D01*
Y125254D01*
X42578D01*
Y124041D01*
X42485D01*
Y123388D01*
X42392D01*
Y122922D01*
X42298D01*
Y122642D01*
X42205D01*
Y122362D01*
X42112D01*
Y122082D01*
X42019D01*
Y121802D01*
X41925D01*
Y121616D01*
X41832D01*
Y121336D01*
X41739D01*
Y121149D01*
X41645D01*
Y120963D01*
X41552D01*
Y120776D01*
X41459D01*
Y120683D01*
X41366D01*
Y120496D01*
X41272D01*
Y120310D01*
X41179D01*
Y120216D01*
X41086D01*
Y120030D01*
X40992D01*
Y119937D01*
X40899D01*
Y119843D01*
X40806D01*
Y119657D01*
X40713D01*
Y119563D01*
X40619D01*
Y119470D01*
X40526D01*
Y119377D01*
X40433D01*
Y119284D01*
X40339D01*
Y119190D01*
X40246D01*
Y119097D01*
X40153D01*
Y119004D01*
X40060D01*
Y118910D01*
X39966D01*
Y118817D01*
X39873D01*
Y118724D01*
X39780D01*
Y118631D01*
X39687D01*
Y118537D01*
X39593D01*
Y118444D01*
X39407D01*
Y118351D01*
X39313D01*
Y118257D01*
X39220D01*
Y118164D01*
X39034D01*
Y118071D01*
X38940D01*
Y117978D01*
X38754D01*
Y117884D01*
X38567D01*
Y117791D01*
X38660D01*
Y117698D01*
X38754D01*
Y117605D01*
X38847D01*
Y117511D01*
X38940D01*
Y117418D01*
X39127D01*
Y117325D01*
X39220D01*
Y117231D01*
X39407D01*
Y117138D01*
X39593D01*
Y117045D01*
X39780D01*
Y116952D01*
X39966D01*
Y116858D01*
X40246D01*
Y116765D01*
X40526D01*
Y116672D01*
X40899D01*
Y116578D01*
X42951D01*
Y116672D01*
X43511D01*
Y116765D01*
X44071D01*
Y116858D01*
X44724D01*
Y116952D01*
X45284D01*
Y116858D01*
X45657D01*
Y116765D01*
X45843D01*
Y116672D01*
X45937D01*
Y116578D01*
X46030D01*
Y116205D01*
X45937D01*
Y116019D01*
X45843D01*
Y115832D01*
X45750D01*
Y115739D01*
X45657D01*
Y115646D01*
X45563D01*
Y115552D01*
X45377D01*
Y115459D01*
X45284D01*
Y115366D01*
X45190D01*
Y115272D01*
X45004D01*
Y115179D01*
X44817D01*
Y115086D01*
X44631D01*
Y114993D01*
X44444D01*
Y114899D01*
X44257D01*
Y114806D01*
X43978D01*
Y114713D01*
X43698D01*
Y114619D01*
X43418D01*
Y114526D01*
X43045D01*
Y114433D01*
X42392D01*
Y114340D01*
X40619D01*
Y114433D01*
X40060D01*
Y114526D01*
X39687D01*
Y114619D01*
X39407D01*
Y114713D01*
X39127D01*
Y114806D01*
X38940D01*
Y114899D01*
X38660D01*
Y114993D01*
X38474D01*
Y115086D01*
X38287D01*
Y115179D01*
X38101D01*
Y115272D01*
X37914D01*
Y115366D01*
X37821D01*
Y115459D01*
X37634D01*
Y115552D01*
X37541D01*
Y115646D01*
X37355D01*
Y115739D01*
X37261D01*
Y115832D01*
X37168D01*
Y115925D01*
X36981D01*
Y116019D01*
X36888D01*
Y116112D01*
X36795D01*
Y116205D01*
X36702D01*
Y116299D01*
X36608D01*
Y116392D01*
X36422D01*
Y116485D01*
X36328D01*
Y116578D01*
X36235D01*
Y116672D01*
X36142D01*
Y116765D01*
X36049D01*
Y116952D01*
X35302D01*
Y116858D01*
X34183D01*
Y116952D01*
X33437D01*
Y117045D01*
X32970D01*
Y117138D01*
X32597D01*
Y117231D01*
X32224D01*
Y117325D01*
X31944D01*
Y117418D01*
X31757D01*
Y117511D01*
X31478D01*
Y117605D01*
X31291D01*
Y117698D01*
X31105D01*
Y117791D01*
X30918D01*
Y117884D01*
X30731D01*
Y117978D01*
X30545D01*
Y118071D01*
X30358D01*
Y118164D01*
X30265D01*
Y118257D01*
X30078D01*
Y118351D01*
X29892D01*
Y118444D01*
X29799D01*
Y118537D01*
X29705D01*
Y118631D01*
X29519D01*
Y118724D01*
X29425D01*
Y118817D01*
X29239D01*
Y118910D01*
X29146D01*
Y119004D01*
X29052D01*
Y119097D01*
X28959D01*
Y119190D01*
X28866D01*
Y119284D01*
X28679D01*
Y119377D01*
X28586D01*
Y119470D01*
X28493D01*
Y119563D01*
X28399D01*
Y119657D01*
X28306D01*
Y119750D01*
X28213D01*
Y119843D01*
X28119D01*
Y119937D01*
X28026D01*
Y120030D01*
X27933D01*
Y120123D01*
X27840D01*
Y120216D01*
X27746D01*
Y120310D01*
X27653D01*
Y120496D01*
X27560D01*
Y120590D01*
X27466D01*
Y120683D01*
X27373D01*
Y120776D01*
X27280D01*
Y120963D01*
X27187D01*
Y121056D01*
X27093D01*
Y121149D01*
X27000D01*
Y121336D01*
X26907D01*
Y121429D01*
X26813D01*
Y121522D01*
X26720D01*
Y121709D01*
X26627D01*
Y121802D01*
X26534D01*
Y121989D01*
X26440D01*
Y122175D01*
X26347D01*
Y122269D01*
X26254D01*
Y122455D01*
X26160D01*
Y122642D01*
X26067D01*
Y122828D01*
X25974D01*
Y123015D01*
X25881D01*
Y123202D01*
X25787D01*
Y123388D01*
X25694D01*
Y123668D01*
X25601D01*
Y123855D01*
X25507D01*
Y124134D01*
X25414D01*
Y124414D01*
X25321D01*
Y124694D01*
X25228D01*
Y125067D01*
X25134D01*
Y125254D01*
X24388D01*
Y125347D01*
X23549D01*
Y125440D01*
X22989D01*
Y125534D01*
X22522D01*
Y125627D01*
X22149D01*
Y125720D01*
X21776D01*
Y125813D01*
X21496D01*
Y125907D01*
X21216D01*
Y126000D01*
X21030D01*
Y126093D01*
X20750D01*
Y126187D01*
X20563D01*
Y126280D01*
X20377D01*
Y126373D01*
X20190D01*
Y126466D01*
X20097D01*
Y126560D01*
X19910D01*
Y126653D01*
X19724D01*
Y126746D01*
X19537D01*
Y126840D01*
X19444D01*
Y126933D01*
X19257D01*
Y127026D01*
X19164D01*
Y127119D01*
X18978D01*
Y127213D01*
X18884D01*
Y127306D01*
X18791D01*
Y127399D01*
X18698D01*
Y127493D01*
X18605D01*
Y127586D01*
X18418D01*
Y127679D01*
X18325D01*
Y127772D01*
X18231D01*
Y127866D01*
X18138D01*
Y127959D01*
X18045D01*
Y128052D01*
X17952D01*
Y128146D01*
X17858D01*
Y128332D01*
X17765D01*
Y128425D01*
X17672D01*
Y128519D01*
X17578D01*
Y128612D01*
X17485D01*
Y128799D01*
X17392D01*
Y128892D01*
X17299D01*
Y129078D01*
X17205D01*
Y129172D01*
X17112D01*
Y129358D01*
X17019D01*
Y129545D01*
X16925D01*
Y129731D01*
X16832D01*
Y129918D01*
X16739D01*
Y130105D01*
X16645D01*
Y130384D01*
X16552D01*
Y130664D01*
X16459D01*
Y131037D01*
X16366D01*
Y131504D01*
X16272D01*
Y132530D01*
X16366D01*
Y132996D01*
X16459D01*
Y133276D01*
X16552D01*
Y133369D01*
X16645D01*
Y133556D01*
X16739D01*
Y133649D01*
X16832D01*
Y133743D01*
X17019D01*
Y133836D01*
X17205D01*
Y133929D01*
X17578D01*
Y133836D01*
X17672D01*
Y133743D01*
X17765D01*
Y133649D01*
X17858D01*
Y133463D01*
X17952D01*
Y133183D01*
X18045D01*
Y132623D01*
X18138D01*
Y132157D01*
X18231D01*
Y131877D01*
X18325D01*
Y131690D01*
X18418D01*
Y131410D01*
X18511D01*
Y131224D01*
X18605D01*
Y131037D01*
X18698D01*
Y130851D01*
X18791D01*
Y130757D01*
X18884D01*
Y130571D01*
X18978D01*
Y130384D01*
X19071D01*
Y130291D01*
X19164D01*
Y130198D01*
X19257D01*
Y130011D01*
X19351D01*
Y129918D01*
X19444D01*
Y129825D01*
X19537D01*
Y129731D01*
X19631D01*
Y129638D01*
X19724D01*
Y129545D01*
X19817D01*
Y129452D01*
X19910D01*
Y129358D01*
X20004D01*
Y129265D01*
X20097D01*
Y129172D01*
X20190D01*
Y129078D01*
X20377D01*
Y128985D01*
X20470D01*
Y128892D01*
X20657D01*
Y128799D01*
X20750D01*
Y128705D01*
X20937D01*
Y128612D01*
X21123D01*
Y128519D01*
X21310D01*
Y128425D01*
X21496D01*
Y128332D01*
X21776D01*
Y128239D01*
X22149D01*
Y128146D01*
X22522D01*
Y128052D01*
X23269D01*
Y127959D01*
X24295D01*
Y128052D01*
X24761D01*
Y131037D01*
X24855D01*
Y132063D01*
X24948D01*
Y132716D01*
X25041D01*
Y133369D01*
X25134D01*
Y133929D01*
X25228D01*
Y134489D01*
X25321D01*
Y134955D01*
X25414D01*
Y135422D01*
X25507D01*
Y135888D01*
X25601D01*
Y136261D01*
X25694D01*
Y136634D01*
X25787D01*
Y137101D01*
X25881D01*
Y137474D01*
X25974D01*
Y137754D01*
X26067D01*
Y137940D01*
X25601D01*
Y137847D01*
X24948D01*
Y137754D01*
X24108D01*
Y137660D01*
X20657D01*
Y137754D01*
X20004D01*
Y137847D01*
X19444D01*
Y137940D01*
X19071D01*
Y138034D01*
X18698D01*
Y138127D01*
X18418D01*
Y138220D01*
X18138D01*
Y138313D01*
X17858D01*
Y138407D01*
X17672D01*
Y138500D01*
X17392D01*
Y138593D01*
X17205D01*
Y138687D01*
X17019D01*
Y138780D01*
X16832D01*
Y138873D01*
X16645D01*
Y138966D01*
X16459D01*
Y139060D01*
X16366D01*
Y139153D01*
X16179D01*
Y139246D01*
X16086D01*
Y139340D01*
X15899D01*
Y139433D01*
X15806D01*
Y139526D01*
X15713D01*
Y139619D01*
X15526D01*
Y139713D01*
X15433D01*
Y139806D01*
X15339D01*
Y139899D01*
X15246D01*
Y139993D01*
X15153D01*
Y140086D01*
X15060D01*
Y140179D01*
X14873D01*
Y140272D01*
X14780D01*
Y140366D01*
X14687D01*
Y140552D01*
X14593D01*
Y140646D01*
X14500D01*
Y140739D01*
X14407D01*
Y140832D01*
X14313D01*
Y140925D01*
X14220D01*
Y141019D01*
X14127D01*
Y141205D01*
X14034D01*
Y141299D01*
X13940D01*
Y141485D01*
X13847D01*
Y141578D01*
X13754D01*
Y141672D01*
X13660D01*
Y141858D01*
X13567D01*
Y141952D01*
X13474D01*
Y142138D01*
X13381D01*
Y142325D01*
X13287D01*
Y142418D01*
X13194D01*
Y142605D01*
X13101D01*
Y142791D01*
X13007D01*
Y142978D01*
X12914D01*
Y143257D01*
X12821D01*
Y143444D01*
X12728D01*
Y143631D01*
X12634D01*
Y143910D01*
X12541D01*
Y144190D01*
X12448D01*
Y144563D01*
X12355D01*
Y145030D01*
X12261D01*
Y145590D01*
X12168D01*
Y147549D01*
X12261D01*
Y148108D01*
X12355D01*
Y148575D01*
X12448D01*
Y148948D01*
X12541D01*
Y149228D01*
X12634D01*
Y149507D01*
X12728D01*
Y149694D01*
X12821D01*
Y149974D01*
X12914D01*
Y150160D01*
X13007D01*
Y150347D01*
X13101D01*
Y150534D01*
X13194D01*
Y150720D01*
X13287D01*
Y150907D01*
X13381D01*
Y151093D01*
X13474D01*
Y151187D01*
X13567D01*
Y151373D01*
X13660D01*
Y151466D01*
X13754D01*
Y151653D01*
X13847D01*
Y151746D01*
X13940D01*
Y151933D01*
X14034D01*
Y152026D01*
X14127D01*
Y152119D01*
X14220D01*
Y152213D01*
X14313D01*
Y152306D01*
X14407D01*
Y152399D01*
X14500D01*
Y152493D01*
X14593D01*
Y152586D01*
X14687D01*
Y152679D01*
X14780D01*
Y152772D01*
X14873D01*
Y152866D01*
X14966D01*
Y152959D01*
X15060D01*
Y153052D01*
X15153D01*
Y153146D01*
X15339D01*
Y153239D01*
X15433D01*
Y153332D01*
X15526D01*
Y153425D01*
X15619D01*
Y153519D01*
X15806D01*
Y153612D01*
X15899D01*
Y153705D01*
X16086D01*
Y153799D01*
X16272D01*
Y153892D01*
X16366D01*
Y153985D01*
X16552D01*
Y154078D01*
X16739D01*
Y154172D01*
X16925D01*
Y154265D01*
X17205D01*
Y154358D01*
X17392D01*
Y154452D01*
X17578D01*
Y154545D01*
X17952D01*
Y154638D01*
X18231D01*
Y154731D01*
X18605D01*
Y154825D01*
X18978D01*
Y154918D01*
X19631D01*
Y155011D01*
X21123D01*
Y154918D01*
X21683D01*
Y154825D01*
X22056D01*
Y154731D01*
X22336D01*
Y154638D01*
X22616D01*
Y154545D01*
X22802D01*
Y154452D01*
X22896D01*
Y154358D01*
X22989D01*
Y154265D01*
X23082D01*
Y154172D01*
X23175D01*
Y154078D01*
X23269D01*
Y153892D01*
X23362D01*
Y153519D01*
X23269D01*
Y153425D01*
X23175D01*
Y153332D01*
X22896D01*
Y153239D01*
X20843D01*
Y153146D01*
X20284D01*
Y153052D01*
X19817D01*
Y152959D01*
X19444D01*
Y152866D01*
X19164D01*
Y152772D01*
X18884D01*
Y152679D01*
X18698D01*
Y152586D01*
X18418D01*
Y152493D01*
X18231D01*
Y152399D01*
X18045D01*
Y152306D01*
X17952D01*
Y152213D01*
X17765D01*
Y152119D01*
X17578D01*
Y152026D01*
X17485D01*
Y151933D01*
X17392D01*
Y151840D01*
X17205D01*
Y151746D01*
X17112D01*
Y151653D01*
X17019D01*
Y151560D01*
X16925D01*
Y151466D01*
X16832D01*
Y151373D01*
X16739D01*
Y151280D01*
X16645D01*
Y151187D01*
X16552D01*
Y151093D01*
X16459D01*
Y150907D01*
X16366D01*
Y150813D01*
X16272D01*
Y150627D01*
X16179D01*
Y150534D01*
X16086D01*
Y150347D01*
X15992D01*
Y150160D01*
X15899D01*
Y149881D01*
X15806D01*
Y149694D01*
X15713D01*
Y149321D01*
X15619D01*
Y148948D01*
X15526D01*
Y148388D01*
X15433D01*
Y147175D01*
X15526D01*
Y146522D01*
X15619D01*
Y146149D01*
X15713D01*
Y145869D01*
X15806D01*
Y145590D01*
X15899D01*
Y145310D01*
X15992D01*
Y145123D01*
X16086D01*
Y145030D01*
Y144937D01*
X16179D01*
Y144750D01*
X16272D01*
Y144563D01*
X16366D01*
Y144470D01*
X16459D01*
Y144284D01*
X16552D01*
Y144190D01*
X16645D01*
Y144097D01*
X16739D01*
Y143910D01*
X16832D01*
Y143817D01*
X16925D01*
Y143724D01*
X17019D01*
Y143631D01*
X17112D01*
Y143537D01*
X17205D01*
Y143444D01*
X17299D01*
Y143351D01*
X17392D01*
Y143257D01*
X17485D01*
Y143164D01*
X17578D01*
Y143071D01*
X17672D01*
Y142978D01*
X17765D01*
Y142884D01*
X17952D01*
Y142791D01*
X18045D01*
Y142698D01*
X18231D01*
Y142605D01*
X18325D01*
Y142511D01*
X18511D01*
Y142418D01*
X18698D01*
Y142325D01*
X18884D01*
Y142231D01*
X19071D01*
Y142138D01*
X19257D01*
Y142045D01*
X19537D01*
Y141952D01*
X19817D01*
Y141858D01*
X20190D01*
Y141765D01*
X20657D01*
Y141672D01*
X22522D01*
Y141765D01*
X22896D01*
Y141858D01*
X23269D01*
Y141952D01*
X23455D01*
Y142045D01*
X23735D01*
Y142138D01*
X24015D01*
Y142231D01*
X24202D01*
Y142325D01*
X24388D01*
Y142418D01*
X24575D01*
Y142511D01*
X24761D01*
Y142605D01*
X24948D01*
Y142698D01*
X25134D01*
Y142791D01*
X25228D01*
Y142884D01*
X25414D01*
Y142978D01*
X25601D01*
Y143071D01*
X25694D01*
Y143164D01*
X25881D01*
Y143257D01*
X26067D01*
Y143351D01*
X26160D01*
Y143444D01*
X26347D01*
Y143537D01*
X26440D01*
Y143631D01*
X26534D01*
Y143724D01*
X26720D01*
Y143817D01*
X26813D01*
Y143910D01*
X27000D01*
Y144004D01*
X27093D01*
Y144097D01*
X27187D01*
Y144190D01*
X27373D01*
Y144284D01*
X27466D01*
Y144377D01*
X27560D01*
Y144470D01*
X27653D01*
Y144563D01*
X27840D01*
Y144657D01*
X27933D01*
Y144750D01*
X28026D01*
Y144843D01*
X28119D01*
Y144937D01*
X28306D01*
Y145030D01*
X28399D01*
Y145123D01*
X28493D01*
Y145216D01*
X28586D01*
Y145310D01*
X28772D01*
Y145403D01*
X28866D01*
Y145496D01*
X28959D01*
Y145590D01*
X29052D01*
Y145683D01*
X29146D01*
Y145776D01*
X29239D01*
Y145869D01*
X29332D01*
Y145963D01*
X29425D01*
Y146056D01*
X29612D01*
Y146149D01*
X29705D01*
Y146243D01*
X29799D01*
Y146336D01*
X29892D01*
Y146429D01*
X29985D01*
Y146522D01*
X30078D01*
Y146616D01*
X30172D01*
Y146709D01*
X30265D01*
Y146802D01*
X30358D01*
Y146896D01*
X30452D01*
Y146989D01*
X30545D01*
Y147082D01*
X30638D01*
Y147175D01*
X30731D01*
Y147269D01*
X30825D01*
Y147362D01*
X30918D01*
Y147455D01*
X31011D01*
Y147549D01*
X31105D01*
Y147642D01*
X31198D01*
Y147735D01*
X31291D01*
Y147828D01*
X31384D01*
Y147922D01*
X31478D01*
Y148015D01*
X31571D01*
Y148108D01*
X31664D01*
Y148202D01*
X31757D01*
Y148388D01*
X31851D01*
Y148481D01*
X31944D01*
Y148575D01*
X32037D01*
Y148761D01*
X32131D01*
Y148855D01*
X32224D01*
Y149041D01*
X32317D01*
Y149134D01*
X32410D01*
Y149321D01*
X32504D01*
Y149507D01*
X32597D01*
Y149601D01*
X32690D01*
Y149787D01*
X32784D01*
Y149974D01*
X32877D01*
Y150160D01*
X32970D01*
Y150347D01*
X33063D01*
Y150534D01*
X33157D01*
Y150720D01*
X33250D01*
Y150907D01*
X33343D01*
Y151187D01*
X33437D01*
Y151373D01*
X33530D01*
Y151653D01*
X33623D01*
Y151933D01*
X33716D01*
Y152119D01*
X33810D01*
Y152399D01*
X33903D01*
Y152679D01*
X33996D01*
Y153052D01*
X34090D01*
Y153332D01*
X34183D01*
Y153612D01*
X34276D01*
Y153985D01*
X34369D01*
Y154358D01*
X34463D01*
Y154731D01*
X34556D01*
Y155198D01*
X34649D01*
Y155664D01*
X34743D01*
Y156037D01*
X34649D01*
Y156224D01*
X34556D01*
Y156504D01*
X34463D01*
Y156690D01*
X34369D01*
Y156784D01*
X34276D01*
Y156877D01*
X34183D01*
Y156970D01*
X34090D01*
Y157157D01*
X33996D01*
Y157343D01*
X33903D01*
Y157437D01*
X33810D01*
Y157716D01*
X33716D01*
Y157996D01*
X33623D01*
Y158649D01*
X33530D01*
Y158836D01*
X33623D01*
Y159489D01*
X33716D01*
Y159769D01*
X33810D01*
Y159955D01*
X33903D01*
Y160142D01*
X33996D01*
Y160328D01*
X34090D01*
Y160422D01*
X34183D01*
Y160515D01*
X34276D01*
Y160702D01*
X34369D01*
Y160795D01*
X34463D01*
Y160888D01*
X34556D01*
Y160981D01*
X34649D01*
Y161075D01*
X34836D01*
Y161168D01*
X34929D01*
Y161261D01*
X35022D01*
Y161355D01*
X35116D01*
Y161541D01*
X35022D01*
Y161728D01*
X34929D01*
Y161914D01*
X34836D01*
Y162101D01*
X34743D01*
Y162287D01*
X34649D01*
Y162474D01*
X34556D01*
Y162660D01*
X34463D01*
Y162847D01*
X34369D01*
Y163127D01*
X34276D01*
Y163313D01*
X34183D01*
Y163500D01*
X34090D01*
Y163687D01*
X33996D01*
Y163873D01*
X33903D01*
Y164060D01*
X33810D01*
Y164340D01*
X33716D01*
Y164526D01*
X33623D01*
Y164713D01*
X33530D01*
Y164993D01*
X33437D01*
Y165179D01*
X33343D01*
Y165459D01*
X33250D01*
Y165646D01*
X33157D01*
Y165925D01*
X33063D01*
Y166112D01*
X32970D01*
Y166392D01*
X32877D01*
Y166578D01*
X32784D01*
Y166858D01*
X32690D01*
Y167138D01*
X32597D01*
Y167418D01*
X32504D01*
Y167698D01*
X32410D01*
Y167978D01*
X32317D01*
Y168257D01*
X32224D01*
Y168537D01*
X32131D01*
Y168817D01*
X32037D01*
Y169190D01*
X31944D01*
Y169470D01*
X31851D01*
Y169843D01*
X31757D01*
Y170216D01*
X31664D01*
Y170590D01*
X31571D01*
Y171056D01*
X31478D01*
Y171522D01*
X31384D01*
Y172082D01*
X31291D01*
Y172642D01*
X31198D01*
Y173575D01*
X31105D01*
Y175907D01*
X31198D01*
Y176746D01*
X31291D01*
Y177213D01*
X31384D01*
Y177586D01*
X31478D01*
Y177959D01*
X31571D01*
Y178239D01*
X31664D01*
Y178519D01*
X31757D01*
Y178799D01*
X31851D01*
Y178985D01*
X31944D01*
Y179172D01*
X32037D01*
Y179358D01*
X32131D01*
Y179545D01*
X32224D01*
Y179731D01*
X32317D01*
Y179825D01*
X32410D01*
Y180011D01*
X32504D01*
Y180105D01*
X32597D01*
Y180291D01*
X32690D01*
Y180384D01*
X32784D01*
Y180478D01*
X32877D01*
Y180664D01*
X32970D01*
Y180757D01*
X33063D01*
Y180851D01*
X33157D01*
Y180944D01*
X33250D01*
Y181037D01*
X33343D01*
Y181131D01*
X33437D01*
Y181224D01*
X33530D01*
Y181317D01*
X33623D01*
Y181410D01*
X33716D01*
Y181504D01*
X33810D01*
Y181597D01*
X33903D01*
Y181690D01*
X33996D01*
Y181784D01*
X34183D01*
Y181877D01*
X34276D01*
Y181970D01*
X34463D01*
Y182063D01*
X34556D01*
Y182157D01*
X34743D01*
Y182250D01*
X34836D01*
Y182343D01*
X35022D01*
Y182437D01*
X35209D01*
Y182530D01*
X35396D01*
Y182623D01*
X35582D01*
Y182716D01*
X35769D01*
Y182810D01*
X35955D01*
Y182903D01*
X36235D01*
Y182996D01*
X36422D01*
Y183090D01*
X36702D01*
Y183183D01*
X36981D01*
Y183276D01*
X37355D01*
Y183369D01*
X37634D01*
Y183463D01*
X38007D01*
Y183556D01*
X38474D01*
Y183649D01*
X39034D01*
Y183743D01*
X39593D01*
Y183836D01*
X40526D01*
Y183929D01*
X44071D01*
Y183836D01*
D02*
G37*
G36*
X860076Y144668D02*
Y130332D01*
X824924D01*
Y144668D01*
X860076D01*
D02*
G37*
G36*
X630155Y130445D02*
X594845D01*
Y144555D01*
X630155D01*
Y130445D01*
D02*
G37*
G36*
X400273Y144555D02*
Y130445D01*
X364727D01*
Y144555D01*
X400273D01*
D02*
G37*
G36*
X144668Y284769D02*
X130332D01*
Y320230D01*
X144668D01*
Y284769D01*
D02*
G37*
G36*
X144555Y480193D02*
Y444807D01*
X130445D01*
Y480193D01*
X144555D01*
D02*
G37*
G36*
X144443Y639265D02*
Y605735D01*
X130557D01*
Y639265D01*
X144443D01*
D02*
G37*
%LPC*%
G36*
X43604Y180291D02*
X43511D01*
Y180011D01*
X43418D01*
Y179638D01*
X43325D01*
Y179265D01*
X43231D01*
Y178799D01*
X43138D01*
Y178705D01*
X42951D01*
Y178799D01*
X41552D01*
Y179172D01*
X41459D01*
Y179731D01*
X41366D01*
Y180291D01*
X40992D01*
Y180198D01*
X40433D01*
Y180105D01*
X40246D01*
Y179731D01*
X40339D01*
Y179172D01*
X40433D01*
Y178612D01*
X40339D01*
Y178519D01*
X40060D01*
Y178425D01*
X39780D01*
Y178332D01*
X39500D01*
Y178239D01*
X39313D01*
Y178146D01*
X39127D01*
Y178052D01*
X39034D01*
Y178146D01*
X38940D01*
Y178239D01*
X38847D01*
Y178425D01*
X38754D01*
Y178612D01*
X38660D01*
Y178705D01*
X38567D01*
Y178892D01*
X38474D01*
Y178985D01*
X38381D01*
Y179172D01*
X38287D01*
Y179265D01*
X38194D01*
Y179358D01*
X38101D01*
Y179265D01*
X37914D01*
Y179172D01*
X37728D01*
Y179078D01*
X37634D01*
Y178985D01*
X37448D01*
Y178892D01*
X37355D01*
Y178799D01*
X37261D01*
Y178705D01*
X37355D01*
Y178519D01*
X37448D01*
Y178425D01*
X37541D01*
Y178239D01*
X37634D01*
Y178146D01*
X37728D01*
Y177959D01*
X37821D01*
Y177772D01*
X37914D01*
Y177679D01*
X38007D01*
Y177493D01*
X38101D01*
Y177399D01*
X38007D01*
Y177306D01*
X37914D01*
Y177213D01*
X37728D01*
Y177119D01*
X37634D01*
Y177026D01*
X37541D01*
Y176933D01*
X37448D01*
Y176840D01*
X37355D01*
Y176746D01*
X37261D01*
Y176653D01*
X37168D01*
Y176560D01*
X37075D01*
Y176653D01*
X36981D01*
Y176746D01*
X36795D01*
Y176840D01*
X36702D01*
Y176933D01*
X36515D01*
Y177026D01*
X36422D01*
Y177119D01*
X36235D01*
Y177213D01*
X36142D01*
Y177306D01*
X36049D01*
Y177399D01*
X35862D01*
Y177493D01*
X35769D01*
Y177399D01*
X35675D01*
Y177213D01*
X35582D01*
Y177119D01*
X35489D01*
Y176933D01*
X35396D01*
Y176840D01*
X35302D01*
Y176746D01*
X35209D01*
Y176560D01*
X35302D01*
Y176466D01*
X35396D01*
Y176373D01*
X35489D01*
Y176280D01*
X35675D01*
Y176187D01*
X35769D01*
Y176093D01*
X35955D01*
Y176000D01*
X36049D01*
Y175907D01*
X36235D01*
Y175813D01*
X36328D01*
Y175720D01*
X36422D01*
Y175627D01*
X36515D01*
Y175534D01*
X36422D01*
Y175347D01*
X36328D01*
Y175254D01*
X36235D01*
Y174974D01*
X36142D01*
Y174787D01*
X36049D01*
Y174507D01*
X35955D01*
Y174414D01*
X35582D01*
Y174507D01*
X35209D01*
Y174601D01*
X34836D01*
Y174694D01*
X34463D01*
Y174787D01*
X34369D01*
Y174414D01*
X34276D01*
Y174041D01*
X34183D01*
Y173668D01*
X34369D01*
Y173575D01*
X34743D01*
Y173481D01*
X35116D01*
Y173388D01*
X35489D01*
Y173295D01*
X35675D01*
Y172735D01*
X35582D01*
Y172082D01*
X35675D01*
Y171616D01*
X35302D01*
Y171522D01*
X34743D01*
Y171429D01*
X34183D01*
Y171336D01*
X34090D01*
Y171149D01*
X34183D01*
Y170590D01*
X34276D01*
Y170310D01*
X34743D01*
Y170403D01*
X35302D01*
Y170496D01*
X35862D01*
Y170403D01*
X35955D01*
Y170123D01*
X36049D01*
Y169843D01*
X36142D01*
Y169657D01*
X36235D01*
Y169470D01*
X36328D01*
Y169284D01*
X36422D01*
Y169190D01*
X36328D01*
Y169097D01*
X36235D01*
Y169004D01*
X36049D01*
Y168910D01*
X35862D01*
Y168817D01*
X35769D01*
Y168724D01*
X35582D01*
Y168631D01*
X35489D01*
Y168537D01*
X35302D01*
Y168444D01*
X35209D01*
Y168351D01*
X35116D01*
Y168257D01*
X35209D01*
Y168071D01*
X35302D01*
Y167978D01*
X35396D01*
Y167791D01*
X35489D01*
Y167698D01*
X35582D01*
Y167511D01*
X35675D01*
Y167418D01*
X35769D01*
Y167511D01*
X35955D01*
Y167605D01*
X36049D01*
Y167698D01*
X36235D01*
Y167791D01*
X36422D01*
Y167884D01*
X36515D01*
Y167978D01*
X36702D01*
Y168071D01*
X36795D01*
Y168164D01*
X36981D01*
Y168257D01*
X37075D01*
Y168164D01*
X37168D01*
Y168071D01*
X37261D01*
Y167978D01*
X37355D01*
Y167884D01*
X37448D01*
Y167791D01*
X37541D01*
Y167698D01*
X37634D01*
Y167605D01*
X37728D01*
Y167511D01*
X37821D01*
Y167418D01*
X37914D01*
Y167231D01*
X37821D01*
Y167045D01*
X37728D01*
Y166952D01*
X37634D01*
Y166765D01*
X37541D01*
Y166672D01*
X37448D01*
Y166578D01*
X37355D01*
Y166392D01*
X37261D01*
Y166299D01*
X37168D01*
Y166019D01*
X37261D01*
Y165925D01*
X37355D01*
Y165832D01*
X37541D01*
Y165739D01*
X37634D01*
Y165646D01*
X37821D01*
Y165552D01*
X37914D01*
Y165459D01*
X38007D01*
Y165552D01*
X38101D01*
Y165646D01*
X38194D01*
Y165739D01*
X38287D01*
Y165925D01*
X38381D01*
Y166019D01*
X38474D01*
Y166205D01*
X38567D01*
Y166299D01*
X38660D01*
Y166485D01*
X38754D01*
Y166578D01*
X38847D01*
Y166672D01*
X39034D01*
Y166578D01*
X39220D01*
Y166485D01*
X39407D01*
Y166392D01*
X39687D01*
Y166299D01*
X39873D01*
Y166205D01*
X40153D01*
Y165925D01*
X40060D01*
Y165552D01*
X39966D01*
Y165179D01*
X39873D01*
Y164806D01*
X39780D01*
Y164619D01*
X40060D01*
Y164526D01*
X40433D01*
Y164433D01*
X40806D01*
Y164340D01*
X40899D01*
Y164713D01*
X40992D01*
Y165086D01*
X41086D01*
Y165459D01*
X41179D01*
Y165832D01*
X41272D01*
Y165925D01*
X41739D01*
Y165832D01*
X42298D01*
Y165925D01*
X42578D01*
Y165832D01*
X42672D01*
Y165366D01*
X42765D01*
Y164806D01*
X42858D01*
Y164246D01*
X43138D01*
Y164340D01*
X43698D01*
Y164433D01*
X43978D01*
Y164806D01*
X43884D01*
Y165366D01*
X43791D01*
Y165925D01*
X43698D01*
Y166019D01*
X43791D01*
Y166112D01*
X43978D01*
Y166205D01*
X44257D01*
Y166299D01*
X44537D01*
Y166392D01*
X44724D01*
Y166485D01*
X44910D01*
Y166578D01*
X45190D01*
Y166485D01*
X45284D01*
Y166299D01*
X45377D01*
Y166205D01*
X45470D01*
Y166019D01*
X45563D01*
Y165925D01*
X45657D01*
Y165739D01*
X45750D01*
Y165646D01*
X45843D01*
Y165459D01*
X45937D01*
Y165272D01*
X46030D01*
Y165366D01*
X46216D01*
Y165459D01*
X46310D01*
Y165552D01*
X46496D01*
Y165646D01*
X46589D01*
Y165739D01*
X46776D01*
Y165832D01*
X46869D01*
Y166112D01*
X46776D01*
Y166205D01*
X46683D01*
Y166392D01*
X46589D01*
Y166485D01*
X46496D01*
Y166672D01*
X46403D01*
Y166765D01*
X46310D01*
Y166952D01*
X46216D01*
Y167045D01*
X46123D01*
Y167325D01*
X46216D01*
Y167418D01*
X46310D01*
Y167511D01*
X46403D01*
Y167605D01*
X46589D01*
Y167698D01*
X46683D01*
Y167791D01*
X46776D01*
Y167978D01*
X46869D01*
Y168071D01*
X46963D01*
Y168164D01*
X47242D01*
Y168071D01*
X47336D01*
Y167978D01*
X47522D01*
Y167884D01*
X47616D01*
Y167791D01*
X47802D01*
Y167698D01*
X47895D01*
Y167605D01*
X48082D01*
Y167511D01*
X48175D01*
Y167418D01*
X48269D01*
Y167325D01*
X48362D01*
Y167418D01*
X48455D01*
Y167605D01*
X48548D01*
Y167698D01*
X48642D01*
Y167791D01*
X48735D01*
Y167978D01*
X48828D01*
Y168071D01*
X48922D01*
Y168351D01*
X48828D01*
Y168444D01*
X48642D01*
Y168537D01*
X48548D01*
Y168631D01*
X48362D01*
Y168724D01*
X48269D01*
Y168817D01*
X48082D01*
Y168910D01*
X47989D01*
Y169004D01*
X47895D01*
Y169097D01*
X47709D01*
Y169190D01*
X47802D01*
Y169377D01*
X47895D01*
Y169563D01*
X47989D01*
Y169750D01*
X48082D01*
Y170030D01*
X48175D01*
Y170216D01*
X48269D01*
Y170310D01*
X48362D01*
Y170216D01*
X48828D01*
Y170123D01*
X49201D01*
Y170030D01*
X49575D01*
Y169937D01*
X49761D01*
Y170030D01*
X49854D01*
Y170403D01*
X49948D01*
Y170869D01*
X50041D01*
Y171056D01*
X49668D01*
Y171149D01*
X49295D01*
Y171243D01*
X48922D01*
Y171336D01*
X48548D01*
Y172642D01*
X48642D01*
Y172735D01*
X49108D01*
Y172828D01*
X49668D01*
Y172922D01*
X50134D01*
Y173295D01*
X50041D01*
Y173855D01*
X49948D01*
Y174041D01*
X49668D01*
Y173948D01*
X49108D01*
Y173855D01*
X48548D01*
Y173761D01*
X48455D01*
Y173855D01*
X48362D01*
Y174041D01*
X48269D01*
Y174414D01*
X48175D01*
Y174694D01*
X48082D01*
Y174881D01*
X47989D01*
Y175067D01*
X47895D01*
Y175347D01*
X47989D01*
Y175440D01*
X48175D01*
Y175534D01*
X48269D01*
Y175627D01*
X48455D01*
Y175720D01*
X48642D01*
Y175813D01*
X48735D01*
Y175907D01*
X48922D01*
Y176000D01*
X49015D01*
Y176093D01*
X49201D01*
Y176187D01*
X49108D01*
Y176373D01*
X49015D01*
Y176560D01*
X48922D01*
Y176653D01*
X48828D01*
Y176840D01*
X48735D01*
Y176933D01*
X48642D01*
Y177119D01*
X48548D01*
Y177026D01*
X48455D01*
Y176933D01*
X48269D01*
Y176840D01*
X48175D01*
Y176746D01*
X47989D01*
Y176653D01*
X47802D01*
Y176560D01*
X47709D01*
Y176466D01*
X47522D01*
Y176373D01*
X47429D01*
Y176280D01*
X47242D01*
Y176373D01*
X47149D01*
Y176466D01*
X47056D01*
Y176560D01*
X46963D01*
Y176653D01*
X46869D01*
Y176746D01*
X46776D01*
Y176840D01*
X46683D01*
Y176933D01*
X46589D01*
Y177026D01*
X46496D01*
Y177119D01*
X46403D01*
Y177213D01*
X46310D01*
Y177306D01*
X46403D01*
Y177493D01*
X46496D01*
Y177586D01*
X46589D01*
Y177772D01*
X46683D01*
Y177866D01*
X46776D01*
Y178052D01*
X46869D01*
Y178146D01*
X46963D01*
Y178239D01*
X47056D01*
Y178425D01*
X47149D01*
Y178519D01*
X47242D01*
Y178612D01*
X47149D01*
Y178705D01*
X47056D01*
Y178799D01*
X46963D01*
Y178892D01*
X46776D01*
Y178985D01*
X46683D01*
Y179078D01*
X46496D01*
Y179172D01*
X46403D01*
Y179265D01*
X46310D01*
Y179172D01*
X46216D01*
Y178985D01*
X46123D01*
Y178892D01*
X46030D01*
Y178799D01*
X45937D01*
Y178612D01*
X45843D01*
Y178519D01*
X45750D01*
Y178332D01*
X45657D01*
Y178239D01*
X45563D01*
Y178146D01*
X45470D01*
Y177959D01*
X45190D01*
Y178052D01*
X45097D01*
Y178146D01*
X44910D01*
Y178239D01*
X44631D01*
Y178332D01*
X44444D01*
Y178425D01*
X44257D01*
Y178705D01*
X44351D01*
Y179172D01*
X44444D01*
Y179545D01*
X44537D01*
Y179918D01*
X44631D01*
Y180011D01*
X44444D01*
Y180105D01*
X43978D01*
Y180198D01*
X43604D01*
Y180291D01*
D02*
G37*
G36*
X43231Y163500D02*
X43138D01*
Y163220D01*
X43045D01*
Y162847D01*
X42951D01*
Y162754D01*
X42298D01*
Y162847D01*
X42205D01*
Y163220D01*
X42112D01*
Y163500D01*
X41925D01*
Y163407D01*
X41645D01*
Y163034D01*
X41739D01*
Y162660D01*
X41459D01*
Y162567D01*
X41179D01*
Y162474D01*
X40992D01*
Y162567D01*
X40899D01*
Y162754D01*
X40806D01*
Y162940D01*
X40713D01*
Y163034D01*
X40526D01*
Y162940D01*
X40433D01*
Y162847D01*
X40246D01*
Y162754D01*
X40339D01*
Y162567D01*
X40433D01*
Y162381D01*
X40526D01*
Y162287D01*
X40619D01*
Y162101D01*
X40526D01*
Y162007D01*
X40433D01*
Y161914D01*
X40339D01*
Y161821D01*
X40246D01*
Y161728D01*
X40153D01*
Y161821D01*
X39966D01*
Y161914D01*
X39873D01*
Y162007D01*
X39780D01*
Y162101D01*
X39593D01*
Y162194D01*
X39500D01*
Y162007D01*
X39407D01*
Y161914D01*
X39313D01*
Y161728D01*
X39407D01*
Y161634D01*
X39593D01*
Y161541D01*
X39687D01*
Y161448D01*
X39780D01*
Y161355D01*
X39873D01*
Y161168D01*
X39780D01*
Y160981D01*
X39687D01*
Y160795D01*
X39220D01*
Y160888D01*
X38940D01*
Y160795D01*
X38847D01*
Y160422D01*
X39034D01*
Y160328D01*
X39407D01*
Y160235D01*
X39500D01*
Y159489D01*
X39313D01*
Y159396D01*
X38847D01*
Y159302D01*
X38754D01*
Y159209D01*
X38847D01*
Y158836D01*
X38940D01*
Y158929D01*
X39593D01*
Y158836D01*
X39687D01*
Y158649D01*
X39780D01*
Y158463D01*
X39873D01*
Y158369D01*
X39780D01*
Y158276D01*
X39687D01*
Y158183D01*
X39500D01*
Y158090D01*
X39407D01*
Y157996D01*
X39220D01*
Y157903D01*
X39313D01*
Y157810D01*
X39407D01*
Y157623D01*
X39500D01*
Y157530D01*
X39593D01*
Y157623D01*
X39687D01*
Y157716D01*
X39873D01*
Y157810D01*
X40060D01*
Y157903D01*
X40246D01*
Y157810D01*
X40339D01*
Y157716D01*
X40433D01*
Y157623D01*
X40526D01*
Y157343D01*
X40433D01*
Y157250D01*
X40339D01*
Y157063D01*
X40246D01*
Y156970D01*
X40153D01*
Y156877D01*
X40246D01*
Y156784D01*
X40433D01*
Y156690D01*
X40526D01*
Y156597D01*
X40619D01*
Y156784D01*
X40713D01*
Y156877D01*
X40806D01*
Y157063D01*
X40899D01*
Y157157D01*
X41179D01*
Y157063D01*
X41459D01*
Y156970D01*
X41552D01*
Y156597D01*
X41459D01*
Y156224D01*
X41645D01*
Y156131D01*
X41925D01*
Y156410D01*
X42019D01*
Y156784D01*
X42112D01*
Y156877D01*
X42205D01*
Y156784D01*
X42765D01*
Y156410D01*
X42858D01*
Y156037D01*
X42951D01*
Y156131D01*
X43325D01*
Y156597D01*
X43231D01*
Y156877D01*
X43325D01*
Y156970D01*
X43604D01*
Y157063D01*
X43791D01*
Y157157D01*
X43978D01*
Y156970D01*
X44071D01*
Y156784D01*
X44164D01*
Y156690D01*
X44257D01*
Y156597D01*
X44444D01*
Y156690D01*
X44537D01*
Y156784D01*
X44724D01*
Y156877D01*
X44631D01*
Y156970D01*
X44537D01*
Y157157D01*
X44444D01*
Y157343D01*
X44351D01*
Y157530D01*
X44444D01*
Y157623D01*
X44537D01*
Y157716D01*
X44631D01*
Y157810D01*
X44724D01*
Y157903D01*
X44910D01*
Y157810D01*
X45004D01*
Y157716D01*
X45097D01*
Y157623D01*
X45284D01*
Y157530D01*
X45470D01*
Y157716D01*
X45563D01*
Y157810D01*
X45657D01*
Y157903D01*
X45563D01*
Y157996D01*
X45470D01*
Y158090D01*
X45377D01*
Y158183D01*
X45190D01*
Y158276D01*
X45097D01*
Y158463D01*
X45190D01*
Y158649D01*
X45284D01*
Y158836D01*
X45657D01*
Y158743D01*
X46030D01*
Y158836D01*
X46123D01*
Y159209D01*
X45843D01*
Y159302D01*
X45470D01*
Y159955D01*
X45563D01*
Y160049D01*
X46123D01*
Y160142D01*
X46216D01*
Y160328D01*
X46123D01*
Y160608D01*
X46030D01*
Y160515D01*
X45377D01*
Y160702D01*
X45284D01*
Y160981D01*
X45190D01*
Y161261D01*
X45377D01*
Y161355D01*
X45470D01*
Y161448D01*
X45657D01*
Y161541D01*
X45750D01*
Y161634D01*
X45657D01*
Y161821D01*
X45563D01*
Y161914D01*
X45284D01*
Y161821D01*
X45190D01*
Y161728D01*
X45004D01*
Y161634D01*
X44817D01*
Y161728D01*
X44724D01*
Y161821D01*
X44631D01*
Y161914D01*
X44537D01*
Y162007D01*
X44444D01*
Y162194D01*
X44537D01*
Y162381D01*
X44631D01*
Y162474D01*
X44724D01*
Y162567D01*
X44817D01*
Y162754D01*
X44724D01*
Y162847D01*
X44631D01*
Y162940D01*
X44351D01*
Y162754D01*
X44257D01*
Y162660D01*
X44164D01*
Y162567D01*
X44071D01*
Y162381D01*
X43884D01*
Y162474D01*
X43698D01*
Y162567D01*
X43511D01*
Y163034D01*
X43604D01*
Y163407D01*
X43231D01*
Y163500D01*
D02*
G37*
G36*
X50041Y159769D02*
X49948D01*
Y159675D01*
X49854D01*
Y159582D01*
X49761D01*
Y159489D01*
X49668D01*
Y159396D01*
X49575D01*
Y159302D01*
X49481D01*
Y159209D01*
X49388D01*
Y159116D01*
X49295D01*
Y158929D01*
X49201D01*
Y158836D01*
X49108D01*
Y158743D01*
X49015D01*
Y158556D01*
X48922D01*
Y158463D01*
X48828D01*
Y158276D01*
X48735D01*
Y157996D01*
X48642D01*
Y157623D01*
X48548D01*
Y157437D01*
X48642D01*
Y157250D01*
X48735D01*
Y157157D01*
Y157063D01*
X48922D01*
Y156970D01*
X49481D01*
Y157063D01*
X49668D01*
Y157157D01*
X49761D01*
Y157250D01*
X49948D01*
Y157343D01*
X50041D01*
Y157437D01*
X50134D01*
Y157623D01*
X50228D01*
Y157716D01*
X50321D01*
Y157903D01*
X50414D01*
Y158183D01*
X50507D01*
Y158929D01*
X50414D01*
Y159209D01*
X50321D01*
Y159396D01*
X50228D01*
Y159582D01*
X50134D01*
Y159675D01*
X50041D01*
Y159769D01*
D02*
G37*
G36*
X34649D02*
X34556D01*
Y159675D01*
X34463D01*
Y159582D01*
X34369D01*
Y159396D01*
X34276D01*
Y159116D01*
X34183D01*
Y157996D01*
X34276D01*
Y157810D01*
X34369D01*
Y157623D01*
X34463D01*
Y157530D01*
X34556D01*
Y157437D01*
X34649D01*
Y157343D01*
X34743D01*
Y157250D01*
X34836D01*
Y157157D01*
X35022D01*
Y157063D01*
X35302D01*
Y156970D01*
X35675D01*
Y157063D01*
X35862D01*
Y157157D01*
X35955D01*
Y157250D01*
X36049D01*
Y157996D01*
X35955D01*
Y158183D01*
X35862D01*
Y158369D01*
X35769D01*
Y158463D01*
X35675D01*
Y158649D01*
X35582D01*
Y158743D01*
X35489D01*
Y158836D01*
X35396D01*
Y159022D01*
X35302D01*
Y159116D01*
X35209D01*
Y159209D01*
X35116D01*
Y159302D01*
X35022D01*
Y159396D01*
X34929D01*
Y159489D01*
X34836D01*
Y159582D01*
X34743D01*
Y159675D01*
X34649D01*
Y159769D01*
D02*
G37*
G36*
X42672Y148948D02*
X42392D01*
Y148855D01*
X42205D01*
Y148761D01*
X42112D01*
Y148668D01*
X42019D01*
Y148575D01*
X41925D01*
Y148388D01*
X41832D01*
Y148295D01*
X41739D01*
Y148108D01*
X41645D01*
Y148015D01*
X41552D01*
Y147828D01*
X41459D01*
Y147735D01*
X41366D01*
Y147549D01*
X41272D01*
Y147455D01*
X41179D01*
Y147269D01*
X41086D01*
Y147175D01*
X40992D01*
Y146989D01*
X40899D01*
Y146802D01*
X40806D01*
Y146709D01*
X40713D01*
Y146522D01*
X40619D01*
Y146336D01*
X40526D01*
Y146243D01*
X40433D01*
Y146056D01*
X40339D01*
Y145869D01*
X40246D01*
Y145683D01*
X40153D01*
Y145496D01*
X40060D01*
Y145310D01*
X39966D01*
Y145123D01*
X39873D01*
Y144843D01*
X39780D01*
Y144563D01*
X39687D01*
Y144284D01*
X39593D01*
Y143071D01*
X39687D01*
Y142698D01*
X39780D01*
Y142511D01*
X39873D01*
Y142325D01*
X39966D01*
Y142138D01*
X40060D01*
Y142045D01*
X40153D01*
Y141858D01*
X40246D01*
Y141765D01*
X40339D01*
Y141672D01*
X40433D01*
Y141578D01*
X40526D01*
Y141485D01*
X40619D01*
Y141392D01*
X40713D01*
Y141299D01*
X40899D01*
Y141205D01*
X41086D01*
Y141112D01*
X41179D01*
Y141019D01*
X41366D01*
Y140925D01*
X41739D01*
Y140832D01*
X42205D01*
Y140739D01*
X42858D01*
Y140832D01*
X43325D01*
Y140925D01*
X43604D01*
Y141019D01*
X43791D01*
Y141112D01*
X43978D01*
Y141205D01*
X44164D01*
Y141299D01*
X44257D01*
Y141392D01*
X44444D01*
Y141485D01*
X44537D01*
Y141578D01*
X44631D01*
Y141672D01*
X44724D01*
Y141765D01*
X44817D01*
Y141952D01*
X44910D01*
Y142045D01*
X45004D01*
Y142231D01*
X45097D01*
Y142325D01*
X45190D01*
Y142511D01*
X45284D01*
Y142791D01*
X45377D01*
Y143071D01*
X45470D01*
Y144190D01*
X45377D01*
Y144470D01*
X45284D01*
Y144750D01*
X45190D01*
Y145030D01*
X45097D01*
Y145216D01*
X45004D01*
Y145403D01*
X44910D01*
Y145590D01*
X44817D01*
Y145776D01*
X44724D01*
Y145963D01*
X44631D01*
Y146149D01*
X44537D01*
Y146336D01*
X44444D01*
Y146522D01*
X44351D01*
Y146616D01*
X44257D01*
Y146802D01*
X44164D01*
Y146989D01*
X44071D01*
Y147082D01*
X43978D01*
Y147269D01*
X43884D01*
Y147362D01*
X43791D01*
Y147549D01*
X43698D01*
Y147735D01*
X43604D01*
Y147828D01*
X43511D01*
Y148015D01*
X43418D01*
Y148108D01*
X43325D01*
Y148202D01*
X43231D01*
Y148388D01*
X43138D01*
Y148481D01*
X43045D01*
Y148668D01*
X42951D01*
Y148761D01*
X42858D01*
Y148855D01*
X42672D01*
Y148948D01*
D02*
G37*
G36*
X30918Y138593D02*
X30731D01*
Y138313D01*
X30638D01*
Y138034D01*
X30545D01*
Y137754D01*
X30452D01*
Y137474D01*
X30358D01*
Y137194D01*
X30265D01*
Y136914D01*
X30172D01*
Y136634D01*
X30078D01*
Y136261D01*
X29985D01*
Y135981D01*
X29892D01*
Y135608D01*
X29799D01*
Y135235D01*
X29705D01*
Y134862D01*
X29612D01*
Y134489D01*
X29519D01*
Y134116D01*
X29425D01*
Y133743D01*
Y133649D01*
X29332D01*
Y133183D01*
X29239D01*
Y132716D01*
X29146D01*
Y132157D01*
X29052D01*
Y131597D01*
X28959D01*
Y130851D01*
X28866D01*
Y129918D01*
X28772D01*
Y129638D01*
X28866D01*
Y129731D01*
X29052D01*
Y129825D01*
X29146D01*
Y129918D01*
X29239D01*
Y130011D01*
X29332D01*
Y130105D01*
X29519D01*
Y130198D01*
X29612D01*
Y130291D01*
X29705D01*
Y130384D01*
X29799D01*
Y130478D01*
X29892D01*
Y130571D01*
X29985D01*
Y130664D01*
X30078D01*
Y130757D01*
X30172D01*
Y130851D01*
X30265D01*
Y130944D01*
X30358D01*
Y131037D01*
X30452D01*
Y131131D01*
X30545D01*
Y131224D01*
X30638D01*
Y131317D01*
X30731D01*
Y131504D01*
X30825D01*
Y131597D01*
X30918D01*
Y131784D01*
X31011D01*
Y131877D01*
X31105D01*
Y132063D01*
X31198D01*
Y132250D01*
X31291D01*
Y132437D01*
X31384D01*
Y132623D01*
X31478D01*
Y132810D01*
X31571D01*
Y133090D01*
X31664D01*
Y133369D01*
X31757D01*
Y133743D01*
X31851D01*
Y134302D01*
X31944D01*
Y135515D01*
X31851D01*
Y136075D01*
X31757D01*
Y136448D01*
X31664D01*
Y136728D01*
X31571D01*
Y137007D01*
X31478D01*
Y137287D01*
X31384D01*
Y137567D01*
X31291D01*
Y137754D01*
X31198D01*
Y138034D01*
X31105D01*
Y138220D01*
X31011D01*
Y138407D01*
X30918D01*
Y138593D01*
D02*
G37*
G36*
X55265Y139060D02*
X55172D01*
Y138966D01*
X55078D01*
Y138873D01*
X54985D01*
Y138687D01*
X54892D01*
Y138500D01*
X54798D01*
Y138220D01*
X54705D01*
Y137940D01*
X54612D01*
Y137754D01*
X54519D01*
Y137474D01*
X54425D01*
Y137194D01*
X54332D01*
Y136914D01*
X54239D01*
Y136634D01*
X54145D01*
Y136355D01*
X54052D01*
Y135981D01*
X53959D01*
Y135235D01*
X53866D01*
Y134582D01*
X53959D01*
Y133836D01*
X54052D01*
Y133463D01*
X54145D01*
Y133183D01*
X54239D01*
Y132903D01*
X54332D01*
Y132623D01*
X54425D01*
Y132437D01*
X54519D01*
Y132250D01*
X54612D01*
Y132157D01*
X54705D01*
Y131970D01*
X54798D01*
Y131784D01*
X54892D01*
Y131690D01*
X54985D01*
Y131504D01*
X55078D01*
Y131410D01*
X55172D01*
Y131317D01*
X55265D01*
Y131131D01*
X55358D01*
Y131037D01*
X55451D01*
Y130944D01*
X55545D01*
Y130851D01*
X55638D01*
Y130757D01*
X55731D01*
Y130664D01*
X55825D01*
Y130571D01*
X55918D01*
Y130478D01*
X56011D01*
Y130384D01*
X56104D01*
Y130291D01*
X56291D01*
Y130198D01*
X56384D01*
Y130105D01*
X56478D01*
Y130011D01*
X56571D01*
Y129918D01*
X56664D01*
Y129825D01*
X56851D01*
Y129731D01*
X56944D01*
Y129638D01*
X57131D01*
Y129545D01*
X57224D01*
Y129452D01*
X57410D01*
Y129358D01*
X57504D01*
Y129265D01*
X57690D01*
Y129172D01*
X57784D01*
Y130011D01*
X57690D01*
Y130851D01*
X57597D01*
Y131504D01*
X57504D01*
Y132063D01*
X57410D01*
Y132530D01*
X57317D01*
Y132996D01*
X57224D01*
Y133369D01*
X57131D01*
Y133743D01*
X57037D01*
Y134116D01*
X56944D01*
Y134489D01*
X56851D01*
Y134769D01*
X56757D01*
Y135142D01*
X56664D01*
Y135422D01*
X56571D01*
Y135702D01*
X56478D01*
Y136075D01*
X56384D01*
Y136355D01*
X56291D01*
Y136634D01*
X56198D01*
Y136914D01*
X56104D01*
Y137194D01*
X56011D01*
Y137474D01*
X55918D01*
Y137660D01*
X55825D01*
Y137940D01*
X55731D01*
Y138220D01*
X55638D01*
Y138407D01*
X55545D01*
Y138687D01*
X55451D01*
Y138873D01*
X55358D01*
Y138966D01*
X55265D01*
Y139060D01*
D02*
G37*
G36*
X49015Y141392D02*
X48922D01*
Y141299D01*
X48828D01*
Y141205D01*
X48735D01*
Y141112D01*
X48548D01*
Y141019D01*
X48455D01*
Y140925D01*
X48362D01*
Y140832D01*
X48269D01*
Y140739D01*
X48175D01*
Y140646D01*
X48082D01*
Y140552D01*
X47989D01*
Y140459D01*
X47802D01*
Y140366D01*
X47709D01*
Y140272D01*
X47616D01*
Y140179D01*
X47522D01*
Y140086D01*
X47429D01*
Y139993D01*
X47336D01*
Y139899D01*
X47242D01*
Y139806D01*
X47149D01*
Y139713D01*
X47056D01*
Y139619D01*
X46963D01*
Y139526D01*
X46869D01*
Y139433D01*
X46776D01*
Y139340D01*
X46589D01*
Y139246D01*
X46496D01*
Y139153D01*
X46403D01*
Y139060D01*
X46310D01*
Y138966D01*
X46216D01*
Y138873D01*
X46123D01*
Y138780D01*
X46030D01*
Y138687D01*
X45937D01*
Y138593D01*
X45843D01*
Y138407D01*
X45750D01*
Y138313D01*
X45657D01*
Y138220D01*
X45563D01*
Y138127D01*
X45470D01*
Y138034D01*
X45377D01*
Y137940D01*
X45284D01*
Y137847D01*
X45190D01*
Y137754D01*
X45097D01*
Y137567D01*
X45190D01*
Y137474D01*
X45284D01*
Y137287D01*
X45377D01*
Y137194D01*
X45470D01*
Y137007D01*
X45563D01*
Y136914D01*
X45657D01*
Y136728D01*
X45750D01*
Y136634D01*
X45843D01*
Y136448D01*
X45937D01*
Y136261D01*
X46030D01*
Y136168D01*
X46123D01*
Y135981D01*
X46216D01*
Y135888D01*
X46310D01*
Y135702D01*
X46403D01*
Y135608D01*
X46496D01*
Y135422D01*
X46589D01*
Y135328D01*
X46683D01*
Y135142D01*
X46776D01*
Y135049D01*
X46869D01*
Y134862D01*
X46963D01*
Y134769D01*
X47056D01*
Y134582D01*
X47149D01*
Y134489D01*
X47242D01*
Y134302D01*
X47336D01*
Y134209D01*
X47429D01*
Y134022D01*
X47522D01*
Y133836D01*
X47616D01*
Y133743D01*
X47709D01*
Y133556D01*
X47802D01*
Y133463D01*
X47895D01*
Y133276D01*
X47989D01*
Y133090D01*
X48082D01*
Y132996D01*
X48175D01*
Y132810D01*
X48269D01*
Y132716D01*
X48362D01*
Y132530D01*
X48455D01*
Y132437D01*
X48548D01*
Y132250D01*
X48642D01*
Y132063D01*
X48735D01*
Y131970D01*
X48828D01*
Y131784D01*
X48922D01*
Y131597D01*
X49015D01*
Y131504D01*
X49108D01*
Y131317D01*
X49201D01*
Y131131D01*
X49295D01*
Y130944D01*
X49388D01*
Y130851D01*
X49481D01*
Y130664D01*
X49575D01*
Y130478D01*
X49668D01*
Y130384D01*
X49761D01*
Y130198D01*
X49854D01*
Y130011D01*
X49948D01*
Y129918D01*
X50041D01*
Y129731D01*
X50134D01*
Y129545D01*
X50228D01*
Y129358D01*
X50321D01*
Y129172D01*
X50414D01*
Y128985D01*
X50507D01*
Y128892D01*
X50601D01*
Y128705D01*
X50694D01*
Y128519D01*
X50787D01*
Y128332D01*
X50881D01*
Y128146D01*
X50974D01*
Y127959D01*
X51067D01*
Y127772D01*
X51160D01*
Y127586D01*
X51254D01*
Y127306D01*
X51347D01*
Y127119D01*
X51440D01*
Y126933D01*
X51534D01*
Y126746D01*
X51627D01*
Y126560D01*
X51720D01*
Y126280D01*
X51813D01*
Y126093D01*
X51907D01*
Y125907D01*
X52000D01*
Y125627D01*
X52093D01*
Y125440D01*
X52187D01*
Y125160D01*
X52280D01*
Y124881D01*
X52373D01*
Y124601D01*
X52466D01*
Y124414D01*
X52560D01*
Y124041D01*
X52653D01*
Y123948D01*
Y123761D01*
X52746D01*
Y123481D01*
X52839D01*
Y123108D01*
X52933D01*
Y122735D01*
X53026D01*
Y122362D01*
X53119D01*
Y121896D01*
X53213D01*
Y121243D01*
X53306D01*
Y120869D01*
X53679D01*
Y120963D01*
X54145D01*
Y121056D01*
X54425D01*
Y121149D01*
X54705D01*
Y121243D01*
X54892D01*
Y121336D01*
X55078D01*
Y121429D01*
X55172D01*
Y121522D01*
X55358D01*
Y121616D01*
X55451D01*
Y121709D01*
X55638D01*
Y121802D01*
X55731D01*
Y121896D01*
X55825D01*
Y121989D01*
X55918D01*
Y122082D01*
X56011D01*
Y122175D01*
X56104D01*
Y122362D01*
X56198D01*
Y122455D01*
X56291D01*
Y122549D01*
X56384D01*
Y122735D01*
X56478D01*
Y122922D01*
X56571D01*
Y123015D01*
X56664D01*
Y123295D01*
X56757D01*
Y123481D01*
X56851D01*
Y123668D01*
X56944D01*
Y123948D01*
X57037D01*
Y124134D01*
X57131D01*
Y124414D01*
X57224D01*
Y124694D01*
X57317D01*
Y125067D01*
X57410D01*
Y125440D01*
X57504D01*
Y125627D01*
X57410D01*
Y125720D01*
X57037D01*
Y125813D01*
X56757D01*
Y125907D01*
X56478D01*
Y126000D01*
X56291D01*
Y126093D01*
X56011D01*
Y126187D01*
X55825D01*
Y126280D01*
X55638D01*
Y126373D01*
X55451D01*
Y126466D01*
X55265D01*
Y126560D01*
X55078D01*
Y126653D01*
X54892D01*
Y126746D01*
X54705D01*
Y126840D01*
X54612D01*
Y126933D01*
X54425D01*
Y127026D01*
X54239D01*
Y127119D01*
X54145D01*
Y127213D01*
X53959D01*
Y127306D01*
X53866D01*
Y127399D01*
X53772D01*
Y127493D01*
X53586D01*
Y127586D01*
X53492D01*
Y127679D01*
X53399D01*
Y127772D01*
X53213D01*
Y127866D01*
X53119D01*
Y127959D01*
X53026D01*
Y128052D01*
X52933D01*
Y128146D01*
X52839D01*
Y128239D01*
X52746D01*
Y128332D01*
X52653D01*
Y128425D01*
X52560D01*
Y128519D01*
X52466D01*
Y128612D01*
X52373D01*
Y128705D01*
X52280D01*
Y128799D01*
X52187D01*
Y128892D01*
X52093D01*
Y128985D01*
X52000D01*
Y129172D01*
X51907D01*
Y129265D01*
X51813D01*
Y129358D01*
X51720D01*
Y129545D01*
X51627D01*
Y129638D01*
X51534D01*
Y129825D01*
X51440D01*
Y130011D01*
X51347D01*
Y130105D01*
X51254D01*
Y130291D01*
X51160D01*
Y130478D01*
X51067D01*
Y130664D01*
X50974D01*
Y130851D01*
X50881D01*
Y131131D01*
X50787D01*
Y131317D01*
X50694D01*
Y131504D01*
X50601D01*
Y131784D01*
X50507D01*
Y131970D01*
X50414D01*
Y132343D01*
X50321D01*
Y132623D01*
X50228D01*
Y132903D01*
X50134D01*
Y133183D01*
X50041D01*
Y133556D01*
X49948D01*
Y133929D01*
X49854D01*
Y134396D01*
X49761D01*
Y134769D01*
X49668D01*
Y135235D01*
X49575D01*
Y135795D01*
X49481D01*
Y136355D01*
X49388D01*
Y137007D01*
X49295D01*
Y137940D01*
X49201D01*
Y138966D01*
X49108D01*
Y140832D01*
X49015D01*
Y141392D01*
D02*
G37*
G36*
X36981Y140832D02*
X36795D01*
Y140179D01*
X36702D01*
Y138593D01*
X36608D01*
Y137567D01*
X36515D01*
Y136914D01*
X36422D01*
Y136168D01*
X36328D01*
Y135608D01*
X36235D01*
Y135142D01*
X36142D01*
Y134675D01*
X36049D01*
Y134209D01*
X35955D01*
Y133743D01*
X35862D01*
Y133369D01*
X35769D01*
Y133090D01*
X35675D01*
Y132810D01*
X35582D01*
Y132437D01*
X35489D01*
Y132250D01*
X35396D01*
Y131970D01*
X35302D01*
Y131690D01*
X35209D01*
Y131504D01*
X35116D01*
Y131224D01*
X35022D01*
Y131037D01*
X34929D01*
Y130851D01*
X34836D01*
Y130664D01*
X34743D01*
Y130478D01*
X34649D01*
Y130291D01*
X34556D01*
Y130105D01*
X34463D01*
Y129918D01*
X34369D01*
Y129825D01*
X34276D01*
Y129638D01*
X34183D01*
Y129452D01*
X34090D01*
Y129358D01*
X33996D01*
Y129265D01*
X33903D01*
Y129078D01*
X33810D01*
Y128985D01*
X33716D01*
Y128892D01*
X33623D01*
Y128799D01*
X33530D01*
Y128705D01*
X33437D01*
Y128612D01*
X33343D01*
Y128519D01*
X33250D01*
Y128332D01*
X33157D01*
Y128239D01*
X32970D01*
Y128146D01*
X32877D01*
Y128052D01*
X32784D01*
Y127959D01*
X32690D01*
Y127866D01*
X32597D01*
Y127772D01*
X32504D01*
Y127679D01*
X32317D01*
Y127586D01*
X32224D01*
Y127493D01*
X32131D01*
Y127399D01*
X31944D01*
Y127306D01*
X31851D01*
Y127213D01*
X31664D01*
Y127119D01*
X31571D01*
Y127026D01*
X31384D01*
Y126933D01*
X31291D01*
Y126840D01*
X31105D01*
Y126746D01*
X30918D01*
Y126653D01*
X30731D01*
Y126560D01*
X30545D01*
Y126466D01*
X30358D01*
Y126373D01*
X30172D01*
Y126280D01*
X29985D01*
Y126187D01*
X29799D01*
Y126093D01*
X29519D01*
Y126000D01*
X29239D01*
Y125907D01*
X29052D01*
Y125440D01*
X29146D01*
Y125067D01*
X29239D01*
Y124787D01*
X29332D01*
Y124601D01*
X29425D01*
Y124321D01*
X29519D01*
Y124134D01*
X29612D01*
Y123948D01*
X29705D01*
Y123761D01*
X29799D01*
Y123575D01*
X29892D01*
Y123481D01*
Y123388D01*
X29985D01*
Y123295D01*
X30078D01*
Y123108D01*
X30172D01*
Y123015D01*
X30265D01*
Y122828D01*
X30358D01*
Y122735D01*
X30452D01*
Y122642D01*
X30545D01*
Y122549D01*
X30638D01*
Y122455D01*
X30731D01*
Y122362D01*
X30825D01*
Y122269D01*
X30918D01*
Y122175D01*
X31011D01*
Y122082D01*
X31105D01*
Y121989D01*
X31198D01*
Y121896D01*
X31291D01*
Y121802D01*
X31478D01*
Y121709D01*
X31571D01*
Y121616D01*
X31664D01*
Y121522D01*
X31851D01*
Y121429D01*
X32037D01*
Y121336D01*
X32224D01*
Y121243D01*
X32410D01*
Y121149D01*
X32597D01*
Y121056D01*
X32784D01*
Y120963D01*
X33063D01*
Y120869D01*
X33343D01*
Y120776D01*
X33716D01*
Y120683D01*
X34090D01*
Y120869D01*
X33996D01*
Y121522D01*
X33903D01*
Y123948D01*
X33996D01*
Y124694D01*
X34090D01*
Y125254D01*
X34183D01*
Y125720D01*
X34276D01*
Y126187D01*
X34369D01*
Y126466D01*
X34463D01*
Y126840D01*
X34556D01*
Y127213D01*
X34649D01*
Y127493D01*
X34743D01*
Y127772D01*
X34836D01*
Y128052D01*
X34929D01*
Y128332D01*
X35022D01*
Y128612D01*
X35116D01*
Y128892D01*
X35209D01*
Y129078D01*
X35302D01*
Y129358D01*
X35396D01*
Y129545D01*
X35489D01*
Y129825D01*
X35582D01*
Y130011D01*
X35675D01*
Y130198D01*
X35769D01*
Y130478D01*
X35862D01*
Y130664D01*
X35955D01*
Y130851D01*
X36049D01*
Y131037D01*
X36142D01*
Y131317D01*
X36235D01*
Y131504D01*
X36328D01*
Y131690D01*
X36422D01*
Y131877D01*
X36515D01*
Y132063D01*
X36608D01*
Y132250D01*
X36702D01*
Y132437D01*
X36795D01*
Y132623D01*
X36888D01*
Y132716D01*
X36981D01*
Y132903D01*
X37075D01*
Y133090D01*
X37168D01*
Y133276D01*
X37261D01*
Y133463D01*
X37355D01*
Y133649D01*
X37448D01*
Y133836D01*
X37541D01*
Y134022D01*
X37634D01*
Y134209D01*
X37728D01*
Y134302D01*
X37821D01*
Y134489D01*
X37914D01*
Y134675D01*
X38007D01*
Y134769D01*
X38101D01*
Y134955D01*
X38194D01*
Y135142D01*
X38287D01*
Y135235D01*
X38381D01*
Y135422D01*
X38474D01*
Y135608D01*
X38567D01*
Y135702D01*
X38660D01*
Y135888D01*
X38754D01*
Y136075D01*
X38847D01*
Y136168D01*
X38940D01*
Y136355D01*
X39034D01*
Y136448D01*
X39127D01*
Y136634D01*
X39220D01*
Y136821D01*
X39313D01*
Y136914D01*
X39407D01*
Y137101D01*
X39500D01*
Y137194D01*
X39593D01*
Y137381D01*
X39687D01*
Y137474D01*
X39780D01*
Y137660D01*
X39873D01*
Y137847D01*
X39780D01*
Y138034D01*
X39687D01*
Y138127D01*
X39593D01*
Y138220D01*
X39500D01*
Y138313D01*
X39407D01*
Y138407D01*
X39313D01*
Y138500D01*
X39220D01*
Y138593D01*
X39127D01*
Y138687D01*
X39034D01*
Y138780D01*
X38940D01*
Y138873D01*
X38847D01*
Y138966D01*
X38754D01*
Y139060D01*
X38660D01*
Y139153D01*
X38567D01*
Y139246D01*
X38474D01*
Y139340D01*
X38381D01*
Y139433D01*
X38287D01*
Y139526D01*
X38194D01*
Y139619D01*
X38101D01*
Y139713D01*
X38007D01*
Y139806D01*
X37914D01*
Y139899D01*
X37821D01*
Y139993D01*
X37728D01*
Y140086D01*
X37634D01*
Y140179D01*
X37541D01*
Y140272D01*
X37448D01*
Y140366D01*
X37355D01*
Y140459D01*
X37261D01*
Y140552D01*
X37168D01*
Y140646D01*
X37075D01*
Y140739D01*
X36981D01*
Y140832D01*
D02*
G37*
%LPD*%
G36*
X42298Y174601D02*
X42765D01*
Y174507D01*
X43045D01*
Y174414D01*
X43231D01*
Y174321D01*
X43325D01*
Y174228D01*
X43511D01*
Y174134D01*
X43604D01*
Y174041D01*
X43698D01*
Y173948D01*
X43791D01*
Y173855D01*
X43884D01*
Y173761D01*
X43978D01*
Y173575D01*
X44071D01*
Y173388D01*
X44164D01*
Y173202D01*
X44257D01*
Y173015D01*
X44351D01*
Y172362D01*
X44444D01*
Y172175D01*
X44351D01*
Y171709D01*
X44257D01*
Y171429D01*
X44164D01*
Y171243D01*
X44071D01*
Y171056D01*
X43978D01*
Y170963D01*
X43884D01*
Y170869D01*
X43791D01*
Y170776D01*
X43698D01*
Y170683D01*
X43604D01*
Y170590D01*
X43511D01*
Y170496D01*
X43418D01*
Y170403D01*
X43231D01*
Y170310D01*
X43045D01*
Y170216D01*
X42858D01*
Y170123D01*
X42485D01*
Y170030D01*
X41645D01*
Y170123D01*
X41366D01*
Y170216D01*
X41086D01*
Y170310D01*
X40899D01*
Y170403D01*
X40806D01*
Y170496D01*
X40619D01*
Y170590D01*
X40526D01*
Y170683D01*
X40433D01*
Y170776D01*
X40339D01*
Y170869D01*
X40246D01*
Y171056D01*
X40153D01*
Y171149D01*
X40060D01*
Y171336D01*
X39966D01*
Y171522D01*
X39873D01*
Y171896D01*
X39780D01*
Y172828D01*
X39873D01*
Y173108D01*
X39966D01*
Y173388D01*
X40060D01*
Y173481D01*
X40153D01*
Y173668D01*
X40246D01*
Y173761D01*
X40339D01*
Y173855D01*
X40433D01*
Y174041D01*
X40619D01*
Y174134D01*
X40713D01*
Y174228D01*
X40806D01*
Y174321D01*
X40992D01*
Y174414D01*
X41179D01*
Y174507D01*
X41459D01*
Y174601D01*
X41925D01*
Y174694D01*
X42298D01*
Y174601D01*
D02*
G37*
G36*
X42765Y160795D02*
X43045D01*
Y160702D01*
X43138D01*
Y160608D01*
X43231D01*
Y160515D01*
X43325D01*
Y160422D01*
X43418D01*
Y160235D01*
X43511D01*
Y159862D01*
X43604D01*
Y159769D01*
X43511D01*
Y159675D01*
Y159396D01*
X43418D01*
Y159209D01*
X43325D01*
Y159116D01*
X43231D01*
Y159022D01*
X43138D01*
Y158929D01*
X43045D01*
Y158836D01*
X42858D01*
Y158743D01*
X42112D01*
Y158836D01*
X41925D01*
Y158929D01*
X41739D01*
Y159116D01*
X41645D01*
Y159209D01*
X41552D01*
Y159302D01*
X41459D01*
Y159582D01*
X41366D01*
Y160049D01*
X41459D01*
Y160328D01*
X41552D01*
Y160422D01*
X41645D01*
Y160515D01*
X41739D01*
Y160608D01*
X41832D01*
Y160702D01*
X41925D01*
Y160795D01*
X42205D01*
Y160888D01*
X42765D01*
Y160795D01*
D02*
G37*
%LPC*%
G36*
X846919Y141943D02*
X845241D01*
Y136094D01*
X841399Y141943D01*
X842860D01*
X839805D01*
Y133057D01*
X841483D01*
Y138878D01*
X845298Y133057D01*
X843672D01*
X846919D01*
Y141943D01*
D02*
G37*
G36*
X854970Y142168D02*
X852693Y137688D01*
X852608Y137528D01*
X852543Y137388D01*
X852477Y137247D01*
X852411Y137125D01*
X852365Y137003D01*
X852318Y136900D01*
X852271Y136806D01*
X852243Y136722D01*
X852205Y136647D01*
X852187Y136581D01*
X852168Y136525D01*
X852149Y136488D01*
X852140Y136450D01*
X852130Y136422D01*
X852121Y136413D01*
Y136403D01*
X852084Y136253D01*
X852055Y136103D01*
X852027Y135963D01*
X852018Y135841D01*
X852009Y135729D01*
X851999Y135654D01*
Y135579D01*
X852009Y135382D01*
X852037Y135185D01*
X852074Y135007D01*
X852121Y134829D01*
X852187Y134660D01*
X852252Y134501D01*
X852327Y134351D01*
X852402Y134220D01*
X852468Y134098D01*
X852543Y133985D01*
X852608Y133892D01*
X852674Y133817D01*
X852721Y133751D01*
X852758Y133704D01*
X852786Y133676D01*
X852796Y133667D01*
X852946Y133517D01*
X853114Y133395D01*
X853274Y133282D01*
X853443Y133189D01*
X853611Y133104D01*
X853780Y133039D01*
X853939Y132982D01*
X854099Y132935D01*
X854239Y132898D01*
X854380Y132879D01*
X854502Y132861D01*
X854605Y132842D01*
X854689D01*
X854745Y132832D01*
X854801D01*
X855008Y132842D01*
X855214Y132870D01*
X855411Y132907D01*
X855589Y132954D01*
X855767Y133020D01*
X855926Y133085D01*
X856076Y133160D01*
X856207Y133236D01*
X856329Y133310D01*
X856442Y133385D01*
X856535Y133451D01*
X856620Y133517D01*
X856676Y133563D01*
X856723Y133601D01*
X856751Y133629D01*
X856760Y133638D01*
X856901Y133798D01*
X857032Y133957D01*
X857135Y134116D01*
X857229Y134285D01*
X857313Y134454D01*
X857379Y134613D01*
X857435Y134773D01*
X857473Y134923D01*
X857510Y135063D01*
X857529Y135194D01*
X857548Y135307D01*
X857567Y135400D01*
Y135485D01*
X857576Y135550D01*
Y133517D01*
Y135597D01*
X857567Y135822D01*
X857538Y136028D01*
X857501Y136235D01*
X857454Y136422D01*
X857388Y136600D01*
X857323Y136769D01*
X857248Y136919D01*
X857182Y137059D01*
X857107Y137181D01*
X857032Y137294D01*
X856967Y137388D01*
X856901Y137472D01*
X856854Y137528D01*
X856817Y137575D01*
X856788Y137603D01*
X856779Y137612D01*
X856629Y137753D01*
X856470Y137884D01*
X856301Y137987D01*
X856142Y138081D01*
X855983Y138166D01*
X855814Y138231D01*
X855664Y138287D01*
X855514Y138325D01*
X855373Y138362D01*
X855251Y138381D01*
X855139Y138400D01*
X855036Y138419D01*
X854961D01*
X854895Y138428D01*
X854848D01*
X856404Y141446D01*
X854970Y142168D01*
D02*
G37*
G36*
X832991Y141943D02*
X827424D01*
Y133057D01*
X830114D01*
X830292Y133067D01*
X830470Y133085D01*
X830630Y133104D01*
X830780Y133123D01*
X830920Y133151D01*
X831042Y133179D01*
X831154Y133207D01*
X831258Y133236D01*
X831342Y133264D01*
X831417Y133292D01*
X831482Y133310D01*
X831529Y133329D01*
X831567Y133348D01*
X831586Y133357D01*
X831595D01*
X831820Y133489D01*
X832017Y133629D01*
X832186Y133788D01*
X832326Y133929D01*
X832448Y134070D01*
X832532Y134173D01*
X832560Y134220D01*
X832579Y134248D01*
X832598Y134267D01*
Y134276D01*
X832729Y134510D01*
X832823Y134754D01*
X832898Y134979D01*
X832945Y135194D01*
X832963Y135288D01*
X832973Y135372D01*
X832982Y135447D01*
Y135522D01*
X832991Y135569D01*
Y133179D01*
Y135644D01*
X832973Y135925D01*
X832935Y136188D01*
X832870Y136413D01*
X832804Y136610D01*
X832767Y136694D01*
X832738Y136769D01*
X832701Y136834D01*
X832673Y136891D01*
X832654Y136938D01*
X832635Y136966D01*
X832617Y136985D01*
Y136994D01*
X832542Y137097D01*
X832457Y137200D01*
X832270Y137388D01*
X832082Y137547D01*
X831886Y137678D01*
X831708Y137791D01*
X831633Y137837D01*
X831567Y137875D01*
X831511Y137903D01*
X831473Y137922D01*
X831445Y137941D01*
X831436D01*
X831604Y138081D01*
X831745Y138212D01*
X831867Y138343D01*
X831961Y138465D01*
X832036Y138568D01*
X832092Y138653D01*
X832120Y138700D01*
X832129Y138718D01*
X832204Y138878D01*
X832260Y139037D01*
X832298Y139196D01*
X832326Y139337D01*
X832345Y139459D01*
X832354Y139562D01*
Y139600D01*
Y139628D01*
Y139637D01*
Y139646D01*
X832345Y139787D01*
X832335Y139928D01*
X832279Y140190D01*
X832204Y140415D01*
X832120Y140612D01*
X832073Y140696D01*
X832026Y140771D01*
X831989Y140837D01*
X831951Y140893D01*
X831923Y140940D01*
X831895Y140968D01*
X831886Y140987D01*
X831876Y140996D01*
X831689Y141193D01*
X831482Y141362D01*
X831267Y141493D01*
X831061Y141605D01*
X830883Y141690D01*
X830808Y141718D01*
X830733Y141736D01*
X830676Y141764D01*
X830639Y141774D01*
X830611Y141783D01*
X830602D01*
X830489Y141811D01*
X830367Y141840D01*
X830227Y141858D01*
X830086Y141877D01*
X829795Y141905D01*
X829505Y141924D01*
X829364Y141933D01*
X829233D01*
X829121Y141943D01*
X832991D01*
D02*
G37*
G36*
X838643D02*
X833732D01*
Y133057D01*
Y140274D01*
X835306D01*
Y133057D01*
X838643D01*
X837022D01*
Y140274D01*
X838643D01*
Y141943D01*
D02*
G37*
%LPD*%
G36*
X854942Y136806D02*
X855101Y136769D01*
X855233Y136713D01*
X855355Y136657D01*
X855448Y136591D01*
X855523Y136535D01*
X855561Y136497D01*
X855580Y136478D01*
X855692Y136347D01*
X855776Y136207D01*
X855833Y136057D01*
X855879Y135925D01*
X855898Y135804D01*
X855908Y135710D01*
X855917Y135672D01*
Y135644D01*
Y135635D01*
Y135625D01*
X855898Y135438D01*
X855861Y135269D01*
X855814Y135119D01*
X855748Y134998D01*
X855683Y134894D01*
X855636Y134819D01*
X855598Y134773D01*
X855580Y134754D01*
X855448Y134641D01*
X855308Y134557D01*
X855176Y134501D01*
X855045Y134463D01*
X854933Y134435D01*
X854848Y134426D01*
X854811Y134416D01*
X854764D01*
X854605Y134435D01*
X854455Y134473D01*
X854324Y134529D01*
X854211Y134594D01*
X854117Y134651D01*
X854042Y134707D01*
X854005Y134745D01*
X853986Y134763D01*
X853874Y134904D01*
X853799Y135044D01*
X853742Y135185D01*
X853696Y135326D01*
X853677Y135447D01*
X853668Y135541D01*
X853658Y135579D01*
Y135607D01*
Y135616D01*
Y135625D01*
X853668Y135813D01*
X853705Y135972D01*
X853761Y136122D01*
X853817Y136244D01*
X853874Y136347D01*
X853930Y136422D01*
X853967Y136460D01*
X853977Y136478D01*
X854099Y136591D01*
X854239Y136675D01*
X854370Y136741D01*
X854492Y136778D01*
X854595Y136806D01*
X854689Y136816D01*
X854745Y136825D01*
X854764D01*
X854942Y136806D01*
D02*
G37*
G36*
X829749Y140321D02*
X829927Y140293D01*
X830077Y140246D01*
X830208Y140209D01*
X830302Y140162D01*
X830367Y140115D01*
X830414Y140087D01*
X830423Y140077D01*
X830517Y139984D01*
X830592Y139871D01*
X830639Y139759D01*
X830676Y139656D01*
X830695Y139562D01*
X830714Y139487D01*
Y139440D01*
Y139431D01*
Y139421D01*
X830705Y139262D01*
X830667Y139122D01*
X830620Y139000D01*
X830564Y138897D01*
X830498Y138812D01*
X830452Y138756D01*
X830414Y138718D01*
X830405Y138709D01*
X830283Y138625D01*
X830133Y138559D01*
X829983Y138522D01*
X829833Y138484D01*
X829692Y138465D01*
X829580Y138456D01*
X829102D01*
Y140330D01*
X829542D01*
X829749Y140321D01*
D02*
G37*
G36*
X829805Y136928D02*
X829955Y136919D01*
X830105Y136891D01*
X830236Y136872D01*
X830348Y136844D01*
X830461Y136806D01*
X830555Y136778D01*
X830630Y136750D01*
X830705Y136713D01*
X830761Y136685D01*
X830808Y136666D01*
X830845Y136638D01*
X830873Y136628D01*
X830883Y136610D01*
X830892D01*
X830967Y136544D01*
X831042Y136478D01*
X831145Y136328D01*
X831229Y136179D01*
X831276Y136028D01*
X831314Y135897D01*
X831323Y135794D01*
X831333Y135757D01*
Y135729D01*
Y135710D01*
Y135701D01*
X831314Y135522D01*
X831276Y135363D01*
X831211Y135232D01*
X831145Y135129D01*
X831079Y135044D01*
X831014Y134979D01*
X830976Y134941D01*
X830958Y134932D01*
X830883Y134885D01*
X830789Y134848D01*
X830686Y134810D01*
X830583Y134782D01*
X830339Y134735D01*
X830105Y134707D01*
X829992Y134688D01*
X829880D01*
X829786Y134679D01*
X829692Y134670D01*
X829102D01*
Y136947D01*
X829636D01*
X829805Y136928D01*
D02*
G37*
%LPC*%
G36*
X616839Y142055D02*
X615162D01*
Y136207D01*
X611319Y142055D01*
X612781D01*
X609726D01*
Y133170D01*
X611403D01*
Y138990D01*
X615218Y133170D01*
X613592D01*
X616839D01*
Y142055D01*
D02*
G37*
G36*
X627655D02*
X623372D01*
X622294Y137116D01*
X623672Y136806D01*
X623766Y136910D01*
X623869Y136994D01*
X623953Y137059D01*
X624038Y137125D01*
X624103Y137172D01*
X624150Y137200D01*
X624188Y137219D01*
X624197Y137228D01*
X624300Y137275D01*
X624394Y137313D01*
X624487Y137331D01*
X624572Y137350D01*
X624637Y137359D01*
X624694Y137369D01*
X624834D01*
X624928Y137350D01*
X625106Y137303D01*
X625256Y137238D01*
X625387Y137172D01*
X625490Y137097D01*
X625565Y137031D01*
X625612Y136985D01*
X625631Y136975D01*
Y136966D01*
X625753Y136806D01*
X625847Y136647D01*
X625912Y136478D01*
X625950Y136319D01*
X625978Y136179D01*
X625987Y136113D01*
Y136066D01*
X625997Y136019D01*
Y135991D01*
Y135972D01*
Y135963D01*
X625978Y135738D01*
X625931Y135541D01*
X625875Y135363D01*
X625800Y135213D01*
X625725Y135091D01*
X625668Y135007D01*
X625622Y134951D01*
X625612Y134941D01*
X625603Y134932D01*
X625528Y134857D01*
X625453Y134801D01*
X625284Y134698D01*
X625125Y134632D01*
X624975Y134576D01*
X624844Y134548D01*
X624741Y134538D01*
X624703Y134529D01*
X624647D01*
X624506Y134538D01*
X624366Y134557D01*
X624244Y134594D01*
X624131Y134632D01*
X624047Y134670D01*
X623972Y134707D01*
X623935Y134726D01*
X623916Y134735D01*
X623794Y134829D01*
X623691Y134923D01*
X623597Y135035D01*
X623522Y135138D01*
X623466Y135232D01*
X623419Y135307D01*
X623391Y135354D01*
X623382Y135372D01*
X621601D01*
X621657Y135166D01*
X621723Y134969D01*
X621788Y134791D01*
X621873Y134613D01*
X621957Y134454D01*
X622051Y134313D01*
X622135Y134182D01*
X622229Y134060D01*
X622313Y133948D01*
X622388Y133854D01*
X622463Y133779D01*
X622529Y133714D01*
X622585Y133657D01*
X622622Y133620D01*
X622650Y133601D01*
X622660Y133592D01*
X622819Y133479D01*
X622979Y133376D01*
X623147Y133292D01*
X623307Y133217D01*
X623475Y133151D01*
X623635Y133104D01*
X623794Y133057D01*
X623944Y133029D01*
X624085Y133001D01*
X624216Y132982D01*
X624328Y132964D01*
X624431Y132954D01*
X624506Y132945D01*
X621601D01*
X627655D01*
Y136019D01*
X627646Y136253D01*
X627618Y136478D01*
X627580Y136694D01*
X627534Y136891D01*
X627468Y137078D01*
X627402Y137247D01*
X627327Y137406D01*
X627253Y137556D01*
X627178Y137688D01*
X627103Y137800D01*
X627037Y137894D01*
X626971Y137978D01*
X626924Y138044D01*
X626887Y138090D01*
X626859Y138119D01*
X626849Y138128D01*
X626699Y138278D01*
X626531Y138400D01*
X626371Y138512D01*
X626203Y138606D01*
X626034Y138681D01*
X625865Y138756D01*
X625706Y138803D01*
X625547Y138850D01*
X625406Y138887D01*
X625266Y138906D01*
X625153Y138925D01*
X625050Y138943D01*
X624956D01*
X624900Y138953D01*
X624741D01*
X624656Y138943D01*
X624619Y138934D01*
X624591D01*
X624572Y138925D01*
X624562D01*
X624459Y138906D01*
X624366Y138887D01*
X624328Y138878D01*
X624300D01*
X624281Y138868D01*
X624272D01*
X624637Y140490D01*
X627534D01*
Y142055D01*
X627655D01*
D02*
G37*
G36*
X602912D02*
X597345D01*
Y133170D01*
X600034D01*
X600213Y133179D01*
X600391Y133198D01*
X600550Y133217D01*
X600700Y133236D01*
X600840Y133264D01*
X600962Y133292D01*
X601075Y133320D01*
X601178Y133348D01*
X601262Y133376D01*
X601337Y133404D01*
X601403Y133423D01*
X601450Y133442D01*
X601487Y133460D01*
X601506Y133470D01*
X601515D01*
X601740Y133601D01*
X601937Y133742D01*
X602106Y133901D01*
X602246Y134042D01*
X602368Y134182D01*
X602453Y134285D01*
X602481Y134332D01*
X602499Y134360D01*
X602518Y134379D01*
Y134388D01*
X602649Y134623D01*
X602743Y134866D01*
X602818Y135091D01*
X602865Y135307D01*
X602884Y135400D01*
X602893Y135485D01*
X602902Y135560D01*
Y135635D01*
X602912Y135682D01*
Y133779D01*
Y135897D01*
Y135757D01*
X602893Y136038D01*
X602856Y136300D01*
X602790Y136525D01*
X602724Y136722D01*
X602687Y136806D01*
X602659Y136881D01*
X602621Y136947D01*
X602593Y137003D01*
X602574Y137050D01*
X602556Y137078D01*
X602537Y137097D01*
Y137106D01*
X602462Y137210D01*
X602378Y137313D01*
X602190Y137500D01*
X602003Y137659D01*
X601806Y137791D01*
X601628Y137903D01*
X601553Y137950D01*
X601487Y137987D01*
X601431Y138015D01*
X601394Y138034D01*
X601365Y138053D01*
X601356D01*
X601525Y138194D01*
X601665Y138325D01*
X601787Y138456D01*
X601881Y138578D01*
X601956Y138681D01*
X602012Y138765D01*
X602040Y138812D01*
X602049Y138831D01*
X602124Y138990D01*
X602181Y139150D01*
X602218Y139309D01*
X602246Y139450D01*
X602265Y139571D01*
X602275Y139674D01*
Y139712D01*
Y139740D01*
Y139749D01*
Y139759D01*
X602265Y139899D01*
X602256Y140040D01*
X602200Y140302D01*
X602124Y140527D01*
X602040Y140724D01*
X601993Y140808D01*
X601946Y140884D01*
X601909Y140949D01*
X601871Y141005D01*
X601843Y141052D01*
X601815Y141080D01*
X601806Y141099D01*
X601796Y141109D01*
X601609Y141305D01*
X601403Y141474D01*
X601187Y141605D01*
X600981Y141718D01*
X600803Y141802D01*
X600728Y141830D01*
X600653Y141849D01*
X600597Y141877D01*
X600559Y141886D01*
X600531Y141896D01*
X600522D01*
X600409Y141924D01*
X600288Y141952D01*
X600147Y141971D01*
X600006Y141989D01*
X599716Y142018D01*
X599425Y142036D01*
X599285Y142046D01*
X599153D01*
X599041Y142055D01*
X602912D01*
D02*
G37*
G36*
X608563D02*
X603652D01*
Y133170D01*
Y140387D01*
X605227D01*
Y133170D01*
X608563D01*
X606942D01*
Y140387D01*
X608563D01*
Y142055D01*
D02*
G37*
%LPD*%
G36*
X627655Y132945D02*
X624619D01*
X624853Y132954D01*
X625078Y132982D01*
X625284Y133029D01*
X625490Y133085D01*
X625678Y133151D01*
X625856Y133226D01*
X626015Y133301D01*
X626165Y133385D01*
X626297Y133470D01*
X626418Y133545D01*
X626521Y133620D01*
X626606Y133685D01*
X626671Y133742D01*
X626728Y133788D01*
X626756Y133817D01*
X626765Y133826D01*
X626924Y133995D01*
X627056Y134173D01*
X627178Y134360D01*
X627281Y134548D01*
X627365Y134726D01*
X627440Y134913D01*
X627496Y135091D01*
X627543Y135260D01*
X627580Y135419D01*
X627609Y135560D01*
X627627Y135691D01*
X627646Y135804D01*
Y135897D01*
X627655Y135963D01*
Y132945D01*
D02*
G37*
G36*
X599669Y140434D02*
X599847Y140406D01*
X599997Y140359D01*
X600128Y140321D01*
X600222Y140274D01*
X600288Y140227D01*
X600334Y140199D01*
X600344Y140190D01*
X600438Y140096D01*
X600512Y139984D01*
X600559Y139871D01*
X600597Y139768D01*
X600616Y139674D01*
X600634Y139600D01*
Y139553D01*
Y139543D01*
Y139534D01*
X600625Y139375D01*
X600587Y139234D01*
X600541Y139112D01*
X600484Y139009D01*
X600419Y138925D01*
X600372Y138868D01*
X600334Y138831D01*
X600325Y138821D01*
X600203Y138737D01*
X600053Y138672D01*
X599903Y138634D01*
X599753Y138597D01*
X599613Y138578D01*
X599500Y138568D01*
X599022D01*
Y140443D01*
X599463D01*
X599669Y140434D01*
D02*
G37*
G36*
X599725Y137041D02*
X599875Y137031D01*
X600025Y137003D01*
X600156Y136985D01*
X600269Y136956D01*
X600381Y136919D01*
X600475Y136891D01*
X600550Y136863D01*
X600625Y136825D01*
X600681Y136797D01*
X600728Y136778D01*
X600765Y136750D01*
X600794Y136741D01*
X600803Y136722D01*
X600812D01*
X600887Y136657D01*
X600962Y136591D01*
X601065Y136441D01*
X601150Y136291D01*
X601197Y136141D01*
X601234Y136010D01*
X601244Y135907D01*
X601253Y135869D01*
Y135841D01*
Y135822D01*
Y135813D01*
X601234Y135635D01*
X601197Y135476D01*
X601131Y135344D01*
X601065Y135241D01*
X601000Y135157D01*
X600934Y135091D01*
X600897Y135054D01*
X600878Y135044D01*
X600803Y134998D01*
X600709Y134960D01*
X600606Y134923D01*
X600503Y134894D01*
X600259Y134848D01*
X600025Y134819D01*
X599913Y134801D01*
X599800D01*
X599706Y134791D01*
X599613Y134782D01*
X599022D01*
Y137059D01*
X599556D01*
X599725Y137041D01*
D02*
G37*
%LPC*%
G36*
X386722Y141830D02*
X385045D01*
Y135982D01*
X381202Y141830D01*
X382664D01*
X379609D01*
Y132945D01*
X381286D01*
Y138765D01*
X385101Y132945D01*
X383475D01*
X386722D01*
Y141830D01*
D02*
G37*
G36*
X368924D02*
X367227D01*
Y132945D01*
X372795D01*
Y133123D01*
Y132945D01*
X369917D01*
X370095Y132954D01*
X370274Y132973D01*
X370433Y132992D01*
X370583Y133011D01*
X370723Y133039D01*
X370845Y133067D01*
X370958Y133095D01*
X371061Y133123D01*
X371145Y133151D01*
X371220Y133179D01*
X371286Y133198D01*
X371333Y133217D01*
X371370Y133236D01*
X371389Y133245D01*
X371398D01*
X371623Y133376D01*
X371820Y133517D01*
X371989Y133676D01*
X372129Y133817D01*
X372251Y133957D01*
X372335Y134060D01*
X372364Y134107D01*
X372382Y134135D01*
X372401Y134154D01*
Y134163D01*
X372532Y134398D01*
X372626Y134641D01*
X372701Y134866D01*
X372748Y135082D01*
X372767Y135176D01*
X372776Y135260D01*
X372785Y135335D01*
Y135410D01*
X372795Y135457D01*
Y133123D01*
Y135457D01*
Y135532D01*
X372776Y135813D01*
X372738Y136075D01*
X372673Y136300D01*
X372607Y136497D01*
X372570Y136581D01*
X372542Y136657D01*
X372504Y136722D01*
X372476Y136778D01*
X372457Y136825D01*
X372439Y136853D01*
X372420Y136872D01*
Y136881D01*
X372345Y136985D01*
X372260Y137088D01*
X372073Y137275D01*
X371885Y137434D01*
X371689Y137566D01*
X371511Y137678D01*
X371436Y137725D01*
X371370Y137762D01*
X371314Y137791D01*
X371276Y137809D01*
X371248Y137828D01*
X371239D01*
X371408Y137969D01*
X371548Y138100D01*
X371670Y138231D01*
X371764Y138353D01*
X371839Y138456D01*
X371895Y138540D01*
X371923Y138587D01*
X371932Y138606D01*
X372007Y138765D01*
X372064Y138925D01*
X372101Y139084D01*
X372129Y139225D01*
X372148Y139346D01*
X372157Y139450D01*
Y139487D01*
Y139515D01*
Y139524D01*
Y139534D01*
X372148Y139674D01*
X372139Y139815D01*
X372082Y140077D01*
X372007Y140302D01*
X371923Y140499D01*
X371876Y140584D01*
X371829Y140659D01*
X371792Y140724D01*
X371754Y140780D01*
X371726Y140827D01*
X371698Y140855D01*
X371689Y140874D01*
X371679Y140884D01*
X371492Y141080D01*
X371286Y141249D01*
X371070Y141380D01*
X370864Y141493D01*
X370686Y141577D01*
X370611Y141605D01*
X370536Y141624D01*
X370480Y141652D01*
X370442Y141661D01*
X370414Y141671D01*
X370405D01*
X370292Y141699D01*
X370170Y141727D01*
X370030Y141746D01*
X369889Y141764D01*
X369599Y141793D01*
X369308Y141811D01*
X369168Y141821D01*
X369036D01*
X368924Y141830D01*
D02*
G37*
G36*
X397773Y142055D02*
X391446D01*
X395298D01*
X391446Y136328D01*
Y132945D01*
Y134773D01*
X395326D01*
Y132945D01*
X391446D01*
X396985D01*
Y134773D01*
X397773D01*
Y136338D01*
X396985D01*
Y142055D01*
X397773D01*
D02*
G37*
G36*
X378446Y141830D02*
X373535D01*
Y140162D01*
X375110D01*
Y132945D01*
X378446D01*
X376825D01*
Y140162D01*
X378446D01*
Y141830D01*
D02*
G37*
%LPD*%
G36*
X369552Y140209D02*
X369730Y140181D01*
X369880Y140134D01*
X370011Y140096D01*
X370105Y140049D01*
X370170Y140002D01*
X370217Y139974D01*
X370227Y139965D01*
X370320Y139871D01*
X370395Y139759D01*
X370442Y139646D01*
X370480Y139543D01*
X370498Y139450D01*
X370517Y139375D01*
Y139328D01*
Y139318D01*
Y139309D01*
X370508Y139150D01*
X370470Y139009D01*
X370423Y138887D01*
X370367Y138784D01*
X370302Y138700D01*
X370255Y138644D01*
X370217Y138606D01*
X370208Y138597D01*
X370086Y138512D01*
X369936Y138447D01*
X369786Y138409D01*
X369636Y138372D01*
X369496Y138353D01*
X369383Y138343D01*
X368905D01*
Y140218D01*
X369346D01*
X369552Y140209D01*
D02*
G37*
G36*
X369608Y136816D02*
X369758Y136806D01*
X369908Y136778D01*
X370039Y136760D01*
X370152Y136732D01*
X370264Y136694D01*
X370358Y136666D01*
X370433Y136638D01*
X370508Y136600D01*
X370564Y136572D01*
X370611Y136553D01*
X370648Y136525D01*
X370676Y136516D01*
X370686Y136497D01*
X370695D01*
X370770Y136432D01*
X370845Y136366D01*
X370948Y136216D01*
X371033Y136066D01*
X371079Y135916D01*
X371117Y135785D01*
X371126Y135682D01*
X371136Y135644D01*
Y135616D01*
Y135597D01*
Y135588D01*
X371117Y135410D01*
X371079Y135251D01*
X371014Y135119D01*
X370948Y135016D01*
X370883Y134932D01*
X370817Y134866D01*
X370780Y134829D01*
X370761Y134819D01*
X370686Y134773D01*
X370592Y134735D01*
X370489Y134698D01*
X370386Y134670D01*
X370142Y134623D01*
X369908Y134594D01*
X369795Y134576D01*
X369683D01*
X369589Y134566D01*
X369496Y134557D01*
X368905D01*
Y136834D01*
X369439D01*
X369608Y136816D01*
D02*
G37*
G36*
X395326Y136338D02*
X393293D01*
X395326Y139309D01*
Y136338D01*
D02*
G37*
%LPC*%
G36*
X141943Y317730D02*
X133057D01*
Y315040D01*
X133067Y314862D01*
X133085Y314684D01*
X133104Y314525D01*
X133123Y314375D01*
X133151Y314234D01*
X133179Y314113D01*
X133207Y314000D01*
X133236Y313897D01*
X133264Y313813D01*
X133292Y313738D01*
X133310Y313672D01*
X133329Y313625D01*
X133348Y313588D01*
X133357Y313569D01*
Y313560D01*
X133489Y313335D01*
X133629Y313138D01*
X133788Y312969D01*
X133929Y312829D01*
X134070Y312707D01*
X134173Y312622D01*
X134220Y312594D01*
X134248Y312575D01*
X134267Y312557D01*
X134276D01*
X134510Y312425D01*
X134754Y312332D01*
X134979Y312257D01*
X135194Y312210D01*
X135288Y312191D01*
X135372Y312182D01*
X135447Y312173D01*
X135522D01*
X135569Y312163D01*
X133057D01*
X141943D01*
Y317730D01*
D02*
G37*
G36*
Y311423D02*
X140274D01*
Y309848D01*
X133057D01*
Y308133D01*
X140274D01*
Y306511D01*
X133057D01*
X141943D01*
Y311423D01*
D02*
G37*
G36*
Y305349D02*
X133057D01*
Y301792D01*
Y303671D01*
X138878D01*
X133057Y299857D01*
Y298235D01*
X141943D01*
Y305349D01*
D02*
G37*
G36*
X135747Y293399D02*
D01*
X135504Y293380D01*
X135269Y293343D01*
X135054Y293287D01*
X134848Y293230D01*
X134651Y293155D01*
X134482Y293081D01*
X134313Y293006D01*
X134173Y292921D01*
X134042Y292846D01*
X133929Y292771D01*
X133835Y292696D01*
X133751Y292640D01*
X133695Y292584D01*
X133648Y292546D01*
X133620Y292518D01*
X133610Y292509D01*
X133470Y292349D01*
X133357Y292181D01*
X133254Y292012D01*
X133160Y291834D01*
X133085Y291656D01*
X133020Y291487D01*
X132973Y291309D01*
X132926Y291150D01*
X132898Y290990D01*
X132870Y290850D01*
X132861Y290728D01*
X132842Y290616D01*
Y290522D01*
X132832Y290456D01*
Y290400D01*
X132842Y290147D01*
X132870Y289913D01*
X132907Y289688D01*
X132964Y289472D01*
X133020Y289275D01*
X133095Y289097D01*
X133170Y288928D01*
X133245Y288769D01*
X133320Y288629D01*
X133395Y288507D01*
X133470Y288404D01*
X133526Y288319D01*
X133582Y288254D01*
X133620Y288197D01*
X133648Y288169D01*
X133657Y288160D01*
X133817Y288001D01*
X133985Y287869D01*
X134154Y287747D01*
X134323Y287644D01*
X134501Y287560D01*
X134660Y287485D01*
X134829Y287429D01*
X134979Y287382D01*
X135129Y287344D01*
X135260Y287316D01*
X135382Y287298D01*
X135485Y287279D01*
X135569D01*
X135625Y287269D01*
X132832D01*
X135682D01*
X135832Y287279D01*
X135972Y287288D01*
X136244Y287344D01*
X136488Y287410D01*
X136600Y287457D01*
X136694Y287494D01*
X136788Y287541D01*
X136863Y287579D01*
X136938Y287626D01*
X136994Y287654D01*
X137041Y287682D01*
X137069Y287710D01*
X137088Y287719D01*
X137097Y287729D01*
X137313Y287916D01*
X137491Y288122D01*
X137631Y288329D01*
X137744Y288535D01*
X137837Y288713D01*
X137865Y288797D01*
X137894Y288863D01*
X137912Y288919D01*
X137931Y288957D01*
X137941Y288985D01*
Y288994D01*
X138062Y288778D01*
X138194Y288582D01*
X138325Y288422D01*
X138456Y288291D01*
X138568Y288188D01*
X138653Y288113D01*
X138690Y288094D01*
X138718Y288076D01*
X138728Y288057D01*
X138737D01*
X138925Y287944D01*
X139112Y287869D01*
X139290Y287813D01*
X139459Y287766D01*
X139600Y287747D01*
X139665Y287738D01*
X139712D01*
X139759Y287729D01*
X139787D01*
X139806D01*
X139815D01*
X139993Y287738D01*
X140162Y287757D01*
X140321Y287794D01*
X140480Y287841D01*
X140621Y287897D01*
X140762Y287963D01*
X140884Y288029D01*
X140996Y288094D01*
X141099Y288169D01*
X141193Y288235D01*
X141277Y288300D01*
X141343Y288357D01*
X141399Y288404D01*
X141437Y288441D01*
X141455Y288460D01*
X141465Y288469D01*
X141587Y288610D01*
X141699Y288760D01*
X141793Y288910D01*
X141868Y289069D01*
X141943Y289219D01*
X141999Y289378D01*
X142046Y289519D01*
X142083Y289669D01*
X142111Y289800D01*
X142130Y289922D01*
X142149Y290025D01*
X142158Y290119D01*
X142168Y290203D01*
Y290306D01*
X142158Y290531D01*
X142130Y290747D01*
X142093Y290953D01*
X142036Y291140D01*
X141971Y291318D01*
X141905Y291487D01*
X141830Y291646D01*
X141755Y291787D01*
X141671Y291909D01*
X141596Y292021D01*
X141530Y292115D01*
X141465Y292190D01*
X141408Y292256D01*
X141371Y292303D01*
X141343Y292331D01*
X141333Y292340D01*
X141221Y292443D01*
X141090Y292537D01*
X140968Y292621D01*
X140837Y292696D01*
X140574Y292818D01*
X140321Y292912D01*
X140209Y292940D01*
X140096Y292977D01*
X140002Y292996D01*
X139918Y293015D01*
X139853Y293024D01*
X139806Y293034D01*
X139768Y293043D01*
X139759D01*
Y291422D01*
X139881Y291375D01*
X139993Y291318D01*
X140087Y291253D01*
X140171Y291178D01*
X140237Y291122D01*
X140284Y291065D01*
X140312Y291028D01*
X140321Y291019D01*
X140396Y290906D01*
X140452Y290784D01*
X140490Y290672D01*
X140518Y290569D01*
X140537Y290484D01*
X140546Y290419D01*
Y290353D01*
X140537Y290203D01*
X140509Y290072D01*
X140471Y289959D01*
X140424Y289866D01*
X140377Y289791D01*
X140340Y289734D01*
X140312Y289697D01*
X140302Y289688D01*
X140209Y289603D01*
X140106Y289538D01*
X140002Y289491D01*
X139909Y289453D01*
X139824Y289435D01*
X139759Y289425D01*
X139721D01*
X139703D01*
X139600Y289435D01*
X139496Y289453D01*
X139412Y289481D01*
X139328Y289510D01*
X139262Y289538D01*
X139215Y289566D01*
X139178Y289585D01*
X139168Y289594D01*
X139084Y289660D01*
X139009Y289734D01*
X138943Y289819D01*
X138887Y289894D01*
X138840Y289959D01*
X138812Y290016D01*
X138793Y290053D01*
X138784Y290063D01*
X138737Y290184D01*
X138700Y290334D01*
X138662Y290484D01*
X138634Y290625D01*
X138615Y290765D01*
X138606Y290869D01*
Y290915D01*
X138597Y290944D01*
Y290972D01*
X137144D01*
X137135Y290794D01*
X137116Y290625D01*
X137097Y290466D01*
X137069Y290325D01*
X137031Y290184D01*
X136994Y290063D01*
X136956Y289950D01*
X136919Y289847D01*
X136881Y289763D01*
X136834Y289678D01*
X136806Y289613D01*
X136769Y289556D01*
X136741Y289519D01*
X136722Y289491D01*
X136713Y289472D01*
X136703Y289463D01*
X136628Y289369D01*
X136544Y289285D01*
X136460Y289219D01*
X136375Y289163D01*
X136207Y289069D01*
X136047Y289003D01*
X135907Y288966D01*
X135841Y288957D01*
X135794Y288947D01*
X135747Y288938D01*
X135719D01*
X135701D01*
X135691D01*
X135494Y288957D01*
X135316Y289003D01*
X135157Y289060D01*
X135026Y289135D01*
X134913Y289210D01*
X134829Y289266D01*
X134782Y289313D01*
X134763Y289331D01*
X134641Y289481D01*
X134548Y289650D01*
X134482Y289809D01*
X134435Y289959D01*
X134407Y290100D01*
X134398Y290203D01*
X134388Y290250D01*
Y290306D01*
X134407Y290512D01*
X134445Y290690D01*
X134491Y290859D01*
X134557Y290990D01*
X134613Y291103D01*
X134670Y291187D01*
X134707Y291234D01*
X134716Y291253D01*
X134857Y291375D01*
X135016Y291478D01*
X135194Y291562D01*
X135363Y291628D01*
X135513Y291665D01*
X135579Y291684D01*
X135635Y291703D01*
X135682Y291712D01*
X135719D01*
X135738Y291721D01*
X135747D01*
Y293399D01*
D02*
G37*
%LPD*%
G36*
X140330Y315612D02*
X140321Y315406D01*
X140293Y315228D01*
X140246Y315078D01*
X140209Y314947D01*
X140162Y314853D01*
X140115Y314787D01*
X140087Y314741D01*
X140077Y314731D01*
X139984Y314638D01*
X139871Y314562D01*
X139759Y314516D01*
X139656Y314478D01*
X139562Y314459D01*
X139487Y314441D01*
X139440D01*
X139431D01*
X139421D01*
X139262Y314450D01*
X139122Y314487D01*
X139000Y314534D01*
X138897Y314591D01*
X138812Y314656D01*
X138756Y314703D01*
X138718Y314741D01*
X138709Y314750D01*
X138625Y314872D01*
X138559Y315022D01*
X138522Y315172D01*
X138484Y315322D01*
X138465Y315462D01*
X138456Y315575D01*
Y316053D01*
X140330D01*
Y315612D01*
D02*
G37*
G36*
X136947Y315518D02*
X136928Y315350D01*
X136919Y315200D01*
X136891Y315050D01*
X136872Y314919D01*
X136844Y314806D01*
X136806Y314694D01*
X136778Y314600D01*
X136750Y314525D01*
X136713Y314450D01*
X136685Y314394D01*
X136666Y314347D01*
X136638Y314309D01*
X136628Y314281D01*
X136610Y314272D01*
Y314263D01*
X136544Y314188D01*
X136478Y314113D01*
X136328Y314009D01*
X136179Y313925D01*
X136028Y313878D01*
X135897Y313841D01*
X135794Y313831D01*
X135757Y313822D01*
X135729D01*
X135710D01*
X135701D01*
X135522Y313841D01*
X135363Y313878D01*
X135232Y313944D01*
X135129Y314009D01*
X135044Y314075D01*
X134979Y314141D01*
X134941Y314178D01*
X134932Y314197D01*
X134885Y314272D01*
X134848Y314366D01*
X134810Y314469D01*
X134782Y314572D01*
X134735Y314816D01*
X134707Y315050D01*
X134688Y315162D01*
Y315275D01*
X134679Y315368D01*
X134670Y315462D01*
Y316053D01*
X136947D01*
Y315518D01*
D02*
G37*
G36*
X141943Y312163D02*
X135644D01*
X135925Y312182D01*
X136188Y312219D01*
X136413Y312285D01*
X136610Y312351D01*
X136694Y312388D01*
X136769Y312416D01*
X136834Y312454D01*
X136891Y312482D01*
X136938Y312500D01*
X136966Y312519D01*
X136985Y312538D01*
X136994D01*
X137097Y312613D01*
X137200Y312697D01*
X137388Y312885D01*
X137547Y313072D01*
X137678Y313269D01*
X137791Y313447D01*
X137837Y313522D01*
X137875Y313588D01*
X137903Y313644D01*
X137922Y313682D01*
X137941Y313710D01*
Y313719D01*
X138081Y313550D01*
X138212Y313410D01*
X138343Y313288D01*
X138465Y313194D01*
X138568Y313119D01*
X138653Y313063D01*
X138700Y313035D01*
X138718Y313025D01*
X138878Y312950D01*
X139037Y312894D01*
X139196Y312857D01*
X139337Y312829D01*
X139459Y312810D01*
X139562Y312800D01*
X139600D01*
X139628D01*
X139637D01*
X139646D01*
X139787Y312810D01*
X139928Y312819D01*
X140190Y312875D01*
X140415Y312950D01*
X140612Y313035D01*
X140696Y313082D01*
X140771Y313129D01*
X140837Y313166D01*
X140893Y313204D01*
X140940Y313232D01*
X140968Y313260D01*
X140987Y313269D01*
X140996Y313278D01*
X141193Y313466D01*
X141362Y313672D01*
X141493Y313888D01*
X141605Y314094D01*
X141690Y314272D01*
X141718Y314347D01*
X141736Y314422D01*
X141764Y314478D01*
X141774Y314516D01*
X141783Y314544D01*
Y314553D01*
X141811Y314666D01*
X141840Y314787D01*
X141858Y314928D01*
X141877Y315069D01*
X141905Y315359D01*
X141924Y315650D01*
X141933Y315790D01*
Y315921D01*
X141943Y316034D01*
Y312163D01*
D02*
G37*
G36*
Y299913D02*
X136094D01*
X141943Y303756D01*
Y299913D01*
D02*
G37*
%LPC*%
G36*
X141830Y477693D02*
X132945D01*
Y475003D01*
X132954Y474825D01*
X132973Y474647D01*
X132992Y474487D01*
X133011Y474338D01*
X133039Y474197D01*
X133067Y474075D01*
X133095Y473963D01*
X133123Y473859D01*
X133151Y473775D01*
X133179Y473700D01*
X133198Y473635D01*
X133217Y473588D01*
X133236Y473550D01*
X133245Y473531D01*
Y473522D01*
X133376Y473297D01*
X133517Y473100D01*
X133676Y472932D01*
X133817Y472791D01*
X133957Y472669D01*
X134060Y472585D01*
X134107Y472557D01*
X134135Y472538D01*
X134154Y472519D01*
X134163D01*
X134398Y472388D01*
X134641Y472294D01*
X134866Y472219D01*
X135082Y472173D01*
X135176Y472154D01*
X135260Y472144D01*
X135335Y472135D01*
X135410D01*
X135457Y472126D01*
X141830D01*
Y477693D01*
D02*
G37*
G36*
Y471385D02*
X132945D01*
X140162D01*
Y469811D01*
X132945D01*
Y468095D01*
X140162D01*
Y466474D01*
X141830D01*
Y471385D01*
D02*
G37*
G36*
Y465312D02*
X132945D01*
Y461755D01*
Y463634D01*
X138765D01*
X132945Y459819D01*
Y458198D01*
X141830D01*
Y465312D01*
D02*
G37*
G36*
X142055Y453474D02*
D01*
Y450184D01*
X142046Y450428D01*
X142018Y450653D01*
X141980Y450868D01*
X141924Y451075D01*
X141858Y451262D01*
X141793Y451440D01*
X141718Y451600D01*
X141643Y451750D01*
X141558Y451881D01*
X141483Y451993D01*
X141418Y452096D01*
X141352Y452181D01*
X141296Y452246D01*
X141258Y452293D01*
X141230Y452321D01*
X141221Y452331D01*
X141062Y452481D01*
X140884Y452612D01*
X140705Y452724D01*
X140518Y452827D01*
X140330Y452912D01*
X140143Y452977D01*
X139956Y453043D01*
X139787Y453090D01*
X139618Y453137D01*
X139459Y453165D01*
X139318Y453193D01*
X139196Y453202D01*
X139103Y453221D01*
X139028D01*
X138981Y453230D01*
X138962D01*
Y451581D01*
X139206Y451562D01*
X139431Y451515D01*
X139618Y451450D01*
X139768Y451384D01*
X139899Y451309D01*
X139984Y451253D01*
X140040Y451215D01*
X140059Y451197D01*
X140134Y451122D01*
X140199Y451056D01*
X140293Y450897D01*
X140368Y450747D01*
X140424Y450606D01*
X140452Y450475D01*
X140462Y450381D01*
X140471Y450344D01*
Y450287D01*
X140452Y450100D01*
X140415Y449922D01*
X140368Y449772D01*
X140302Y449650D01*
X140237Y449547D01*
X140190Y449472D01*
X140153Y449425D01*
X140134Y449406D01*
X140002Y449294D01*
X139862Y449210D01*
X139712Y449144D01*
X139581Y449106D01*
X139459Y449078D01*
X139365Y449069D01*
X139328Y449060D01*
X139299D01*
X139290D01*
X139281D01*
X139093Y449078D01*
X138897Y449116D01*
X138709Y449163D01*
X138540Y449228D01*
X138390Y449294D01*
X138334Y449322D01*
X138278Y449341D01*
X138231Y449369D01*
X138203Y449378D01*
X138184Y449397D01*
X138175D01*
X138053Y449463D01*
X137931Y449547D01*
X137800Y449641D01*
X137669Y449744D01*
X137397Y449959D01*
X137135Y450184D01*
X137013Y450297D01*
X136910Y450391D01*
X136806Y450484D01*
X136722Y450569D01*
X136647Y450634D01*
X136600Y450681D01*
X136563Y450719D01*
X136553Y450728D01*
X133751Y453474D01*
X142055D01*
X132945D01*
Y447307D01*
X142055D01*
Y453474D01*
D02*
G37*
%LPD*%
G36*
X140218Y475575D02*
X140209Y475368D01*
X140181Y475190D01*
X140134Y475041D01*
X140096Y474909D01*
X140049Y474815D01*
X140002Y474750D01*
X139974Y474703D01*
X139965Y474694D01*
X139871Y474600D01*
X139759Y474525D01*
X139646Y474478D01*
X139543Y474441D01*
X139450Y474422D01*
X139375Y474403D01*
X139328D01*
X139318D01*
X139309D01*
X139150Y474412D01*
X139009Y474450D01*
X138887Y474497D01*
X138784Y474553D01*
X138700Y474619D01*
X138644Y474666D01*
X138606Y474703D01*
X138597Y474712D01*
X138512Y474834D01*
X138447Y474984D01*
X138409Y475134D01*
X138372Y475284D01*
X138353Y475425D01*
X138343Y475537D01*
Y476015D01*
X140218D01*
Y475575D01*
D02*
G37*
G36*
X136834Y475481D02*
X136816Y475312D01*
X136806Y475162D01*
X136778Y475012D01*
X136760Y474881D01*
X136732Y474769D01*
X136694Y474656D01*
X136666Y474562D01*
X136638Y474487D01*
X136600Y474412D01*
X136572Y474356D01*
X136553Y474309D01*
X136525Y474272D01*
X136516Y474244D01*
X136497Y474234D01*
Y474225D01*
X136432Y474150D01*
X136366Y474075D01*
X136216Y473972D01*
X136066Y473888D01*
X135916Y473841D01*
X135785Y473803D01*
X135682Y473794D01*
X135644Y473784D01*
X135616D01*
X135597D01*
X135588D01*
X135410Y473803D01*
X135251Y473841D01*
X135119Y473906D01*
X135016Y473972D01*
X134932Y474038D01*
X134866Y474103D01*
X134829Y474141D01*
X134819Y474160D01*
X134773Y474234D01*
X134735Y474328D01*
X134698Y474431D01*
X134670Y474534D01*
X134623Y474778D01*
X134594Y475012D01*
X134576Y475125D01*
Y475237D01*
X134566Y475331D01*
X134557Y475425D01*
Y476015D01*
X136834D01*
Y475481D01*
D02*
G37*
G36*
X141830Y472126D02*
X135532D01*
X135813Y472144D01*
X136075Y472182D01*
X136300Y472247D01*
X136497Y472313D01*
X136581Y472351D01*
X136657Y472379D01*
X136722Y472416D01*
X136778Y472444D01*
X136825Y472463D01*
X136853Y472482D01*
X136872Y472500D01*
X136881D01*
X136985Y472575D01*
X137088Y472660D01*
X137275Y472847D01*
X137434Y473035D01*
X137566Y473232D01*
X137678Y473410D01*
X137725Y473485D01*
X137762Y473550D01*
X137791Y473606D01*
X137809Y473644D01*
X137828Y473672D01*
Y473681D01*
X137969Y473513D01*
X138100Y473372D01*
X138231Y473250D01*
X138353Y473157D01*
X138456Y473082D01*
X138540Y473025D01*
X138587Y472997D01*
X138606Y472988D01*
X138765Y472913D01*
X138925Y472857D01*
X139084Y472819D01*
X139225Y472791D01*
X139346Y472772D01*
X139450Y472763D01*
X139487D01*
X139515D01*
X139524D01*
X139534D01*
X139674Y472772D01*
X139815Y472782D01*
X140077Y472838D01*
X140302Y472913D01*
X140499Y472997D01*
X140584Y473044D01*
X140659Y473091D01*
X140724Y473129D01*
X140780Y473166D01*
X140827Y473194D01*
X140855Y473222D01*
X140874Y473232D01*
X140884Y473241D01*
X141080Y473428D01*
X141249Y473635D01*
X141380Y473850D01*
X141493Y474056D01*
X141577Y474234D01*
X141605Y474309D01*
X141624Y474384D01*
X141652Y474441D01*
X141661Y474478D01*
X141671Y474506D01*
Y474516D01*
X141699Y474628D01*
X141727Y474750D01*
X141746Y474891D01*
X141764Y475031D01*
X141793Y475322D01*
X141811Y475612D01*
X141821Y475753D01*
Y475884D01*
X141830Y475997D01*
Y472126D01*
D02*
G37*
G36*
Y459876D02*
X135982D01*
X141830Y463718D01*
Y459876D01*
D02*
G37*
G36*
X135560Y449491D02*
X135785Y449275D01*
X136010Y449078D01*
X136216Y448891D01*
X136422Y448722D01*
X136610Y448572D01*
X136778Y448441D01*
X136947Y448319D01*
X137097Y448216D01*
X137238Y448122D01*
X137350Y448047D01*
X137463Y447982D01*
X137547Y447925D01*
X137612Y447888D01*
X137669Y447860D01*
X137697Y447851D01*
X137706Y447841D01*
X137875Y447757D01*
X138044Y447691D01*
X138203Y447626D01*
X138362Y447579D01*
X138653Y447494D01*
X138784Y447466D01*
X138906Y447438D01*
X139018Y447419D01*
X139112Y447410D01*
X139206Y447391D01*
X139271D01*
X139337Y447382D01*
X139375D01*
X139403D01*
X139412D01*
X139656Y447401D01*
X139899Y447438D01*
X140124Y447504D01*
X140321Y447569D01*
X140406Y447607D01*
X140480Y447635D01*
X140555Y447673D01*
X140612Y447701D01*
X140659Y447719D01*
X140696Y447738D01*
X140715Y447757D01*
X140724D01*
X140949Y447907D01*
X141155Y448066D01*
X141324Y448235D01*
X141455Y448394D01*
X141568Y448535D01*
X141615Y448591D01*
X141643Y448647D01*
X141671Y448694D01*
X141690Y448722D01*
X141708Y448741D01*
Y448750D01*
X141821Y448985D01*
X141905Y449238D01*
X141971Y449472D01*
X142008Y449697D01*
X142027Y449800D01*
X142036Y449894D01*
X142046Y449978D01*
Y450044D01*
X142055Y450109D01*
Y447307D01*
X134510D01*
Y450494D01*
X135560Y449491D01*
D02*
G37*
%LPC*%
G36*
X141943Y636765D02*
X133057D01*
Y634075D01*
X133067Y633897D01*
X133085Y633719D01*
X133104Y633560D01*
X133123Y633410D01*
X133151Y633269D01*
X133179Y633147D01*
X133207Y633035D01*
X133236Y632932D01*
X133264Y632847D01*
X133292Y632772D01*
X133310Y632707D01*
X133329Y632660D01*
X133348Y632622D01*
X133357Y632604D01*
Y632594D01*
X133489Y632369D01*
X133629Y632173D01*
X133788Y632004D01*
X133929Y631863D01*
X134070Y631741D01*
X134173Y631657D01*
X134220Y631629D01*
X134248Y631610D01*
X134267Y631591D01*
X134276D01*
X134510Y631460D01*
X134754Y631366D01*
X134979Y631291D01*
X135194Y631245D01*
X135288Y631226D01*
X135372Y631217D01*
X135447Y631207D01*
X135522D01*
X135569Y631198D01*
X141943D01*
Y636765D01*
D02*
G37*
G36*
Y630457D02*
X133057D01*
X140274D01*
Y628883D01*
X133057D01*
Y627168D01*
X140274D01*
Y625546D01*
X141943D01*
Y630457D01*
D02*
G37*
G36*
Y624384D02*
X133057D01*
Y620827D01*
Y622706D01*
X138878D01*
X133057Y618891D01*
Y617270D01*
X141943D01*
Y624384D01*
D02*
G37*
G36*
Y611740D02*
D01*
Y610765D01*
X140349Y611740D01*
D01*
Y609912D01*
X133057D01*
Y608235D01*
X141943D01*
Y611740D01*
D02*
G37*
%LPD*%
G36*
X140330Y634647D02*
X140321Y634441D01*
X140293Y634263D01*
X140246Y634113D01*
X140209Y633981D01*
X140162Y633888D01*
X140115Y633822D01*
X140087Y633775D01*
X140077Y633766D01*
X139984Y633672D01*
X139871Y633597D01*
X139759Y633550D01*
X139656Y633513D01*
X139562Y633494D01*
X139487Y633475D01*
X139440D01*
X139431D01*
X139421D01*
X139262Y633485D01*
X139122Y633522D01*
X139000Y633569D01*
X138897Y633625D01*
X138812Y633691D01*
X138756Y633738D01*
X138718Y633775D01*
X138709Y633785D01*
X138625Y633906D01*
X138559Y634056D01*
X138522Y634206D01*
X138484Y634356D01*
X138465Y634497D01*
X138456Y634609D01*
Y635087D01*
X140330D01*
Y634647D01*
D02*
G37*
G36*
X136947Y634553D02*
X136928Y634384D01*
X136919Y634234D01*
X136891Y634085D01*
X136872Y633953D01*
X136844Y633841D01*
X136806Y633728D01*
X136778Y633635D01*
X136750Y633560D01*
X136713Y633485D01*
X136685Y633428D01*
X136666Y633382D01*
X136638Y633344D01*
X136628Y633316D01*
X136610Y633307D01*
Y633297D01*
X136544Y633222D01*
X136478Y633147D01*
X136328Y633044D01*
X136179Y632960D01*
X136028Y632913D01*
X135897Y632875D01*
X135794Y632866D01*
X135757Y632857D01*
X135729D01*
X135710D01*
X135701D01*
X135522Y632875D01*
X135363Y632913D01*
X135232Y632979D01*
X135129Y633044D01*
X135044Y633110D01*
X134979Y633175D01*
X134941Y633213D01*
X134932Y633232D01*
X134885Y633307D01*
X134848Y633400D01*
X134810Y633503D01*
X134782Y633606D01*
X134735Y633850D01*
X134707Y634085D01*
X134688Y634197D01*
Y634309D01*
X134679Y634403D01*
X134670Y634497D01*
Y635087D01*
X136947D01*
Y634553D01*
D02*
G37*
G36*
X141943Y631198D02*
X135644D01*
X135925Y631217D01*
X136188Y631254D01*
X136413Y631320D01*
X136610Y631385D01*
X136694Y631423D01*
X136769Y631451D01*
X136834Y631488D01*
X136891Y631516D01*
X136938Y631535D01*
X136966Y631554D01*
X136985Y631573D01*
X136994D01*
X137097Y631648D01*
X137200Y631732D01*
X137388Y631919D01*
X137547Y632107D01*
X137678Y632304D01*
X137791Y632482D01*
X137837Y632557D01*
X137875Y632622D01*
X137903Y632679D01*
X137922Y632716D01*
X137941Y632744D01*
Y632754D01*
X138081Y632585D01*
X138212Y632444D01*
X138343Y632322D01*
X138465Y632229D01*
X138568Y632154D01*
X138653Y632098D01*
X138700Y632069D01*
X138718Y632060D01*
X138878Y631985D01*
X139037Y631929D01*
X139196Y631891D01*
X139337Y631863D01*
X139459Y631844D01*
X139562Y631835D01*
X139600D01*
X139628D01*
X139637D01*
X139646D01*
X139787Y631844D01*
X139928Y631854D01*
X140190Y631910D01*
X140415Y631985D01*
X140612Y632069D01*
X140696Y632116D01*
X140771Y632163D01*
X140837Y632201D01*
X140893Y632238D01*
X140940Y632266D01*
X140968Y632294D01*
X140987Y632304D01*
X140996Y632313D01*
X141193Y632500D01*
X141362Y632707D01*
X141493Y632922D01*
X141605Y633129D01*
X141690Y633307D01*
X141718Y633382D01*
X141736Y633456D01*
X141764Y633513D01*
X141774Y633550D01*
X141783Y633578D01*
Y633588D01*
X141811Y633700D01*
X141840Y633822D01*
X141858Y633963D01*
X141877Y634103D01*
X141905Y634394D01*
X141924Y634684D01*
X141933Y634825D01*
Y634956D01*
X141943Y635069D01*
Y631198D01*
D02*
G37*
G36*
Y618948D02*
X136094D01*
X141943Y622790D01*
Y618948D01*
D02*
G37*
D10*
X512500Y3314D02*
Y22500D01*
Y122500D02*
X632500D01*
Y3314D02*
Y22500D01*
Y102500D02*
Y122500D01*
X512500Y102500D02*
Y122500D01*
X122500Y362500D02*
Y482500D01*
X3314Y202500D02*
X22500D01*
X102500D02*
X122500D01*
X102500Y482500D02*
X122500D01*
X3314D02*
X22500D01*
X822250Y141750D02*
Y146813D01*
X747500Y130250D02*
X757500D01*
X822250Y126750D02*
Y133250D01*
X796500Y126750D02*
X808500D01*
X747500Y144750D02*
X757500D01*
X707750Y82500D02*
Y92500D01*
X692250Y82500D02*
Y92500D01*
X130250Y367500D02*
Y377500D01*
X144750Y367500D02*
Y377500D01*
X126750Y442250D02*
X133250D01*
X141750Y282250D02*
X146813D01*
X126750Y435750D02*
Y442250D01*
X130250Y527500D02*
Y537500D01*
X144750Y527500D02*
Y537500D01*
X126750Y416500D02*
Y428500D01*
X141750Y442250D02*
X146813D01*
X230250Y89000D02*
Y99000D01*
X142500Y112500D02*
Y118500D01*
X134750Y121750D02*
X150250D01*
X141750Y602250D02*
X146813D01*
X102500Y322500D02*
X122500D01*
X3314D02*
X22500D01*
X126750Y576500D02*
Y588500D01*
Y595750D02*
Y602250D01*
X133250D01*
X102500Y522500D02*
X122500D01*
X3314D02*
X22500D01*
X3314Y362500D02*
X22500D01*
X4363Y642500D02*
X22500D01*
X102500D02*
X122500D01*
X102500Y362500D02*
X122500D01*
X130250Y207500D02*
Y217500D01*
X336500Y126750D02*
X348500D01*
X287500Y130250D02*
X297500D01*
X287500Y144750D02*
X297500D01*
X815750Y126750D02*
X822250D01*
X722250Y82500D02*
Y92500D01*
X707750Y82500D02*
Y92500D01*
X695500Y87500D02*
X704500D01*
X742500Y102500D02*
Y122500D01*
Y3314D02*
Y22500D01*
X362250Y141750D02*
Y146813D01*
X742500Y122500D02*
X862500D01*
Y4363D02*
Y22500D01*
Y102500D02*
Y122500D01*
X247250Y90500D02*
Y100500D01*
X282500Y102500D02*
Y122500D01*
X402500Y102500D02*
Y122500D01*
X282500D02*
X402500D01*
X282500Y3314D02*
Y22500D01*
X667750Y82500D02*
Y92500D01*
X126750Y275750D02*
Y282250D01*
X262750Y90500D02*
Y100500D01*
X250500Y95500D02*
X259500D01*
X652250Y82500D02*
Y92500D01*
X142500Y106500D02*
Y112500D01*
X126750Y282250D02*
X133250D01*
X122500Y202500D02*
Y322500D01*
X126750Y256500D02*
Y268500D01*
X134750Y103250D02*
X150250D01*
X244750Y89000D02*
Y99000D01*
X144750Y207500D02*
Y217500D01*
X122500Y522500D02*
Y642500D01*
X402500Y3314D02*
Y22500D01*
X592250Y141750D02*
Y146813D01*
X655500Y87500D02*
X664500D01*
X492250Y85000D02*
Y95000D01*
X477750Y85000D02*
Y95000D01*
X566500Y126750D02*
X578500D01*
X517500Y130250D02*
X527500D01*
X355750Y126750D02*
X362250D01*
Y133250D01*
X592250Y126750D02*
Y133250D01*
X585750Y126750D02*
X592250D01*
X517500Y144750D02*
X527500D01*
X872333Y116166D02*
X873499Y117333D01*
Y119665D01*
X872333Y120831D01*
X871166D01*
X870000Y119665D01*
Y117333D01*
X868834Y116166D01*
X867667D01*
X866501Y117333D01*
Y119665D01*
X867667Y120831D01*
X873499Y109169D02*
X872333Y111501D01*
X870000Y113834D01*
X867667D01*
X866501Y112667D01*
Y110335D01*
X867667Y109169D01*
X868834D01*
X870000Y110335D01*
Y113834D01*
X642333Y116166D02*
X643499Y117333D01*
Y119665D01*
X642333Y120831D01*
X641166D01*
X640000Y119665D01*
Y117333D01*
X638834Y116166D01*
X637667D01*
X636501Y117333D01*
Y119665D01*
X637667Y120831D01*
X643499Y109169D02*
Y113834D01*
X640000D01*
X641166Y111501D01*
Y110335D01*
X640000Y109169D01*
X637667D01*
X636501Y110335D01*
Y112667D01*
X637667Y113834D01*
X412333Y116166D02*
X413499Y117333D01*
Y119665D01*
X412333Y120831D01*
X411166D01*
X410000Y119665D01*
Y117333D01*
X408834Y116166D01*
X407667D01*
X406501Y117333D01*
Y119665D01*
X407667Y120831D01*
X406501Y110335D02*
X413499D01*
X410000Y113834D01*
Y109169D01*
X113834Y332333D02*
X112667Y333499D01*
X110335D01*
X109169Y332333D01*
Y331166D01*
X110335Y330000D01*
X112667D01*
X113834Y328834D01*
Y327667D01*
X112667Y326501D01*
X110335D01*
X109169Y327667D01*
X116166Y332333D02*
X117333Y333499D01*
X119665D01*
X120831Y332333D01*
Y331166D01*
X119665Y330000D01*
X118499D01*
X119665D01*
X120831Y328834D01*
Y327667D01*
X119665Y326501D01*
X117333D01*
X116166Y327667D01*
X113834Y492333D02*
X112667Y493499D01*
X110335D01*
X109169Y492333D01*
Y491166D01*
X110335Y490000D01*
X112667D01*
X113834Y488834D01*
Y487667D01*
X112667Y486501D01*
X110335D01*
X109169Y487667D01*
X120831Y486501D02*
X116166D01*
X120831Y491166D01*
Y492333D01*
X119665Y493499D01*
X117333D01*
X116166Y492333D01*
X117500Y652333D02*
X116334Y653499D01*
X114001D01*
X112835Y652333D01*
Y651166D01*
X114001Y650000D01*
X116334D01*
X117500Y648834D01*
Y647667D01*
X116334Y646501D01*
X114001D01*
X112835Y647667D01*
X119833Y646501D02*
X122165D01*
X120999D01*
Y653499D01*
X119833Y652333D01*
X731501Y143747D02*
X738499D01*
Y140248D01*
X737333Y139082D01*
X735000D01*
X733834Y140248D01*
Y143747D01*
Y141415D02*
X731501Y139082D01*
Y136749D02*
Y134417D01*
Y135583D01*
X738499D01*
X737333Y136749D01*
X731501Y126253D02*
Y130918D01*
X736166Y126253D01*
X737333D01*
X738499Y127419D01*
Y129752D01*
X737333Y130918D01*
X711501Y115409D02*
X718499D01*
Y111910D01*
X717333Y110744D01*
X715000D01*
X713834Y111910D01*
Y115409D01*
Y113077D02*
X711501Y110744D01*
Y108412D02*
Y106079D01*
Y107245D01*
X718499D01*
X717333Y108412D01*
X711501Y102580D02*
Y100247D01*
Y101414D01*
X718499D01*
X717333Y102580D01*
X501501Y143747D02*
X508499D01*
Y140248D01*
X507333Y139082D01*
X505000D01*
X503834Y140248D01*
Y143747D01*
Y141415D02*
X501501Y139082D01*
Y136749D02*
Y134417D01*
Y135583D01*
X508499D01*
X507333Y136749D01*
Y130918D02*
X508499Y129752D01*
Y127419D01*
X507333Y126253D01*
X502667D01*
X501501Y127419D01*
Y129752D01*
X502667Y130918D01*
X507333D01*
X481501Y115831D02*
X488499D01*
Y112333D01*
X487333Y111166D01*
X485000D01*
X483834Y112333D01*
Y115831D01*
Y113499D02*
X481501Y111166D01*
X482667Y108834D02*
X481501Y107667D01*
Y105335D01*
X482667Y104169D01*
X487333D01*
X488499Y105335D01*
Y107667D01*
X487333Y108834D01*
X486166D01*
X485000Y107667D01*
Y104169D01*
X271501Y143331D02*
X278499D01*
Y139832D01*
X277333Y138666D01*
X275000D01*
X273834Y139832D01*
Y143331D01*
Y140999D02*
X271501Y138666D01*
X277333Y136334D02*
X278499Y135167D01*
Y132835D01*
X277333Y131669D01*
X276166D01*
X275000Y132835D01*
X273834Y131669D01*
X272667D01*
X271501Y132835D01*
Y135167D01*
X272667Y136334D01*
X273834D01*
X275000Y135167D01*
X276166Y136334D01*
X277333D01*
X275000Y135167D02*
Y132835D01*
X234001Y120831D02*
X240999D01*
Y117333D01*
X239833Y116166D01*
X237500D01*
X236334Y117333D01*
Y120831D01*
Y118499D02*
X234001Y116166D01*
X240999Y113834D02*
Y109169D01*
X239833D01*
X235167Y113834D01*
X234001D01*
X131669Y191501D02*
Y198499D01*
X135167D01*
X136334Y197333D01*
Y195000D01*
X135167Y193834D01*
X131669D01*
X134001D02*
X136334Y191501D01*
X143331Y198499D02*
X140999Y197333D01*
X138666Y195000D01*
Y192667D01*
X139833Y191501D01*
X142165D01*
X143331Y192667D01*
Y193834D01*
X142165Y195000D01*
X138666D01*
X131669Y351501D02*
Y358499D01*
X135167D01*
X136334Y357333D01*
Y355000D01*
X135167Y353834D01*
X131669D01*
X134001D02*
X136334Y351501D01*
X142165D02*
Y358499D01*
X138666Y355000D01*
X143331D01*
X131669Y511501D02*
Y518499D01*
X135167D01*
X136334Y517333D01*
Y515000D01*
X135167Y513834D01*
X131669D01*
X134001D02*
X136334Y511501D01*
X143331D02*
X138666D01*
X143331Y516166D01*
Y517333D01*
X142165Y518499D01*
X139833D01*
X138666Y517333D01*
X782824Y146064D02*
X775827D01*
X779326D01*
Y141399D01*
X782824D01*
X775827D01*
X782824Y139066D02*
X775827D01*
Y134401D01*
X782824Y127403D02*
X781658Y129736D01*
X779326Y132069D01*
X776993D01*
X775827Y130902D01*
Y128570D01*
X776993Y127403D01*
X778159D01*
X779326Y128570D01*
Y132069D01*
X552825Y146064D02*
X545827D01*
X549326D01*
Y141399D01*
X552825D01*
X545827D01*
X552825Y139066D02*
X545827D01*
Y134401D01*
X552825Y127403D02*
Y132069D01*
X549326D01*
X550492Y129736D01*
Y128570D01*
X549326Y127403D01*
X546993D01*
X545827Y128570D01*
Y130902D01*
X546993Y132069D01*
X322825Y146064D02*
X315827D01*
X319326D01*
Y141399D01*
X322825D01*
X315827D01*
X322825Y139066D02*
X315827D01*
Y134401D01*
Y128570D02*
X322825D01*
X319326Y132069D01*
Y127403D01*
X127403Y243253D02*
Y236255D01*
Y239754D01*
X132069D01*
Y243253D01*
Y236255D01*
X134401Y243253D02*
Y236255D01*
X139066D01*
X141399Y242086D02*
X142565Y243253D01*
X144898D01*
X146064Y242086D01*
Y240920D01*
X144898Y239754D01*
X143732D01*
X144898D01*
X146064Y238587D01*
Y237421D01*
X144898Y236255D01*
X142565D01*
X141399Y237421D01*
X127403Y403252D02*
Y396255D01*
Y399754D01*
X132069D01*
Y403252D01*
Y396255D01*
X134401Y403252D02*
Y396255D01*
X139066D01*
X146064D02*
X141399D01*
X146064Y400920D01*
Y402086D01*
X144898Y403252D01*
X142565D01*
X141399Y402086D01*
X129336Y560999D02*
Y554001D01*
Y557500D01*
X134001D01*
Y560999D01*
Y554001D01*
X136334Y560999D02*
Y554001D01*
X140999D01*
X143331D02*
X145664D01*
X144498D01*
Y560999D01*
X143331Y559833D01*
X100918Y114333D02*
X99752Y115499D01*
X97419D01*
X96253Y114333D01*
Y109667D01*
X97419Y108501D01*
X99752D01*
X100918Y109667D01*
X103251Y108501D02*
X105583D01*
X104417D01*
Y115499D01*
X103251Y114333D01*
X112581Y108501D02*
Y115499D01*
X109082Y112000D01*
X113747D01*
X702333Y111166D02*
X703499Y112333D01*
Y114665D01*
X702333Y115831D01*
X697667D01*
X696501Y114665D01*
Y112333D01*
X697667Y111166D01*
X703499Y104169D02*
X702333Y106501D01*
X700000Y108834D01*
X697667D01*
X696501Y107667D01*
Y105335D01*
X697667Y104169D01*
X698834D01*
X700000Y105335D01*
Y108834D01*
X662333Y111166D02*
X663499Y112333D01*
Y114665D01*
X662333Y115831D01*
X657667D01*
X656501Y114665D01*
Y112333D01*
X657667Y111166D01*
X663499Y104169D02*
Y108834D01*
X660000D01*
X661166Y106501D01*
Y105335D01*
X660000Y104169D01*
X657667D01*
X656501Y105335D01*
Y107667D01*
X657667Y108834D01*
X257333Y118666D02*
X258499Y119832D01*
Y122165D01*
X257333Y123331D01*
X252667D01*
X251501Y122165D01*
Y119832D01*
X252667Y118666D01*
X251501Y112835D02*
X258499D01*
X255000Y116334D01*
Y111669D01*
D11*
X39203Y24165D02*
Y14168D01*
X44202D01*
X45868Y15834D01*
Y22498D01*
X44202Y24165D01*
X39203D01*
X54198Y14168D02*
X50866D01*
X49200Y15834D01*
Y19166D01*
X50866Y20832D01*
X54198D01*
X55865Y19166D01*
Y17500D01*
X49200D01*
X59197Y20832D02*
X62529Y14168D01*
X65861Y20832D01*
X74192Y14168D02*
X70860D01*
X69194Y15834D01*
Y19166D01*
X70860Y20832D01*
X74192D01*
X75858Y19166D01*
Y17500D01*
X69194D01*
X79190Y14168D02*
X82522D01*
X80856D01*
Y24165D01*
X79190D01*
X89187Y14168D02*
X92519D01*
X94185Y15834D01*
Y19166D01*
X92519Y20832D01*
X89187D01*
X87521Y19166D01*
Y15834D01*
X89187Y14168D01*
X97518Y10835D02*
Y20832D01*
X102516D01*
X104182Y19166D01*
Y15834D01*
X102516Y14168D01*
X97518D01*
X112513D02*
X109181D01*
X107514Y15834D01*
Y19166D01*
X109181Y20832D01*
X112513D01*
X114179Y19166D01*
Y17500D01*
X107514D01*
X124176Y24165D02*
Y14168D01*
X119177D01*
X117511Y15834D01*
Y19166D01*
X119177Y20832D01*
X124176D01*
X137505Y24165D02*
Y14168D01*
X142503D01*
X144169Y15834D01*
Y17500D01*
Y19166D01*
X142503Y20832D01*
X137505D01*
X147502D02*
Y15834D01*
X149168Y14168D01*
X154166D01*
Y12502D01*
X152500Y10835D01*
X150834D01*
X154166Y14168D02*
Y20832D01*
X174160Y22498D02*
X172494Y24165D01*
X169161D01*
X167495Y22498D01*
Y20832D01*
X169161Y19166D01*
X172494D01*
X174160Y17500D01*
Y15834D01*
X172494Y14168D01*
X169161D01*
X167495Y15834D01*
X179158Y14168D02*
X182490D01*
X184156Y15834D01*
Y19166D01*
X182490Y20832D01*
X179158D01*
X177492Y19166D01*
Y15834D01*
X179158Y14168D01*
X187489D02*
X190821D01*
X189155D01*
Y24165D01*
X187489D01*
X197486Y14168D02*
X200818D01*
X202484Y15834D01*
Y19166D01*
X200818Y20832D01*
X197486D01*
X195819Y19166D01*
Y15834D01*
X197486Y14168D01*
X205816Y20832D02*
X209148Y14168D01*
X212481Y20832D01*
X215813Y14168D02*
X219145D01*
X217479D01*
Y20832D01*
X215813D01*
X229142Y14168D02*
X225810D01*
X224144Y15834D01*
Y19166D01*
X225810Y20832D01*
X229142D01*
X230808Y19166D01*
Y17500D01*
X224144D01*
X234140Y20832D02*
X237473Y14168D01*
X240805Y20832D01*
X254134Y14168D02*
Y24165D01*
X257466Y20832D01*
X260798Y24165D01*
Y14168D01*
X264131D02*
Y15834D01*
X265797D01*
Y14168D01*
X264131D01*
X129183Y42498D02*
Y35834D01*
X132515Y32502D01*
X135848Y35834D01*
Y42498D01*
X144178Y32502D02*
X140846D01*
X139180Y34168D01*
Y37500D01*
X140846Y39166D01*
X144178D01*
X145844Y37500D01*
Y35834D01*
X139180D01*
X149177Y39166D02*
Y32502D01*
Y35834D01*
X150843Y37500D01*
X152509Y39166D01*
X154175D01*
X159173Y32502D02*
X164172D01*
X165838Y34168D01*
X164172Y35834D01*
X160840D01*
X159173Y37500D01*
X160840Y39166D01*
X165838D01*
X169170Y32502D02*
X172502D01*
X170836D01*
Y39166D01*
X169170D01*
X179167Y32502D02*
X182499D01*
X184165Y34168D01*
Y37500D01*
X182499Y39166D01*
X179167D01*
X177501Y37500D01*
Y34168D01*
X179167Y32502D01*
X187498D02*
Y39166D01*
X192496D01*
X194162Y37500D01*
Y32502D01*
X207491D02*
X210823D01*
X209157D01*
Y42498D01*
X207491Y40832D01*
X215822Y32502D02*
Y34168D01*
X217488D01*
Y32502D01*
X215822D01*
X224152Y40832D02*
X225819Y42498D01*
X229151D01*
X230817Y40832D01*
Y34168D01*
X229151Y32502D01*
X225819D01*
X224152Y34168D01*
Y40832D01*
X118355Y59165D02*
X116689Y60831D01*
X113356D01*
X111690Y59165D01*
Y57499D01*
X113356Y55833D01*
X116689D01*
X118355Y54167D01*
Y52501D01*
X116689Y50835D01*
X113356D01*
X111690Y52501D01*
X128352Y59165D02*
X126685Y60831D01*
X123353D01*
X121687Y59165D01*
Y52501D01*
X123353Y50835D01*
X126685D01*
X128352Y52501D01*
X131684Y50835D02*
Y60831D01*
X136682D01*
X138348Y59165D01*
Y55833D01*
X136682Y54167D01*
X131684D01*
X135016D02*
X138348Y50835D01*
X148345Y60831D02*
X141681D01*
Y50835D01*
X148345D01*
X141681Y55833D02*
X145013D01*
X158342Y60831D02*
X151677D01*
Y50835D01*
X158342D01*
X151677Y55833D02*
X155010D01*
X161674Y50835D02*
Y60831D01*
X168339Y50835D01*
Y60831D01*
X171671Y49169D02*
X178335D01*
X188332Y59165D02*
X186666Y60831D01*
X183334D01*
X181668Y59165D01*
Y57499D01*
X183334Y55833D01*
X186666D01*
X188332Y54167D01*
Y52501D01*
X186666Y50835D01*
X183334D01*
X181668Y52501D01*
X191665Y50835D02*
Y57499D01*
X194997Y60831D01*
X198329Y57499D01*
Y50835D01*
Y55833D01*
X191665D01*
X201661Y60831D02*
Y52501D01*
X203328Y50835D01*
X206660D01*
X208326Y52501D01*
Y60831D01*
X211658D02*
Y54167D01*
X214990Y50835D01*
X218323Y54167D01*
Y60831D01*
X228319Y59165D02*
X226653Y60831D01*
X223321D01*
X221655Y59165D01*
Y52501D01*
X223321Y50835D01*
X226653D01*
X228319Y52501D01*
X231652Y49169D02*
X238316D01*
X248313Y50835D02*
X241648D01*
X248313Y57499D01*
Y59165D01*
X246647Y60831D01*
X243315D01*
X241648Y59165D01*
X258310Y60831D02*
X254977Y59165D01*
X251645Y55833D01*
Y52501D01*
X253311Y50835D01*
X256644D01*
X258310Y52501D01*
Y54167D01*
X256644Y55833D01*
X251645D01*
X84352Y142664D02*
Y132668D01*
Y137666D01*
X91016D01*
Y142664D01*
Y132668D01*
X94348Y139332D02*
Y134334D01*
X96014Y132668D01*
X101013D01*
Y131002D01*
X99347Y129335D01*
X97681D01*
X101013Y132668D02*
Y139332D01*
X111010Y142664D02*
Y132668D01*
X106011D01*
X104345Y134334D01*
Y137666D01*
X106011Y139332D01*
X111010D01*
X114342D02*
Y132668D01*
Y136000D01*
X116008Y137666D01*
X117674Y139332D01*
X119340D01*
X126005Y132668D02*
X129337D01*
X131003Y134334D01*
Y137666D01*
X129337Y139332D01*
X126005D01*
X124339Y137666D01*
Y134334D01*
X126005Y132668D01*
X134335D02*
Y139332D01*
X139334D01*
X141000Y137666D01*
Y132668D01*
X145998Y139332D02*
X149331D01*
X150997Y137666D01*
Y132668D01*
X145998D01*
X144332Y134334D01*
X145998Y136000D01*
X150997D01*
X154329Y139332D02*
Y134334D01*
X155995Y132668D01*
X160994D01*
Y139332D01*
X165992Y140998D02*
Y139332D01*
X164326D01*
X167658D01*
X165992D01*
Y134334D01*
X167658Y132668D01*
X172656D02*
X175989D01*
X174323D01*
Y139332D01*
X172656D01*
X187652D02*
X182653D01*
X180987Y137666D01*
Y134334D01*
X182653Y132668D01*
X187652D01*
X190984D02*
X195982D01*
X197648Y134334D01*
X195982Y136000D01*
X192650D01*
X190984Y137666D01*
X192650Y139332D01*
X197648D01*
M02*
