G04*
G04 #@! TF.GenerationSoftware,Altium Limited,Altium Designer,23.3.1 (30)*
G04*
G04 Layer_Color=16711935*
%FSLAX44Y44*%
%MOMM*%
G71*
G04*
G04 #@! TF.SameCoordinates,4661E280-467E-44DE-AC99-BDCEDC59311E*
G04*
G04*
G04 #@! TF.FilePolarity,Positive*
G04*
G01*
G75*
%ADD68C,0.0127*%
G36*
X63642Y28642D02*
X61348D01*
X56799Y29241D01*
X52368Y30429D01*
X48129Y32184D01*
X44155Y34478D01*
X40515Y37271D01*
X37271Y40515D01*
X34478Y44155D01*
X32184Y48129D01*
X30429Y52368D01*
X29241Y56799D01*
X28642Y61348D01*
Y63642D01*
Y65936D01*
X29241Y70485D01*
X30429Y74917D01*
X32184Y79155D01*
X34478Y83129D01*
X37271Y86769D01*
X40515Y90013D01*
X44155Y92806D01*
X48129Y95100D01*
X52368Y96856D01*
X56799Y98043D01*
X61348Y98642D01*
X63642D01*
X65936D01*
X70485Y98043D01*
X74917Y96856D01*
X79155Y95100D01*
X83129Y92806D01*
X86769Y90013D01*
X90013Y86769D01*
X92806Y83129D01*
X95100Y79155D01*
X96856Y74917D01*
X98043Y70485D01*
X98642Y65936D01*
Y63642D01*
Y61348D01*
X98043Y56799D01*
X96856Y52368D01*
X95100Y48129D01*
X92806Y44155D01*
X90013Y40515D01*
X86769Y37271D01*
X83129Y34478D01*
X79155Y32184D01*
X74917Y30429D01*
X70485Y29241D01*
X65936Y28642D01*
X63642D01*
D01*
D02*
G37*
D68*
X98642Y63642D02*
G03*
X98642Y63642I-35000J0D01*
G01*
M02*
