G04*
G04 #@! TF.GenerationSoftware,Altium Limited,Altium Designer,23.3.1 (30)*
G04*
G04 Layer_Color=8421504*
%FSLAX44Y44*%
%MOMM*%
G71*
G04*
G04 #@! TF.SameCoordinates,351FD183-007B-45CA-81C2-1D2A0FC3FDAE*
G04*
G04*
G04 #@! TF.FilePolarity,Positive*
G04*
G01*
G75*
%ADD12R,1.4000X1.5000*%
%ADD13R,0.8000X0.9500*%
%ADD14R,0.9500X0.8000*%
%ADD15R,1.0500X0.9000*%
%ADD16R,1.4000X2.0000*%
%ADD17R,1.5000X1.4000*%
D12*
X812500Y137500D02*
D03*
X792500D02*
D03*
X562500D02*
D03*
X582500D02*
D03*
X352500D02*
D03*
X332500D02*
D03*
D13*
X746000D02*
D03*
X759000D02*
D03*
X529000D02*
D03*
X516000D02*
D03*
X286000D02*
D03*
X299000D02*
D03*
D14*
X715000Y81000D02*
D03*
Y94000D02*
D03*
X485000Y83500D02*
D03*
Y96500D02*
D03*
X237500Y87500D02*
D03*
Y100500D02*
D03*
X137500Y219000D02*
D03*
Y206000D02*
D03*
Y379000D02*
D03*
Y366000D02*
D03*
Y539000D02*
D03*
Y526000D02*
D03*
D15*
X700000Y79500D02*
D03*
Y95500D02*
D03*
X660000D02*
D03*
Y79500D02*
D03*
X255000Y103500D02*
D03*
Y87500D02*
D03*
D16*
X160500Y112500D02*
D03*
X124500D02*
D03*
D17*
X137500Y252500D02*
D03*
Y272500D02*
D03*
Y412500D02*
D03*
Y432500D02*
D03*
Y592500D02*
D03*
Y572500D02*
D03*
M02*
