G04*
G04 #@! TF.GenerationSoftware,Altium Limited,Altium Designer,23.3.1 (30)*
G04*
G04 Layer_Physical_Order=2*
G04 Layer_Color=16711680*
%FSLAX44Y44*%
%MOMM*%
G71*
G04*
G04 #@! TF.SameCoordinates,351FD183-007B-45CA-81C2-1D2A0FC3FDAE*
G04*
G04*
G04 #@! TF.FilePolarity,Positive*
G04*
G01*
G75*
%ADD11C,0.2000*%
%ADD13R,0.8000X0.9500*%
%ADD14R,0.9500X0.8000*%
%ADD15R,1.0500X0.9000*%
%ADD19R,0.9000X1.0500*%
%ADD27C,0.3000*%
%ADD28C,0.1250*%
%ADD29C,1.9500*%
%ADD30R,1.9500X1.9500*%
%ADD31R,1.9500X1.9500*%
%ADD32C,0.6000*%
G04:AMPARAMS|DCode=33|XSize=0.29mm|YSize=1.4mm|CornerRadius=0mm|HoleSize=0mm|Usage=FLASHONLY|Rotation=315.000|XOffset=0mm|YOffset=0mm|HoleType=Round|Shape=Round|*
%AMOVALD33*
21,1,1.1100,0.2900,0.0000,0.0000,45.0*
1,1,0.2900,-0.3925,-0.3925*
1,1,0.2900,0.3925,0.3925*
%
%ADD33OVALD33*%

G04:AMPARAMS|DCode=34|XSize=0.29mm|YSize=1.4mm|CornerRadius=0mm|HoleSize=0mm|Usage=FLASHONLY|Rotation=225.000|XOffset=0mm|YOffset=0mm|HoleType=Round|Shape=Round|*
%AMOVALD34*
21,1,1.1100,0.2900,0.0000,0.0000,315.0*
1,1,0.2900,-0.3925,0.3925*
1,1,0.2900,0.3925,-0.3925*
%
%ADD34OVALD34*%

%ADD35R,0.7620X0.7620*%
%ADD36R,1.0500X1.7200*%
G04:AMPARAMS|DCode=37|XSize=1.05mm|YSize=0.9mm|CornerRadius=0mm|HoleSize=0mm|Usage=FLASHONLY|Rotation=315.000|XOffset=0mm|YOffset=0mm|HoleType=Round|Shape=Rectangle|*
%AMROTATEDRECTD37*
4,1,4,-0.6894,0.0530,-0.0530,0.6894,0.6894,-0.0530,0.0530,-0.6894,-0.6894,0.0530,0.0*
%
%ADD37ROTATEDRECTD37*%

%ADD38R,0.9542X2.7062*%
%ADD39O,1.4500X0.6000*%
%ADD40R,1.4500X0.6000*%
%ADD41R,2.1500X0.9000*%
%ADD42R,2.1500X3.2500*%
G04:AMPARAMS|DCode=43|XSize=1.5mm|YSize=2mm|CornerRadius=0.375mm|HoleSize=0mm|Usage=FLASHONLY|Rotation=0.000|XOffset=0mm|YOffset=0mm|HoleType=Round|Shape=RoundedRectangle|*
%AMROUNDEDRECTD43*
21,1,1.5000,1.2500,0,0,0.0*
21,1,0.7500,2.0000,0,0,0.0*
1,1,0.7500,0.3750,-0.6250*
1,1,0.7500,-0.3750,-0.6250*
1,1,0.7500,-0.3750,0.6250*
1,1,0.7500,0.3750,0.6250*
%
%ADD43ROUNDEDRECTD43*%
G04:AMPARAMS|DCode=44|XSize=1.05mm|YSize=1.3mm|CornerRadius=0mm|HoleSize=0mm|Usage=FLASHONLY|Rotation=225.000|XOffset=0mm|YOffset=0mm|HoleType=Round|Shape=Rectangle|*
%AMROTATEDRECTD44*
4,1,4,-0.0884,0.8309,0.8309,-0.0884,0.0884,-0.8309,-0.8309,0.0884,-0.0884,0.8309,0.0*
%
%ADD44ROTATEDRECTD44*%

G04:AMPARAMS|DCode=45|XSize=0.95mm|YSize=0.8mm|CornerRadius=0mm|HoleSize=0mm|Usage=FLASHONLY|Rotation=45.000|XOffset=0mm|YOffset=0mm|HoleType=Round|Shape=Rectangle|*
%AMROTATEDRECTD45*
4,1,4,-0.0530,-0.6187,-0.6187,-0.0530,0.0530,0.6187,0.6187,0.0530,-0.0530,-0.6187,0.0*
%
%ADD45ROTATEDRECTD45*%

%ADD46R,2.0000X4.5000*%
%ADD47R,1.0000X0.7000*%
G04:AMPARAMS|DCode=48|XSize=1.05mm|YSize=0.9mm|CornerRadius=0mm|HoleSize=0mm|Usage=FLASHONLY|Rotation=225.000|XOffset=0mm|YOffset=0mm|HoleType=Round|Shape=Rectangle|*
%AMROTATEDRECTD48*
4,1,4,0.0530,0.6894,0.6894,0.0530,-0.0530,-0.6894,-0.6894,-0.0530,0.0530,0.6894,0.0*
%
%ADD48ROTATEDRECTD48*%

%ADD49C,0.5000*%
G36*
X120063Y662515D02*
X121863D01*
X125430Y662045D01*
X128906Y661114D01*
X132231Y659736D01*
X135347Y657937D01*
X138202Y655747D01*
X140747Y653202D01*
X142937Y650347D01*
X144736Y647231D01*
X146114Y643906D01*
X147045Y640430D01*
X147515Y636863D01*
X147515Y635064D01*
Y205063D01*
X147523Y205022D01*
X147516Y204980D01*
X147634Y201383D01*
X147662Y201260D01*
X147654Y201134D01*
X148593Y194001D01*
X148647Y193842D01*
X148658Y193674D01*
X150520Y186725D01*
X150595Y186574D01*
X150627Y186409D01*
X153381Y179762D01*
X153474Y179622D01*
X153528Y179463D01*
X152563Y178722D01*
X127676Y203609D01*
Y482500D01*
X127676Y482500D01*
X127473Y483524D01*
X126892Y484393D01*
X126892Y484393D01*
X97487Y513798D01*
X98449Y515465D01*
X99250Y518453D01*
Y521547D01*
X98449Y524535D01*
X96902Y527215D01*
X94715Y529402D01*
X92035Y530949D01*
X89047Y531750D01*
X85953D01*
X82965Y530949D01*
X80285Y529402D01*
X78098Y527215D01*
X76551Y524535D01*
X75750Y521547D01*
Y518453D01*
X76551Y515465D01*
X78098Y512785D01*
X80285Y510598D01*
X82965Y509051D01*
X85953Y508250D01*
X89047D01*
X92035Y509051D01*
X93702Y510013D01*
X122324Y481391D01*
Y436544D01*
X121054Y436017D01*
X120332Y436739D01*
X119914Y436912D01*
X95663Y461163D01*
X94670Y461826D01*
X94250Y461910D01*
Y465000D01*
X90559D01*
Y473655D01*
X92035Y474051D01*
X94715Y475598D01*
X96902Y477785D01*
X98449Y480465D01*
X99250Y483453D01*
Y486547D01*
X98449Y489535D01*
X96902Y492215D01*
X94715Y494402D01*
X92035Y495949D01*
X89047Y496750D01*
X85953D01*
X82965Y495949D01*
X80285Y494402D01*
X78098Y492215D01*
X76551Y489535D01*
X75750Y486547D01*
Y483453D01*
X76551Y480465D01*
X78098Y477785D01*
X80285Y475598D01*
X82965Y474051D01*
X84441Y473655D01*
Y465000D01*
X80750D01*
Y463559D01*
X69750D01*
Y467000D01*
X55250D01*
Y454000D01*
X69750D01*
Y457441D01*
X80750D01*
Y453270D01*
X80750Y453000D01*
Y452000D01*
X80750Y451730D01*
Y440000D01*
X83931D01*
Y438503D01*
X83261Y437832D01*
X82500Y435995D01*
Y434005D01*
X83261Y432168D01*
X84668Y430761D01*
X86505Y430000D01*
X88495D01*
X90332Y430761D01*
X91739Y432168D01*
X92500Y434005D01*
Y435995D01*
X91739Y437832D01*
X91069Y438503D01*
Y440000D01*
X94250D01*
Y451730D01*
X94250Y452128D01*
X95520Y452654D01*
X113138Y435036D01*
X112500Y433495D01*
Y431505D01*
X113261Y429668D01*
X114668Y428261D01*
X116505Y427500D01*
X118495D01*
X120332Y428261D01*
X121054Y428983D01*
X122324Y428456D01*
Y330621D01*
X121150Y330135D01*
X97487Y353798D01*
X98449Y355465D01*
X99250Y358453D01*
Y361547D01*
X98449Y364535D01*
X96902Y367215D01*
X94715Y369402D01*
X92035Y370949D01*
X89047Y371750D01*
X85953D01*
X82965Y370949D01*
X80285Y369402D01*
X78098Y367215D01*
X76551Y364535D01*
X75750Y361547D01*
Y358453D01*
X76551Y355465D01*
X78098Y352785D01*
X80285Y350598D01*
X82965Y349051D01*
X85953Y348250D01*
X89047D01*
X92035Y349051D01*
X93702Y350013D01*
X119824Y323891D01*
Y286298D01*
X118554Y285772D01*
X105663Y298663D01*
X104670Y299326D01*
X103500Y299559D01*
X103500Y299559D01*
X94250D01*
Y302500D01*
X90559D01*
Y313655D01*
X92035Y314051D01*
X94715Y315598D01*
X96902Y317785D01*
X98449Y320465D01*
X99250Y323453D01*
Y326547D01*
X98449Y329535D01*
X96902Y332215D01*
X94715Y334402D01*
X92035Y335949D01*
X89047Y336750D01*
X85953D01*
X82965Y335949D01*
X80285Y334402D01*
X78098Y332215D01*
X76551Y329535D01*
X75750Y326547D01*
Y323453D01*
X76551Y320465D01*
X78098Y317785D01*
X80285Y315598D01*
X82965Y314051D01*
X84441Y313655D01*
Y302500D01*
X80750D01*
Y301059D01*
X69750D01*
Y304500D01*
X55250D01*
Y291500D01*
X69750D01*
Y294941D01*
X80750D01*
Y290770D01*
X80750Y290500D01*
Y289500D01*
X80750Y289230D01*
Y277500D01*
X83931D01*
Y276003D01*
X83261Y275332D01*
X82500Y273495D01*
Y271505D01*
X83261Y269668D01*
X84668Y268261D01*
X86505Y267500D01*
X88495D01*
X90332Y268261D01*
X91739Y269668D01*
X92500Y271505D01*
Y273495D01*
X91739Y275332D01*
X91069Y276003D01*
Y277500D01*
X94250D01*
Y289230D01*
X94250Y289500D01*
Y290500D01*
X94250Y290770D01*
Y293441D01*
X102233D01*
X114441Y281233D01*
Y276512D01*
X113261Y275332D01*
X112500Y273495D01*
Y271505D01*
X113261Y269668D01*
X114668Y268261D01*
X116505Y267500D01*
X118495D01*
X118768Y267613D01*
X119824Y266908D01*
Y203132D01*
X118554Y202453D01*
X118524Y202473D01*
X117500Y202677D01*
X117500Y202676D01*
X98947D01*
X98449Y204535D01*
X96902Y207215D01*
X94715Y209402D01*
X92035Y210949D01*
X89047Y211750D01*
X85953D01*
X82965Y210949D01*
X80285Y209402D01*
X78098Y207215D01*
X76551Y204535D01*
X75750Y201547D01*
Y198453D01*
X76551Y195465D01*
X78098Y192785D01*
X80285Y190598D01*
X82965Y189051D01*
X85953Y188250D01*
X89047D01*
X92035Y189051D01*
X94715Y190598D01*
X96902Y192785D01*
X98449Y195465D01*
X98947Y197324D01*
X116391D01*
X133292Y180423D01*
X132572Y179346D01*
X130995Y180000D01*
X129005D01*
X127168Y179239D01*
X125761Y177832D01*
X125000Y175995D01*
Y174005D01*
X125761Y172168D01*
X127168Y170761D01*
X128260Y170309D01*
X128574Y168827D01*
X128434Y168687D01*
X138687Y158434D01*
X141120Y160867D01*
X143367Y158621D01*
X140934Y156187D01*
X149441Y147680D01*
Y145233D01*
X148171Y144707D01*
X144646Y148232D01*
X140050Y143636D01*
X139343Y144343D01*
X138636Y143636D01*
X133510Y148763D01*
X130078Y145331D01*
X129620Y144874D01*
X129240Y143761D01*
X125278Y139799D01*
X131289Y133789D01*
X129874Y132374D01*
X123864Y138385D01*
X119902Y134423D01*
X118261Y136065D01*
Y141267D01*
X124846Y147852D01*
X125455Y148461D01*
X126522Y147972D01*
X127374Y147120D01*
X131263Y151010D01*
X126136Y156136D01*
X121010Y161263D01*
X117730Y157983D01*
X117120Y157374D01*
X116053Y157863D01*
X113434Y160482D01*
X109296Y156344D01*
X105446Y160193D01*
X107879Y162626D01*
X97626Y172880D01*
X88434Y163687D01*
X98687Y153434D01*
X101121Y155867D01*
X104970Y152018D01*
X103181Y150229D01*
X112143Y141267D01*
Y137269D01*
X110970Y136783D01*
X107070Y140683D01*
X102651Y136264D01*
X107954Y130960D01*
X111005Y134011D01*
X112375Y133628D01*
X112393Y133603D01*
X113039Y132635D01*
X115577Y130098D01*
X106363Y120884D01*
X108961Y118286D01*
X105464Y114789D01*
X101187Y119066D01*
X90934Y108813D01*
X100126Y99621D01*
X110379Y109874D01*
X109789Y110464D01*
X113286Y113961D01*
X118384Y108863D01*
X125578Y116057D01*
X134598D01*
X135251Y114865D01*
X134825Y113658D01*
X133717Y113438D01*
X132576Y112675D01*
X131814Y111534D01*
X131546Y110188D01*
X131528Y110170D01*
X130182Y109902D01*
X129040Y109140D01*
X128278Y107999D01*
X128010Y106652D01*
X127992Y106634D01*
X126646Y106367D01*
X125505Y105604D01*
X124742Y104463D01*
X124475Y103117D01*
X124742Y101771D01*
X125505Y100630D01*
X133354Y92781D01*
X134495Y92018D01*
X135841Y91750D01*
X136960Y91973D01*
X137506Y91350D01*
X137709Y90926D01*
X134832Y88049D01*
X134495Y87982D01*
X133354Y87219D01*
X126147Y80013D01*
X125240D01*
X116187Y89066D01*
X105934Y78813D01*
X115126Y69620D01*
X120041Y74535D01*
X121187Y74791D01*
X122179Y74128D01*
X123350Y73895D01*
X126254D01*
X126646Y73633D01*
X127992Y73366D01*
X128010Y73348D01*
X128278Y72002D01*
X128474Y71708D01*
X134745Y77979D01*
X141223Y84458D01*
X141019Y85584D01*
X144876Y89441D01*
X148488D01*
X149668Y88261D01*
X151505Y87500D01*
X153495D01*
X155332Y88261D01*
X156739Y89668D01*
X157500Y91505D01*
Y93495D01*
X156739Y95332D01*
X155332Y96739D01*
X153495Y97500D01*
X151505D01*
X149668Y96739D01*
X148488Y95559D01*
X143609D01*
X143609Y95559D01*
X142640Y95366D01*
X142158Y95956D01*
X142115Y96031D01*
X141935Y96422D01*
X142626Y97457D01*
X142894Y98803D01*
X142912Y98821D01*
X144258Y99089D01*
X145400Y99852D01*
X146162Y100993D01*
X146430Y102339D01*
X146448Y102357D01*
X147794Y102625D01*
X148935Y103387D01*
X149698Y104528D01*
X149965Y105875D01*
X149983Y105892D01*
X151329Y106160D01*
X152471Y106923D01*
X153233Y108064D01*
X153501Y109410D01*
X153519Y109428D01*
X154865Y109696D01*
X156006Y110458D01*
X156769Y111600D01*
X157036Y112946D01*
X157054Y112964D01*
X158400Y113231D01*
X159542Y113994D01*
X160304Y115135D01*
X160572Y116481D01*
X160590Y116499D01*
X161936Y116767D01*
X162229Y116963D01*
X155958Y123234D01*
X157373Y124648D01*
X163644Y118377D01*
X163840Y118671D01*
X164107Y120017D01*
X164125Y120035D01*
X165472Y120302D01*
X166613Y121065D01*
X167375Y122206D01*
X167643Y123552D01*
X167661Y123570D01*
X169007Y123838D01*
X170148Y124600D01*
X170911Y125742D01*
X171179Y127088D01*
X171197Y127106D01*
X172543Y127374D01*
X173684Y128136D01*
X174446Y129277D01*
X174714Y130623D01*
X174732Y130641D01*
X176078Y130909D01*
X177219Y131671D01*
X177982Y132813D01*
X178250Y134159D01*
X177982Y135505D01*
X177219Y136646D01*
X169560Y144306D01*
Y158481D01*
X170699Y159042D01*
X172955Y157310D01*
X173106Y157236D01*
X173233Y157125D01*
X179463Y153528D01*
X179622Y153474D01*
X179762Y153381D01*
X186409Y150627D01*
X186574Y150595D01*
X186725Y150520D01*
X193674Y148658D01*
X193842Y148647D01*
X194001Y148593D01*
X201134Y147654D01*
X201260Y147662D01*
X201383Y147634D01*
X204980Y147516D01*
X205022Y147523D01*
X205063Y147515D01*
X325503D01*
X326102Y146395D01*
X325834Y145993D01*
X325387Y143750D01*
Y131250D01*
X325543Y130468D01*
X324841Y129766D01*
X324067Y128608D01*
X323795Y127243D01*
Y125866D01*
X323261Y125332D01*
X322500Y123495D01*
Y121505D01*
X323261Y119668D01*
X324668Y118261D01*
X326505Y117500D01*
X328495D01*
X330332Y118261D01*
X331739Y119668D01*
X332500Y121505D01*
Y123495D01*
X332242Y124117D01*
X333091Y125387D01*
X338750D01*
X339469Y125530D01*
X340382Y124417D01*
X340000Y123495D01*
Y121826D01*
X308733Y90559D01*
X291345D01*
X290949Y92035D01*
X289402Y94715D01*
X287215Y96902D01*
X284535Y98449D01*
X281547Y99250D01*
X278453D01*
X275465Y98449D01*
X272785Y96902D01*
X270598Y94715D01*
X269051Y92035D01*
X268250Y89047D01*
Y85953D01*
X269051Y82965D01*
X270598Y80285D01*
X272785Y78098D01*
X275465Y76551D01*
X278453Y75750D01*
X281547D01*
X284535Y76551D01*
X287215Y78098D01*
X289402Y80285D01*
X290949Y82965D01*
X291345Y84441D01*
X293007D01*
X293724Y83171D01*
X293402Y81550D01*
X293790Y79599D01*
X294895Y77945D01*
X296549Y76840D01*
X298500Y76452D01*
X307000D01*
X308095Y76670D01*
X309487Y75278D01*
X309404Y74599D01*
X308083Y73732D01*
X307000Y73948D01*
X298500D01*
X296549Y73560D01*
X294895Y72455D01*
X293790Y70801D01*
X293402Y68850D01*
X293790Y66899D01*
X294895Y65245D01*
X296549Y64140D01*
X298500Y63752D01*
X300074D01*
Y61248D01*
X298500D01*
X296667Y60883D01*
X296017Y61318D01*
X294993Y61522D01*
X294993Y61522D01*
X223889D01*
X223440Y62104D01*
X223718Y63675D01*
X223888Y63789D01*
X224651Y64931D01*
X224919Y66276D01*
X224937Y66294D01*
X226283Y66562D01*
X227424Y67325D01*
X228186Y68466D01*
X228454Y69812D01*
X228472Y69830D01*
X229818Y70098D01*
X230959Y70860D01*
X231722Y72002D01*
X231990Y73348D01*
X232008Y73366D01*
X233354Y73633D01*
X234495Y74396D01*
X235257Y75537D01*
X235525Y76883D01*
X235257Y78229D01*
X234495Y79370D01*
X226646Y87219D01*
X225505Y87982D01*
X224159Y88250D01*
X222813Y87982D01*
X221672Y87219D01*
X220909Y86078D01*
X220641Y84732D01*
X220623Y84714D01*
X219277Y84446D01*
X218136Y83684D01*
X217374Y82543D01*
X217106Y81197D01*
X217088Y81179D01*
X215742Y80911D01*
X214601Y80148D01*
X213838Y79007D01*
X213570Y77661D01*
X213552Y77643D01*
X212206Y77375D01*
X211065Y76613D01*
X210302Y75472D01*
X210035Y74125D01*
X210017Y74107D01*
X208671Y73840D01*
X207529Y73077D01*
X206767Y71936D01*
X206499Y70590D01*
X206481Y70572D01*
X205135Y70304D01*
X203994Y69542D01*
X203231Y68401D01*
X202964Y67054D01*
X202946Y67036D01*
X201600Y66769D01*
X200458Y66006D01*
X199696Y64865D01*
X199428Y63519D01*
X199410Y63501D01*
X198064Y63233D01*
X196923Y62471D01*
X196160Y61329D01*
X195893Y59983D01*
X195875Y59965D01*
X194528Y59698D01*
X193387Y58935D01*
X192625Y57794D01*
X192357Y56448D01*
X192339Y56430D01*
X190993Y56162D01*
X189852Y55400D01*
X189089Y54258D01*
X188821Y52912D01*
X188803Y52894D01*
X187457Y52627D01*
X187164Y52431D01*
X193435Y46159D01*
X192021Y44745D01*
X185543Y51223D01*
X184416Y51019D01*
X178059Y57376D01*
Y78488D01*
X179239Y79668D01*
X180000Y81505D01*
Y83495D01*
X179239Y85332D01*
X177832Y86739D01*
X175995Y87500D01*
X174005D01*
X172168Y86739D01*
X170761Y85332D01*
X170000Y83495D01*
Y81505D01*
X170377Y80595D01*
X169405Y79623D01*
X168495Y80000D01*
X166505D01*
X164668Y79239D01*
X163261Y77832D01*
X163197Y77676D01*
X161465D01*
X160440Y77473D01*
X159572Y76892D01*
X159572Y76892D01*
X154460Y71781D01*
X153067Y72184D01*
X152471Y73077D01*
X151329Y73840D01*
X149983Y74107D01*
X149965Y74125D01*
X149698Y75472D01*
X148935Y76613D01*
X147794Y77375D01*
X146448Y77643D01*
X146430Y77661D01*
X146162Y79007D01*
X145400Y80148D01*
X144258Y80911D01*
X142912Y81179D01*
X142894Y81197D01*
X142626Y82543D01*
X142430Y82836D01*
X136159Y76565D01*
X129888Y70294D01*
X130182Y70098D01*
X131528Y69830D01*
X131546Y69812D01*
X131814Y68466D01*
X132576Y67325D01*
X133717Y66562D01*
X135063Y66294D01*
X135081Y66276D01*
X135349Y64931D01*
X136112Y63789D01*
X137005Y63193D01*
X137408Y61800D01*
X136547Y60939D01*
X135967Y60070D01*
X135763Y59046D01*
X135763Y59046D01*
Y56561D01*
X135763Y56561D01*
X135967Y55536D01*
X136547Y54668D01*
X164269Y26946D01*
X161388Y24066D01*
X169874Y15581D01*
X170581Y14873D01*
X174116Y11338D01*
X178889Y16111D01*
X179596Y15404D01*
X180303Y16111D01*
X184546Y11868D01*
X188196Y15519D01*
X198107Y5608D01*
X198107Y5608D01*
X198976Y5027D01*
X200000Y4824D01*
X300000D01*
X300000Y4824D01*
X301024Y5027D01*
X301893Y5608D01*
X331893Y35607D01*
X331893Y35608D01*
X332473Y36476D01*
X332676Y37500D01*
Y51163D01*
X333946Y51690D01*
X344135Y41501D01*
X345293Y40727D01*
X346659Y40455D01*
X348987D01*
X349395Y39845D01*
X351049Y38740D01*
X353000Y38352D01*
X353681D01*
Y34500D01*
X350250D01*
Y21500D01*
X359703D01*
X361530Y19673D01*
X361044Y18500D01*
X358500D01*
Y13000D01*
X364750D01*
Y14794D01*
X365923Y15280D01*
X367561Y13642D01*
X367500Y13495D01*
Y11505D01*
X368261Y9668D01*
X369668Y8261D01*
X371505Y7500D01*
X373495D01*
X375332Y8261D01*
X376739Y9668D01*
X377500Y11505D01*
Y13495D01*
X376739Y15332D01*
X375332Y16739D01*
X374010Y17286D01*
X364750Y26547D01*
Y34500D01*
X360819D01*
Y38352D01*
X361500D01*
X363451Y38740D01*
X365105Y39845D01*
X366210Y41499D01*
X366598Y43450D01*
X366210Y45401D01*
X365105Y47055D01*
X363451Y48160D01*
X361500Y48548D01*
X353000D01*
X351049Y48160D01*
X350200Y47593D01*
X348137D01*
X339569Y56161D01*
Y76593D01*
X346665Y83689D01*
X348144Y83372D01*
X348232Y83211D01*
X348101Y82550D01*
X357250D01*
Y81550D01*
X358250D01*
Y76452D01*
X361500D01*
X363451Y76840D01*
X365105Y77945D01*
X366210Y79599D01*
X366598Y81550D01*
X366563Y81726D01*
X367706Y82489D01*
X368134Y82203D01*
X369500Y81931D01*
X370750D01*
Y79500D01*
X370750D01*
Y78500D01*
X370750D01*
Y67184D01*
X367267D01*
X366462Y68165D01*
X366598Y68850D01*
X366210Y70801D01*
X365105Y72455D01*
X363451Y73560D01*
X361500Y73948D01*
X353000D01*
X351049Y73560D01*
X349395Y72455D01*
X348290Y70801D01*
X347902Y68850D01*
X348290Y66899D01*
X349395Y65245D01*
X351049Y64140D01*
X353000Y63752D01*
X359253D01*
X360268Y62675D01*
Y61865D01*
X360103Y61700D01*
X359800Y61248D01*
X353000D01*
X351049Y60860D01*
X349395Y59755D01*
X348290Y58101D01*
X347902Y56150D01*
X348290Y54199D01*
X349395Y52545D01*
X351049Y51440D01*
X353000Y51052D01*
X361500D01*
X363451Y51440D01*
X365105Y52545D01*
X366210Y54199D01*
X366598Y56150D01*
X366462Y56835D01*
X367267Y57816D01*
X370750D01*
Y46770D01*
X370750Y46500D01*
Y45500D01*
X370750Y45230D01*
Y40500D01*
X384250D01*
Y45230D01*
X384250Y45500D01*
Y46500D01*
X384250Y46770D01*
Y57816D01*
X402834D01*
X402834Y57816D01*
X402960Y57841D01*
X422940D01*
Y47190D01*
X434560D01*
Y55514D01*
X434619Y55810D01*
Y57436D01*
X435735Y57841D01*
X436905Y58074D01*
X437897Y58737D01*
X443788Y64627D01*
X443788Y64627D01*
X444451Y65620D01*
X444530Y66017D01*
X445800Y65892D01*
Y63525D01*
X450610D01*
Y68335D01*
X445954D01*
X445800Y68335D01*
X444684Y68706D01*
Y101941D01*
X447350D01*
Y94400D01*
X461850D01*
Y115600D01*
X447350D01*
Y108059D01*
X444684D01*
Y128615D01*
X445213Y128795D01*
X445954Y128827D01*
X447104Y127105D01*
X449007Y125834D01*
X451250Y125387D01*
X458750D01*
X460993Y125834D01*
X462896Y127105D01*
X464166Y129007D01*
X464613Y131250D01*
Y143750D01*
X464166Y145993D01*
X463898Y146395D01*
X464497Y147515D01*
X490503D01*
X491102Y146395D01*
X490834Y145993D01*
X490387Y143750D01*
Y131250D01*
X490732Y129517D01*
X481107Y119893D01*
X480527Y119024D01*
X480324Y118000D01*
X480324Y118000D01*
Y69303D01*
X480168Y69239D01*
X478761Y67832D01*
X478000Y65995D01*
Y64005D01*
X478761Y62168D01*
X479929Y61000D01*
X478761Y59832D01*
X478000Y57994D01*
Y56005D01*
X478761Y54168D01*
X480168Y52761D01*
X482005Y52000D01*
X483995D01*
X485832Y52761D01*
X487239Y54168D01*
X488000Y56005D01*
Y57994D01*
X487935Y58150D01*
X489767Y59983D01*
X490348Y60851D01*
X490551Y61875D01*
X490551Y61875D01*
Y113516D01*
X496859Y119824D01*
X517500D01*
X517500Y119824D01*
X518524Y120027D01*
X519393Y120608D01*
X524517Y125732D01*
X526250Y125387D01*
X527961D01*
X527961Y95000D01*
X527961Y2612D01*
X526691Y2612D01*
X30064Y2612D01*
X28264D01*
X24697Y3082D01*
X21221Y4013D01*
X17896Y5390D01*
X14780Y7190D01*
X11925Y9380D01*
X9380Y11925D01*
X7190Y14780D01*
X5390Y17896D01*
X4013Y21221D01*
X3082Y24697D01*
X2612Y28264D01*
X2612Y30064D01*
X2612Y635064D01*
Y636863D01*
X3082Y640430D01*
X4013Y643906D01*
X5390Y647231D01*
X7190Y650347D01*
X9380Y653202D01*
X11925Y655747D01*
X14780Y657937D01*
X17896Y659736D01*
X21221Y661114D01*
X24697Y662045D01*
X28264Y662515D01*
X30064Y662515D01*
X120063Y662515D01*
D02*
G37*
G36*
X855063Y147515D02*
X856863D01*
X860431Y147045D01*
X863906Y146114D01*
X867231Y144736D01*
X870347Y142937D01*
X873202Y140747D01*
X875747Y138202D01*
X877937Y135347D01*
X879736Y132231D01*
X881114Y128906D01*
X882045Y125430D01*
X882515Y121863D01*
X882515Y120063D01*
X882515Y30064D01*
Y28264D01*
X882045Y24696D01*
X881114Y21221D01*
X879736Y17896D01*
X877937Y14780D01*
X875747Y11925D01*
X873202Y9380D01*
X870347Y7190D01*
X867231Y5390D01*
X863906Y4013D01*
X860431Y3082D01*
X856863Y2612D01*
X855063D01*
X723021D01*
Y16500D01*
X716250D01*
X709479D01*
Y2612D01*
X700809D01*
X699539Y2612D01*
Y67253D01*
X700500Y68000D01*
X700809Y68000D01*
X724500D01*
Y92912D01*
X728090D01*
X728401Y92629D01*
X728945Y91642D01*
X728250Y89047D01*
Y85953D01*
X729051Y82965D01*
X730598Y80285D01*
X732785Y78098D01*
X735465Y76551D01*
X738453Y75750D01*
X741547D01*
X744535Y76551D01*
X747215Y78098D01*
X749402Y80285D01*
X750949Y82965D01*
X751750Y85953D01*
Y89047D01*
X750949Y92035D01*
X749402Y94715D01*
X747215Y96902D01*
X744535Y98449D01*
X741547Y99250D01*
X739285D01*
X738759Y100520D01*
X744239Y106000D01*
X752250D01*
Y107912D01*
X754500D01*
Y104000D01*
X761500D01*
X768500D01*
Y107000D01*
Y116500D01*
Y127500D01*
X759547D01*
X756023Y131023D01*
X754866Y131797D01*
X753500Y132069D01*
X752250D01*
Y135000D01*
X737750D01*
Y122000D01*
X752250D01*
Y123044D01*
X753423Y123530D01*
X754500Y122453D01*
Y117088D01*
X752250D01*
Y119000D01*
X737750D01*
Y112489D01*
X727349Y102088D01*
X724500D01*
Y116480D01*
X724500Y117000D01*
X725459Y117750D01*
X732000D01*
Y132250D01*
X730652D01*
X730000Y133250D01*
Y136431D01*
X777500D01*
Y133250D01*
X779931D01*
Y127500D01*
X776500D01*
Y116500D01*
Y107000D01*
Y97500D01*
X790500D01*
Y107912D01*
X795000D01*
X796756Y108261D01*
X798244Y109256D01*
X801900Y112912D01*
X804479D01*
Y101969D01*
X804787D01*
Y94613D01*
X803750D01*
X801507Y94166D01*
X799604Y92895D01*
X798334Y90993D01*
X797887Y88750D01*
Y76250D01*
X798334Y74007D01*
X799604Y72105D01*
X801507Y70834D01*
X803750Y70387D01*
X811250D01*
X813493Y70834D01*
X815396Y72105D01*
X816666Y74007D01*
X817113Y76250D01*
Y88750D01*
X816666Y90993D01*
X815396Y92895D01*
X813963Y93853D01*
Y101969D01*
X818021D01*
Y133031D01*
X804479D01*
Y122088D01*
X800000D01*
X798244Y121739D01*
X796756Y120744D01*
X793100Y117088D01*
X790500D01*
Y127500D01*
X787069D01*
Y133250D01*
X789230D01*
X789500Y133250D01*
X790500D01*
X790770Y133250D01*
X795500D01*
Y140000D01*
X796500D01*
Y141000D01*
X802500D01*
Y146245D01*
X803453Y147515D01*
X855063D01*
D02*
G37*
G36*
X667949D02*
X667961Y147500D01*
Y118063D01*
X667970Y118015D01*
X667963Y117967D01*
X668048Y117627D01*
X668116Y117282D01*
X668143Y117242D01*
X668155Y117195D01*
X668655Y116132D01*
X668863Y115850D01*
X669058Y115558D01*
X669099Y115531D01*
X669128Y115492D01*
X669428Y115311D01*
X669720Y115116D01*
X669767Y115107D01*
X669809Y115081D01*
X670156Y115029D01*
X670500Y114961D01*
Y70039D01*
X670156Y69971D01*
X669809Y69918D01*
X669767Y69893D01*
X669720Y69884D01*
X669428Y69689D01*
X669128Y69508D01*
X669099Y69469D01*
X669058Y69442D01*
X668863Y69150D01*
X668655Y68868D01*
X668155Y67805D01*
X668143Y67758D01*
X668116Y67717D01*
X668048Y67373D01*
X667963Y67033D01*
X667970Y66985D01*
X667961Y66937D01*
Y38476D01*
X667250Y37500D01*
D01*
Y37500D01*
X661000D01*
Y31000D01*
X660000D01*
Y30000D01*
X652750D01*
Y25000D01*
X652378D01*
X652098Y24539D01*
X651591Y24539D01*
X646893D01*
X646750Y25750D01*
D01*
D01*
Y25757D01*
X646750Y25809D01*
Y26270D01*
Y36750D01*
X635000D01*
X623250D01*
Y25809D01*
X623250Y25757D01*
Y25750D01*
D01*
D01*
X623107Y24539D01*
X619917D01*
X619539Y25000D01*
X619539D01*
Y25000D01*
Y47500D01*
X619384Y48280D01*
X618942Y48942D01*
X618280Y49384D01*
X617500Y49539D01*
X582039D01*
X582039Y125621D01*
X583309Y126300D01*
X583620Y126092D01*
D01*
X584007Y125834D01*
X586250Y125387D01*
X589000D01*
Y137500D01*
X590000D01*
Y138500D01*
X599613D01*
Y143750D01*
X599166Y145993D01*
X598898Y146395D01*
X599497Y147515D01*
X667949D01*
D02*
G37*
G36*
X348292Y117077D02*
X323107Y91892D01*
X322527Y91024D01*
X322324Y90000D01*
X322324Y90000D01*
Y41109D01*
X296391Y15176D01*
X246109D01*
X216893Y44392D01*
X216024Y44973D01*
X215000Y45176D01*
X215000Y45176D01*
X206997D01*
X206861Y45339D01*
X206434Y46446D01*
X206973Y47253D01*
X207241Y48599D01*
X207259Y48617D01*
X208605Y48885D01*
X209746Y49647D01*
X210343Y50540D01*
X211736Y50943D01*
X214226Y48453D01*
X214227Y48453D01*
X215095Y47873D01*
X216119Y47669D01*
X216119Y47669D01*
X271756D01*
X272282Y46399D01*
X270598Y44715D01*
X269051Y42035D01*
X268250Y39047D01*
Y38250D01*
X280000D01*
X291750D01*
Y39047D01*
X290949Y42035D01*
X289402Y44715D01*
X287718Y46399D01*
X288244Y47669D01*
X290496D01*
X293500Y44665D01*
Y38450D01*
X312000D01*
Y48450D01*
X312000Y48450D01*
X312000D01*
X312000Y48450D01*
X312344Y49577D01*
X314642Y51876D01*
X314643Y51876D01*
X315223Y52744D01*
X315426Y53768D01*
X315426Y53768D01*
Y75800D01*
X315426Y75800D01*
X315223Y76824D01*
X314643Y77692D01*
X314642Y77693D01*
X311880Y80455D01*
X312098Y81550D01*
X311710Y83501D01*
X311660Y83575D01*
X312057Y85267D01*
X312163Y85337D01*
X344326Y117500D01*
X345995D01*
X347573Y118154D01*
X348292Y117077D01*
D02*
G37*
G36*
X242269Y11446D02*
X241742Y10176D01*
X202225D01*
X201700Y11446D01*
X209066Y18813D01*
X201872Y26007D01*
Y28590D01*
X203045Y29076D01*
X205354Y26768D01*
X209950Y31364D01*
X214546Y35960D01*
X211856Y38650D01*
X212342Y39824D01*
X213891D01*
X242269Y11446D01*
D02*
G37*
G36*
X697500Y2612D02*
X690521D01*
Y16500D01*
X683750D01*
X676979D01*
Y2612D01*
X580000D01*
Y22500D01*
X652098D01*
X652750Y21500D01*
X652750Y21230D01*
Y16000D01*
X660000D01*
X667250D01*
Y21230D01*
X667250Y21500D01*
X667902Y22500D01*
X670000D01*
Y66937D01*
X670500Y68000D01*
X671270Y68000D01*
X681500D01*
Y92500D01*
Y117000D01*
X671270D01*
X670500Y117000D01*
X670000Y118063D01*
Y147500D01*
X697500D01*
Y2612D01*
D02*
G37*
G36*
X550503Y147515D02*
X551102Y146395D01*
X550834Y145993D01*
X550387Y143750D01*
Y138500D01*
X569613D01*
Y143750D01*
X569166Y145993D01*
X568898Y146395D01*
X569497Y147515D01*
X580000D01*
X580000Y127105D01*
X580000Y47500D01*
X617500D01*
Y25000D01*
X580000D01*
Y24539D01*
X579220Y24384D01*
X578558Y23942D01*
X578116Y23280D01*
X577961Y22500D01*
Y2612D01*
X576691Y2612D01*
X530000D01*
X530000Y95000D01*
X530000Y125387D01*
X533750D01*
X535993Y125834D01*
X537896Y127105D01*
X539166Y129007D01*
X539613Y131250D01*
Y143750D01*
X539166Y145993D01*
X538898Y146395D01*
X539497Y147515D01*
X550503D01*
D02*
G37*
%LPC*%
G36*
X39047Y656750D02*
X38250D01*
Y645750D01*
X49250D01*
Y646547D01*
X48449Y649535D01*
X46902Y652215D01*
X44715Y654402D01*
X42035Y655949D01*
X39047Y656750D01*
D02*
G37*
G36*
X36750D02*
X35953D01*
X32965Y655949D01*
X30285Y654402D01*
X28098Y652215D01*
X26551Y649535D01*
X25750Y646547D01*
Y645750D01*
X36750D01*
Y656750D01*
D02*
G37*
G36*
X49250Y644250D02*
X38250D01*
Y633250D01*
X39047D01*
X42035Y634051D01*
X44715Y635598D01*
X46902Y637785D01*
X48449Y640465D01*
X49250Y643453D01*
Y644250D01*
D02*
G37*
G36*
X36750D02*
X25750D01*
Y643453D01*
X26551Y640465D01*
X28098Y637785D01*
X30285Y635598D01*
X32965Y634051D01*
X35953Y633250D01*
X36750D01*
Y644250D01*
D02*
G37*
G36*
X89047Y656750D02*
X85953D01*
X82965Y655949D01*
X80285Y654402D01*
X78098Y652215D01*
X76551Y649535D01*
X75750Y646547D01*
Y643453D01*
X76551Y640465D01*
X78098Y637785D01*
X80285Y635598D01*
X82965Y634051D01*
X84441Y633655D01*
Y627500D01*
X80750D01*
Y626059D01*
X69750D01*
Y629500D01*
X55250D01*
Y616500D01*
X69750D01*
Y619941D01*
X80750D01*
Y615770D01*
X80750Y615500D01*
Y614500D01*
X80750Y614230D01*
Y602500D01*
X81981D01*
X82686Y601444D01*
X82500Y600995D01*
Y599005D01*
X83261Y597168D01*
X84668Y595761D01*
X86505Y595000D01*
X88495D01*
X90332Y595761D01*
X91739Y597168D01*
X92500Y599005D01*
Y600995D01*
X92314Y601444D01*
X93019Y602500D01*
X94250D01*
Y614230D01*
X94250Y614500D01*
Y615500D01*
X94250Y615770D01*
Y617128D01*
X95520Y617654D01*
X120000Y593174D01*
Y591505D01*
X120761Y589668D01*
X122168Y588261D01*
X124005Y587500D01*
X125995D01*
X127832Y588261D01*
X129239Y589668D01*
X130000Y591505D01*
Y593495D01*
X129239Y595332D01*
X127832Y596739D01*
X125995Y597500D01*
X124326D01*
X98163Y623663D01*
X97170Y624326D01*
X96000Y624559D01*
X96000Y624559D01*
X94250D01*
Y627500D01*
X90559D01*
Y633655D01*
X92035Y634051D01*
X94715Y635598D01*
X96902Y637785D01*
X98449Y640465D01*
X99250Y643453D01*
Y646547D01*
X98449Y649535D01*
X96902Y652215D01*
X94715Y654402D01*
X92035Y655949D01*
X89047Y656750D01*
D02*
G37*
G36*
X69750Y613500D02*
X63500D01*
Y608000D01*
X69750D01*
Y613500D01*
D02*
G37*
G36*
X61500D02*
X55250D01*
Y608000D01*
X61500D01*
Y613500D01*
D02*
G37*
G36*
X69750Y606000D02*
X63500D01*
Y600500D01*
X69750D01*
Y606000D01*
D02*
G37*
G36*
X61500D02*
X55250D01*
Y600500D01*
X61500D01*
Y606000D01*
D02*
G37*
G36*
X49250Y531750D02*
X38250D01*
Y520750D01*
X49250D01*
Y531750D01*
D02*
G37*
G36*
X36750D02*
X25750D01*
Y520750D01*
X36750D01*
Y531750D01*
D02*
G37*
G36*
X49250Y519250D02*
X38250D01*
Y508250D01*
X49250D01*
Y519250D01*
D02*
G37*
G36*
X36750D02*
X25750D01*
Y508250D01*
X36750D01*
Y519250D01*
D02*
G37*
G36*
X39047Y496750D02*
X38250D01*
Y485750D01*
X49250D01*
Y486547D01*
X48449Y489535D01*
X46902Y492215D01*
X44715Y494402D01*
X42035Y495949D01*
X39047Y496750D01*
D02*
G37*
G36*
X36750D02*
X35953D01*
X32965Y495949D01*
X30285Y494402D01*
X28098Y492215D01*
X26551Y489535D01*
X25750Y486547D01*
Y485750D01*
X36750D01*
Y496750D01*
D02*
G37*
G36*
X49250Y484250D02*
X38250D01*
Y473250D01*
X39047D01*
X42035Y474051D01*
X44715Y475598D01*
X46902Y477785D01*
X48449Y480465D01*
X49250Y483453D01*
Y484250D01*
D02*
G37*
G36*
X36750D02*
X25750D01*
Y483453D01*
X26551Y480465D01*
X28098Y477785D01*
X30285Y475598D01*
X32965Y474051D01*
X35953Y473250D01*
X36750D01*
Y484250D01*
D02*
G37*
G36*
X69750Y451000D02*
X63500D01*
Y445500D01*
X69750D01*
Y451000D01*
D02*
G37*
G36*
X61500D02*
X55250D01*
Y445500D01*
X61500D01*
Y451000D01*
D02*
G37*
G36*
X69750Y443500D02*
X63500D01*
Y438000D01*
X69750D01*
Y443500D01*
D02*
G37*
G36*
X61500D02*
X55250D01*
Y438000D01*
X61500D01*
Y443500D01*
D02*
G37*
G36*
X49250Y371750D02*
X38250D01*
Y360750D01*
X49250D01*
Y371750D01*
D02*
G37*
G36*
X36750D02*
X25750D01*
Y360750D01*
X36750D01*
Y371750D01*
D02*
G37*
G36*
X49250Y359250D02*
X38250D01*
Y348250D01*
X49250D01*
Y359250D01*
D02*
G37*
G36*
X36750D02*
X25750D01*
Y348250D01*
X36750D01*
Y359250D01*
D02*
G37*
G36*
X39047Y336750D02*
X38250D01*
Y325750D01*
X49250D01*
Y326547D01*
X48449Y329535D01*
X46902Y332215D01*
X44715Y334402D01*
X42035Y335949D01*
X39047Y336750D01*
D02*
G37*
G36*
X36750D02*
X35953D01*
X32965Y335949D01*
X30285Y334402D01*
X28098Y332215D01*
X26551Y329535D01*
X25750Y326547D01*
Y325750D01*
X36750D01*
Y336750D01*
D02*
G37*
G36*
X49250Y324250D02*
X38250D01*
Y313250D01*
X39047D01*
X42035Y314051D01*
X44715Y315598D01*
X46902Y317785D01*
X48449Y320465D01*
X49250Y323453D01*
Y324250D01*
D02*
G37*
G36*
X36750D02*
X25750D01*
Y323453D01*
X26551Y320465D01*
X28098Y317785D01*
X30285Y315598D01*
X32965Y314051D01*
X35953Y313250D01*
X36750D01*
Y324250D01*
D02*
G37*
G36*
X69750Y288500D02*
X63500D01*
Y283000D01*
X69750D01*
Y288500D01*
D02*
G37*
G36*
X61500D02*
X55250D01*
Y283000D01*
X61500D01*
Y288500D01*
D02*
G37*
G36*
X69750Y281000D02*
X63500D01*
Y275500D01*
X69750D01*
Y281000D01*
D02*
G37*
G36*
X61500D02*
X55250D01*
Y275500D01*
X61500D01*
Y281000D01*
D02*
G37*
G36*
X49250Y211750D02*
X38250D01*
Y200750D01*
X49250D01*
Y211750D01*
D02*
G37*
G36*
X36750D02*
X25750D01*
Y200750D01*
X36750D01*
Y211750D01*
D02*
G37*
G36*
X49250Y199250D02*
X38250D01*
Y188250D01*
X49250D01*
Y199250D01*
D02*
G37*
G36*
X36750D02*
X25750D01*
Y188250D01*
X36750D01*
Y199250D01*
D02*
G37*
G36*
X126313Y166566D02*
X122424Y162677D01*
X126843Y158257D01*
X130732Y162146D01*
X126313Y166566D01*
D02*
G37*
G36*
X86313Y161566D02*
X82424Y157677D01*
X86843Y153257D01*
X90732Y157146D01*
X86313Y161566D01*
D02*
G37*
G36*
X132146Y160732D02*
X128257Y156843D01*
X132677Y152424D01*
X136566Y156313D01*
X132146Y160732D01*
D02*
G37*
G36*
X81010Y156263D02*
X77120Y152374D01*
X81540Y147954D01*
X85429Y151843D01*
X81010Y156263D01*
D02*
G37*
G36*
X92146Y155732D02*
X88257Y151843D01*
X92677Y147424D01*
X96566Y151313D01*
X92146Y155732D01*
D02*
G37*
G36*
X138813Y154066D02*
X134924Y150177D01*
X139343Y145757D01*
X143232Y149646D01*
X138813Y154066D01*
D02*
G37*
G36*
X86843Y150429D02*
X82954Y146540D01*
X87374Y142120D01*
X91263Y146010D01*
X86843Y150429D01*
D02*
G37*
G36*
X100353Y147400D02*
X95933Y142981D01*
X101237Y137678D01*
X105656Y142097D01*
X100353Y147400D01*
D02*
G37*
G36*
X94519Y141567D02*
X90100Y137147D01*
X95403Y131844D01*
X99822Y136264D01*
X94519Y141567D01*
D02*
G37*
G36*
X234217Y138536D02*
X229797Y134117D01*
X233686Y130228D01*
X238106Y134647D01*
X234217Y138536D01*
D02*
G37*
G36*
X252995Y130000D02*
X251005D01*
X249168Y129239D01*
X247761Y127832D01*
X247455Y127094D01*
X245957Y126796D01*
X245530Y127223D01*
X235277Y116970D01*
X238406Y113841D01*
X232859Y108294D01*
X231733Y108499D01*
X225255Y102021D01*
X218984Y95750D01*
X219277Y95554D01*
X220623Y95286D01*
X220641Y95268D01*
X220909Y93922D01*
X221672Y92781D01*
X222813Y92018D01*
X224159Y91750D01*
X225505Y92018D01*
X226646Y92781D01*
X234495Y100630D01*
X235257Y101771D01*
X235325Y102108D01*
X242732Y109515D01*
X244470Y107777D01*
X254723Y118030D01*
X253796Y118957D01*
X254094Y120455D01*
X254832Y120761D01*
X256239Y122168D01*
X257000Y124005D01*
Y125995D01*
X256239Y127832D01*
X254832Y129239D01*
X252995Y130000D01*
D02*
G37*
G36*
X101237Y134849D02*
X96817Y130430D01*
X102120Y125126D01*
X106540Y129546D01*
X101237Y134849D01*
D02*
G37*
G36*
X239520Y133233D02*
X235100Y128814D01*
X238990Y124925D01*
X243409Y129344D01*
X239520Y133233D01*
D02*
G37*
G36*
X228383Y132703D02*
X223964Y128283D01*
X227853Y124394D01*
X232272Y128814D01*
X228383Y132703D01*
D02*
G37*
G36*
X89874Y130380D02*
X85454Y125960D01*
X89343Y122071D01*
X93763Y126490D01*
X89874Y130380D01*
D02*
G37*
G36*
X233686Y127400D02*
X229267Y122980D01*
X233156Y119091D01*
X237575Y123510D01*
X233686Y127400D01*
D02*
G37*
G36*
X95177Y125076D02*
X90757Y120657D01*
X94646Y116768D01*
X99066Y121187D01*
X95177Y125076D01*
D02*
G37*
G36*
X84040Y124546D02*
X79620Y120126D01*
X83510Y116237D01*
X87929Y120657D01*
X84040Y124546D01*
D02*
G37*
G36*
X89343Y119243D02*
X84924Y114823D01*
X88813Y110934D01*
X93232Y115354D01*
X89343Y119243D01*
D02*
G37*
G36*
X63642Y100820D02*
X61877Y100681D01*
X61348D01*
X61216Y100655D01*
X61082Y100664D01*
X60230Y100552D01*
X57826Y100363D01*
X56652Y100081D01*
X56533Y100065D01*
X56406Y100022D01*
X56272Y100013D01*
X55422Y99785D01*
X52154Y99001D01*
X46764Y96768D01*
X43898Y95012D01*
X43136Y94572D01*
X43035Y94483D01*
X42914Y94424D01*
X42819Y94351D01*
X41789Y93720D01*
X39956Y92154D01*
X39274Y91631D01*
X39186Y91530D01*
X39074Y91455D01*
X38700Y91081D01*
X37353Y89931D01*
X36203Y88585D01*
X35829Y88211D01*
X35755Y88099D01*
X35654Y88010D01*
X35130Y87328D01*
X33564Y85495D01*
X32934Y84466D01*
X32860Y84370D01*
X32801Y84249D01*
X32712Y84148D01*
X32272Y83386D01*
X30516Y80521D01*
X28284Y75131D01*
X27499Y71863D01*
X27271Y71013D01*
X27262Y70879D01*
X27219Y70751D01*
X27204Y70632D01*
X26922Y69458D01*
X26733Y67055D01*
X26620Y66202D01*
X26629Y66068D01*
X26603Y65936D01*
Y65407D01*
X26464Y63642D01*
X26603Y61877D01*
Y61348D01*
X26629Y61216D01*
X26620Y61082D01*
X26733Y60230D01*
X26922Y57826D01*
X27204Y56653D01*
X27219Y56533D01*
X27262Y56406D01*
X27271Y56272D01*
X27499Y55421D01*
X28284Y52154D01*
X30516Y46764D01*
X32272Y43899D01*
X32712Y43136D01*
X32801Y43035D01*
X32861Y42914D01*
X32934Y42818D01*
X33564Y41789D01*
X35130Y39956D01*
X35654Y39274D01*
X35755Y39186D01*
X35829Y39074D01*
X36203Y38699D01*
X37353Y37353D01*
X38699Y36203D01*
X39074Y35829D01*
X39186Y35755D01*
X39274Y35654D01*
X39956Y35130D01*
X41789Y33564D01*
X42818Y32934D01*
X42914Y32860D01*
X43035Y32801D01*
X43136Y32712D01*
X43899Y32272D01*
X46764Y30516D01*
X52154Y28284D01*
X55421Y27499D01*
X56272Y27271D01*
X56406Y27262D01*
X56533Y27219D01*
X56653Y27204D01*
X57826Y26922D01*
X60230Y26733D01*
X61082Y26620D01*
X61216Y26629D01*
X61348Y26603D01*
X61877D01*
X63642Y26464D01*
X65407Y26603D01*
X65936D01*
X66068Y26629D01*
X66202Y26620D01*
X67055Y26733D01*
X69458Y26922D01*
X70632Y27204D01*
X70751Y27219D01*
X70879Y27262D01*
X71013Y27271D01*
X71863Y27499D01*
X75131Y28284D01*
X80521Y30516D01*
X83386Y32272D01*
X84148Y32712D01*
X84249Y32801D01*
X84370Y32861D01*
X84466Y32934D01*
X85495Y33564D01*
X87328Y35130D01*
X88010Y35654D01*
X88099Y35755D01*
X88211Y35829D01*
X88585Y36203D01*
X89931Y37353D01*
X91081Y38700D01*
X91455Y39074D01*
X91530Y39186D01*
X91631Y39274D01*
X92154Y39956D01*
X93720Y41789D01*
X94351Y42818D01*
X94424Y42914D01*
X94483Y43035D01*
X94572Y43136D01*
X95012Y43898D01*
X96768Y46764D01*
X99001Y52154D01*
X99785Y55422D01*
X100013Y56272D01*
X100022Y56406D01*
X100065Y56533D01*
X100081Y56652D01*
X100363Y57826D01*
X100552Y60230D01*
X100664Y61082D01*
X100655Y61216D01*
X100681Y61348D01*
Y61877D01*
X100820Y63642D01*
X100681Y65407D01*
Y65936D01*
X100655Y66068D01*
X100664Y66202D01*
X100552Y67055D01*
X100363Y69458D01*
X100081Y70632D01*
X100065Y70751D01*
X100022Y70879D01*
X100013Y71013D01*
X99785Y71862D01*
X99001Y75131D01*
X96768Y80521D01*
X95012Y83386D01*
X94572Y84148D01*
X94483Y84249D01*
X94424Y84370D01*
X94351Y84466D01*
X93720Y85495D01*
X92154Y87329D01*
X91631Y88010D01*
X91530Y88099D01*
X91455Y88211D01*
X91081Y88584D01*
X89931Y89931D01*
X88584Y91081D01*
X88211Y91455D01*
X88099Y91530D01*
X88010Y91631D01*
X87329Y92154D01*
X85495Y93720D01*
X84466Y94351D01*
X84370Y94424D01*
X84249Y94483D01*
X84148Y94572D01*
X83386Y95012D01*
X80521Y96768D01*
X75131Y99001D01*
X71862Y99785D01*
X71013Y100013D01*
X70879Y100022D01*
X70751Y100065D01*
X70632Y100081D01*
X69458Y100363D01*
X67055Y100552D01*
X66202Y100664D01*
X66068Y100655D01*
X65936Y100681D01*
X65407D01*
X63642Y100820D01*
D02*
G37*
G36*
X193117Y145525D02*
X191771Y145258D01*
X190630Y144495D01*
X182781Y136646D01*
X182018Y135505D01*
X181817Y134493D01*
X173107Y125783D01*
X172527Y124915D01*
X172324Y123891D01*
X172324Y123891D01*
Y109303D01*
X172168Y109239D01*
X170761Y107832D01*
X170000Y105995D01*
Y104005D01*
X170761Y102168D01*
X172168Y100761D01*
X174005Y100000D01*
X175995D01*
X176444Y100186D01*
X177500Y99481D01*
Y99005D01*
X178261Y97168D01*
X179668Y95761D01*
X181505Y95000D01*
X183495D01*
X185332Y95761D01*
X186054Y96482D01*
X187324Y95956D01*
Y94303D01*
X187168Y94239D01*
X185761Y92832D01*
X185000Y90995D01*
Y89005D01*
X185761Y87168D01*
X187168Y85761D01*
X189005Y85000D01*
X190995D01*
X192832Y85761D01*
X194239Y87168D01*
X195000Y89005D01*
Y90995D01*
X194239Y92832D01*
X192832Y94239D01*
X192676Y94303D01*
Y120017D01*
X193946Y120691D01*
X194528Y120302D01*
X195875Y120035D01*
X195893Y120017D01*
X196160Y118671D01*
X196923Y117529D01*
X198064Y116767D01*
X199410Y116499D01*
X199428Y116481D01*
X199696Y115135D01*
X200458Y113994D01*
X201600Y113231D01*
X202946Y112964D01*
X202964Y112946D01*
X203231Y111600D01*
X203994Y110458D01*
X205135Y109696D01*
X206481Y109428D01*
X206499Y109410D01*
X206767Y108064D01*
X207529Y106923D01*
X208671Y106160D01*
X210017Y105892D01*
X210035Y105875D01*
X210302Y104528D01*
X211065Y103387D01*
X212206Y102625D01*
X213552Y102357D01*
X213570Y102339D01*
X213838Y100993D01*
X214601Y99852D01*
X215742Y99089D01*
X217088Y98821D01*
X217106Y98803D01*
X217374Y97457D01*
X217570Y97164D01*
X223841Y103435D01*
X230112Y109706D01*
X229818Y109902D01*
X228472Y110170D01*
X228454Y110188D01*
X228186Y111534D01*
X227424Y112675D01*
X226283Y113438D01*
X224937Y113706D01*
X224919Y113723D01*
X224651Y115070D01*
X223888Y116211D01*
X222747Y116973D01*
X221401Y117241D01*
X221383Y117259D01*
X221115Y118605D01*
X220353Y119746D01*
X219212Y120509D01*
X217866Y120777D01*
X217848Y120794D01*
X217580Y122141D01*
X216817Y123282D01*
X215676Y124044D01*
X214330Y124312D01*
X214312Y124330D01*
X214044Y125676D01*
X213282Y126817D01*
X212141Y127580D01*
X210795Y127848D01*
X210777Y127866D01*
X210509Y129212D01*
X209746Y130353D01*
X208605Y131115D01*
X207259Y131383D01*
X207241Y131401D01*
X206973Y132747D01*
X206211Y133888D01*
X205070Y134651D01*
X203724Y134919D01*
X203706Y134937D01*
X203438Y136283D01*
X202675Y137424D01*
X201534Y138186D01*
X200188Y138454D01*
X200170Y138472D01*
X199902Y139818D01*
X199140Y140960D01*
X197999Y141722D01*
X196652Y141990D01*
X196634Y142008D01*
X196367Y143354D01*
X195604Y144495D01*
X194463Y145258D01*
X193117Y145525D01*
D02*
G37*
G36*
X104874Y100380D02*
X100454Y95960D01*
X104343Y92071D01*
X108763Y96490D01*
X104874Y100380D01*
D02*
G37*
G36*
X110177Y95076D02*
X105757Y90657D01*
X109646Y86768D01*
X114066Y91187D01*
X110177Y95076D01*
D02*
G37*
G36*
X99040Y94546D02*
X94620Y90126D01*
X98510Y86237D01*
X102929Y90657D01*
X99040Y94546D01*
D02*
G37*
G36*
X104343Y89243D02*
X99924Y84823D01*
X103813Y80934D01*
X108232Y85354D01*
X104343Y89243D01*
D02*
G37*
G36*
X356250Y80550D02*
X348101D01*
X348290Y79599D01*
X349395Y77945D01*
X351049Y76840D01*
X353000Y76452D01*
X356250D01*
Y80550D01*
D02*
G37*
G36*
X511547Y99250D02*
X508453D01*
X505465Y98449D01*
X502785Y96902D01*
X500598Y94715D01*
X499051Y92035D01*
X498250Y89047D01*
Y85953D01*
X499051Y82965D01*
X500598Y80285D01*
X502785Y78098D01*
X505465Y76551D01*
X508453Y75750D01*
X511547D01*
X514535Y76551D01*
X517215Y78098D01*
X519402Y80285D01*
X520949Y82965D01*
X521750Y85953D01*
Y89047D01*
X520949Y92035D01*
X519402Y94715D01*
X517215Y96902D01*
X514535Y98449D01*
X511547Y99250D01*
D02*
G37*
G36*
X452610Y68335D02*
Y63525D01*
X457420D01*
Y68335D01*
X452610D01*
D02*
G37*
G36*
X457420Y61525D02*
X452610D01*
Y56715D01*
X457420D01*
Y61525D01*
D02*
G37*
G36*
X450610D02*
X445800D01*
Y56715D01*
X450610D01*
Y61525D01*
D02*
G37*
G36*
X416750Y49250D02*
X405750D01*
Y38250D01*
X416750D01*
Y49250D01*
D02*
G37*
G36*
X511547D02*
X510750D01*
Y38250D01*
X521750D01*
Y39047D01*
X520949Y42035D01*
X519402Y44715D01*
X517215Y46902D01*
X514535Y48449D01*
X511547Y49250D01*
D02*
G37*
G36*
X404250D02*
X393250D01*
Y38250D01*
X404250D01*
Y49250D01*
D02*
G37*
G36*
X509250D02*
X508453D01*
X505465Y48449D01*
X502785Y46902D01*
X500598Y44715D01*
X499051Y42035D01*
X498250Y39047D01*
Y38250D01*
X509250D01*
Y49250D01*
D02*
G37*
G36*
X384250Y38500D02*
X378500D01*
Y33500D01*
X384250D01*
Y38500D01*
D02*
G37*
G36*
X376500D02*
X370750D01*
Y33500D01*
X376500D01*
Y38500D01*
D02*
G37*
G36*
X521750Y36750D02*
X510750D01*
Y25750D01*
X511547D01*
X514535Y26551D01*
X517215Y28098D01*
X519402Y30285D01*
X520949Y32965D01*
X521750Y35953D01*
Y36750D01*
D02*
G37*
G36*
X509250D02*
X498250D01*
Y35953D01*
X499051Y32965D01*
X500598Y30285D01*
X502785Y28098D01*
X505465Y26551D01*
X508453Y25750D01*
X509250D01*
Y36750D01*
D02*
G37*
G36*
X416750D02*
X405750D01*
Y25750D01*
X416750D01*
Y36750D01*
D02*
G37*
G36*
X404250D02*
X393250D01*
Y25750D01*
X404250D01*
Y36750D01*
D02*
G37*
G36*
X356500Y18500D02*
X350250D01*
Y13000D01*
X356500D01*
Y18500D01*
D02*
G37*
G36*
X179596Y13990D02*
X175530Y9924D01*
X179066Y6388D01*
X183132Y10454D01*
X179596Y13990D01*
D02*
G37*
G36*
X364750Y11000D02*
X358500D01*
Y5500D01*
X364750D01*
Y11000D01*
D02*
G37*
G36*
X356500D02*
X350250D01*
Y5500D01*
X356500D01*
Y11000D01*
D02*
G37*
G36*
X802500Y139000D02*
X797500D01*
Y133250D01*
X802500D01*
Y139000D01*
D02*
G37*
G36*
X850521Y133031D02*
X844750D01*
Y118500D01*
X850521D01*
Y133031D01*
D02*
G37*
G36*
X842750D02*
X836979D01*
Y118500D01*
X842750D01*
Y133031D01*
D02*
G37*
G36*
X850521Y116500D02*
X844750D01*
Y101969D01*
X850521D01*
Y116500D01*
D02*
G37*
G36*
X842750D02*
X836979D01*
Y101969D01*
X842750D01*
Y116500D01*
D02*
G37*
G36*
X768500Y102000D02*
X762500D01*
Y97500D01*
X768500D01*
Y102000D01*
D02*
G37*
G36*
X760500D02*
X754500D01*
Y97500D01*
X760500D01*
Y102000D01*
D02*
G37*
G36*
X841250Y94613D02*
X838500D01*
Y83500D01*
X847113D01*
Y88750D01*
X846666Y90993D01*
X845396Y92895D01*
X843493Y94166D01*
X841250Y94613D01*
D02*
G37*
G36*
X836500D02*
X833750D01*
X831507Y94166D01*
X829604Y92895D01*
X828334Y90993D01*
X827887Y88750D01*
Y83500D01*
X836500D01*
Y94613D01*
D02*
G37*
G36*
X865995Y125000D02*
X864005D01*
X862168Y124239D01*
X860761Y122832D01*
X860000Y120995D01*
Y119005D01*
X860761Y117168D01*
X861941Y115988D01*
Y98845D01*
X860465Y98449D01*
X857785Y96902D01*
X855598Y94715D01*
X854051Y92035D01*
X853250Y89047D01*
Y85953D01*
X854051Y82965D01*
X855598Y80285D01*
X857785Y78098D01*
X860465Y76551D01*
X863453Y75750D01*
X866547D01*
X869535Y76551D01*
X872215Y78098D01*
X874402Y80285D01*
X875949Y82965D01*
X876750Y85953D01*
Y89047D01*
X875949Y92035D01*
X874402Y94715D01*
X872215Y96902D01*
X869535Y98449D01*
X868059Y98845D01*
Y115988D01*
X869239Y117168D01*
X870000Y119005D01*
Y120995D01*
X869239Y122832D01*
X867832Y124239D01*
X865995Y125000D01*
D02*
G37*
G36*
X847113Y81500D02*
X838500D01*
Y70387D01*
X841250D01*
X843493Y70834D01*
X845396Y72105D01*
X846666Y74007D01*
X847113Y76250D01*
Y81500D01*
D02*
G37*
G36*
X836500D02*
X827887D01*
Y76250D01*
X828334Y74007D01*
X829604Y72105D01*
X831507Y70834D01*
X833750Y70387D01*
X836500D01*
Y81500D01*
D02*
G37*
G36*
X723021Y65531D02*
X717250D01*
Y51000D01*
X723021D01*
Y65531D01*
D02*
G37*
G36*
X715250D02*
X709479D01*
Y51000D01*
X715250D01*
Y65531D01*
D02*
G37*
G36*
X741547Y49250D02*
X740750D01*
Y38250D01*
X751750D01*
Y39047D01*
X750949Y42035D01*
X749402Y44715D01*
X747215Y46902D01*
X744535Y48449D01*
X741547Y49250D01*
D02*
G37*
G36*
X876750D02*
X865750D01*
Y38250D01*
X876750D01*
Y49250D01*
D02*
G37*
G36*
X739250D02*
X738453D01*
X735465Y48449D01*
X732785Y46902D01*
X730598Y44715D01*
X729051Y42035D01*
X728250Y39047D01*
Y38250D01*
X739250D01*
Y49250D01*
D02*
G37*
G36*
X864250D02*
X853250D01*
Y38250D01*
X864250D01*
Y49250D01*
D02*
G37*
G36*
X723021Y49000D02*
X717250D01*
Y34469D01*
X723021D01*
Y49000D01*
D02*
G37*
G36*
X715250D02*
X709479D01*
Y34469D01*
X715250D01*
Y49000D01*
D02*
G37*
G36*
X876750Y36750D02*
X865750D01*
Y25750D01*
X876750D01*
Y36750D01*
D02*
G37*
G36*
X864250D02*
X853250D01*
Y25750D01*
X864250D01*
Y36750D01*
D02*
G37*
G36*
X751750D02*
X740750D01*
Y25750D01*
X741547D01*
X744535Y26551D01*
X747215Y28098D01*
X749402Y30285D01*
X750949Y32965D01*
X751750Y35953D01*
Y36750D01*
D02*
G37*
G36*
X739250D02*
X728250D01*
Y35953D01*
X729051Y32965D01*
X730598Y30285D01*
X732785Y28098D01*
X735465Y26551D01*
X738453Y25750D01*
X739250D01*
Y36750D01*
D02*
G37*
G36*
X723021Y33031D02*
X717250D01*
Y18500D01*
X723021D01*
Y33031D01*
D02*
G37*
G36*
X715250D02*
X709479D01*
Y18500D01*
X715250D01*
Y33031D01*
D02*
G37*
G36*
X599613Y136500D02*
X591000D01*
Y125387D01*
X593750D01*
X595993Y125834D01*
X597896Y127105D01*
X599166Y129007D01*
X599613Y131250D01*
Y136500D01*
D02*
G37*
G36*
X604271Y103031D02*
X598500D01*
Y88500D01*
X604271D01*
Y103031D01*
D02*
G37*
G36*
X596500D02*
X590729D01*
Y88500D01*
X596500D01*
Y103031D01*
D02*
G37*
G36*
X605995Y127500D02*
X604005D01*
X602168Y126739D01*
X600761Y125332D01*
X600000Y123495D01*
Y121505D01*
X600761Y119668D01*
X602168Y118261D01*
X604005Y117500D01*
X605674D01*
X624118Y99056D01*
X627029Y96146D01*
X625598Y94715D01*
X624051Y92035D01*
X623250Y89047D01*
Y85953D01*
X624051Y82965D01*
X625598Y80285D01*
X627785Y78098D01*
X630465Y76551D01*
X633453Y75750D01*
X636547D01*
X639535Y76551D01*
X642215Y78098D01*
X644402Y80285D01*
X645949Y82965D01*
X646750Y85953D01*
Y89047D01*
X645949Y92035D01*
X644402Y94715D01*
X642215Y96902D01*
X639535Y98449D01*
X636547Y99250D01*
X633453D01*
X632729Y99056D01*
X632647Y99178D01*
X632647Y99179D01*
X610000Y121826D01*
Y123495D01*
X609239Y125332D01*
X607832Y126739D01*
X605995Y127500D01*
D02*
G37*
G36*
X604271Y86500D02*
X598500D01*
Y71969D01*
X604271D01*
Y86500D01*
D02*
G37*
G36*
X596500D02*
X590729D01*
Y71969D01*
X596500D01*
Y86500D01*
D02*
G37*
G36*
X646750Y49250D02*
X635750D01*
Y38250D01*
X646750D01*
Y49250D01*
D02*
G37*
G36*
X634250D02*
X623250D01*
Y38250D01*
X634250D01*
Y49250D01*
D02*
G37*
G36*
X659000Y37500D02*
X652750D01*
Y32000D01*
X659000D01*
Y37500D01*
D02*
G37*
G36*
X291750Y36750D02*
X280750D01*
Y25750D01*
X281547D01*
X284535Y26551D01*
X287215Y28098D01*
X289402Y30285D01*
X290949Y32965D01*
X291750Y35953D01*
Y36750D01*
D02*
G37*
G36*
X279250D02*
X268250D01*
Y35953D01*
X269051Y32965D01*
X270598Y30285D01*
X272785Y28098D01*
X275465Y26551D01*
X278453Y25750D01*
X279250D01*
Y36750D01*
D02*
G37*
G36*
X215960Y34546D02*
X212071Y30657D01*
X216490Y26237D01*
X220380Y30127D01*
X215960Y34546D01*
D02*
G37*
G36*
X210657Y29243D02*
X206768Y25354D01*
X211187Y20934D01*
X215076Y24823D01*
X210657Y29243D01*
D02*
G37*
G36*
X683500Y117000D02*
Y93500D01*
X694500D01*
Y117000D01*
X683500D01*
D02*
G37*
G36*
X694500Y91500D02*
X683500D01*
Y68000D01*
X694500D01*
Y91500D01*
D02*
G37*
G36*
X690521Y65531D02*
X684750D01*
Y51000D01*
X690521D01*
Y65531D01*
D02*
G37*
G36*
X682750D02*
X676979D01*
Y51000D01*
X682750D01*
Y65531D01*
D02*
G37*
G36*
X690521Y49000D02*
X684750D01*
Y34469D01*
X690521D01*
Y49000D01*
D02*
G37*
G36*
X682750D02*
X676979D01*
Y34469D01*
X682750D01*
Y49000D01*
D02*
G37*
G36*
X690521Y33031D02*
X684750D01*
Y18500D01*
X690521D01*
Y33031D01*
D02*
G37*
G36*
X682750D02*
X676979D01*
Y18500D01*
X682750D01*
Y33031D01*
D02*
G37*
G36*
X667250Y14000D02*
X661000D01*
Y8500D01*
X667250D01*
Y14000D01*
D02*
G37*
G36*
X659000D02*
X652750D01*
Y8500D01*
X659000D01*
Y14000D01*
D02*
G37*
G36*
X569613Y136500D02*
X561000D01*
Y125387D01*
X563750D01*
X565993Y125834D01*
X567896Y127105D01*
X569166Y129007D01*
X569613Y131250D01*
Y136500D01*
D02*
G37*
G36*
X559000D02*
X550387D01*
Y131250D01*
X550834Y129007D01*
X552104Y127105D01*
X554007Y125834D01*
X556250Y125387D01*
X559000D01*
Y136500D01*
D02*
G37*
G36*
X571771Y103031D02*
X566000D01*
Y88500D01*
X571771D01*
Y103031D01*
D02*
G37*
G36*
X564000D02*
X558229D01*
Y88500D01*
X564000D01*
Y103031D01*
D02*
G37*
G36*
X571771Y86500D02*
X566000D01*
Y71969D01*
X571771D01*
Y86500D01*
D02*
G37*
G36*
X564000D02*
X558229D01*
Y71969D01*
X564000D01*
Y86500D01*
D02*
G37*
%LPD*%
D11*
X233156Y111336D02*
Y128814D01*
X224548Y102728D02*
X233156Y111336D01*
X401512Y64150D02*
X424828D01*
X426000Y69300D02*
X428750Y72050D01*
X424828Y64150D02*
X426000Y65322D01*
Y69300D01*
Y55750D02*
X428750Y53000D01*
X402859Y60900D02*
X424828D01*
X426000Y55750D02*
Y59728D01*
X424828Y60900D02*
X426000Y59728D01*
X437203Y105000D02*
X438375Y103828D01*
X428750Y72050D02*
X431560Y69240D01*
X438375Y68137D02*
Y103828D01*
X434388Y64150D02*
X438375Y68137D01*
X432732Y64150D02*
X434388D01*
X431560Y65322D02*
X432732Y64150D01*
X431560Y65322D02*
Y69240D01*
X377500Y65297D02*
Y72500D01*
X360418Y68850D02*
X362265Y67002D01*
X357250Y68850D02*
X360418D01*
X362265Y65463D02*
Y67002D01*
X401488Y64125D02*
X401512Y64150D01*
X377500Y65297D02*
X378672Y64125D01*
X401488D01*
X376328D02*
X377500Y65297D01*
X362265Y65463D02*
X363603Y64125D01*
X376328D01*
X425400Y105000D02*
X437203D01*
X438375Y106172D01*
X437203Y137500D02*
X438375Y136328D01*
Y106172D02*
Y136328D01*
X425000Y137500D02*
X437203D01*
X441625Y66790D02*
Y103828D01*
X442797Y105000D01*
X432732Y60900D02*
X435735D01*
X441625Y66790D01*
X431560Y59728D02*
X432732Y60900D01*
X428750Y53000D02*
X431560Y55810D01*
Y59728D01*
X402834Y60875D02*
X402859Y60900D01*
X378672Y60875D02*
X402834D01*
X377500Y59703D02*
X378672Y60875D01*
X363603D02*
X376328D01*
X362265Y59537D02*
X363603Y60875D01*
X376328D02*
X377500Y59703D01*
Y52500D02*
Y59703D01*
X362265Y57998D02*
Y59537D01*
X360418Y56150D02*
X362265Y57998D01*
X357250Y56150D02*
X360418D01*
X441625Y106172D02*
Y136328D01*
X442797Y137500D02*
X455000D01*
X441625Y106172D02*
X442797Y105000D01*
X441625Y136328D02*
X442797Y137500D01*
Y105000D02*
X454600D01*
X865000Y87500D02*
Y120000D01*
X605000Y122500D02*
X630484Y97016D01*
Y96751D02*
X635000Y92235D01*
X630484Y96751D02*
Y97016D01*
X635000Y87500D02*
Y92235D01*
X87500Y621500D02*
X96000D01*
X125000Y592500D01*
X310000Y87500D02*
X345000Y122500D01*
Y122500D01*
X280000Y87500D02*
X310000D01*
X207523Y30657D02*
X211843D01*
X138157Y168157D02*
Y168157D01*
X136843D02*
X138157D01*
Y168157D02*
X152500Y153814D01*
X117500Y272500D02*
Y282500D01*
X317500Y83918D02*
Y85000D01*
X320000Y57500D02*
Y81418D01*
X317500Y83918D02*
X320000Y81418D01*
X87500Y296500D02*
X103500D01*
X117500Y282500D01*
X86000Y298000D02*
X87500Y296500D01*
X62500Y298000D02*
X86000D01*
X87500Y296500D02*
Y325000D01*
X93500Y459000D02*
X118232Y434268D01*
Y433232D02*
Y434268D01*
X117500Y432500D02*
X118232Y433232D01*
X87500Y459000D02*
X93500D01*
X86000Y460500D02*
X87500Y459000D01*
X62500Y460500D02*
X86000D01*
X87500Y459000D02*
Y485000D01*
Y621500D02*
Y645000D01*
X62500Y623000D02*
X86000D01*
X87500Y621500D01*
X186000Y59000D02*
X186765Y59765D01*
X175000Y56109D02*
Y82500D01*
Y56109D02*
X198813Y32296D01*
X143609Y92500D02*
X152500D01*
X131917Y80808D02*
X143609Y92500D01*
X128063Y76954D02*
X131917Y80808D01*
X123350Y76954D02*
X128063D01*
X120430Y79873D02*
X123350Y76954D01*
X116187Y79873D02*
X120430D01*
X115657Y79343D02*
X116187Y79873D01*
X135452Y77272D02*
Y77272D01*
X111969Y149345D02*
X114318D01*
X98157Y163157D02*
X111969Y149345D01*
X104343Y109343D02*
X115000Y120000D01*
X117500D01*
X100657Y109343D02*
X104343D01*
X126843Y156843D02*
X139343Y144343D01*
Y141264D02*
Y144343D01*
Y141264D02*
X156665Y123941D01*
X115202Y134798D02*
X127500Y122500D01*
X143721D02*
X149351Y116870D01*
X127500Y122500D02*
X143721D01*
X115202Y134798D02*
Y148461D01*
X140277Y119116D02*
X146059Y113335D01*
X118384Y119116D02*
X140277D01*
X146059Y113335D02*
X146059D01*
X114318Y149345D02*
X115202Y148461D01*
X149351Y116870D02*
X149594D01*
X117500Y120000D02*
X118384Y119116D01*
X152500Y135178D02*
Y153814D01*
Y135178D02*
X160201Y127477D01*
X228083Y99192D02*
X245000Y116109D01*
X192728Y45452D02*
X207523Y30657D01*
X198813Y19873D02*
X199343Y19343D01*
X198813Y19873D02*
Y32296D01*
D13*
X783500Y140000D02*
D03*
X796500D02*
D03*
X724000D02*
D03*
X711000D02*
D03*
D14*
X377500Y39500D02*
D03*
Y52500D02*
D03*
Y85500D02*
D03*
Y72500D02*
D03*
X87500Y283500D02*
D03*
Y296500D02*
D03*
Y446000D02*
D03*
Y459000D02*
D03*
Y608500D02*
D03*
Y621500D02*
D03*
D15*
X745000Y112500D02*
D03*
Y128500D02*
D03*
X62500Y298000D02*
D03*
Y282000D02*
D03*
Y444500D02*
D03*
Y460500D02*
D03*
Y623000D02*
D03*
Y607000D02*
D03*
X357500Y28000D02*
D03*
Y12000D02*
D03*
X660000Y31000D02*
D03*
Y15000D02*
D03*
D19*
X725500Y125000D02*
D03*
X709500D02*
D03*
D27*
X342500Y57375D02*
Y77500D01*
X346550Y81550D02*
X357250D01*
X342500Y77500D02*
X346550Y81550D01*
X336000Y54683D02*
X346659Y44024D01*
X356676D02*
X357250Y43450D01*
X346659Y44024D02*
X356676D01*
X336000Y54683D02*
Y78071D01*
X345979Y88050D01*
X335000Y134879D02*
Y137500D01*
X327364Y122636D02*
Y127243D01*
X335000Y134879D01*
X327364Y122636D02*
X327500Y122500D01*
X371926Y13074D02*
Y14324D01*
X358250Y28000D02*
X371926Y14324D01*
Y13074D02*
X372500Y12500D01*
X357500Y28000D02*
X358250D01*
X357250Y28250D02*
X357500Y28000D01*
X87500Y272500D02*
Y283500D01*
X745000Y128500D02*
X753500D01*
X760000Y122000D01*
X761395D01*
X783500D02*
Y140000D01*
X724000D02*
X783500D01*
X724000Y126500D02*
X725500Y125000D01*
X724000Y126500D02*
Y140000D01*
X711000Y126500D02*
Y140000D01*
X709500Y125000D02*
X711000Y126500D01*
X682500Y105000D02*
X698750Y121250D01*
X706500D02*
X709500Y124250D01*
X682500Y92500D02*
Y105000D01*
X698750Y121250D02*
X706500D01*
X709500Y124250D02*
Y125000D01*
X345979Y88050D02*
X366950D01*
X369500Y85500D02*
X377500D01*
X366950Y88050D02*
X369500Y85500D01*
X357250Y28250D02*
Y43450D01*
X87500Y435000D02*
Y446000D01*
Y600000D02*
Y608500D01*
X245000Y118000D02*
X252000Y125000D01*
Y125000D01*
X245000Y117500D02*
Y118000D01*
X101237Y136264D02*
X103736D01*
X129419Y133081D02*
X130582D01*
X130000Y175000D02*
X136843Y168157D01*
X601750Y12000D02*
X602250Y12500D01*
X625000D01*
X245000Y116109D02*
Y117500D01*
D28*
X517500Y122500D02*
X530000Y135000D01*
Y137500D01*
X495750Y122500D02*
X517500D01*
X487875Y114625D02*
X495750Y122500D01*
X483000Y57000D02*
X487875Y61875D01*
Y114625D01*
X483000Y118000D02*
X500000Y135000D01*
Y137500D01*
X367500Y107500D02*
X395000Y135000D01*
Y137500D01*
X350000Y107500D02*
X367500D01*
X361357Y126357D02*
Y133857D01*
X325000Y90000D02*
X361357Y126357D01*
X325000Y40000D02*
Y90000D01*
X361357Y133857D02*
X365000Y137500D01*
X330000Y87500D02*
X350000Y107500D01*
X330000Y37500D02*
Y87500D01*
X87500Y200000D02*
X117500D01*
X159812Y134937D02*
Y157688D01*
X117500Y200000D02*
X159812Y157688D01*
Y134937D02*
X163737Y131012D01*
X163348Y138472D02*
Y159152D01*
Y138472D02*
X167272Y134548D01*
X122500Y200000D02*
Y325000D01*
Y200000D02*
X163348Y159152D01*
X87500Y360000D02*
X122500Y325000D01*
X125000Y202500D02*
Y482500D01*
X166883Y142008D02*
Y160617D01*
X87500Y520000D02*
X125000Y482500D01*
X166883Y142008D02*
X170808Y138083D01*
X125000Y202500D02*
X166883Y160617D01*
X200000Y7500D02*
X300000D01*
X330000Y37500D01*
X245000Y12500D02*
X297500D01*
X325000Y40000D01*
X312750Y53768D02*
Y75800D01*
X307000Y81550D02*
X312750Y75800D01*
X309382Y50400D02*
X312750Y53768D01*
X483000Y65000D02*
Y118000D01*
X161465Y75000D02*
X167500D01*
X190000Y90000D02*
Y124749D01*
X182500Y124320D02*
X192728Y134548D01*
X182500Y100000D02*
Y124320D01*
X175000Y123891D02*
X189192Y138083D01*
X175000Y105000D02*
Y123891D01*
X196264Y131012D02*
Y131012D01*
X190000Y124749D02*
X196264Y131012D01*
X149594Y63130D02*
X161465Y75000D01*
X153130Y59594D02*
X153576D01*
X161482Y67500D01*
X162500D01*
X215000Y42500D02*
X245000Y12500D01*
X202751Y42500D02*
X215000D01*
X177612Y29888D02*
Y35112D01*
Y29888D02*
X200000Y7500D01*
X170808Y41917D02*
X177612Y35112D01*
X196264Y48988D02*
X202751Y42500D01*
X291605Y50345D02*
X298500Y43450D01*
X218940Y54595D02*
X291951D01*
X296146Y50400D02*
X309382D01*
X216119Y50345D02*
X291605D01*
X291951Y54595D02*
X296146Y50400D01*
X298500Y43450D02*
X302750D01*
X213941Y66666D02*
X214012D01*
X221832Y58845D01*
X294993D01*
X297688Y56150D01*
X302750D01*
X210406Y63130D02*
X218940Y54595D01*
X302750Y81550D02*
X307000D01*
X302750Y56150D02*
Y68850D01*
X206870Y59594D02*
X216119Y50345D01*
X138439Y56561D02*
Y59046D01*
Y56561D02*
X170404Y24596D01*
X138439Y59046D02*
X146059Y66666D01*
D29*
X510000Y87500D02*
D03*
Y37500D02*
D03*
X635000Y87500D02*
D03*
X865000D02*
D03*
X740000Y37500D02*
D03*
Y87500D02*
D03*
X280000D02*
D03*
Y37500D02*
D03*
X405000Y87500D02*
D03*
X87500Y645000D02*
D03*
X37500D02*
D03*
X87500Y520000D02*
D03*
Y360000D02*
D03*
X37500Y485000D02*
D03*
X87500D02*
D03*
Y200000D02*
D03*
X37500Y325000D02*
D03*
X87500D02*
D03*
D30*
X635000Y37500D02*
D03*
X865000D02*
D03*
X405000D02*
D03*
D31*
X37500Y520000D02*
D03*
Y360000D02*
D03*
Y200000D02*
D03*
D32*
X865000Y120000D02*
D03*
X605000Y122500D02*
D03*
X125000Y592500D02*
D03*
X840000Y40000D02*
D03*
X800000D02*
D03*
X760000D02*
D03*
X480000D02*
D03*
X440000D02*
D03*
X240000D02*
D03*
X120000D02*
D03*
X60000Y640000D02*
D03*
X40000Y600000D02*
D03*
X60000Y560000D02*
D03*
Y480000D02*
D03*
X40000Y440000D02*
D03*
X60000Y400000D02*
D03*
Y320000D02*
D03*
X40000Y280000D02*
D03*
X60000Y240000D02*
D03*
Y160000D02*
D03*
X652500Y102500D02*
D03*
X342500Y57375D02*
D03*
X327500Y122500D02*
D03*
X345000D02*
D03*
X452000Y53000D02*
D03*
X372500Y12500D02*
D03*
X347000Y12000D02*
D03*
X220000Y22500D02*
D03*
X187500Y7500D02*
D03*
X96000Y97000D02*
D03*
X87500Y272500D02*
D03*
X117500D02*
D03*
X378000Y30000D02*
D03*
X652500Y60000D02*
D03*
X627500D02*
D03*
X830000D02*
D03*
X772500D02*
D03*
X662500Y122500D02*
D03*
X317500Y85000D02*
D03*
X320000Y57500D02*
D03*
X87500Y435000D02*
D03*
Y600000D02*
D03*
X117500Y432500D02*
D03*
X552500Y87500D02*
D03*
Y110000D02*
D03*
X540000D02*
D03*
Y87500D02*
D03*
X252000Y125000D02*
D03*
X483000Y57000D02*
D03*
Y65000D02*
D03*
X186000Y59000D02*
D03*
X167500Y75000D02*
D03*
X190000Y90000D02*
D03*
X182500Y100000D02*
D03*
X175000Y105000D02*
D03*
Y82500D02*
D03*
X152500Y92500D02*
D03*
X162500Y67500D02*
D03*
X125000Y68000D02*
D03*
X82500Y127500D02*
D03*
X80000Y145000D02*
D03*
X109000Y128000D02*
D03*
X123000Y141000D02*
D03*
X90000Y175000D02*
D03*
X130000D02*
D03*
X625000Y12500D02*
D03*
D33*
X131917Y80808D02*
D03*
X135452Y77272D02*
D03*
X138988Y73737D02*
D03*
X142523Y70201D02*
D03*
X146059Y66666D02*
D03*
X149594Y63130D02*
D03*
X153130Y59594D02*
D03*
X156665Y56059D02*
D03*
X160201Y52523D02*
D03*
X163737Y48988D02*
D03*
X167272Y45452D02*
D03*
X170808Y41917D02*
D03*
X228083Y99192D02*
D03*
X224548Y102728D02*
D03*
X221012Y106263D02*
D03*
X217477Y109799D02*
D03*
X213941Y113335D02*
D03*
X210406Y116870D02*
D03*
X206870Y120406D02*
D03*
X203335Y123941D02*
D03*
X199799Y127477D02*
D03*
X196264Y131012D02*
D03*
X192728Y134548D02*
D03*
X189192Y138083D02*
D03*
D34*
Y41917D02*
D03*
X192728Y45452D02*
D03*
X196264Y48988D02*
D03*
X199799Y52523D02*
D03*
X203335Y56059D02*
D03*
X206870Y59594D02*
D03*
X210406Y63130D02*
D03*
X213941Y66666D02*
D03*
X217477Y70201D02*
D03*
X221012Y73737D02*
D03*
X224548Y77272D02*
D03*
X228083Y80808D02*
D03*
X170808Y138083D02*
D03*
X167272Y134548D02*
D03*
X163737Y131012D02*
D03*
X160201Y127477D02*
D03*
X156665Y123941D02*
D03*
X153130Y120406D02*
D03*
X149594Y116870D02*
D03*
X146059Y113335D02*
D03*
X142523Y109799D02*
D03*
X138988Y106264D02*
D03*
X135452Y102728D02*
D03*
X131917Y99192D02*
D03*
D35*
X428750Y72050D02*
D03*
Y53000D02*
D03*
X451610Y62525D02*
D03*
D36*
X454600Y105000D02*
D03*
X425400D02*
D03*
D37*
X138157Y168157D02*
D03*
X126843Y156843D02*
D03*
X98157Y163157D02*
D03*
X86843Y151843D02*
D03*
X150657Y155657D02*
D03*
X139343Y144343D02*
D03*
X210657Y30657D02*
D03*
X199343Y19343D02*
D03*
D38*
X683750Y17500D02*
D03*
X716250D02*
D03*
X683750Y50000D02*
D03*
X716250D02*
D03*
X811250Y117500D02*
D03*
X843750D02*
D03*
X597500Y87500D02*
D03*
X565000D02*
D03*
D39*
X357250Y81550D02*
D03*
Y68850D02*
D03*
Y56150D02*
D03*
Y43450D02*
D03*
X302750Y81550D02*
D03*
Y68850D02*
D03*
Y56150D02*
D03*
D40*
Y43450D02*
D03*
D41*
X601750Y58000D02*
D03*
Y35000D02*
D03*
Y12000D02*
D03*
D42*
X543250Y35000D02*
D03*
D43*
X807500Y82500D02*
D03*
X590000Y137500D02*
D03*
X560000D02*
D03*
X500000D02*
D03*
X530000D02*
D03*
X837500Y82500D02*
D03*
X335000Y137500D02*
D03*
X395000D02*
D03*
X365000D02*
D03*
X425000D02*
D03*
X455000D02*
D03*
D44*
X114318Y149345D02*
D03*
X130582Y133081D02*
D03*
X117500Y120000D02*
D03*
X101237Y136264D02*
D03*
D45*
X179596Y15404D02*
D03*
X170404Y24596D02*
D03*
D46*
X712500Y92500D02*
D03*
X682500D02*
D03*
D47*
X783500Y122000D02*
D03*
Y112500D02*
D03*
Y103000D02*
D03*
X761500D02*
D03*
Y112500D02*
D03*
Y122000D02*
D03*
D48*
X104343Y90657D02*
D03*
X115657Y79343D02*
D03*
X245000Y117500D02*
D03*
X233686Y128814D02*
D03*
X89343Y120657D02*
D03*
X100657Y109343D02*
D03*
D49*
X809375Y115625D02*
X811250Y117500D01*
X809375Y84375D02*
Y115625D01*
X807500Y82500D02*
X809375Y84375D01*
X800000Y117500D02*
X811250D01*
X783500Y112500D02*
X795000D01*
X800000Y117500D01*
X783500Y103000D02*
Y112500D01*
X745000D02*
X761500D01*
X712500Y92500D02*
X717500Y97500D01*
X729250D01*
X744250Y112500D01*
X745000D01*
M02*
