M48
;Layer_Color=9474304
;FILE_FORMAT=4:4
METRIC,LZ
;TYPE=PLATED
T1F00S00C0.3000
T2F00S00C1.3000
;TYPE=NON_PLATED
T3F00S00C3.0000
%
T01
X0012Y0004
X00125Y00068
X001625Y000675
X001675Y00075
X00175Y000825
X0019Y0009
X001825Y001
X00175Y00105
X001525Y000925
X00096Y00097
X00109Y00128
X00123Y00141
X0013Y00175
X0009
X0008Y00145
X000825Y001275
X0006Y0016
Y0024
X0004Y0028
X000875Y002725
X001175
X0006Y0032
X00252Y00125
X003275Y001225
X00345
X003175Y00085
X0032Y000575
X003425Y00057375
X00347Y00012
X003725Y000125
X00378Y0003
X0024Y0004
X0022Y000225
X001875Y000075
X00186Y00059
X00452Y00053
X0044Y0004
X0048
X00483Y00057
Y00065
X0054Y000875
X005525
Y0011
X0054
X00605Y001225
X006625
X006525Y001025
Y0006
X006275
X00625Y000125
X0076Y0004
X007725Y0006
X008Y0004
X0084
X0083Y0006
X00865Y0012
X001175Y004325
X000875Y00435
X0004Y0044
X0006Y0048
Y0056
X0004Y006
X000875Y006
X00125Y005925
X0006Y0064
Y004
T02
X000375Y002
X000875
Y00325
Y0036
X000375
Y00325
X0028Y000875
Y000375
X00405
Y000875
X0051
Y000375
X00635
Y000875
X0074
Y000375
X00865
Y000875
X000875Y00485
Y0052
X000375
Y00485
Y00645
X000875
T03
X0006364Y0006364
M30
