G04*
G04 #@! TF.GenerationSoftware,Altium Limited,Altium Designer,23.3.1 (30)*
G04*
G04 Layer_Color=8388736*
%FSLAX44Y44*%
%MOMM*%
G71*
G04*
G04 #@! TF.SameCoordinates,4661E280-467E-44DE-AC99-BDCEDC59311E*
G04*
G04*
G04 #@! TF.FilePolarity,Negative*
G04*
G01*
G75*
%ADD15R,1.0500X0.9000*%
%ADD18R,1.5000X1.6000*%
%ADD19R,0.9000X1.0500*%
%ADD20R,1.1500X1.0000*%
%ADD21R,1.5000X2.1000*%
%ADD22R,1.6000X1.5000*%
%ADD23C,2.0500*%
%ADD24R,2.0500X2.0500*%
%ADD25R,2.0500X2.0500*%
D15*
X715000Y81000D02*
D03*
Y94000D02*
D03*
X485000Y83500D02*
D03*
Y96500D02*
D03*
X237500Y87500D02*
D03*
Y100500D02*
D03*
X137500Y219000D02*
D03*
Y206000D02*
D03*
Y379000D02*
D03*
Y366000D02*
D03*
Y539000D02*
D03*
Y526000D02*
D03*
D18*
X812500Y137500D02*
D03*
X792500D02*
D03*
X562500D02*
D03*
X582500D02*
D03*
X352500D02*
D03*
X332500D02*
D03*
D19*
X746000D02*
D03*
X759000D02*
D03*
X529000D02*
D03*
X516000D02*
D03*
X286000D02*
D03*
X299000D02*
D03*
D20*
X700000Y79500D02*
D03*
Y95500D02*
D03*
X660000D02*
D03*
Y79500D02*
D03*
X255000Y103500D02*
D03*
Y87500D02*
D03*
D21*
X160500Y112500D02*
D03*
X124500D02*
D03*
D22*
X137500Y252500D02*
D03*
Y272500D02*
D03*
Y412500D02*
D03*
Y432500D02*
D03*
Y592500D02*
D03*
Y572500D02*
D03*
D23*
X510000Y87500D02*
D03*
Y37500D02*
D03*
X635000Y87500D02*
D03*
X865000D02*
D03*
X740000Y37500D02*
D03*
Y87500D02*
D03*
X280000D02*
D03*
Y37500D02*
D03*
X405000Y87500D02*
D03*
X87500Y645000D02*
D03*
X37500D02*
D03*
X87500Y520000D02*
D03*
Y360000D02*
D03*
X37500Y485000D02*
D03*
X87500D02*
D03*
Y200000D02*
D03*
X37500Y325000D02*
D03*
X87500D02*
D03*
D24*
X635000Y37500D02*
D03*
X865000D02*
D03*
X405000D02*
D03*
D25*
X37500Y520000D02*
D03*
Y360000D02*
D03*
Y200000D02*
D03*
M02*
